<?xml version="1.0" encoding="utf-8" standalone="no"?>
<!DOCTYPE svg PUBLIC "-//W3C//DTD SVG 1.1//EN"
  "http://www.w3.org/Graphics/SVG/1.1/DTD/svg11.dtd">
<!-- Created with matplotlib (https://matplotlib.org/) -->
<svg height="300pt" version="1.1" viewBox="0 0 500 300" width="500pt" xmlns="http://www.w3.org/2000/svg" xmlns:xlink="http://www.w3.org/1999/xlink">
 <metadata>
  <rdf:RDF xmlns:cc="http://creativecommons.org/ns#" xmlns:dc="http://purl.org/dc/elements/1.1/" xmlns:rdf="http://www.w3.org/1999/02/22-rdf-syntax-ns#">
   <cc:Work>
    <dc:type rdf:resource="http://purl.org/dc/dcmitype/StillImage"/>
    <dc:date>2021-06-13T18:19:16.428720</dc:date>
    <dc:format>image/svg+xml</dc:format>
    <dc:creator>
     <cc:Agent>
      <dc:title>Matplotlib v3.3.4, https://matplotlib.org/</dc:title>
     </cc:Agent>
    </dc:creator>
   </cc:Work>
  </rdf:RDF>
 </metadata>
 <defs>
  <style type="text/css">*{stroke-linecap:butt;stroke-linejoin:round;}</style>
 </defs>
 <g id="figure_1">
  <g id="patch_1">
   <path d="M 0 300 
L 500 300 
L 500 0 
L 0 0 
z
" style="fill:#ffffff;"/>
  </g>
  <g id="axes_1">
   <g id="patch_2">
    <path d="M 62.5 262.5 
L 450 262.5 
L 450 27 
L 62.5 27 
z
" style="fill:#ffffff;"/>
   </g>
   <g id="matplotlib.axis_1">
    <g id="xtick_1">
     <g id="line2d_1">
      <defs>
       <path d="M 0 0 
L 0 3.5 
" id="m3aa9fe21c6" style="stroke:#555555;stroke-width:0.8;"/>
      </defs>
      <g>
       <use style="fill:#555555;stroke:#555555;stroke-width:0.8;" x="62.5" xlink:href="#m3aa9fe21c6" y="262.5"/>
      </g>
     </g>
    </g>
    <g id="xtick_2">
     <g id="line2d_2">
      <g>
       <use style="fill:#555555;stroke:#555555;stroke-width:0.8;" x="77.82967" xlink:href="#m3aa9fe21c6" y="262.5"/>
      </g>
     </g>
     <g id="text_1">
      <!-- Apr -->
      <g style="fill:#555555;" transform="translate(69.960139 276.640625)scale(0.1 -0.1)">
       <defs>
        <path d="M 20.09375 29.5 
L 32.203125 62.796875 
L 32.40625 62.796875 
L 44.296875 29.5 
z
M 27.203125 71.40625 
L -0.59375 0 
L 9.09375 0 
L 17.09375 21.5 
L 47.296875 21.5 
L 55.09375 0 
L 65.59375 0 
L 37.703125 71.40625 
z
" id="HelveticaNeue-65"/>
        <path d="M 6.703125 51.703125 
L 6.703125 -19.703125 
L 15.203125 -19.703125 
L 15.203125 6.90625 
L 15.40625 6.90625 
Q 16.796875 4.59375 18.84375 3.046875 
Q 20.90625 1.5 23.203125 0.59375 
Q 25.5 -0.296875 27.84375 -0.6875 
Q 30.203125 -1.09375 32.09375 -1.09375 
Q 38 -1.09375 42.453125 1 
Q 46.90625 3.09375 49.84375 6.75 
Q 52.796875 10.40625 54.25 15.296875 
Q 55.703125 20.203125 55.703125 25.703125 
Q 55.703125 31.203125 54.203125 36.09375 
Q 52.703125 41 49.75 44.75 
Q 46.796875 48.5 42.34375 50.703125 
Q 37.90625 52.90625 31.90625 52.90625 
Q 26.5 52.90625 22 50.953125 
Q 17.5 49 15.40625 44.703125 
L 15.203125 44.703125 
L 15.203125 51.703125 
z
M 46.703125 26.296875 
Q 46.703125 22.5 45.890625 18.890625 
Q 45.09375 15.296875 43.296875 12.5 
Q 41.5 9.703125 38.546875 8 
Q 35.59375 6.296875 31.203125 6.296875 
Q 26.796875 6.296875 23.6875 7.9375 
Q 20.59375 9.59375 18.640625 12.296875 
Q 16.703125 15 15.796875 18.546875 
Q 14.90625 22.09375 14.90625 25.90625 
Q 14.90625 29.5 15.75 33 
Q 16.59375 36.5 18.5 39.25 
Q 20.40625 42 23.40625 43.703125 
Q 26.40625 45.40625 30.703125 45.40625 
Q 34.796875 45.40625 37.84375 43.796875 
Q 40.90625 42.203125 42.84375 39.5 
Q 44.796875 36.796875 45.75 33.34375 
Q 46.703125 29.90625 46.703125 26.296875 
z
" id="HelveticaNeue-112"/>
        <path d="M 6.09375 51.703125 
L 6.09375 0 
L 14.59375 0 
L 14.59375 23 
Q 14.59375 28 15.59375 31.84375 
Q 16.59375 35.703125 18.796875 38.390625 
Q 21 41.09375 24.59375 42.5 
Q 28.203125 43.90625 33.296875 43.90625 
L 33.296875 52.90625 
Q 26.40625 53.09375 21.90625 50.09375 
Q 17.40625 47.09375 14.296875 40.796875 
L 14.09375 40.796875 
L 14.09375 51.703125 
z
" id="HelveticaNeue-114"/>
       </defs>
       <use xlink:href="#HelveticaNeue-65"/>
       <use x="64.799988" xlink:href="#HelveticaNeue-112"/>
       <use x="124.099976" xlink:href="#HelveticaNeue-114"/>
      </g>
     </g>
    </g>
    <g id="xtick_3">
     <g id="line2d_3">
      <g>
       <use style="fill:#555555;stroke:#555555;stroke-width:0.8;" x="155.32967" xlink:href="#m3aa9fe21c6" y="262.5"/>
      </g>
     </g>
     <g id="text_2">
      <!-- Jul -->
      <g style="fill:#555555;" transform="translate(148.844514 276.640625)scale(0.1 -0.1)">
       <defs>
        <path d="M 44.09375 17.796875 
L 44.09375 71.40625 
L 34.59375 71.40625 
L 34.59375 19.203125 
Q 34.59375 13.296875 32.140625 9.796875 
Q 29.703125 6.296875 23.203125 6.296875 
Q 19.703125 6.296875 17.453125 7.34375 
Q 15.203125 8.40625 13.953125 10.296875 
Q 12.703125 12.203125 12.203125 14.796875 
Q 11.703125 17.40625 11.703125 20.5 
L 11.703125 23.5 
L 2.203125 23.5 
L 2.203125 19.09375 
Q 2.203125 8.90625 7.59375 3.65625 
Q 13 -1.59375 23 -1.59375 
Q 29 -1.59375 33.046875 0.046875 
Q 37.09375 1.703125 39.546875 4.453125 
Q 42 7.203125 43.046875 10.703125 
Q 44.09375 14.203125 44.09375 17.796875 
z
" id="HelveticaNeue-74"/>
        <path d="M 49.203125 0 
L 49.203125 51.703125 
L 40.703125 51.703125 
L 40.703125 22.5 
Q 40.703125 19 39.75 16.046875 
Q 38.796875 13.09375 36.890625 10.890625 
Q 35 8.703125 32.140625 7.5 
Q 29.296875 6.296875 25.40625 6.296875 
Q 20.5 6.296875 17.703125 9.09375 
Q 14.90625 11.90625 14.90625 16.703125 
L 14.90625 51.703125 
L 6.40625 51.703125 
L 6.40625 17.703125 
Q 6.40625 13.5 7.25 10.046875 
Q 8.09375 6.59375 10.1875 4.09375 
Q 12.296875 1.59375 15.6875 0.25 
Q 19.09375 -1.09375 24.203125 -1.09375 
Q 29.90625 -1.09375 34.09375 1.15625 
Q 38.296875 3.40625 41 8.203125 
L 41.203125 8.203125 
L 41.203125 0 
z
" id="HelveticaNeue-117"/>
        <path d="M 6.90625 71.40625 
L 6.90625 0 
L 15.40625 0 
L 15.40625 71.40625 
z
" id="HelveticaNeue-108"/>
       </defs>
       <use xlink:href="#HelveticaNeue-74"/>
       <use x="51.899994" xlink:href="#HelveticaNeue-117"/>
       <use x="107.499985" xlink:href="#HelveticaNeue-108"/>
      </g>
     </g>
    </g>
    <g id="xtick_4">
     <g id="line2d_4">
      <g>
       <use style="fill:#555555;stroke:#555555;stroke-width:0.8;" x="233.681319" xlink:href="#m3aa9fe21c6" y="262.5"/>
      </g>
     </g>
     <g id="text_3">
      <!-- Oct -->
      <g style="fill:#555555;" transform="translate(225.621162 276.640625)scale(0.1 -0.1)">
       <defs>
        <path d="M 13.296875 35.703125 
Q 13.296875 41.09375 14.6875 46.34375 
Q 16.09375 51.59375 19.09375 55.796875 
Q 22.09375 60 26.796875 62.546875 
Q 31.5 65.09375 38 65.09375 
Q 44.5 65.09375 49.203125 62.546875 
Q 53.90625 60 56.90625 55.796875 
Q 59.90625 51.59375 61.296875 46.34375 
Q 62.703125 41.09375 62.703125 35.703125 
Q 62.703125 30.296875 61.296875 25.046875 
Q 59.90625 19.796875 56.90625 15.59375 
Q 53.90625 11.40625 49.203125 8.84375 
Q 44.5 6.296875 38 6.296875 
Q 31.5 6.296875 26.796875 8.84375 
Q 22.09375 11.40625 19.09375 15.59375 
Q 16.09375 19.796875 14.6875 25.046875 
Q 13.296875 30.296875 13.296875 35.703125 
z
M 3.796875 35.703125 
Q 3.796875 28.40625 5.9375 21.65625 
Q 8.09375 14.90625 12.390625 9.703125 
Q 16.703125 4.5 23.09375 1.453125 
Q 29.5 -1.59375 38 -1.59375 
Q 46.5 -1.59375 52.890625 1.453125 
Q 59.296875 4.5 63.59375 9.703125 
Q 67.90625 14.90625 70.046875 21.65625 
Q 72.203125 28.40625 72.203125 35.703125 
Q 72.203125 43 70.046875 49.75 
Q 67.90625 56.5 63.59375 61.703125 
Q 59.296875 66.90625 52.890625 70 
Q 46.5 73.09375 38 73.09375 
Q 29.5 73.09375 23.09375 70 
Q 16.703125 66.90625 12.390625 61.703125 
Q 8.09375 56.5 5.9375 49.75 
Q 3.796875 43 3.796875 35.703125 
z
" id="HelveticaNeue-79"/>
        <path d="M 41.5 35.09375 
L 50.296875 35.09375 
Q 49.796875 39.703125 47.890625 43.046875 
Q 46 46.40625 43.046875 48.59375 
Q 40.09375 50.796875 36.25 51.84375 
Q 32.40625 52.90625 28 52.90625 
Q 21.90625 52.90625 17.296875 50.75 
Q 12.703125 48.59375 9.640625 44.84375 
Q 6.59375 41.09375 5.09375 36.046875 
Q 3.59375 31 3.59375 25.203125 
Q 3.59375 19.40625 5.140625 14.546875 
Q 6.703125 9.703125 9.75 6.203125 
Q 12.796875 2.703125 17.34375 0.796875 
Q 21.90625 -1.09375 27.796875 -1.09375 
Q 37.703125 -1.09375 43.453125 4.09375 
Q 49.203125 9.296875 50.59375 18.90625 
L 41.90625 18.90625 
Q 41.09375 12.90625 37.546875 9.59375 
Q 34 6.296875 27.703125 6.296875 
Q 23.703125 6.296875 20.796875 7.890625 
Q 17.90625 9.5 16.09375 12.140625 
Q 14.296875 14.796875 13.4375 18.1875 
Q 12.59375 21.59375 12.59375 25.203125 
Q 12.59375 29.09375 13.390625 32.75 
Q 14.203125 36.40625 16.046875 39.203125 
Q 17.90625 42 21 43.703125 
Q 24.09375 45.40625 28.703125 45.40625 
Q 34.09375 45.40625 37.296875 42.703125 
Q 40.5 40 41.5 35.09375 
z
" id="HelveticaNeue-99"/>
        <path d="M 18.203125 51.703125 
L 18.203125 67.203125 
L 9.703125 67.203125 
L 9.703125 51.703125 
L 0.90625 51.703125 
L 0.90625 44.203125 
L 9.703125 44.203125 
L 9.703125 11.296875 
Q 9.703125 7.703125 10.390625 5.5 
Q 11.09375 3.296875 12.546875 2.09375 
Q 14 0.90625 16.34375 0.453125 
Q 18.703125 0 22 0 
L 28.5 0 
L 28.5 7.5 
L 24.59375 7.5 
Q 22.59375 7.5 21.34375 7.640625 
Q 20.09375 7.796875 19.390625 8.296875 
Q 18.703125 8.796875 18.453125 9.6875 
Q 18.203125 10.59375 18.203125 12.09375 
L 18.203125 44.203125 
L 28.5 44.203125 
L 28.5 51.703125 
z
" id="HelveticaNeue-116"/>
       </defs>
       <use xlink:href="#HelveticaNeue-79"/>
       <use x="75.999985" xlink:href="#HelveticaNeue-99"/>
       <use x="129.699982" xlink:href="#HelveticaNeue-116"/>
      </g>
     </g>
    </g>
    <g id="xtick_5">
     <g id="line2d_5">
      <g>
       <use style="fill:#555555;stroke:#555555;stroke-width:0.8;" x="312.032967" xlink:href="#m3aa9fe21c6" y="262.5"/>
      </g>
     </g>
     <g id="text_4">
      <!-- Jan -->
      <g style="fill:#555555;" transform="translate(303.972811 276.640625)scale(0.1 -0.1)">
       <defs>
        <path d="M 52.203125 0.203125 
Q 50 -1.09375 46.09375 -1.09375 
Q 42.796875 -1.09375 40.84375 0.75 
Q 38.90625 2.59375 38.90625 6.796875 
Q 35.40625 2.59375 30.75 0.75 
Q 26.09375 -1.09375 20.703125 -1.09375 
Q 17.203125 -1.09375 14.046875 -0.296875 
Q 10.90625 0.5 8.59375 2.203125 
Q 6.296875 3.90625 4.9375 6.65625 
Q 3.59375 9.40625 3.59375 13.296875 
Q 3.59375 17.703125 5.09375 20.5 
Q 6.59375 23.296875 9.046875 25.046875 
Q 11.5 26.796875 14.640625 27.6875 
Q 17.796875 28.59375 21.09375 29.203125 
Q 24.59375 29.90625 27.75 30.25 
Q 30.90625 30.59375 33.296875 31.25 
Q 35.703125 31.90625 37.09375 33.15625 
Q 38.5 34.40625 38.5 36.796875 
Q 38.5 39.59375 37.453125 41.296875 
Q 36.40625 43 34.75 43.890625 
Q 33.09375 44.796875 31.046875 45.09375 
Q 29 45.40625 27 45.40625 
Q 21.59375 45.40625 18 43.34375 
Q 14.40625 41.296875 14.09375 35.59375 
L 5.59375 35.59375 
Q 5.796875 40.40625 7.59375 43.703125 
Q 9.40625 47 12.40625 49.046875 
Q 15.40625 51.09375 19.25 52 
Q 23.09375 52.90625 27.5 52.90625 
Q 31 52.90625 34.453125 52.40625 
Q 37.90625 51.90625 40.703125 50.34375 
Q 43.5 48.796875 45.203125 46 
Q 46.90625 43.203125 46.90625 38.703125 
L 46.90625 12.09375 
Q 46.90625 9.09375 47.25 7.6875 
Q 47.59375 6.296875 49.59375 6.296875 
Q 50.703125 6.296875 52.203125 6.796875 
z
M 38.40625 26.703125 
Q 36.796875 25.5 34.1875 24.953125 
Q 31.59375 24.40625 28.75 24.046875 
Q 25.90625 23.703125 23 23.25 
Q 20.09375 22.796875 17.796875 21.796875 
Q 15.5 20.796875 14.046875 18.9375 
Q 12.59375 17.09375 12.59375 13.90625 
Q 12.59375 11.796875 13.4375 10.34375 
Q 14.296875 8.90625 15.640625 8 
Q 17 7.09375 18.796875 6.6875 
Q 20.59375 6.296875 22.59375 6.296875 
Q 26.796875 6.296875 29.796875 7.4375 
Q 32.796875 8.59375 34.6875 10.34375 
Q 36.59375 12.09375 37.5 14.140625 
Q 38.40625 16.203125 38.40625 18 
z
" id="HelveticaNeue-97"/>
        <path d="M 6.40625 51.703125 
L 6.40625 0 
L 14.90625 0 
L 14.90625 29.203125 
Q 14.90625 32.703125 15.84375 35.640625 
Q 16.796875 38.59375 18.6875 40.796875 
Q 20.59375 43 23.4375 44.203125 
Q 26.296875 45.40625 30.203125 45.40625 
Q 35.09375 45.40625 37.890625 42.59375 
Q 40.703125 39.796875 40.703125 35 
L 40.703125 0 
L 49.203125 0 
L 49.203125 34 
Q 49.203125 38.203125 48.34375 41.640625 
Q 47.5 45.09375 45.390625 47.59375 
Q 43.296875 50.09375 39.890625 51.5 
Q 36.5 52.90625 31.40625 52.90625 
Q 19.90625 52.90625 14.59375 43.5 
L 14.40625 43.5 
L 14.40625 51.703125 
z
" id="HelveticaNeue-110"/>
       </defs>
       <use xlink:href="#HelveticaNeue-74"/>
       <use x="51.899994" xlink:href="#HelveticaNeue-97"/>
       <use x="105.599991" xlink:href="#HelveticaNeue-110"/>
      </g>
      <!-- 2021 -->
      <g style="fill:#555555;" transform="translate(300.914217 287.179688)scale(0.1 -0.1)">
       <defs>
        <path d="M 4.40625 45.796875 
L 12.90625 45.796875 
Q 12.796875 49 13.546875 52.140625 
Q 14.296875 55.296875 16 57.796875 
Q 17.703125 60.296875 20.34375 61.84375 
Q 23 63.40625 26.703125 63.40625 
Q 29.5 63.40625 32 62.5 
Q 34.5 61.59375 36.34375 59.890625 
Q 38.203125 58.203125 39.296875 55.84375 
Q 40.40625 53.5 40.40625 50.59375 
Q 40.40625 46.90625 39.25 44.09375 
Q 38.09375 41.296875 35.84375 38.890625 
Q 33.59375 36.5 30.1875 34.140625 
Q 26.796875 31.796875 22.296875 29 
Q 18.59375 26.796875 15.1875 24.296875 
Q 11.796875 21.796875 9.09375 18.5 
Q 6.40625 15.203125 4.65625 10.75 
Q 2.90625 6.296875 2.40625 0 
L 48.703125 0 
L 48.703125 7.5 
L 12.296875 7.5 
Q 12.90625 10.796875 14.84375 13.34375 
Q 16.796875 15.90625 19.546875 18.09375 
Q 22.296875 20.296875 25.59375 22.25 
Q 28.90625 24.203125 32.203125 26.203125 
Q 35.5 28.296875 38.59375 30.59375 
Q 41.703125 32.90625 44.09375 35.75 
Q 46.5 38.59375 47.953125 42.1875 
Q 49.40625 45.796875 49.40625 50.5 
Q 49.40625 55.5 47.65625 59.296875 
Q 45.90625 63.09375 42.90625 65.640625 
Q 39.90625 68.203125 35.84375 69.546875 
Q 31.796875 70.90625 27.203125 70.90625 
Q 21.59375 70.90625 17.1875 69 
Q 12.796875 67.09375 9.84375 63.75 
Q 6.90625 60.40625 5.5 55.796875 
Q 4.09375 51.203125 4.40625 45.796875 
z
" id="HelveticaNeue-50"/>
        <path d="M 13.203125 34.90625 
Q 13.203125 37.5 13.25 40.640625 
Q 13.296875 43.796875 13.75 46.9375 
Q 14.203125 50.09375 15.046875 53.09375 
Q 15.90625 56.09375 17.546875 58.34375 
Q 19.203125 60.59375 21.703125 62 
Q 24.203125 63.40625 27.796875 63.40625 
Q 31.40625 63.40625 33.90625 62 
Q 36.40625 60.59375 38.046875 58.34375 
Q 39.703125 56.09375 40.546875 53.09375 
Q 41.40625 50.09375 41.84375 46.9375 
Q 42.296875 43.796875 42.34375 40.640625 
Q 42.40625 37.5 42.40625 34.90625 
Q 42.40625 30.90625 42.15625 25.953125 
Q 41.90625 21 40.546875 16.640625 
Q 39.203125 12.296875 36.203125 9.296875 
Q 33.203125 6.296875 27.796875 6.296875 
Q 22.40625 6.296875 19.40625 9.296875 
Q 16.40625 12.296875 15.046875 16.640625 
Q 13.703125 21 13.453125 25.953125 
Q 13.203125 30.90625 13.203125 34.90625 
z
M 4.203125 34.796875 
Q 4.203125 30.90625 4.390625 26.703125 
Q 4.59375 22.5 5.390625 18.5 
Q 6.203125 14.5 7.703125 10.953125 
Q 9.203125 7.40625 11.796875 4.703125 
Q 14.40625 2 18.34375 0.453125 
Q 22.296875 -1.09375 27.796875 -1.09375 
Q 33.40625 -1.09375 37.296875 0.453125 
Q 41.203125 2 43.796875 4.703125 
Q 46.40625 7.40625 47.90625 10.953125 
Q 49.40625 14.5 50.203125 18.5 
Q 51 22.5 51.203125 26.703125 
Q 51.40625 30.90625 51.40625 34.796875 
Q 51.40625 38.703125 51.203125 42.890625 
Q 51 47.09375 50.203125 51.09375 
Q 49.40625 55.09375 47.90625 58.6875 
Q 46.40625 62.296875 43.796875 65 
Q 41.203125 67.703125 37.25 69.296875 
Q 33.296875 70.90625 27.796875 70.90625 
Q 22.296875 70.90625 18.34375 69.296875 
Q 14.40625 67.703125 11.796875 65 
Q 9.203125 62.296875 7.703125 58.6875 
Q 6.203125 55.09375 5.390625 51.09375 
Q 4.59375 47.09375 4.390625 42.890625 
Q 4.203125 38.703125 4.203125 34.796875 
z
" id="HelveticaNeue-48"/>
        <path d="M 35.59375 0 
L 35.59375 70.90625 
L 29.09375 70.90625 
Q 28.40625 66.90625 26.5 64.296875 
Q 24.59375 61.703125 21.84375 60.203125 
Q 19.09375 58.703125 15.6875 58.140625 
Q 12.296875 57.59375 8.703125 57.59375 
L 8.703125 50.796875 
L 27.09375 50.796875 
L 27.09375 0 
z
" id="HelveticaNeue-49"/>
       </defs>
       <use xlink:href="#HelveticaNeue-50"/>
       <use x="55.599991" xlink:href="#HelveticaNeue-48"/>
       <use x="111.199982" xlink:href="#HelveticaNeue-50"/>
       <use x="166.799973" xlink:href="#HelveticaNeue-49"/>
      </g>
     </g>
    </g>
    <g id="xtick_6">
     <g id="line2d_6">
      <g>
       <use style="fill:#555555;stroke:#555555;stroke-width:0.8;" x="388.681319" xlink:href="#m3aa9fe21c6" y="262.5"/>
      </g>
     </g>
     <g id="text_5">
      <!-- Apr -->
      <g style="fill:#555555;" transform="translate(380.811787 276.640625)scale(0.1 -0.1)">
       <use xlink:href="#HelveticaNeue-65"/>
       <use x="64.799988" xlink:href="#HelveticaNeue-112"/>
       <use x="124.099976" xlink:href="#HelveticaNeue-114"/>
      </g>
     </g>
    </g>
    <g id="xtick_7">
     <g id="line2d_7">
      <g>
       <use style="fill:#555555;stroke:#555555;stroke-width:0.8;" x="450" xlink:href="#m3aa9fe21c6" y="262.5"/>
      </g>
     </g>
    </g>
    <g id="xtick_8">
     <g id="line2d_8">
      <defs>
       <path d="M 0 0 
L 0 2 
" id="m773a6fc622" style="stroke:#555555;stroke-width:0.6;"/>
      </defs>
      <g>
       <use style="fill:#555555;stroke:#555555;stroke-width:0.6;" x="103.379121" xlink:href="#m773a6fc622" y="262.5"/>
      </g>
     </g>
    </g>
    <g id="xtick_9">
     <g id="line2d_9">
      <g>
       <use style="fill:#555555;stroke:#555555;stroke-width:0.6;" x="129.78022" xlink:href="#m773a6fc622" y="262.5"/>
      </g>
     </g>
    </g>
    <g id="xtick_10">
     <g id="line2d_10">
      <g>
       <use style="fill:#555555;stroke:#555555;stroke-width:0.6;" x="181.730769" xlink:href="#m773a6fc622" y="262.5"/>
      </g>
     </g>
    </g>
    <g id="xtick_11">
     <g id="line2d_11">
      <g>
       <use style="fill:#555555;stroke:#555555;stroke-width:0.6;" x="208.131868" xlink:href="#m773a6fc622" y="262.5"/>
      </g>
     </g>
    </g>
    <g id="xtick_12">
     <g id="line2d_12">
      <g>
       <use style="fill:#555555;stroke:#555555;stroke-width:0.6;" x="260.082418" xlink:href="#m773a6fc622" y="262.5"/>
      </g>
     </g>
    </g>
    <g id="xtick_13">
     <g id="line2d_13">
      <g>
       <use style="fill:#555555;stroke:#555555;stroke-width:0.6;" x="285.631868" xlink:href="#m773a6fc622" y="262.5"/>
      </g>
     </g>
    </g>
    <g id="xtick_14">
     <g id="line2d_14">
      <g>
       <use style="fill:#555555;stroke:#555555;stroke-width:0.6;" x="338.434066" xlink:href="#m773a6fc622" y="262.5"/>
      </g>
     </g>
    </g>
    <g id="xtick_15">
     <g id="line2d_15">
      <g>
       <use style="fill:#555555;stroke:#555555;stroke-width:0.6;" x="362.28022" xlink:href="#m773a6fc622" y="262.5"/>
      </g>
     </g>
    </g>
    <g id="xtick_16">
     <g id="line2d_16">
      <g>
       <use style="fill:#555555;stroke:#555555;stroke-width:0.6;" x="414.230769" xlink:href="#m773a6fc622" y="262.5"/>
      </g>
     </g>
    </g>
    <g id="xtick_17">
     <g id="line2d_17">
      <g>
       <use style="fill:#555555;stroke:#555555;stroke-width:0.6;" x="440.631868" xlink:href="#m773a6fc622" y="262.5"/>
      </g>
     </g>
    </g>
    <g id="text_6">
     <!-- fecha -->
     <g style="fill:#555555;" transform="translate(243.935156 300.290625)scale(0.1 -0.1)">
      <defs>
       <path d="M 9.90625 44.203125 
L 9.90625 0 
L 18.40625 0 
L 18.40625 44.203125 
L 28.40625 44.203125 
L 28.40625 51.703125 
L 18.40625 51.703125 
L 18.40625 58.90625 
Q 18.40625 62.296875 20.09375 63.5 
Q 21.796875 64.703125 24.90625 64.703125 
Q 26 64.703125 27.296875 64.546875 
Q 28.59375 64.40625 29.703125 64 
L 29.703125 71.40625 
Q 28.5 71.796875 26.953125 72 
Q 25.40625 72.203125 24.203125 72.203125 
Q 17.203125 72.203125 13.546875 68.953125 
Q 9.90625 65.703125 9.90625 59.40625 
L 9.90625 51.703125 
L 1.203125 51.703125 
L 1.203125 44.203125 
z
" id="HelveticaNeue-102"/>
       <path d="M 42.296875 30.796875 
L 12.59375 30.796875 
Q 12.796875 33.796875 13.890625 36.4375 
Q 15 39.09375 16.890625 41.09375 
Q 18.796875 43.09375 21.4375 44.25 
Q 24.09375 45.40625 27.40625 45.40625 
Q 30.59375 45.40625 33.25 44.25 
Q 35.90625 43.09375 37.84375 41.140625 
Q 39.796875 39.203125 40.9375 36.5 
Q 42.09375 33.796875 42.296875 30.796875 
z
M 50.5 16.40625 
L 42.09375 16.40625 
Q 41 11.296875 37.546875 8.796875 
Q 34.09375 6.296875 28.703125 6.296875 
Q 24.5 6.296875 21.390625 7.6875 
Q 18.296875 9.09375 16.296875 11.4375 
Q 14.296875 13.796875 13.390625 16.84375 
Q 12.5 19.90625 12.59375 23.296875 
L 51.296875 23.296875 
Q 51.5 28 50.453125 33.203125 
Q 49.40625 38.40625 46.65625 42.796875 
Q 43.90625 47.203125 39.34375 50.046875 
Q 34.796875 52.90625 27.90625 52.90625 
Q 22.59375 52.90625 18.140625 50.90625 
Q 13.703125 48.90625 10.453125 45.296875 
Q 7.203125 41.703125 5.390625 36.796875 
Q 3.59375 31.90625 3.59375 26 
Q 3.796875 20.09375 5.34375 15.09375 
Q 6.90625 10.09375 10 6.5 
Q 13.09375 2.90625 17.640625 0.90625 
Q 22.203125 -1.09375 28.40625 -1.09375 
Q 37.203125 -1.09375 43 3.296875 
Q 48.796875 7.703125 50.5 16.40625 
z
" id="HelveticaNeue-101"/>
       <path d="M 6.40625 71.40625 
L 6.40625 0 
L 14.90625 0 
L 14.90625 29.203125 
Q 14.90625 32.703125 15.84375 35.640625 
Q 16.796875 38.59375 18.6875 40.796875 
Q 20.59375 43 23.4375 44.203125 
Q 26.296875 45.40625 30.203125 45.40625 
Q 35.09375 45.40625 37.890625 42.59375 
Q 40.703125 39.796875 40.703125 35 
L 40.703125 0 
L 49.203125 0 
L 49.203125 34 
Q 49.203125 38.203125 48.34375 41.640625 
Q 47.5 45.09375 45.390625 47.59375 
Q 43.296875 50.09375 39.890625 51.5 
Q 36.5 52.90625 31.40625 52.90625 
Q 29.09375 52.90625 26.640625 52.40625 
Q 24.203125 51.90625 21.953125 50.84375 
Q 19.703125 49.796875 17.890625 48.140625 
Q 16.09375 46.5 15.09375 44.09375 
L 14.90625 44.09375 
L 14.90625 71.40625 
z
" id="HelveticaNeue-104"/>
      </defs>
      <use xlink:href="#HelveticaNeue-102"/>
      <use x="29.599991" xlink:href="#HelveticaNeue-101"/>
      <use x="83.299988" xlink:href="#HelveticaNeue-99"/>
      <use x="136.999985" xlink:href="#HelveticaNeue-104"/>
      <use x="192.599976" xlink:href="#HelveticaNeue-97"/>
     </g>
    </g>
   </g>
   <g id="matplotlib.axis_2">
    <g id="ytick_1">
     <g id="line2d_18">
      <defs>
       <path d="M 0 0 
L -3.5 0 
" id="m8d9874ba4d" style="stroke:#555555;stroke-width:0.8;"/>
      </defs>
      <g>
       <use style="fill:#555555;stroke:#555555;stroke-width:0.8;" x="62.5" xlink:href="#m8d9874ba4d" y="251.870614"/>
      </g>
     </g>
     <g id="text_7">
      <!-- 0 -->
      <g style="fill:#555555;" transform="translate(49.940625 255.440926)scale(0.1 -0.1)">
       <use xlink:href="#HelveticaNeue-48"/>
      </g>
     </g>
    </g>
    <g id="ytick_2">
     <g id="line2d_19">
      <g>
       <use style="fill:#555555;stroke:#555555;stroke-width:0.8;" x="62.5" xlink:href="#m8d9874ba4d" y="214.291026"/>
      </g>
     </g>
     <g id="text_8">
      <!-- 2000 -->
      <g style="fill:#555555;" transform="translate(33.2625 217.861339)scale(0.1 -0.1)">
       <use xlink:href="#HelveticaNeue-50"/>
       <use x="55.599991" xlink:href="#HelveticaNeue-48"/>
       <use x="111.199982" xlink:href="#HelveticaNeue-48"/>
       <use x="166.799973" xlink:href="#HelveticaNeue-48"/>
      </g>
     </g>
    </g>
    <g id="ytick_3">
     <g id="line2d_20">
      <g>
       <use style="fill:#555555;stroke:#555555;stroke-width:0.8;" x="62.5" xlink:href="#m8d9874ba4d" y="176.711439"/>
      </g>
     </g>
     <g id="text_9">
      <!-- 4000 -->
      <g style="fill:#555555;" transform="translate(33.2625 180.281752)scale(0.1 -0.1)">
       <defs>
        <path d="M 33.90625 24.09375 
L 10.09375 24.09375 
L 33.703125 58.796875 
L 33.90625 58.796875 
z
M 41.90625 24.09375 
L 41.90625 70.90625 
L 35.09375 70.90625 
L 2.796875 24.796875 
L 2.796875 16.59375 
L 33.90625 16.59375 
L 33.90625 0 
L 41.90625 0 
L 41.90625 16.59375 
L 51.5 16.59375 
L 51.5 24.09375 
z
" id="HelveticaNeue-52"/>
       </defs>
       <use xlink:href="#HelveticaNeue-52"/>
       <use x="55.599991" xlink:href="#HelveticaNeue-48"/>
       <use x="111.199982" xlink:href="#HelveticaNeue-48"/>
       <use x="166.799973" xlink:href="#HelveticaNeue-48"/>
      </g>
     </g>
    </g>
    <g id="ytick_4">
     <g id="line2d_21">
      <g>
       <use style="fill:#555555;stroke:#555555;stroke-width:0.8;" x="62.5" xlink:href="#m8d9874ba4d" y="139.131852"/>
      </g>
     </g>
     <g id="text_10">
      <!-- 6000 -->
      <g style="fill:#555555;" transform="translate(33.2625 142.702164)scale(0.1 -0.1)">
       <defs>
        <path d="M 41.40625 52.796875 
L 49.90625 52.796875 
Q 49.09375 61.59375 43.890625 66.25 
Q 38.703125 70.90625 29.90625 70.90625 
Q 22.296875 70.90625 17.296875 67.703125 
Q 12.296875 64.5 9.296875 59.203125 
Q 6.296875 53.90625 5.046875 47.046875 
Q 3.796875 40.203125 3.796875 32.90625 
Q 3.796875 27.296875 4.640625 21.296875 
Q 5.5 15.296875 8.09375 10.296875 
Q 10.703125 5.296875 15.5 2.09375 
Q 20.296875 -1.09375 28.203125 -1.09375 
Q 34.90625 -1.09375 39.453125 1.15625 
Q 44 3.40625 46.75 6.84375 
Q 49.5 10.296875 50.703125 14.5 
Q 51.90625 18.703125 51.90625 22.59375 
Q 51.90625 27.5 50.40625 31.703125 
Q 48.90625 35.90625 46.15625 39 
Q 43.40625 42.09375 39.34375 43.84375 
Q 35.296875 45.59375 30.203125 45.59375 
Q 24.40625 45.59375 19.953125 43.390625 
Q 15.5 41.203125 12.5 36.296875 
L 12.296875 36.5 
Q 12.40625 40.59375 13.09375 45.296875 
Q 13.796875 50 15.640625 54.046875 
Q 17.5 58.09375 20.796875 60.75 
Q 24.09375 63.40625 29.5 63.40625 
Q 34.59375 63.40625 37.6875 60.5 
Q 40.796875 57.59375 41.40625 52.796875 
z
M 28.59375 38.09375 
Q 32.203125 38.09375 34.890625 36.796875 
Q 37.59375 35.5 39.390625 33.34375 
Q 41.203125 31.203125 42.046875 28.25 
Q 42.90625 25.296875 42.90625 22 
Q 42.90625 18.90625 41.953125 16.046875 
Q 41 13.203125 39.203125 11 
Q 37.40625 8.796875 34.75 7.546875 
Q 32.09375 6.296875 28.59375 6.296875 
Q 25.09375 6.296875 22.34375 7.546875 
Q 19.59375 8.796875 17.75 10.890625 
Q 15.90625 13 14.90625 15.890625 
Q 13.90625 18.796875 13.90625 22.09375 
Q 13.90625 25.40625 14.84375 28.34375 
Q 15.796875 31.296875 17.6875 33.4375 
Q 19.59375 35.59375 22.296875 36.84375 
Q 25 38.09375 28.59375 38.09375 
z
" id="HelveticaNeue-54"/>
       </defs>
       <use xlink:href="#HelveticaNeue-54"/>
       <use x="55.599991" xlink:href="#HelveticaNeue-48"/>
       <use x="111.199982" xlink:href="#HelveticaNeue-48"/>
       <use x="166.799973" xlink:href="#HelveticaNeue-48"/>
      </g>
     </g>
    </g>
    <g id="ytick_5">
     <g id="line2d_22">
      <g>
       <use style="fill:#555555;stroke:#555555;stroke-width:0.8;" x="62.5" xlink:href="#m8d9874ba4d" y="101.552264"/>
      </g>
     </g>
     <g id="text_11">
      <!-- 8000 -->
      <g style="fill:#555555;" transform="translate(33.2625 105.122577)scale(0.1 -0.1)">
       <defs>
        <path d="M 15.5 52.5 
Q 15.5 55.203125 16.5 57.203125 
Q 17.5 59.203125 19.140625 60.59375 
Q 20.796875 62 23.09375 62.703125 
Q 25.40625 63.40625 27.90625 63.40625 
Q 33.09375 63.40625 36.4375 60.65625 
Q 39.796875 57.90625 39.796875 52.5 
Q 39.796875 47.09375 36.5 44.09375 
Q 33.203125 41.09375 28.09375 41.09375 
Q 25.5 41.09375 23.203125 41.796875 
Q 20.90625 42.5 19.203125 43.890625 
Q 17.5 45.296875 16.5 47.4375 
Q 15.5 49.59375 15.5 52.5 
z
M 6.5 52.796875 
Q 6.5 48 9.203125 43.953125 
Q 11.90625 39.90625 16.40625 38.09375 
Q 10.40625 36 7.203125 31.34375 
Q 4 26.703125 4 20.40625 
Q 4 15 5.84375 10.953125 
Q 7.703125 6.90625 10.953125 4.203125 
Q 14.203125 1.5 18.59375 0.203125 
Q 23 -1.09375 28.09375 -1.09375 
Q 33 -1.09375 37.296875 0.296875 
Q 41.59375 1.703125 44.75 4.453125 
Q 47.90625 7.203125 49.75 11.203125 
Q 51.59375 15.203125 51.59375 20.40625 
Q 51.59375 27 48.5 31.546875 
Q 45.40625 36.09375 39 38.09375 
Q 43.5 40.09375 46.140625 44.046875 
Q 48.796875 48 48.796875 52.796875 
Q 48.796875 56.203125 47.59375 59.453125 
Q 46.40625 62.703125 43.84375 65.25 
Q 41.296875 67.796875 37.1875 69.34375 
Q 33.09375 70.90625 27.296875 70.90625 
Q 23.203125 70.90625 19.453125 69.703125 
Q 15.703125 68.5 12.796875 66.203125 
Q 9.90625 63.90625 8.203125 60.546875 
Q 6.5 57.203125 6.5 52.796875 
z
M 13 20 
Q 13 23.09375 14.140625 25.59375 
Q 15.296875 28.09375 17.34375 29.890625 
Q 19.40625 31.703125 22.15625 32.640625 
Q 24.90625 33.59375 28 33.59375 
Q 31 33.59375 33.640625 32.546875 
Q 36.296875 31.5 38.296875 29.703125 
Q 40.296875 27.90625 41.4375 25.453125 
Q 42.59375 23 42.59375 20.09375 
Q 42.59375 17.09375 41.546875 14.59375 
Q 40.5 12.09375 38.546875 10.25 
Q 36.59375 8.40625 33.9375 7.34375 
Q 31.296875 6.296875 28.09375 6.296875 
Q 21.5 6.296875 17.25 9.9375 
Q 13 13.59375 13 20 
z
" id="HelveticaNeue-56"/>
       </defs>
       <use xlink:href="#HelveticaNeue-56"/>
       <use x="55.599991" xlink:href="#HelveticaNeue-48"/>
       <use x="111.199982" xlink:href="#HelveticaNeue-48"/>
       <use x="166.799973" xlink:href="#HelveticaNeue-48"/>
      </g>
     </g>
    </g>
    <g id="ytick_6">
     <g id="line2d_23">
      <g>
       <use style="fill:#555555;stroke:#555555;stroke-width:0.8;" x="62.5" xlink:href="#m8d9874ba4d" y="63.972677"/>
      </g>
     </g>
     <g id="text_12">
      <!-- 10000 -->
      <g style="fill:#555555;" transform="translate(27.703125 67.54299)scale(0.1 -0.1)">
       <use xlink:href="#HelveticaNeue-49"/>
       <use x="55.599991" xlink:href="#HelveticaNeue-48"/>
       <use x="111.199982" xlink:href="#HelveticaNeue-48"/>
       <use x="166.799973" xlink:href="#HelveticaNeue-48"/>
       <use x="222.399963" xlink:href="#HelveticaNeue-48"/>
      </g>
     </g>
    </g>
   </g>
   <g id="line2d_24">
    <path clip-path="url(#p590ccc6560)" d="M 63.351648 251.682716 
L 65.054945 251.739085 
L 66.758242 251.720295 
L 67.60989 251.363289 
L 68.461538 251.776665 
L 69.313187 251.795455 
L 70.164835 251.32571 
L 71.016484 251.100232 
L 71.868132 251.607557 
L 72.71978 251.739085 
L 73.571429 251.156602 
L 75.274725 251.250551 
L 76.126374 250.837175 
L 76.978022 251.119022 
L 77.82967 250.34864 
L 78.681319 250.592908 
L 79.532967 251.043863 
L 80.384615 249.916475 
L 81.236264 251.30692 
L 82.087912 250.912334 
L 82.93956 250.292271 
L 83.791209 249.427941 
L 84.642857 251.194181 
L 85.494505 250.217112 
L 86.346154 251.043863 
L 87.197802 251.513608 
L 88.049451 251.419659 
L 89.752747 250.968704 
L 90.604396 251.062653 
L 91.456044 250.762016 
L 93.159341 249.634628 
L 94.010989 250.38622 
L 94.862637 250.480169 
L 95.714286 250.292271 
L 96.565934 250.987493 
L 97.417582 248.507241 
L 98.269231 250.198322 
L 99.120879 250.141953 
L 99.972527 249.897685 
L 100.824176 250.668067 
L 101.675824 249.371571 
L 102.527473 250.198322 
L 103.379121 249.108514 
L 104.230769 250.536538 
L 105.082418 249.766157 
L 105.934066 249.48431 
L 106.785714 248.244184 
L 107.637363 248.112655 
L 108.489011 249.427941 
L 109.340659 247.64291 
L 110.192308 247.924757 
L 111.043956 249.48431 
L 111.895604 249.052145 
L 112.747253 247.022847 
L 113.598901 249.578259 
L 114.450549 247.943547 
L 115.302198 249.709787 
L 116.153846 246.647051 
L 117.857143 248.169024 
L 118.708791 247.812018 
L 119.56044 247.116796 
L 120.412088 249.578259 
L 121.263736 246.609471 
L 122.115385 244.692913 
L 122.967033 247.417433 
L 123.818681 248.56361 
L 124.67033 245.200237 
L 125.521978 246.139727 
L 126.373626 242.663615 
L 127.225275 240.070623 
L 128.076923 242.889092 
L 128.928571 245.294186 
L 129.78022 244.674123 
L 130.631868 244.8996 
L 131.483516 242.362978 
L 132.335165 241.818074 
L 133.186813 244.317117 
L 134.038462 244.805651 
L 134.89011 245.933039 
L 135.741758 243.603105 
L 136.593407 244.730492 
L 137.445055 243.9789 
L 138.296703 244.223168 
L 139.148352 244.279537 
L 140 242.137501 
L 140.851648 240.991323 
L 141.703297 244.95597 
L 142.554945 243.697053 
L 143.406593 241.498648 
L 145.10989 232.329228 
L 145.961538 241.968392 
L 146.813187 234.189418 
L 147.664835 236.237505 
L 148.516484 235.579863 
L 149.368132 233.832412 
L 150.21978 228.007576 
L 151.071429 234.959799 
L 151.923077 222.333058 
L 152.774725 236.613301 
L 153.626374 225.696431 
L 154.478022 238.435911 
L 155.32967 225.602482 
L 156.181319 227.349933 
L 157.032967 225.546113 
L 157.884615 230.581777 
L 158.736264 227.706939 
L 159.587912 231.577637 
L 160.43956 221.769364 
L 161.291209 224.024139 
L 162.142857 221.731785 
L 162.994505 201.063012 
L 163.846154 205.253136 
L 164.697802 212.1302 
L 165.549451 221.22446 
L 166.401099 217.147075 
L 167.252747 215.77542 
L 168.104396 218.593889 
L 168.956044 212.205359 
L 169.807692 223.911401 
L 170.659341 197.962696 
L 171.510989 208.090394 
L 172.362637 209.40568 
L 174.065934 181.390098 
L 174.917582 190.070982 
L 175.769231 189.995823 
L 176.620879 194.86238 
L 177.472527 202.265558 
L 178.324176 166.320683 
L 180.027473 195.200596 
L 180.879121 182.010161 
L 181.730769 201.119381 
L 182.582418 165.68183 
L 183.434066 208.578929 
L 184.285714 209.330521 
L 185.989011 137.910515 
L 186.840659 202.509826 
L 187.692308 186.369393 
L 188.543956 188.173213 
L 189.395604 188.342321 
L 190.247253 158.673237 
L 191.098901 174.400294 
L 191.950549 179.736596 
L 192.802198 167.185014 
L 193.653846 172.577684 
L 194.505495 165.042977 
L 195.357143 188.49264 
L 196.208791 164.422914 
L 197.06044 157.639798 
L 197.912088 191.461427 
L 198.763736 209.875425 
L 199.615385 171.713354 
L 200.467033 211.040392 
L 201.318681 168.669407 
L 202.17033 205.159187 
L 203.021978 173.479595 
L 203.873626 204.651862 
L 204.725275 210.777335 
L 205.576923 189.150282 
L 206.428571 217.147075 
L 207.28022 213.351537 
L 208.131868 208.034025 
L 208.983516 195.087857 
L 209.835165 196.816518 
L 210.686813 211.26587 
L 211.538462 218.330832 
L 212.39011 206.380523 
L 213.241758 213.840071 
L 214.093407 212.017461 
L 214.945055 209.086254 
L 215.796703 212.355678 
L 216.648352 218.161724 
L 217.5 213.840071 
L 218.351648 215.174147 
L 219.203297 219.589748 
L 220.054945 224.794521 
L 220.906593 223.94898 
L 221.758242 208.766827 
L 222.60989 224.381146 
L 223.461538 218.142934 
L 224.313187 217.541661 
L 225.164835 215.136567 
L 226.016484 217.241024 
L 226.868132 222.483376 
L 227.71978 226.936558 
L 228.571429 222.765223 
L 229.423077 206.812688 
L 230.274725 227.124455 
L 231.126374 227.575411 
L 231.978022 223.159809 
L 232.82967 213.689753 
L 233.681319 227.049296 
L 234.532967 224.456305 
L 235.384615 222.784013 
L 236.236264 226.598341 
L 237.087912 214.103128 
L 237.93956 206.624791 
L 238.791209 208.954725 
L 239.642857 228.251843 
L 240.494505 213.727333 
L 241.346154 223.892611 
L 242.197802 223.04707 
L 243.049451 232.667445 
L 243.901099 224.437515 
L 244.752747 229.116174 
L 245.604396 225.320635 
L 246.456044 231.765534 
L 247.307692 222.520956 
L 248.159341 222.239109 
L 249.010989 233.06203 
L 249.862637 222.877962 
L 250.714286 203.825111 
L 251.565934 208.635298 
L 252.417582 222.877962 
L 253.269231 204.294856 
L 254.120879 228.195474 
L 254.972527 229.360441 
L 255.824176 217.297393 
L 256.675824 219.138793 
L 257.527473 196.384353 
L 258.379121 218.612679 
L 259.230769 210.589437 
L 260.082418 225.79038 
L 260.934066 225.433374 
L 261.785714 224.512674 
L 263.489011 210.270011 
L 264.340659 209.969374 
L 265.192308 220.905034 
L 266.043956 228.477321 
L 266.895604 222.220319 
L 267.747253 221.543887 
L 268.598901 211.810774 
L 269.450549 210.495488 
L 270.302198 224.681782 
L 271.153846 218.669048 
L 272.005495 234.095469 
L 272.857143 229.604708 
L 273.708791 222.295478 
L 274.56044 206.624791 
L 275.412088 215.869369 
L 276.263736 215.77542 
L 277.115385 234.92222 
L 277.967033 203.242628 
L 278.818681 238.58623 
L 279.67033 208.54135 
L 280.521978 211.472557 
L 281.373626 199.804095 
L 282.225275 203.618424 
L 283.076923 206.155046 
L 283.928571 216.170006 
L 284.78022 228.646429 
L 285.631868 215.906949 
L 286.483516 201.438808 
L 287.335165 199.108873 
L 288.186813 222.596115 
L 289.038462 192.494866 
L 289.89011 219.777646 
L 290.741758 218.687838 
L 291.593407 201.532756 
L 292.445055 225.77159 
L 294.148352 193.208878 
L 295 200.405369 
L 295.851648 204.85855 
L 296.703297 214.704402 
L 297.554945 175.75316 
L 298.406593 197.53053 
L 299.258242 175.602841 
L 300.10989 193.03977 
L 300.961538 173.799021 
L 301.813187 194.355055 
L 302.664835 229.041014 
L 303.516484 187.271303 
L 304.368132 153.956999 
L 306.071429 172.652844 
L 306.923077 214.779561 
L 307.774725 192.964611 
L 308.626374 208.654088 
L 309.478022 163.389475 
L 310.32967 158.804766 
L 311.181319 134.584722 
L 312.884615 214.159498 
L 313.736264 196.234035 
L 314.587912 157.752537 
L 315.43956 152.359866 
L 316.291209 143.058919 
L 317.142857 150.950632 
L 317.994505 137.121344 
L 318.846154 135.449052 
L 319.697802 171.224819 
L 320.549451 169.984693 
L 321.401099 195.444863 
L 322.252747 163.351896 
L 323.104396 107.001305 
L 323.956044 93.228386 
L 324.807692 164.009539 
L 325.659341 153.581203 
L 326.510989 178.665578 
L 327.362637 139.338539 
L 328.214286 145.257324 
L 329.065934 175.508892 
L 329.917582 137.760197 
L 330.769231 146.798088 
L 331.620879 176.147745 
L 332.472527 176.899337 
L 333.324176 190.465568 
L 334.175824 184.452834 
L 335.879121 200.649636 
L 336.730769 206.68116 
L 337.582418 183.87035 
L 338.434066 207.432752 
L 339.285714 194.618112 
L 340.137363 194.712061 
L 340.989011 190.559517 
L 341.840659 216.921597 
L 342.692308 214.685612 
L 343.543956 222.596115 
L 344.395604 233.926361 
L 345.247253 227.312353 
L 346.098901 223.441656 
L 346.950549 219.007265 
L 347.802198 220.679556 
L 348.653846 227.199615 
L 349.505495 230.130822 
L 350.357143 232.329228 
L 351.208791 226.241335 
L 352.06044 200.706006 
L 352.912088 228.439741 
L 353.763736 230.788465 
L 354.615385 231.483688 
L 355.467033 230.469039 
L 356.318681 230.976363 
L 357.17033 234.264577 
L 358.021978 229.078594 
L 358.873626 232.21649 
L 359.725275 234.659163 
L 360.576923 232.573496 
L 361.428571 237.045467 
L 362.28022 238.56744 
L 363.131868 234.546424 
L 363.983516 235.673812 
L 364.835165 238.360752 
L 365.686813 238.58623 
L 366.538462 236.350244 
L 367.39011 235.467124 
L 368.241758 242.250239 
L 369.093407 241.160431 
L 369.945055 239.018395 
L 370.796703 231.972222 
L 371.648352 235.880499 
L 372.5 237.64674 
L 373.351648 237.834638 
L 374.203297 243.321258 
L 375.054945 237.064256 
L 375.906593 238.248013 
L 376.758242 236.895148 
L 377.60989 234.86585 
L 378.461538 203.111099 
L 379.313187 233.588144 
L 380.164835 239.863936 
L 381.016484 235.880499 
L 381.868132 234.771901 
L 382.71978 231.502477 
L 383.571429 225.715221 
L 384.423077 232.949291 
L 385.274725 232.21649 
L 386.978022 222.18274 
L 387.82967 222.539746 
L 388.681319 220.717136 
L 389.532967 217.955036 
L 390.384615 225.489743 
L 391.236264 226.898978 
L 392.087912 230.544198 
L 392.93956 209.819055 
L 393.791209 212.055041 
L 394.642857 203.167469 
L 395.494505 199.447089 
L 396.346154 219.815226 
L 397.197802 175.020358 
L 398.049451 189.901874 
L 398.901099 187.139775 
L 399.752747 182.630224 
L 400.604396 170.924183 
L 402.307692 180.488188 
L 403.159341 169.590107 
L 404.010989 211.2095 
L 404.862637 171.656985 
L 405.714286 169.34584 
L 406.565934 132.235997 
L 407.417582 163.84043 
L 408.269231 170.135011 
L 409.120879 185.71175 
L 409.972527 180.018443 
L 410.824176 175.339784 
L 411.675824 162.03661 
L 412.527473 177.350292 
L 414.230769 149.842034 
L 415.082418 169.251891 
L 415.934066 192.757923 
L 416.785714 162.186929 
L 417.637363 175.847109 
L 418.489011 163.145208 
L 419.340659 144.76879 
L 420.192308 153.224197 
L 421.043956 144.392994 
L 421.895604 186.876717 
L 422.747253 148.808595 
L 423.598901 157.790117 
L 424.450549 106.569139 
L 425.302198 168.594248 
L 426.153846 165.550302 
L 427.005495 147.267832 
L 427.857143 195.7455 
L 428.708791 176.955706 
L 429.56044 164.253806 
L 430.412088 159.556357 
L 431.263736 145.276114 
L 432.115385 149.973563 
L 432.967033 102.623283 
L 433.818681 155.929927 
L 434.67033 103.713091 
L 435.521978 98.433159 
L 436.373626 69.722354 
L 437.225275 93.848449 
L 438.076923 87.948454 
L 438.928571 116.50894 
L 439.78022 108.823915 
L 440.631868 139.188221 
L 441.483516 54.126825 
L 442.335165 54.371092 
L 443.186813 37.704545 
L 444.038462 54.57778 
L 444.89011 93.096857 
L 445.741758 93.7545 
L 446.593407 120.642695 
L 447.445055 79.793683 
L 448.296703 50.782242 
L 449.148352 55.028735 
L 450 61.717902 
L 450 61.717902 
" style="fill:none;stroke:#000000;stroke-dasharray:1.5,2.475;stroke-dashoffset:0;stroke-opacity:0.5;stroke-width:1.5;"/>
   </g>
   <g id="line2d_25">
    <path clip-path="url(#p590ccc6560)" d="M 62.5 251.720295 
L 65.054945 251.701506 
L 71.016484 251.494818 
L 75.274725 251.100232 
L 76.126374 250.931124 
L 76.978022 250.893544 
L 77.82967 250.724436 
L 82.087912 250.574118 
L 82.93956 250.480169 
L 85.494505 250.724436 
L 88.049451 251.119022 
L 88.901099 251.156602 
L 89.752747 251.043863 
L 91.456044 250.611698 
L 93.159341 250.36743 
L 94.010989 250.34864 
L 94.862637 250.160742 
L 100.824176 249.972845 
L 102.527473 249.916475 
L 103.379121 249.860106 
L 107.637363 248.638769 
L 110.192308 248.432081 
L 111.043956 248.56361 
L 111.895604 248.432081 
L 112.747253 248.638769 
L 113.598901 248.507241 
L 114.450549 248.244184 
L 115.302198 248.112655 
L 116.153846 248.093865 
L 117.005495 247.793228 
L 117.857143 247.924757 
L 119.56044 247.473802 
L 121.263736 247.304694 
L 122.967033 246.816159 
L 125.521978 244.692913 
L 127.225275 243.584315 
L 128.076923 243.603105 
L 128.928571 243.415207 
L 129.78022 243.452786 
L 130.631868 243.791002 
L 134.038462 244.05406 
L 135.741758 244.542594 
L 136.593407 244.467435 
L 137.445055 244.148009 
L 138.296703 243.565525 
L 139.148352 243.527945 
L 140.851648 243.07699 
L 141.703297 242.306609 
L 142.554945 240.859795 
L 143.406593 240.33368 
L 145.961538 236.857569 
L 146.813187 236.030818 
L 147.664835 234.959799 
L 148.516484 234.753112 
L 149.368132 232.460757 
L 150.21978 232.17891 
L 151.071429 230.863624 
L 151.923077 230.995153 
L 152.774725 230.37509 
L 153.626374 230.299931 
L 154.478022 229.304072 
L 155.32967 229.717447 
L 156.181319 228.627639 
L 157.032967 229.003435 
L 157.884615 227.481462 
L 158.736264 227.255984 
L 159.587912 226.429233 
L 160.43956 223.328917 
L 161.291209 219.495799 
L 162.142857 216.395483 
L 162.994505 214.309816 
L 163.846154 213.520645 
L 164.697802 213.0509 
L 165.549451 213.614594 
L 167.252747 217.203444 
L 168.104396 215.700261 
L 168.956044 213.802492 
L 169.807692 212.299308 
L 170.659341 209.518419 
L 171.510989 204.727021 
L 172.362637 200.875114 
L 173.214286 196.196455 
L 174.065934 194.618112 
L 174.917582 193.453145 
L 175.769231 189.432129 
L 176.620879 187.684679 
L 177.472527 188.304742 
L 178.324176 186.914297 
L 179.175824 187.628309 
L 180.027473 185.016528 
L 180.879121 186.049966 
L 181.730769 191.010472 
L 182.582418 190.897733 
L 183.434066 185.072897 
L 184.285714 185.279585 
L 185.137363 182.818122 
L 185.989011 183.94551 
L 186.840659 182.04774 
L 187.692308 178.346151 
L 188.543956 178.966214 
L 189.395604 181.747104 
L 190.247253 177.143604 
L 191.098901 174.888829 
L 191.950549 172.164309 
L 192.802198 172.239468 
L 193.653846 172.99106 
L 194.505495 171.16845 
L 195.357143 172.10794 
L 196.208791 176.861757 
L 197.06044 178.308571 
L 197.912088 184.114618 
L 198.763736 184.114618 
L 199.615385 188.962385 
L 200.467033 190.427988 
L 202.17033 191.649325 
L 203.021978 194.110788 
L 203.873626 195.895818 
L 204.725275 201.513967 
L 205.576923 203.280207 
L 206.428571 206.023517 
L 207.28022 205.102817 
L 208.131868 204.802181 
L 208.983516 207.169695 
L 209.835165 206.286574 
L 210.686813 207.019376 
L 211.538462 208.391031 
L 212.39011 210.34517 
L 213.241758 211.829563 
L 214.093407 212.412047 
L 214.945055 212.280518 
L 215.796703 213.389116 
L 216.648352 214.291026 
L 217.5 216.038477 
L 218.351648 218.086565 
L 219.203297 218.218093 
L 220.054945 218.988475 
L 220.906593 219.477009 
L 221.758242 219.514589 
L 222.60989 218.800577 
L 223.461538 217.861087 
L 224.313187 217.748348 
L 225.164835 219.570958 
L 226.016484 219.852805 
L 226.868132 219.176373 
L 227.71978 220.097073 
L 228.571429 221.299619 
L 229.423077 221.957262 
L 230.274725 221.22446 
L 231.126374 221.337199 
L 231.978022 221.825734 
L 232.82967 223.328917 
L 233.681319 223.272548 
L 234.532967 222.16395 
L 235.384615 220.397709 
L 236.236264 218.969685 
L 237.087912 218.030195 
L 237.93956 216.564591 
L 238.791209 216.620961 
L 239.642857 216.940387 
L 241.346154 222.389427 
L 242.197802 224.86968 
L 243.049451 225.189107 
L 243.901099 227.218404 
L 244.752747 227.237194 
L 245.604396 226.955347 
L 247.307692 226.617131 
L 249.010989 221.26204 
L 249.862637 219.289111 
L 250.714286 216.564591 
L 251.565934 216.263955 
L 252.417582 216.188796 
L 253.269231 216.790069 
L 254.120879 219.101214 
L 255.824176 216.959177 
L 256.675824 216.470642 
L 257.527473 215.399624 
L 258.379121 215.268096 
L 259.230769 216.921597 
L 260.082418 218.030195 
L 260.934066 219.834016 
L 261.785714 218.687838 
L 262.637363 218.800577 
L 263.489011 218.48115 
L 264.340659 218.349622 
L 265.192308 218.762997 
L 266.895604 218.950895 
L 267.747253 219.740067 
L 268.598901 218.969685 
L 269.450549 219.514589 
L 270.302198 221.036562 
L 271.153846 222.257899 
L 272.005495 222.389427 
L 272.857143 222.389427 
L 273.708791 220.585607 
L 274.56044 221.186881 
L 275.412088 218.011406 
L 276.263736 219.044844 
L 277.115385 218.51873 
L 277.967033 219.063634 
L 278.818681 216.884018 
L 279.67033 214.309816 
L 280.521978 210.30759 
L 281.373626 210.34517 
L 282.225275 209.462049 
L 283.076923 211.26587 
L 284.78022 211.698035 
L 285.631868 212.975741 
L 286.483516 210.852494 
L 287.335165 210.157272 
L 288.186813 209.217782 
L 289.038462 208.52256 
L 289.89011 211.341029 
L 290.741758 212.675104 
L 291.593407 210.082113 
L 292.445055 210.006953 
L 293.296703 207.413962 
L 294.148352 206.305364 
L 295.851648 199.634987 
L 296.703297 195.76429 
L 297.554945 194.336265 
L 298.406593 190.31525 
L 299.258242 188.041685 
L 300.10989 189.770346 
L 300.961538 192.363337 
L 301.813187 189.225442 
L 302.664835 187.214934 
L 303.516484 183.250287 
L 304.368132 184.866209 
L 305.21978 183.94551 
L 306.071429 183.607293 
L 306.923077 184.095828 
L 307.774725 185.335954 
L 308.626374 180.713665 
L 309.478022 176.918127 
L 310.32967 174.306345 
L 311.181319 174.907619 
L 312.032967 172.408576 
L 312.884615 173.141378 
L 313.736264 171.469087 
L 314.587912 170.191381 
L 315.43956 162.619094 
L 316.291209 151.984071 
L 317.142857 148.244902 
L 317.994505 149.860824 
L 318.846154 155.854768 
L 319.697802 160.702535 
L 320.549451 158.44776 
L 321.401099 152.848401 
L 322.252747 151.326428 
L 323.104396 146.121655 
L 323.956044 145.501592 
L 324.807692 141.912741 
L 325.659341 143.171657 
L 326.510989 151.833752 
L 327.362637 156.362092 
L 328.214286 153.975789 
L 329.065934 155.535342 
L 329.917582 156.286933 
L 331.620879 168.838515 
L 332.472527 173.385646 
L 334.175824 189.526078 
L 335.027473 191.705694 
L 335.879121 195.350914 
L 337.582418 197.53053 
L 338.434066 197.004416 
L 339.285714 198.338492 
L 340.137363 199.879255 
L 343.543956 219.721277 
L 344.395604 223.385287 
L 345.247253 223.892611 
L 346.098901 224.738152 
L 346.950549 225.095158 
L 347.802198 225.132737 
L 348.653846 225.677641 
L 349.505495 223.836242 
L 351.208791 224.456305 
L 352.06044 224.587833 
L 352.912088 224.982419 
L 353.763736 225.79038 
L 354.615385 227.725729 
L 355.467033 230.938784 
L 357.17033 231.784324 
L 358.021978 232.028592 
L 358.873626 232.817763 
L 359.725275 233.832412 
L 360.576923 234.283367 
L 361.428571 235.204067 
L 362.28022 235.955658 
L 363.983516 236.970307 
L 364.835165 236.857569 
L 365.686813 237.289734 
L 366.538462 238.116485 
L 367.39011 238.661389 
L 368.241758 238.172854 
L 369.093407 237.834638 
L 370.796703 237.590371 
L 371.648352 237.590371 
L 372.5 237.477632 
L 373.351648 237.759479 
L 374.203297 238.398332 
L 375.054945 238.210434 
L 375.906593 234.283367 
L 376.758242 232.404387 
L 377.60989 230.995153 
L 378.461538 230.544198 
L 379.313187 230.562988 
L 380.164835 230.863624 
L 381.016484 230.863624 
L 381.868132 233.531775 
L 382.71978 232.874132 
L 387.82967 223.516815 
L 388.681319 222.765223 
L 389.532967 223.347707 
L 390.384615 222.539746 
L 391.236264 221.374779 
L 392.087912 218.950895 
L 392.93956 215.643892 
L 393.791209 213.445486 
L 394.642857 207.207274 
L 395.494505 201.870973 
L 396.346154 198.188173 
L 399.752747 180.413028 
L 400.604396 179.097743 
L 401.456044 180.770034 
L 403.159341 179.529908 
L 404.010989 175.377364 
L 405.714286 168.782146 
L 406.565934 168.556669 
L 407.417582 166.038836 
L 408.269231 168.218452 
L 409.120879 169.458579 
L 409.972527 174.268766 
L 410.824176 173.85539 
L 412.527473 167.842656 
L 413.379121 168.537879 
L 414.230769 167.842656 
L 415.082418 169.721636 
L 415.934066 169.157942 
L 416.785714 167.48565 
L 417.637363 166.377053 
L 418.489011 161.829922 
L 419.340659 159.856994 
L 421.043956 156.982156 
L 421.895604 151.702224 
L 422.747253 152.641713 
L 423.598901 152.810821 
L 424.450549 152.416236 
L 425.302198 154.088527 
L 426.153846 159.368459 
L 427.005495 162.9761 
L 427.857143 169.214311 
L 429.56044 164.009539 
L 431.263736 149.597767 
L 432.967033 131.05224 
L 433.818681 119.23346 
L 435.521978 101.307997 
L 436.373626 99.936342 
L 437.225275 95.332843 
L 438.076923 100.593985 
L 439.78022 97.155453 
L 441.483516 80.319798 
L 442.335165 73.405153 
L 443.186813 70.07936 
L 444.038462 70.605474 
L 444.89011 77.38859 
L 445.741758 80.11311 
L 446.593407 81.747822 
L 447.445055 79.737314 
L 449.148352 69.440507 
L 450 60.496565 
L 450 60.496565 
" style="fill:none;stroke:#b3220f;stroke-linecap:square;stroke-width:1.5;"/>
   </g>
   <g id="patch_3">
    <path d="M 62.5 262.5 
L 62.5 27 
" style="fill:none;stroke:#555555;stroke-linecap:square;stroke-linejoin:miter;"/>
   </g>
   <g id="patch_4">
    <path d="M 62.5 262.5 
L 450 262.5 
" style="fill:none;stroke:#555555;stroke-linecap:square;stroke-linejoin:miter;"/>
   </g>
   <g id="text_13">
    <!-- Bogot D.C. | Casos nuevos 2021-06-12 -->
    <g style="fill:#555555;" transform="translate(129.306094 17)scale(0.14 -0.14)">
     <defs>
      <path d="M 17.296875 40.703125 
L 17.296875 63.40625 
L 36.296875 63.40625 
Q 39.40625 63.40625 42.15625 63.046875 
Q 44.90625 62.703125 47 61.5 
Q 49.09375 60.296875 50.296875 58.09375 
Q 51.5 55.90625 51.5 52.09375 
Q 51.5 46.40625 47.953125 43.546875 
Q 44.40625 40.703125 36.296875 40.703125 
z
M 7.796875 71.40625 
L 7.796875 0 
L 42.296875 0 
Q 47.59375 0 51.640625 1.75 
Q 55.703125 3.5 58.453125 6.34375 
Q 61.203125 9.203125 62.59375 12.890625 
Q 64 16.59375 64 20.5 
Q 64 27.09375 60.5 31.6875 
Q 57 36.296875 50.40625 37.703125 
L 50.40625 37.90625 
Q 55.5 39.90625 58.25 44.046875 
Q 61 48.203125 61 53.90625 
Q 61 59.296875 58.546875 63 
Q 56.09375 66.703125 52.59375 68.796875 
Q 51 69.796875 48.75 70.296875 
Q 46.5 70.796875 43.890625 71.046875 
Q 41.296875 71.296875 38.640625 71.34375 
Q 36 71.40625 33.703125 71.40625 
z
M 17.296875 8 
L 17.296875 32.703125 
L 39 32.703125 
Q 42 32.703125 44.796875 32.140625 
Q 47.59375 31.59375 49.75 30.25 
Q 51.90625 28.90625 53.203125 26.59375 
Q 54.5 24.296875 54.5 20.796875 
Q 54.5 14.796875 50.953125 11.390625 
Q 47.40625 8 41.09375 8 
z
" id="HelveticaNeue-66"/>
      <path d="M 12.59375 25.796875 
Q 12.59375 30.5 13.84375 34.140625 
Q 15.09375 37.796875 17.296875 40.296875 
Q 19.5 42.796875 22.453125 44.09375 
Q 25.40625 45.40625 28.703125 45.40625 
Q 32 45.40625 34.953125 44.09375 
Q 37.90625 42.796875 40.09375 40.296875 
Q 42.296875 37.796875 43.546875 34.140625 
Q 44.796875 30.5 44.796875 25.796875 
Q 44.796875 21.09375 43.546875 17.4375 
Q 42.296875 13.796875 40.09375 11.34375 
Q 37.90625 8.90625 34.953125 7.59375 
Q 32 6.296875 28.703125 6.296875 
Q 25.40625 6.296875 22.453125 7.59375 
Q 19.5 8.90625 17.296875 11.34375 
Q 15.09375 13.796875 13.84375 17.4375 
Q 12.59375 21.09375 12.59375 25.796875 
z
M 3.59375 25.796875 
Q 3.59375 20.09375 5.1875 15.1875 
Q 6.796875 10.296875 10 6.640625 
Q 13.203125 3 17.890625 0.953125 
Q 22.59375 -1.09375 28.703125 -1.09375 
Q 34.90625 -1.09375 39.546875 0.953125 
Q 44.203125 3 47.390625 6.640625 
Q 50.59375 10.296875 52.1875 15.1875 
Q 53.796875 20.09375 53.796875 25.796875 
Q 53.796875 31.5 52.1875 36.453125 
Q 50.59375 41.40625 47.390625 45.046875 
Q 44.203125 48.703125 39.546875 50.796875 
Q 34.90625 52.90625 28.703125 52.90625 
Q 22.59375 52.90625 17.890625 50.796875 
Q 13.203125 48.703125 10 45.046875 
Q 6.796875 41.40625 5.1875 36.453125 
Q 3.59375 31.5 3.59375 25.796875 
z
" id="HelveticaNeue-111"/>
      <path d="M 51 4.40625 
L 51 51.703125 
L 43 51.703125 
L 43 44.296875 
L 42.90625 44.296875 
Q 40.59375 48.59375 36.5 50.75 
Q 32.40625 52.90625 27.5 52.90625 
Q 20.796875 52.90625 16.1875 50.34375 
Q 11.59375 47.796875 8.796875 43.84375 
Q 6 39.90625 4.796875 35.046875 
Q 3.59375 30.203125 3.59375 25.59375 
Q 3.59375 20.296875 5.046875 15.546875 
Q 6.5 10.796875 9.390625 7.25 
Q 12.296875 3.703125 16.59375 1.59375 
Q 20.90625 -0.5 26.703125 -0.5 
Q 31.703125 -0.5 36.140625 1.75 
Q 40.59375 4 42.796875 8.796875 
L 43 8.796875 
L 43 5.40625 
Q 43 1.09375 42.140625 -2.5 
Q 41.296875 -6.09375 39.390625 -8.640625 
Q 37.5 -11.203125 34.59375 -12.640625 
Q 31.703125 -14.09375 27.5 -14.09375 
Q 25.40625 -14.09375 23.09375 -13.640625 
Q 20.796875 -13.203125 18.84375 -12.203125 
Q 16.90625 -11.203125 15.546875 -9.59375 
Q 14.203125 -8 14.09375 -5.703125 
L 5.59375 -5.703125 
Q 5.796875 -9.90625 7.796875 -12.796875 
Q 9.796875 -15.703125 12.84375 -17.5 
Q 15.90625 -19.296875 19.65625 -20.09375 
Q 23.40625 -20.90625 27 -20.90625 
Q 39.40625 -20.90625 45.203125 -14.59375 
Q 51 -8.296875 51 4.40625 
z
M 27.203125 6.90625 
Q 23 6.90625 20.203125 8.65625 
Q 17.40625 10.40625 15.703125 13.25 
Q 14 16.09375 13.296875 19.59375 
Q 12.59375 23.09375 12.59375 26.59375 
Q 12.59375 30.296875 13.4375 33.6875 
Q 14.296875 37.09375 16.140625 39.6875 
Q 18 42.296875 20.890625 43.84375 
Q 23.796875 45.40625 27.90625 45.40625 
Q 31.90625 45.40625 34.703125 43.796875 
Q 37.5 42.203125 39.25 39.546875 
Q 41 36.90625 41.796875 33.59375 
Q 42.59375 30.296875 42.59375 26.90625 
Q 42.59375 23.296875 41.75 19.6875 
Q 40.90625 16.09375 39.09375 13.25 
Q 37.296875 10.40625 34.34375 8.65625 
Q 31.40625 6.90625 27.203125 6.90625 
z
" id="HelveticaNeue-103"/>
      <path d="M 52.203125 0.203125 
Q 50 -1.09375 46.09375 -1.09375 
Q 42.796875 -1.09375 40.84375 0.75 
Q 38.90625 2.59375 38.90625 6.796875 
Q 35.40625 2.59375 30.75 0.75 
Q 26.09375 -1.09375 20.703125 -1.09375 
Q 17.203125 -1.09375 14.046875 -0.296875 
Q 10.90625 0.5 8.59375 2.203125 
Q 6.296875 3.90625 4.9375 6.65625 
Q 3.59375 9.40625 3.59375 13.296875 
Q 3.59375 17.703125 5.09375 20.5 
Q 6.59375 23.296875 9.046875 25.046875 
Q 11.5 26.796875 14.640625 27.6875 
Q 17.796875 28.59375 21.09375 29.203125 
Q 24.59375 29.90625 27.75 30.25 
Q 30.90625 30.59375 33.296875 31.25 
Q 35.703125 31.90625 37.09375 33.15625 
Q 38.5 34.40625 38.5 36.796875 
Q 38.5 39.59375 37.453125 41.296875 
Q 36.40625 43 34.75 43.890625 
Q 33.09375 44.796875 31.046875 45.09375 
Q 29 45.40625 27 45.40625 
Q 21.59375 45.40625 18 43.34375 
Q 14.40625 41.296875 14.09375 35.59375 
L 5.59375 35.59375 
Q 5.796875 40.40625 7.59375 43.703125 
Q 9.40625 47 12.40625 49.046875 
Q 15.40625 51.09375 19.25 52 
Q 23.09375 52.90625 27.5 52.90625 
Q 31 52.90625 34.453125 52.40625 
Q 37.90625 51.90625 40.703125 50.34375 
Q 43.5 48.796875 45.203125 46 
Q 46.90625 43.203125 46.90625 38.703125 
L 46.90625 12.09375 
Q 46.90625 9.09375 47.25 7.6875 
Q 47.59375 6.296875 49.59375 6.296875 
Q 50.703125 6.296875 52.203125 6.796875 
z
M 38.40625 26.703125 
Q 36.796875 25.5 34.1875 24.953125 
Q 31.59375 24.40625 28.75 24.046875 
Q 25.90625 23.703125 23 23.25 
Q 20.09375 22.796875 17.796875 21.796875 
Q 15.5 20.796875 14.046875 18.9375 
Q 12.59375 17.09375 12.59375 13.90625 
Q 12.59375 11.796875 13.4375 10.34375 
Q 14.296875 8.90625 15.640625 8 
Q 17 7.09375 18.796875 6.6875 
Q 20.59375 6.296875 22.59375 6.296875 
Q 26.796875 6.296875 29.796875 7.4375 
Q 32.796875 8.59375 34.6875 10.34375 
Q 36.59375 12.09375 37.5 14.140625 
Q 38.40625 16.203125 38.40625 18 
z
M 41.296875 77 
L 27.203125 60.796875 
L 20.796875 60.796875 
L 30.40625 77 
z
" id="HelveticaNeue-225"/>
      <path id="HelveticaNeue-32"/>
      <path d="M 17.296875 8 
L 17.296875 63.40625 
L 33.296875 63.40625 
Q 39.90625 63.40625 44.40625 61.546875 
Q 48.90625 59.703125 51.75 56.140625 
Q 54.59375 52.59375 55.84375 47.546875 
Q 57.09375 42.5 57.09375 36.09375 
Q 57.09375 29.5 55.75 24.84375 
Q 54.40625 20.203125 52.296875 17.09375 
Q 50.203125 14 47.546875 12.203125 
Q 44.90625 10.40625 42.203125 9.453125 
Q 39.5 8.5 37.09375 8.25 
Q 34.703125 8 33.09375 8 
z
M 7.796875 71.40625 
L 7.796875 0 
L 32.296875 0 
Q 41.203125 0 47.703125 2.5 
Q 54.203125 5 58.390625 9.75 
Q 62.59375 14.5 64.59375 21.453125 
Q 66.59375 28.40625 66.59375 37.40625 
Q 66.59375 54.59375 57.6875 63 
Q 48.796875 71.40625 32.296875 71.40625 
z
" id="HelveticaNeue-68"/>
      <path d="M 8.296875 11.09375 
L 8.296875 0 
L 19.40625 0 
L 19.40625 11.09375 
z
" id="HelveticaNeue-46"/>
      <path d="M 58 49.90625 
L 67.5 49.90625 
Q 66.703125 55.59375 64.09375 59.9375 
Q 61.5 64.296875 57.59375 67.1875 
Q 53.703125 70.09375 48.703125 71.59375 
Q 43.703125 73.09375 38.09375 73.09375 
Q 29.90625 73.09375 23.546875 70.140625 
Q 17.203125 67.203125 12.953125 62.09375 
Q 8.703125 57 6.5 50.140625 
Q 4.296875 43.296875 4.296875 35.5 
Q 4.296875 27.703125 6.34375 20.890625 
Q 8.40625 14.09375 12.5 9.09375 
Q 16.59375 4.09375 22.796875 1.25 
Q 29 -1.59375 37.296875 -1.59375 
Q 51 -1.59375 58.890625 5.90625 
Q 66.796875 13.40625 68.203125 26.90625 
L 58.703125 26.90625 
Q 58.40625 22.5 56.90625 18.703125 
Q 55.40625 14.90625 52.75 12.15625 
Q 50.09375 9.40625 46.4375 7.84375 
Q 42.796875 6.296875 38.09375 6.296875 
Q 31.703125 6.296875 27.09375 8.6875 
Q 22.5 11.09375 19.546875 15.140625 
Q 16.59375 19.203125 15.1875 24.640625 
Q 13.796875 30.09375 13.796875 36.203125 
Q 13.796875 41.796875 15.1875 47 
Q 16.59375 52.203125 19.546875 56.25 
Q 22.5 60.296875 27.046875 62.6875 
Q 31.59375 65.09375 38 65.09375 
Q 45.5 65.09375 50.953125 61.296875 
Q 56.40625 57.5 58 49.90625 
z
" id="HelveticaNeue-67"/>
      <path d="M 7.703125 78.59375 
L 7.703125 -21.296875 
L 14.5 -21.296875 
L 14.5 78.59375 
z
" id="HelveticaNeue-124"/>
      <path d="M 11.59375 16.296875 
L 3.09375 16.296875 
Q 3.296875 11.5 5.09375 8.140625 
Q 6.90625 4.796875 9.90625 2.75 
Q 12.90625 0.703125 16.796875 -0.1875 
Q 20.703125 -1.09375 25 -1.09375 
Q 28.90625 -1.09375 32.84375 -0.34375 
Q 36.796875 0.40625 39.9375 2.296875 
Q 43.09375 4.203125 45.046875 7.296875 
Q 47 10.40625 47 15.09375 
Q 47 18.796875 45.546875 21.296875 
Q 44.09375 23.796875 41.75 25.4375 
Q 39.40625 27.09375 36.34375 28.09375 
Q 33.296875 29.09375 30.09375 29.796875 
Q 27.09375 30.5 24.09375 31.140625 
Q 21.09375 31.796875 18.6875 32.75 
Q 16.296875 33.703125 14.75 35.140625 
Q 13.203125 36.59375 13.203125 38.796875 
Q 13.203125 40.796875 14.203125 42.046875 
Q 15.203125 43.296875 16.796875 44.046875 
Q 18.40625 44.796875 20.34375 45.09375 
Q 22.296875 45.40625 24.203125 45.40625 
Q 26.296875 45.40625 28.34375 44.953125 
Q 30.40625 44.5 32.09375 43.5 
Q 33.796875 42.5 34.890625 40.84375 
Q 36 39.203125 36.203125 36.703125 
L 44.703125 36.703125 
Q 44.40625 41.40625 42.703125 44.546875 
Q 41 47.703125 38.140625 49.546875 
Q 35.296875 51.40625 31.59375 52.15625 
Q 27.90625 52.90625 23.5 52.90625 
Q 20.09375 52.90625 16.640625 52.046875 
Q 13.203125 51.203125 10.453125 49.453125 
Q 7.703125 47.703125 5.953125 44.890625 
Q 4.203125 42.09375 4.203125 38.203125 
Q 4.203125 33.203125 6.703125 30.390625 
Q 9.203125 27.59375 12.953125 26.046875 
Q 16.703125 24.5 21.09375 23.640625 
Q 25.5 22.796875 29.25 21.75 
Q 33 20.703125 35.5 19 
Q 38 17.296875 38 14 
Q 38 11.59375 36.796875 10.046875 
Q 35.59375 8.5 33.75 7.703125 
Q 31.90625 6.90625 29.703125 6.59375 
Q 27.5 6.296875 25.5 6.296875 
Q 22.90625 6.296875 20.453125 6.796875 
Q 18 7.296875 16.046875 8.4375 
Q 14.09375 9.59375 12.890625 11.546875 
Q 11.703125 13.5 11.59375 16.296875 
z
" id="HelveticaNeue-115"/>
      <path d="M 29.703125 0 
L 48.59375 51.703125 
L 39.703125 51.703125 
L 25.59375 8.59375 
L 25.40625 8.59375 
L 10.90625 51.703125 
L 1.40625 51.703125 
L 20.59375 0 
z
" id="HelveticaNeue-118"/>
      <path d="M 5 31.796875 
L 5 23.796875 
L 33.90625 23.796875 
L 33.90625 31.796875 
z
" id="HelveticaNeue-45"/>
     </defs>
     <use xlink:href="#HelveticaNeue-66"/>
     <use x="68.499985" xlink:href="#HelveticaNeue-111"/>
     <use x="125.899979" xlink:href="#HelveticaNeue-103"/>
     <use x="183.299973" xlink:href="#HelveticaNeue-111"/>
     <use x="240.699966" xlink:href="#HelveticaNeue-116"/>
     <use x="272.199951" xlink:href="#HelveticaNeue-225"/>
     <use x="325.899948" xlink:href="#HelveticaNeue-32"/>
     <use x="353.699936" xlink:href="#HelveticaNeue-68"/>
     <use x="424.09993" xlink:href="#HelveticaNeue-46"/>
     <use x="451.899918" xlink:href="#HelveticaNeue-67"/>
     <use x="524.099899" xlink:href="#HelveticaNeue-46"/>
     <use x="551.899887" xlink:href="#HelveticaNeue-32"/>
     <use x="579.699875" xlink:href="#HelveticaNeue-124"/>
     <use x="601.899872" xlink:href="#HelveticaNeue-32"/>
     <use x="629.69986" xlink:href="#HelveticaNeue-67"/>
     <use x="701.899841" xlink:href="#HelveticaNeue-97"/>
     <use x="755.599838" xlink:href="#HelveticaNeue-115"/>
     <use x="805.599823" xlink:href="#HelveticaNeue-111"/>
     <use x="862.999817" xlink:href="#HelveticaNeue-115"/>
     <use x="912.999802" xlink:href="#HelveticaNeue-32"/>
     <use x="940.799789" xlink:href="#HelveticaNeue-110"/>
     <use x="996.39978" xlink:href="#HelveticaNeue-117"/>
     <use x="1051.999771" xlink:href="#HelveticaNeue-101"/>
     <use x="1105.699768" xlink:href="#HelveticaNeue-118"/>
     <use x="1155.699753" xlink:href="#HelveticaNeue-111"/>
     <use x="1213.099747" xlink:href="#HelveticaNeue-115"/>
     <use x="1263.099731" xlink:href="#HelveticaNeue-32"/>
     <use x="1290.899719" xlink:href="#HelveticaNeue-50"/>
     <use x="1346.49971" xlink:href="#HelveticaNeue-48"/>
     <use x="1402.099701" xlink:href="#HelveticaNeue-50"/>
     <use x="1457.699692" xlink:href="#HelveticaNeue-49"/>
     <use x="1513.299683" xlink:href="#HelveticaNeue-45"/>
     <use x="1552.199677" xlink:href="#HelveticaNeue-48"/>
     <use x="1607.799667" xlink:href="#HelveticaNeue-54"/>
     <use x="1663.399658" xlink:href="#HelveticaNeue-45"/>
     <use x="1702.299652" xlink:href="#HelveticaNeue-49"/>
     <use x="1757.899643" xlink:href="#HelveticaNeue-50"/>
    </g>
   </g>
   <g id="legend_1">
    <g id="line2d_26">
     <path d="M 71.5 39.640625 
L 91.5 39.640625 
" style="fill:none;stroke:#000000;stroke-dasharray:1.5,2.475;stroke-dashoffset:0;stroke-opacity:0.5;stroke-width:1.5;"/>
    </g>
    <g id="line2d_27"/>
    <g id="text_14">
     <!-- Actual -->
     <g style="fill:#555555;" transform="translate(99.5 43.140625)scale(0.1 -0.1)">
      <use xlink:href="#HelveticaNeue-65"/>
      <use x="64.799988" xlink:href="#HelveticaNeue-99"/>
      <use x="118.499985" xlink:href="#HelveticaNeue-116"/>
      <use x="149.999969" xlink:href="#HelveticaNeue-117"/>
      <use x="205.59996" xlink:href="#HelveticaNeue-97"/>
      <use x="259.299957" xlink:href="#HelveticaNeue-108"/>
     </g>
    </g>
    <g id="line2d_28">
     <path d="M 71.5 54.310937 
L 91.5 54.310937 
" style="fill:none;stroke:#b3220f;stroke-linecap:square;stroke-width:1.5;"/>
    </g>
    <g id="line2d_29"/>
    <g id="text_15">
     <!-- Promedio semanal (7 das)  -->
     <g style="fill:#555555;" transform="translate(99.5 57.810937)scale(0.1 -0.1)">
      <defs>
       <path d="M 17.296875 37.203125 
L 17.296875 63.40625 
L 35.90625 63.40625 
Q 44 63.40625 47.75 60.046875 
Q 51.5 56.703125 51.5 50.296875 
Q 51.5 43.90625 47.75 40.5 
Q 44 37.09375 35.90625 37.203125 
z
M 7.796875 71.40625 
L 7.796875 0 
L 17.296875 0 
L 17.296875 29.203125 
L 39.09375 29.203125 
Q 49.90625 29.09375 55.453125 34.6875 
Q 61 40.296875 61 50.296875 
Q 61 60.296875 55.453125 65.84375 
Q 49.90625 71.40625 39.09375 71.40625 
z
" id="HelveticaNeue-80"/>
       <path d="M 6.40625 51.703125 
L 6.40625 0 
L 14.90625 0 
L 14.90625 32.203125 
Q 14.90625 33.703125 15.65625 35.953125 
Q 16.40625 38.203125 18.046875 40.296875 
Q 19.703125 42.40625 22.34375 43.90625 
Q 25 45.40625 28.703125 45.40625 
Q 31.59375 45.40625 33.4375 44.546875 
Q 35.296875 43.703125 36.390625 42.140625 
Q 37.5 40.59375 37.953125 38.5 
Q 38.40625 36.40625 38.40625 33.90625 
L 38.40625 0 
L 46.90625 0 
L 46.90625 32.203125 
Q 46.90625 38.203125 50.5 41.796875 
Q 54.09375 45.40625 60.40625 45.40625 
Q 63.5 45.40625 65.453125 44.5 
Q 67.40625 43.59375 68.5 42.046875 
Q 69.59375 40.5 70 38.390625 
Q 70.40625 36.296875 70.40625 33.90625 
L 70.40625 0 
L 78.90625 0 
L 78.90625 37.90625 
Q 78.90625 41.90625 77.65625 44.75 
Q 76.40625 47.59375 74.15625 49.390625 
Q 71.90625 51.203125 68.75 52.046875 
Q 65.59375 52.90625 61.703125 52.90625 
Q 56.59375 52.90625 52.34375 50.59375 
Q 48.09375 48.296875 45.5 44.09375 
Q 43.90625 48.90625 40 50.90625 
Q 36.09375 52.90625 31.296875 52.90625 
Q 20.40625 52.90625 14.59375 44.09375 
L 14.40625 44.09375 
L 14.40625 51.703125 
z
" id="HelveticaNeue-109"/>
       <path d="M 12.59375 25.40625 
Q 12.59375 29.203125 13.390625 32.796875 
Q 14.203125 36.40625 16 39.203125 
Q 17.796875 42 20.796875 43.703125 
Q 23.796875 45.40625 28.09375 45.40625 
Q 32.5 45.40625 35.59375 43.75 
Q 38.703125 42.09375 40.640625 39.390625 
Q 42.59375 36.703125 43.5 33.140625 
Q 44.40625 29.59375 44.40625 25.796875 
Q 44.40625 22.203125 43.546875 18.703125 
Q 42.703125 15.203125 40.796875 12.453125 
Q 38.90625 9.703125 35.90625 8 
Q 32.90625 6.296875 28.59375 6.296875 
Q 24.5 6.296875 21.453125 7.890625 
Q 18.40625 9.5 16.453125 12.203125 
Q 14.5 14.90625 13.546875 18.34375 
Q 12.59375 21.796875 12.59375 25.40625 
z
M 52.59375 0 
L 52.59375 71.40625 
L 44.09375 71.40625 
L 44.09375 44.796875 
L 43.90625 44.796875 
Q 42.5 47.09375 40.453125 48.640625 
Q 38.40625 50.203125 36.09375 51.140625 
Q 33.796875 52.09375 31.5 52.5 
Q 29.203125 52.90625 27.203125 52.90625 
Q 21.296875 52.90625 16.84375 50.75 
Q 12.40625 48.59375 9.453125 44.9375 
Q 6.5 41.296875 5.046875 36.390625 
Q 3.59375 31.5 3.59375 26 
Q 3.59375 20.5 5.09375 15.59375 
Q 6.59375 10.703125 9.546875 7 
Q 12.5 3.296875 16.953125 1.09375 
Q 21.40625 -1.09375 27.40625 -1.09375 
Q 32.796875 -1.09375 37.296875 0.796875 
Q 41.796875 2.703125 43.90625 7 
L 44.09375 7 
L 44.09375 0 
z
" id="HelveticaNeue-100"/>
       <path d="M 15.40625 61 
L 15.40625 71.40625 
L 6.90625 71.40625 
L 6.90625 61 
z
M 6.90625 51.703125 
L 6.90625 0 
L 15.40625 0 
L 15.40625 51.703125 
z
" id="HelveticaNeue-105"/>
       <path d="M 20.40625 -19.703125 
L 26.90625 -19.703125 
Q 19.796875 -8.203125 16.75 3.09375 
Q 13.703125 14.40625 13.703125 27 
Q 13.703125 39.296875 16.703125 50.5 
Q 19.703125 61.703125 26.90625 73.09375 
L 20.40625 73.09375 
Q 12.59375 62.796875 8.640625 50.796875 
Q 4.703125 38.796875 4.703125 27 
Q 4.703125 20.40625 5.796875 14.40625 
Q 6.90625 8.40625 8.953125 2.703125 
Q 11 -3 13.890625 -8.546875 
Q 16.796875 -14.09375 20.40625 -19.703125 
z
" id="HelveticaNeue-40"/>
       <path d="M 50.90625 62.40625 
L 50.90625 69.703125 
L 5 69.703125 
L 5 61.703125 
L 42.203125 61.703125 
Q 36.59375 55.796875 31.75 48.796875 
Q 26.90625 41.796875 23.203125 33.9375 
Q 19.5 26.09375 17.140625 17.546875 
Q 14.796875 9 14.203125 0 
L 23.703125 0 
Q 24.203125 8.296875 26.5 17.09375 
Q 28.796875 25.90625 32.4375 34.203125 
Q 36.09375 42.5 40.796875 49.796875 
Q 45.5 57.09375 50.90625 62.40625 
z
" id="HelveticaNeue-55"/>
       <path d="M 6.90625 0 
L 15.40625 0 
L 15.40625 51.703125 
L 6.90625 51.703125 
z
M 25.5 77 
L 11.40625 60.796875 
L 5 60.796875 
L 14.59375 77 
z
" id="HelveticaNeue-237"/>
       <path d="M -0.90625 -19.703125 
L 5.5 -19.703125 
Q 13.296875 -9.40625 17.25 2.546875 
Q 21.203125 14.5 21.203125 26.296875 
Q 21.203125 32.90625 20.09375 38.90625 
Q 19 44.90625 16.953125 50.65625 
Q 14.90625 56.40625 12 61.953125 
Q 9.09375 67.5 5.5 73.09375 
L -0.90625 73.09375 
Q 6.09375 61.59375 9.140625 50.25 
Q 12.203125 38.90625 12.203125 26.296875 
Q 12.203125 14.09375 9.203125 2.84375 
Q 6.203125 -8.40625 -0.90625 -19.703125 
z
" id="HelveticaNeue-41"/>
      </defs>
      <use xlink:href="#HelveticaNeue-80"/>
      <use x="64.799988" xlink:href="#HelveticaNeue-114"/>
      <use x="96.349976" xlink:href="#HelveticaNeue-111"/>
      <use x="153.749969" xlink:href="#HelveticaNeue-109"/>
      <use x="239.049957" xlink:href="#HelveticaNeue-101"/>
      <use x="292.749954" xlink:href="#HelveticaNeue-100"/>
      <use x="352.049942" xlink:href="#HelveticaNeue-105"/>
      <use x="374.249939" xlink:href="#HelveticaNeue-111"/>
      <use x="431.649933" xlink:href="#HelveticaNeue-32"/>
      <use x="459.449921" xlink:href="#HelveticaNeue-115"/>
      <use x="509.449905" xlink:href="#HelveticaNeue-101"/>
      <use x="563.149902" xlink:href="#HelveticaNeue-109"/>
      <use x="648.44989" xlink:href="#HelveticaNeue-97"/>
      <use x="702.149887" xlink:href="#HelveticaNeue-110"/>
      <use x="757.749878" xlink:href="#HelveticaNeue-97"/>
      <use x="811.449875" xlink:href="#HelveticaNeue-108"/>
      <use x="833.649872" xlink:href="#HelveticaNeue-32"/>
      <use x="861.44986" xlink:href="#HelveticaNeue-40"/>
      <use x="887.349854" xlink:href="#HelveticaNeue-55"/>
      <use x="942.949844" xlink:href="#HelveticaNeue-32"/>
      <use x="970.749832" xlink:href="#HelveticaNeue-100"/>
      <use x="1030.04982" xlink:href="#HelveticaNeue-237"/>
      <use x="1052.249817" xlink:href="#HelveticaNeue-97"/>
      <use x="1105.949814" xlink:href="#HelveticaNeue-115"/>
      <use x="1155.949799" xlink:href="#HelveticaNeue-41"/>
      <use x="1181.849792" xlink:href="#HelveticaNeue-32"/>
     </g>
    </g>
   </g>
  </g>
 </g>
 <defs>
  <clipPath id="p590ccc6560">
   <rect height="235.5" width="387.5" x="62.5" y="27"/>
  </clipPath>
 </defs>
</svg>
