<?xml version="1.0" encoding="utf-8" standalone="no"?>
<!DOCTYPE svg PUBLIC "-//W3C//DTD SVG 1.1//EN"
  "http://www.w3.org/Graphics/SVG/1.1/DTD/svg11.dtd">
<!-- Created with matplotlib (https://matplotlib.org/) -->
<svg height="300pt" version="1.1" viewBox="0 0 500 300" width="500pt" xmlns="http://www.w3.org/2000/svg" xmlns:xlink="http://www.w3.org/1999/xlink">
 <metadata>
  <rdf:RDF xmlns:cc="http://creativecommons.org/ns#" xmlns:dc="http://purl.org/dc/elements/1.1/" xmlns:rdf="http://www.w3.org/1999/02/22-rdf-syntax-ns#">
   <cc:Work>
    <dc:type rdf:resource="http://purl.org/dc/dcmitype/StillImage"/>
    <dc:date>2021-06-23T00:54:29.004803</dc:date>
    <dc:format>image/svg+xml</dc:format>
    <dc:creator>
     <cc:Agent>
      <dc:title>Matplotlib v3.3.4, https://matplotlib.org/</dc:title>
     </cc:Agent>
    </dc:creator>
   </cc:Work>
  </rdf:RDF>
 </metadata>
 <defs>
  <style type="text/css">*{stroke-linecap:butt;stroke-linejoin:round;}</style>
 </defs>
 <g id="figure_1">
  <g id="patch_1">
   <path d="M 0 300 
L 500 300 
L 500 0 
L 0 0 
z
" style="fill:#ffffff;"/>
  </g>
  <g id="axes_1">
   <g id="patch_2">
    <path d="M 62.5 262.5 
L 450 262.5 
L 450 27 
L 62.5 27 
z
" style="fill:#ffffff;"/>
   </g>
   <g id="matplotlib.axis_1">
    <g id="xtick_1">
     <g id="line2d_1">
      <defs>
       <path d="M 0 0 
L 0 3.5 
" id="m825b0b2dfc" style="stroke:#555555;stroke-width:0.8;"/>
      </defs>
      <g>
       <use style="fill:#555555;stroke:#555555;stroke-width:0.8;" x="62.5" xlink:href="#m825b0b2dfc" y="262.5"/>
      </g>
     </g>
    </g>
    <g id="xtick_2">
     <g id="line2d_2">
      <g>
       <use style="fill:#555555;stroke:#555555;stroke-width:0.8;" x="77.5" xlink:href="#m825b0b2dfc" y="262.5"/>
      </g>
     </g>
     <g id="text_1">
      <!-- Apr -->
      <g style="fill:#555555;" transform="translate(69.630469 276.640625)scale(0.1 -0.1)">
       <defs>
        <path d="M 20.09375 29.5 
L 32.203125 62.796875 
L 32.40625 62.796875 
L 44.296875 29.5 
z
M 27.203125 71.40625 
L -0.59375 0 
L 9.09375 0 
L 17.09375 21.5 
L 47.296875 21.5 
L 55.09375 0 
L 65.59375 0 
L 37.703125 71.40625 
z
" id="HelveticaNeue-65"/>
        <path d="M 6.703125 51.703125 
L 6.703125 -19.703125 
L 15.203125 -19.703125 
L 15.203125 6.90625 
L 15.40625 6.90625 
Q 16.796875 4.59375 18.84375 3.046875 
Q 20.90625 1.5 23.203125 0.59375 
Q 25.5 -0.296875 27.84375 -0.6875 
Q 30.203125 -1.09375 32.09375 -1.09375 
Q 38 -1.09375 42.453125 1 
Q 46.90625 3.09375 49.84375 6.75 
Q 52.796875 10.40625 54.25 15.296875 
Q 55.703125 20.203125 55.703125 25.703125 
Q 55.703125 31.203125 54.203125 36.09375 
Q 52.703125 41 49.75 44.75 
Q 46.796875 48.5 42.34375 50.703125 
Q 37.90625 52.90625 31.90625 52.90625 
Q 26.5 52.90625 22 50.953125 
Q 17.5 49 15.40625 44.703125 
L 15.203125 44.703125 
L 15.203125 51.703125 
z
M 46.703125 26.296875 
Q 46.703125 22.5 45.890625 18.890625 
Q 45.09375 15.296875 43.296875 12.5 
Q 41.5 9.703125 38.546875 8 
Q 35.59375 6.296875 31.203125 6.296875 
Q 26.796875 6.296875 23.6875 7.9375 
Q 20.59375 9.59375 18.640625 12.296875 
Q 16.703125 15 15.796875 18.546875 
Q 14.90625 22.09375 14.90625 25.90625 
Q 14.90625 29.5 15.75 33 
Q 16.59375 36.5 18.5 39.25 
Q 20.40625 42 23.40625 43.703125 
Q 26.40625 45.40625 30.703125 45.40625 
Q 34.796875 45.40625 37.84375 43.796875 
Q 40.90625 42.203125 42.84375 39.5 
Q 44.796875 36.796875 45.75 33.34375 
Q 46.703125 29.90625 46.703125 26.296875 
z
" id="HelveticaNeue-112"/>
        <path d="M 6.09375 51.703125 
L 6.09375 0 
L 14.59375 0 
L 14.59375 23 
Q 14.59375 28 15.59375 31.84375 
Q 16.59375 35.703125 18.796875 38.390625 
Q 21 41.09375 24.59375 42.5 
Q 28.203125 43.90625 33.296875 43.90625 
L 33.296875 52.90625 
Q 26.40625 53.09375 21.90625 50.09375 
Q 17.40625 47.09375 14.296875 40.796875 
L 14.09375 40.796875 
L 14.09375 51.703125 
z
" id="HelveticaNeue-114"/>
       </defs>
       <use xlink:href="#HelveticaNeue-65"/>
       <use x="64.799988" xlink:href="#HelveticaNeue-112"/>
       <use x="124.099976" xlink:href="#HelveticaNeue-114"/>
      </g>
     </g>
    </g>
    <g id="xtick_3">
     <g id="line2d_3">
      <g>
       <use style="fill:#555555;stroke:#555555;stroke-width:0.8;" x="153.333333" xlink:href="#m825b0b2dfc" y="262.5"/>
      </g>
     </g>
     <g id="text_2">
      <!-- Jul -->
      <g style="fill:#555555;" transform="translate(146.848177 276.640625)scale(0.1 -0.1)">
       <defs>
        <path d="M 44.09375 17.796875 
L 44.09375 71.40625 
L 34.59375 71.40625 
L 34.59375 19.203125 
Q 34.59375 13.296875 32.140625 9.796875 
Q 29.703125 6.296875 23.203125 6.296875 
Q 19.703125 6.296875 17.453125 7.34375 
Q 15.203125 8.40625 13.953125 10.296875 
Q 12.703125 12.203125 12.203125 14.796875 
Q 11.703125 17.40625 11.703125 20.5 
L 11.703125 23.5 
L 2.203125 23.5 
L 2.203125 19.09375 
Q 2.203125 8.90625 7.59375 3.65625 
Q 13 -1.59375 23 -1.59375 
Q 29 -1.59375 33.046875 0.046875 
Q 37.09375 1.703125 39.546875 4.453125 
Q 42 7.203125 43.046875 10.703125 
Q 44.09375 14.203125 44.09375 17.796875 
z
" id="HelveticaNeue-74"/>
        <path d="M 49.203125 0 
L 49.203125 51.703125 
L 40.703125 51.703125 
L 40.703125 22.5 
Q 40.703125 19 39.75 16.046875 
Q 38.796875 13.09375 36.890625 10.890625 
Q 35 8.703125 32.140625 7.5 
Q 29.296875 6.296875 25.40625 6.296875 
Q 20.5 6.296875 17.703125 9.09375 
Q 14.90625 11.90625 14.90625 16.703125 
L 14.90625 51.703125 
L 6.40625 51.703125 
L 6.40625 17.703125 
Q 6.40625 13.5 7.25 10.046875 
Q 8.09375 6.59375 10.1875 4.09375 
Q 12.296875 1.59375 15.6875 0.25 
Q 19.09375 -1.09375 24.203125 -1.09375 
Q 29.90625 -1.09375 34.09375 1.15625 
Q 38.296875 3.40625 41 8.203125 
L 41.203125 8.203125 
L 41.203125 0 
z
" id="HelveticaNeue-117"/>
        <path d="M 6.90625 71.40625 
L 6.90625 0 
L 15.40625 0 
L 15.40625 71.40625 
z
" id="HelveticaNeue-108"/>
       </defs>
       <use xlink:href="#HelveticaNeue-74"/>
       <use x="51.899994" xlink:href="#HelveticaNeue-117"/>
       <use x="107.499985" xlink:href="#HelveticaNeue-108"/>
      </g>
     </g>
    </g>
    <g id="xtick_4">
     <g id="line2d_4">
      <g>
       <use style="fill:#555555;stroke:#555555;stroke-width:0.8;" x="230" xlink:href="#m825b0b2dfc" y="262.5"/>
      </g>
     </g>
     <g id="text_3">
      <!-- Oct -->
      <g style="fill:#555555;" transform="translate(221.939844 276.640625)scale(0.1 -0.1)">
       <defs>
        <path d="M 13.296875 35.703125 
Q 13.296875 41.09375 14.6875 46.34375 
Q 16.09375 51.59375 19.09375 55.796875 
Q 22.09375 60 26.796875 62.546875 
Q 31.5 65.09375 38 65.09375 
Q 44.5 65.09375 49.203125 62.546875 
Q 53.90625 60 56.90625 55.796875 
Q 59.90625 51.59375 61.296875 46.34375 
Q 62.703125 41.09375 62.703125 35.703125 
Q 62.703125 30.296875 61.296875 25.046875 
Q 59.90625 19.796875 56.90625 15.59375 
Q 53.90625 11.40625 49.203125 8.84375 
Q 44.5 6.296875 38 6.296875 
Q 31.5 6.296875 26.796875 8.84375 
Q 22.09375 11.40625 19.09375 15.59375 
Q 16.09375 19.796875 14.6875 25.046875 
Q 13.296875 30.296875 13.296875 35.703125 
z
M 3.796875 35.703125 
Q 3.796875 28.40625 5.9375 21.65625 
Q 8.09375 14.90625 12.390625 9.703125 
Q 16.703125 4.5 23.09375 1.453125 
Q 29.5 -1.59375 38 -1.59375 
Q 46.5 -1.59375 52.890625 1.453125 
Q 59.296875 4.5 63.59375 9.703125 
Q 67.90625 14.90625 70.046875 21.65625 
Q 72.203125 28.40625 72.203125 35.703125 
Q 72.203125 43 70.046875 49.75 
Q 67.90625 56.5 63.59375 61.703125 
Q 59.296875 66.90625 52.890625 70 
Q 46.5 73.09375 38 73.09375 
Q 29.5 73.09375 23.09375 70 
Q 16.703125 66.90625 12.390625 61.703125 
Q 8.09375 56.5 5.9375 49.75 
Q 3.796875 43 3.796875 35.703125 
z
" id="HelveticaNeue-79"/>
        <path d="M 41.5 35.09375 
L 50.296875 35.09375 
Q 49.796875 39.703125 47.890625 43.046875 
Q 46 46.40625 43.046875 48.59375 
Q 40.09375 50.796875 36.25 51.84375 
Q 32.40625 52.90625 28 52.90625 
Q 21.90625 52.90625 17.296875 50.75 
Q 12.703125 48.59375 9.640625 44.84375 
Q 6.59375 41.09375 5.09375 36.046875 
Q 3.59375 31 3.59375 25.203125 
Q 3.59375 19.40625 5.140625 14.546875 
Q 6.703125 9.703125 9.75 6.203125 
Q 12.796875 2.703125 17.34375 0.796875 
Q 21.90625 -1.09375 27.796875 -1.09375 
Q 37.703125 -1.09375 43.453125 4.09375 
Q 49.203125 9.296875 50.59375 18.90625 
L 41.90625 18.90625 
Q 41.09375 12.90625 37.546875 9.59375 
Q 34 6.296875 27.703125 6.296875 
Q 23.703125 6.296875 20.796875 7.890625 
Q 17.90625 9.5 16.09375 12.140625 
Q 14.296875 14.796875 13.4375 18.1875 
Q 12.59375 21.59375 12.59375 25.203125 
Q 12.59375 29.09375 13.390625 32.75 
Q 14.203125 36.40625 16.046875 39.203125 
Q 17.90625 42 21 43.703125 
Q 24.09375 45.40625 28.703125 45.40625 
Q 34.09375 45.40625 37.296875 42.703125 
Q 40.5 40 41.5 35.09375 
z
" id="HelveticaNeue-99"/>
        <path d="M 18.203125 51.703125 
L 18.203125 67.203125 
L 9.703125 67.203125 
L 9.703125 51.703125 
L 0.90625 51.703125 
L 0.90625 44.203125 
L 9.703125 44.203125 
L 9.703125 11.296875 
Q 9.703125 7.703125 10.390625 5.5 
Q 11.09375 3.296875 12.546875 2.09375 
Q 14 0.90625 16.34375 0.453125 
Q 18.703125 0 22 0 
L 28.5 0 
L 28.5 7.5 
L 24.59375 7.5 
Q 22.59375 7.5 21.34375 7.640625 
Q 20.09375 7.796875 19.390625 8.296875 
Q 18.703125 8.796875 18.453125 9.6875 
Q 18.203125 10.59375 18.203125 12.09375 
L 18.203125 44.203125 
L 28.5 44.203125 
L 28.5 51.703125 
z
" id="HelveticaNeue-116"/>
       </defs>
       <use xlink:href="#HelveticaNeue-79"/>
       <use x="75.999985" xlink:href="#HelveticaNeue-99"/>
       <use x="129.699982" xlink:href="#HelveticaNeue-116"/>
      </g>
     </g>
    </g>
    <g id="xtick_5">
     <g id="line2d_5">
      <g>
       <use style="fill:#555555;stroke:#555555;stroke-width:0.8;" x="306.666667" xlink:href="#m825b0b2dfc" y="262.5"/>
      </g>
     </g>
     <g id="text_4">
      <!-- Jan -->
      <g style="fill:#555555;" transform="translate(298.60651 276.640625)scale(0.1 -0.1)">
       <defs>
        <path d="M 52.203125 0.203125 
Q 50 -1.09375 46.09375 -1.09375 
Q 42.796875 -1.09375 40.84375 0.75 
Q 38.90625 2.59375 38.90625 6.796875 
Q 35.40625 2.59375 30.75 0.75 
Q 26.09375 -1.09375 20.703125 -1.09375 
Q 17.203125 -1.09375 14.046875 -0.296875 
Q 10.90625 0.5 8.59375 2.203125 
Q 6.296875 3.90625 4.9375 6.65625 
Q 3.59375 9.40625 3.59375 13.296875 
Q 3.59375 17.703125 5.09375 20.5 
Q 6.59375 23.296875 9.046875 25.046875 
Q 11.5 26.796875 14.640625 27.6875 
Q 17.796875 28.59375 21.09375 29.203125 
Q 24.59375 29.90625 27.75 30.25 
Q 30.90625 30.59375 33.296875 31.25 
Q 35.703125 31.90625 37.09375 33.15625 
Q 38.5 34.40625 38.5 36.796875 
Q 38.5 39.59375 37.453125 41.296875 
Q 36.40625 43 34.75 43.890625 
Q 33.09375 44.796875 31.046875 45.09375 
Q 29 45.40625 27 45.40625 
Q 21.59375 45.40625 18 43.34375 
Q 14.40625 41.296875 14.09375 35.59375 
L 5.59375 35.59375 
Q 5.796875 40.40625 7.59375 43.703125 
Q 9.40625 47 12.40625 49.046875 
Q 15.40625 51.09375 19.25 52 
Q 23.09375 52.90625 27.5 52.90625 
Q 31 52.90625 34.453125 52.40625 
Q 37.90625 51.90625 40.703125 50.34375 
Q 43.5 48.796875 45.203125 46 
Q 46.90625 43.203125 46.90625 38.703125 
L 46.90625 12.09375 
Q 46.90625 9.09375 47.25 7.6875 
Q 47.59375 6.296875 49.59375 6.296875 
Q 50.703125 6.296875 52.203125 6.796875 
z
M 38.40625 26.703125 
Q 36.796875 25.5 34.1875 24.953125 
Q 31.59375 24.40625 28.75 24.046875 
Q 25.90625 23.703125 23 23.25 
Q 20.09375 22.796875 17.796875 21.796875 
Q 15.5 20.796875 14.046875 18.9375 
Q 12.59375 17.09375 12.59375 13.90625 
Q 12.59375 11.796875 13.4375 10.34375 
Q 14.296875 8.90625 15.640625 8 
Q 17 7.09375 18.796875 6.6875 
Q 20.59375 6.296875 22.59375 6.296875 
Q 26.796875 6.296875 29.796875 7.4375 
Q 32.796875 8.59375 34.6875 10.34375 
Q 36.59375 12.09375 37.5 14.140625 
Q 38.40625 16.203125 38.40625 18 
z
" id="HelveticaNeue-97"/>
        <path d="M 6.40625 51.703125 
L 6.40625 0 
L 14.90625 0 
L 14.90625 29.203125 
Q 14.90625 32.703125 15.84375 35.640625 
Q 16.796875 38.59375 18.6875 40.796875 
Q 20.59375 43 23.4375 44.203125 
Q 26.296875 45.40625 30.203125 45.40625 
Q 35.09375 45.40625 37.890625 42.59375 
Q 40.703125 39.796875 40.703125 35 
L 40.703125 0 
L 49.203125 0 
L 49.203125 34 
Q 49.203125 38.203125 48.34375 41.640625 
Q 47.5 45.09375 45.390625 47.59375 
Q 43.296875 50.09375 39.890625 51.5 
Q 36.5 52.90625 31.40625 52.90625 
Q 19.90625 52.90625 14.59375 43.5 
L 14.40625 43.5 
L 14.40625 51.703125 
z
" id="HelveticaNeue-110"/>
       </defs>
       <use xlink:href="#HelveticaNeue-74"/>
       <use x="51.899994" xlink:href="#HelveticaNeue-97"/>
       <use x="105.599991" xlink:href="#HelveticaNeue-110"/>
      </g>
      <!-- 2021 -->
      <g style="fill:#555555;" transform="translate(295.547917 287.179688)scale(0.1 -0.1)">
       <defs>
        <path d="M 4.40625 45.796875 
L 12.90625 45.796875 
Q 12.796875 49 13.546875 52.140625 
Q 14.296875 55.296875 16 57.796875 
Q 17.703125 60.296875 20.34375 61.84375 
Q 23 63.40625 26.703125 63.40625 
Q 29.5 63.40625 32 62.5 
Q 34.5 61.59375 36.34375 59.890625 
Q 38.203125 58.203125 39.296875 55.84375 
Q 40.40625 53.5 40.40625 50.59375 
Q 40.40625 46.90625 39.25 44.09375 
Q 38.09375 41.296875 35.84375 38.890625 
Q 33.59375 36.5 30.1875 34.140625 
Q 26.796875 31.796875 22.296875 29 
Q 18.59375 26.796875 15.1875 24.296875 
Q 11.796875 21.796875 9.09375 18.5 
Q 6.40625 15.203125 4.65625 10.75 
Q 2.90625 6.296875 2.40625 0 
L 48.703125 0 
L 48.703125 7.5 
L 12.296875 7.5 
Q 12.90625 10.796875 14.84375 13.34375 
Q 16.796875 15.90625 19.546875 18.09375 
Q 22.296875 20.296875 25.59375 22.25 
Q 28.90625 24.203125 32.203125 26.203125 
Q 35.5 28.296875 38.59375 30.59375 
Q 41.703125 32.90625 44.09375 35.75 
Q 46.5 38.59375 47.953125 42.1875 
Q 49.40625 45.796875 49.40625 50.5 
Q 49.40625 55.5 47.65625 59.296875 
Q 45.90625 63.09375 42.90625 65.640625 
Q 39.90625 68.203125 35.84375 69.546875 
Q 31.796875 70.90625 27.203125 70.90625 
Q 21.59375 70.90625 17.1875 69 
Q 12.796875 67.09375 9.84375 63.75 
Q 6.90625 60.40625 5.5 55.796875 
Q 4.09375 51.203125 4.40625 45.796875 
z
" id="HelveticaNeue-50"/>
        <path d="M 13.203125 34.90625 
Q 13.203125 37.5 13.25 40.640625 
Q 13.296875 43.796875 13.75 46.9375 
Q 14.203125 50.09375 15.046875 53.09375 
Q 15.90625 56.09375 17.546875 58.34375 
Q 19.203125 60.59375 21.703125 62 
Q 24.203125 63.40625 27.796875 63.40625 
Q 31.40625 63.40625 33.90625 62 
Q 36.40625 60.59375 38.046875 58.34375 
Q 39.703125 56.09375 40.546875 53.09375 
Q 41.40625 50.09375 41.84375 46.9375 
Q 42.296875 43.796875 42.34375 40.640625 
Q 42.40625 37.5 42.40625 34.90625 
Q 42.40625 30.90625 42.15625 25.953125 
Q 41.90625 21 40.546875 16.640625 
Q 39.203125 12.296875 36.203125 9.296875 
Q 33.203125 6.296875 27.796875 6.296875 
Q 22.40625 6.296875 19.40625 9.296875 
Q 16.40625 12.296875 15.046875 16.640625 
Q 13.703125 21 13.453125 25.953125 
Q 13.203125 30.90625 13.203125 34.90625 
z
M 4.203125 34.796875 
Q 4.203125 30.90625 4.390625 26.703125 
Q 4.59375 22.5 5.390625 18.5 
Q 6.203125 14.5 7.703125 10.953125 
Q 9.203125 7.40625 11.796875 4.703125 
Q 14.40625 2 18.34375 0.453125 
Q 22.296875 -1.09375 27.796875 -1.09375 
Q 33.40625 -1.09375 37.296875 0.453125 
Q 41.203125 2 43.796875 4.703125 
Q 46.40625 7.40625 47.90625 10.953125 
Q 49.40625 14.5 50.203125 18.5 
Q 51 22.5 51.203125 26.703125 
Q 51.40625 30.90625 51.40625 34.796875 
Q 51.40625 38.703125 51.203125 42.890625 
Q 51 47.09375 50.203125 51.09375 
Q 49.40625 55.09375 47.90625 58.6875 
Q 46.40625 62.296875 43.796875 65 
Q 41.203125 67.703125 37.25 69.296875 
Q 33.296875 70.90625 27.796875 70.90625 
Q 22.296875 70.90625 18.34375 69.296875 
Q 14.40625 67.703125 11.796875 65 
Q 9.203125 62.296875 7.703125 58.6875 
Q 6.203125 55.09375 5.390625 51.09375 
Q 4.59375 47.09375 4.390625 42.890625 
Q 4.203125 38.703125 4.203125 34.796875 
z
" id="HelveticaNeue-48"/>
        <path d="M 35.59375 0 
L 35.59375 70.90625 
L 29.09375 70.90625 
Q 28.40625 66.90625 26.5 64.296875 
Q 24.59375 61.703125 21.84375 60.203125 
Q 19.09375 58.703125 15.6875 58.140625 
Q 12.296875 57.59375 8.703125 57.59375 
L 8.703125 50.796875 
L 27.09375 50.796875 
L 27.09375 0 
z
" id="HelveticaNeue-49"/>
       </defs>
       <use xlink:href="#HelveticaNeue-50"/>
       <use x="55.599991" xlink:href="#HelveticaNeue-48"/>
       <use x="111.199982" xlink:href="#HelveticaNeue-50"/>
       <use x="166.799973" xlink:href="#HelveticaNeue-49"/>
      </g>
     </g>
    </g>
    <g id="xtick_6">
     <g id="line2d_6">
      <g>
       <use style="fill:#555555;stroke:#555555;stroke-width:0.8;" x="381.666667" xlink:href="#m825b0b2dfc" y="262.5"/>
      </g>
     </g>
     <g id="text_5">
      <!-- Apr -->
      <g style="fill:#555555;" transform="translate(373.797135 276.640625)scale(0.1 -0.1)">
       <use xlink:href="#HelveticaNeue-65"/>
       <use x="64.799988" xlink:href="#HelveticaNeue-112"/>
       <use x="124.099976" xlink:href="#HelveticaNeue-114"/>
      </g>
     </g>
    </g>
    <g id="xtick_7">
     <g id="line2d_7">
      <g>
       <use style="fill:#555555;stroke:#555555;stroke-width:0.8;" x="450" xlink:href="#m825b0b2dfc" y="262.5"/>
      </g>
     </g>
    </g>
    <g id="xtick_8">
     <g id="line2d_8">
      <defs>
       <path d="M 0 0 
L 0 2 
" id="m581a8274f9" style="stroke:#555555;stroke-width:0.6;"/>
      </defs>
      <g>
       <use style="fill:#555555;stroke:#555555;stroke-width:0.6;" x="102.5" xlink:href="#m581a8274f9" y="262.5"/>
      </g>
     </g>
    </g>
    <g id="xtick_9">
     <g id="line2d_9">
      <g>
       <use style="fill:#555555;stroke:#555555;stroke-width:0.6;" x="128.333333" xlink:href="#m581a8274f9" y="262.5"/>
      </g>
     </g>
    </g>
    <g id="xtick_10">
     <g id="line2d_10">
      <g>
       <use style="fill:#555555;stroke:#555555;stroke-width:0.6;" x="179.166667" xlink:href="#m581a8274f9" y="262.5"/>
      </g>
     </g>
    </g>
    <g id="xtick_11">
     <g id="line2d_11">
      <g>
       <use style="fill:#555555;stroke:#555555;stroke-width:0.6;" x="205" xlink:href="#m581a8274f9" y="262.5"/>
      </g>
     </g>
    </g>
    <g id="xtick_12">
     <g id="line2d_12">
      <g>
       <use style="fill:#555555;stroke:#555555;stroke-width:0.6;" x="255.833333" xlink:href="#m581a8274f9" y="262.5"/>
      </g>
     </g>
    </g>
    <g id="xtick_13">
     <g id="line2d_13">
      <g>
       <use style="fill:#555555;stroke:#555555;stroke-width:0.6;" x="280.833333" xlink:href="#m581a8274f9" y="262.5"/>
      </g>
     </g>
    </g>
    <g id="xtick_14">
     <g id="line2d_14">
      <g>
       <use style="fill:#555555;stroke:#555555;stroke-width:0.6;" x="332.5" xlink:href="#m581a8274f9" y="262.5"/>
      </g>
     </g>
    </g>
    <g id="xtick_15">
     <g id="line2d_15">
      <g>
       <use style="fill:#555555;stroke:#555555;stroke-width:0.6;" x="355.833333" xlink:href="#m581a8274f9" y="262.5"/>
      </g>
     </g>
    </g>
    <g id="xtick_16">
     <g id="line2d_16">
      <g>
       <use style="fill:#555555;stroke:#555555;stroke-width:0.6;" x="406.666667" xlink:href="#m581a8274f9" y="262.5"/>
      </g>
     </g>
    </g>
    <g id="xtick_17">
     <g id="line2d_17">
      <g>
       <use style="fill:#555555;stroke:#555555;stroke-width:0.6;" x="432.5" xlink:href="#m581a8274f9" y="262.5"/>
      </g>
     </g>
    </g>
    <g id="text_6">
     <!-- fecha -->
     <g style="fill:#555555;" transform="translate(243.935156 300.290625)scale(0.1 -0.1)">
      <defs>
       <path d="M 9.90625 44.203125 
L 9.90625 0 
L 18.40625 0 
L 18.40625 44.203125 
L 28.40625 44.203125 
L 28.40625 51.703125 
L 18.40625 51.703125 
L 18.40625 58.90625 
Q 18.40625 62.296875 20.09375 63.5 
Q 21.796875 64.703125 24.90625 64.703125 
Q 26 64.703125 27.296875 64.546875 
Q 28.59375 64.40625 29.703125 64 
L 29.703125 71.40625 
Q 28.5 71.796875 26.953125 72 
Q 25.40625 72.203125 24.203125 72.203125 
Q 17.203125 72.203125 13.546875 68.953125 
Q 9.90625 65.703125 9.90625 59.40625 
L 9.90625 51.703125 
L 1.203125 51.703125 
L 1.203125 44.203125 
z
" id="HelveticaNeue-102"/>
       <path d="M 42.296875 30.796875 
L 12.59375 30.796875 
Q 12.796875 33.796875 13.890625 36.4375 
Q 15 39.09375 16.890625 41.09375 
Q 18.796875 43.09375 21.4375 44.25 
Q 24.09375 45.40625 27.40625 45.40625 
Q 30.59375 45.40625 33.25 44.25 
Q 35.90625 43.09375 37.84375 41.140625 
Q 39.796875 39.203125 40.9375 36.5 
Q 42.09375 33.796875 42.296875 30.796875 
z
M 50.5 16.40625 
L 42.09375 16.40625 
Q 41 11.296875 37.546875 8.796875 
Q 34.09375 6.296875 28.703125 6.296875 
Q 24.5 6.296875 21.390625 7.6875 
Q 18.296875 9.09375 16.296875 11.4375 
Q 14.296875 13.796875 13.390625 16.84375 
Q 12.5 19.90625 12.59375 23.296875 
L 51.296875 23.296875 
Q 51.5 28 50.453125 33.203125 
Q 49.40625 38.40625 46.65625 42.796875 
Q 43.90625 47.203125 39.34375 50.046875 
Q 34.796875 52.90625 27.90625 52.90625 
Q 22.59375 52.90625 18.140625 50.90625 
Q 13.703125 48.90625 10.453125 45.296875 
Q 7.203125 41.703125 5.390625 36.796875 
Q 3.59375 31.90625 3.59375 26 
Q 3.796875 20.09375 5.34375 15.09375 
Q 6.90625 10.09375 10 6.5 
Q 13.09375 2.90625 17.640625 0.90625 
Q 22.203125 -1.09375 28.40625 -1.09375 
Q 37.203125 -1.09375 43 3.296875 
Q 48.796875 7.703125 50.5 16.40625 
z
" id="HelveticaNeue-101"/>
       <path d="M 6.40625 71.40625 
L 6.40625 0 
L 14.90625 0 
L 14.90625 29.203125 
Q 14.90625 32.703125 15.84375 35.640625 
Q 16.796875 38.59375 18.6875 40.796875 
Q 20.59375 43 23.4375 44.203125 
Q 26.296875 45.40625 30.203125 45.40625 
Q 35.09375 45.40625 37.890625 42.59375 
Q 40.703125 39.796875 40.703125 35 
L 40.703125 0 
L 49.203125 0 
L 49.203125 34 
Q 49.203125 38.203125 48.34375 41.640625 
Q 47.5 45.09375 45.390625 47.59375 
Q 43.296875 50.09375 39.890625 51.5 
Q 36.5 52.90625 31.40625 52.90625 
Q 29.09375 52.90625 26.640625 52.40625 
Q 24.203125 51.90625 21.953125 50.84375 
Q 19.703125 49.796875 17.890625 48.140625 
Q 16.09375 46.5 15.09375 44.09375 
L 14.90625 44.09375 
L 14.90625 71.40625 
z
" id="HelveticaNeue-104"/>
      </defs>
      <use xlink:href="#HelveticaNeue-102"/>
      <use x="29.599991" xlink:href="#HelveticaNeue-101"/>
      <use x="83.299988" xlink:href="#HelveticaNeue-99"/>
      <use x="136.999985" xlink:href="#HelveticaNeue-104"/>
      <use x="192.599976" xlink:href="#HelveticaNeue-97"/>
     </g>
    </g>
   </g>
   <g id="matplotlib.axis_2">
    <g id="ytick_1">
     <g id="line2d_18">
      <defs>
       <path d="M 0 0 
L -3.5 0 
" id="m0ba511ffa3" style="stroke:#555555;stroke-width:0.8;"/>
      </defs>
      <g>
       <use style="fill:#555555;stroke:#555555;stroke-width:0.8;" x="62.5" xlink:href="#m0ba511ffa3" y="251.86404"/>
      </g>
     </g>
     <g id="text_7">
      <!-- 0 -->
      <g style="fill:#555555;" transform="translate(49.940625 255.434353)scale(0.1 -0.1)">
       <use xlink:href="#HelveticaNeue-48"/>
      </g>
     </g>
    </g>
    <g id="ytick_2">
     <g id="line2d_19">
      <g>
       <use style="fill:#555555;stroke:#555555;stroke-width:0.8;" x="62.5" xlink:href="#m0ba511ffa3" y="217.571087"/>
      </g>
     </g>
     <g id="text_8">
      <!-- 2000 -->
      <g style="fill:#555555;" transform="translate(33.2625 221.141399)scale(0.1 -0.1)">
       <use xlink:href="#HelveticaNeue-50"/>
       <use x="55.599991" xlink:href="#HelveticaNeue-48"/>
       <use x="111.199982" xlink:href="#HelveticaNeue-48"/>
       <use x="166.799973" xlink:href="#HelveticaNeue-48"/>
      </g>
     </g>
    </g>
    <g id="ytick_3">
     <g id="line2d_20">
      <g>
       <use style="fill:#555555;stroke:#555555;stroke-width:0.8;" x="62.5" xlink:href="#m0ba511ffa3" y="183.278133"/>
      </g>
     </g>
     <g id="text_9">
      <!-- 4000 -->
      <g style="fill:#555555;" transform="translate(33.2625 186.848446)scale(0.1 -0.1)">
       <defs>
        <path d="M 33.90625 24.09375 
L 10.09375 24.09375 
L 33.703125 58.796875 
L 33.90625 58.796875 
z
M 41.90625 24.09375 
L 41.90625 70.90625 
L 35.09375 70.90625 
L 2.796875 24.796875 
L 2.796875 16.59375 
L 33.90625 16.59375 
L 33.90625 0 
L 41.90625 0 
L 41.90625 16.59375 
L 51.5 16.59375 
L 51.5 24.09375 
z
" id="HelveticaNeue-52"/>
       </defs>
       <use xlink:href="#HelveticaNeue-52"/>
       <use x="55.599991" xlink:href="#HelveticaNeue-48"/>
       <use x="111.199982" xlink:href="#HelveticaNeue-48"/>
       <use x="166.799973" xlink:href="#HelveticaNeue-48"/>
      </g>
     </g>
    </g>
    <g id="ytick_4">
     <g id="line2d_21">
      <g>
       <use style="fill:#555555;stroke:#555555;stroke-width:0.8;" x="62.5" xlink:href="#m0ba511ffa3" y="148.98518"/>
      </g>
     </g>
     <g id="text_10">
      <!-- 6000 -->
      <g style="fill:#555555;" transform="translate(33.2625 152.555492)scale(0.1 -0.1)">
       <defs>
        <path d="M 41.40625 52.796875 
L 49.90625 52.796875 
Q 49.09375 61.59375 43.890625 66.25 
Q 38.703125 70.90625 29.90625 70.90625 
Q 22.296875 70.90625 17.296875 67.703125 
Q 12.296875 64.5 9.296875 59.203125 
Q 6.296875 53.90625 5.046875 47.046875 
Q 3.796875 40.203125 3.796875 32.90625 
Q 3.796875 27.296875 4.640625 21.296875 
Q 5.5 15.296875 8.09375 10.296875 
Q 10.703125 5.296875 15.5 2.09375 
Q 20.296875 -1.09375 28.203125 -1.09375 
Q 34.90625 -1.09375 39.453125 1.15625 
Q 44 3.40625 46.75 6.84375 
Q 49.5 10.296875 50.703125 14.5 
Q 51.90625 18.703125 51.90625 22.59375 
Q 51.90625 27.5 50.40625 31.703125 
Q 48.90625 35.90625 46.15625 39 
Q 43.40625 42.09375 39.34375 43.84375 
Q 35.296875 45.59375 30.203125 45.59375 
Q 24.40625 45.59375 19.953125 43.390625 
Q 15.5 41.203125 12.5 36.296875 
L 12.296875 36.5 
Q 12.40625 40.59375 13.09375 45.296875 
Q 13.796875 50 15.640625 54.046875 
Q 17.5 58.09375 20.796875 60.75 
Q 24.09375 63.40625 29.5 63.40625 
Q 34.59375 63.40625 37.6875 60.5 
Q 40.796875 57.59375 41.40625 52.796875 
z
M 28.59375 38.09375 
Q 32.203125 38.09375 34.890625 36.796875 
Q 37.59375 35.5 39.390625 33.34375 
Q 41.203125 31.203125 42.046875 28.25 
Q 42.90625 25.296875 42.90625 22 
Q 42.90625 18.90625 41.953125 16.046875 
Q 41 13.203125 39.203125 11 
Q 37.40625 8.796875 34.75 7.546875 
Q 32.09375 6.296875 28.59375 6.296875 
Q 25.09375 6.296875 22.34375 7.546875 
Q 19.59375 8.796875 17.75 10.890625 
Q 15.90625 13 14.90625 15.890625 
Q 13.90625 18.796875 13.90625 22.09375 
Q 13.90625 25.40625 14.84375 28.34375 
Q 15.796875 31.296875 17.6875 33.4375 
Q 19.59375 35.59375 22.296875 36.84375 
Q 25 38.09375 28.59375 38.09375 
z
" id="HelveticaNeue-54"/>
       </defs>
       <use xlink:href="#HelveticaNeue-54"/>
       <use x="55.599991" xlink:href="#HelveticaNeue-48"/>
       <use x="111.199982" xlink:href="#HelveticaNeue-48"/>
       <use x="166.799973" xlink:href="#HelveticaNeue-48"/>
      </g>
     </g>
    </g>
    <g id="ytick_5">
     <g id="line2d_22">
      <g>
       <use style="fill:#555555;stroke:#555555;stroke-width:0.8;" x="62.5" xlink:href="#m0ba511ffa3" y="114.692226"/>
      </g>
     </g>
     <g id="text_11">
      <!-- 8000 -->
      <g style="fill:#555555;" transform="translate(33.2625 118.262539)scale(0.1 -0.1)">
       <defs>
        <path d="M 15.5 52.5 
Q 15.5 55.203125 16.5 57.203125 
Q 17.5 59.203125 19.140625 60.59375 
Q 20.796875 62 23.09375 62.703125 
Q 25.40625 63.40625 27.90625 63.40625 
Q 33.09375 63.40625 36.4375 60.65625 
Q 39.796875 57.90625 39.796875 52.5 
Q 39.796875 47.09375 36.5 44.09375 
Q 33.203125 41.09375 28.09375 41.09375 
Q 25.5 41.09375 23.203125 41.796875 
Q 20.90625 42.5 19.203125 43.890625 
Q 17.5 45.296875 16.5 47.4375 
Q 15.5 49.59375 15.5 52.5 
z
M 6.5 52.796875 
Q 6.5 48 9.203125 43.953125 
Q 11.90625 39.90625 16.40625 38.09375 
Q 10.40625 36 7.203125 31.34375 
Q 4 26.703125 4 20.40625 
Q 4 15 5.84375 10.953125 
Q 7.703125 6.90625 10.953125 4.203125 
Q 14.203125 1.5 18.59375 0.203125 
Q 23 -1.09375 28.09375 -1.09375 
Q 33 -1.09375 37.296875 0.296875 
Q 41.59375 1.703125 44.75 4.453125 
Q 47.90625 7.203125 49.75 11.203125 
Q 51.59375 15.203125 51.59375 20.40625 
Q 51.59375 27 48.5 31.546875 
Q 45.40625 36.09375 39 38.09375 
Q 43.5 40.09375 46.140625 44.046875 
Q 48.796875 48 48.796875 52.796875 
Q 48.796875 56.203125 47.59375 59.453125 
Q 46.40625 62.703125 43.84375 65.25 
Q 41.296875 67.796875 37.1875 69.34375 
Q 33.09375 70.90625 27.296875 70.90625 
Q 23.203125 70.90625 19.453125 69.703125 
Q 15.703125 68.5 12.796875 66.203125 
Q 9.90625 63.90625 8.203125 60.546875 
Q 6.5 57.203125 6.5 52.796875 
z
M 13 20 
Q 13 23.09375 14.140625 25.59375 
Q 15.296875 28.09375 17.34375 29.890625 
Q 19.40625 31.703125 22.15625 32.640625 
Q 24.90625 33.59375 28 33.59375 
Q 31 33.59375 33.640625 32.546875 
Q 36.296875 31.5 38.296875 29.703125 
Q 40.296875 27.90625 41.4375 25.453125 
Q 42.59375 23 42.59375 20.09375 
Q 42.59375 17.09375 41.546875 14.59375 
Q 40.5 12.09375 38.546875 10.25 
Q 36.59375 8.40625 33.9375 7.34375 
Q 31.296875 6.296875 28.09375 6.296875 
Q 21.5 6.296875 17.25 9.9375 
Q 13 13.59375 13 20 
z
" id="HelveticaNeue-56"/>
       </defs>
       <use xlink:href="#HelveticaNeue-56"/>
       <use x="55.599991" xlink:href="#HelveticaNeue-48"/>
       <use x="111.199982" xlink:href="#HelveticaNeue-48"/>
       <use x="166.799973" xlink:href="#HelveticaNeue-48"/>
      </g>
     </g>
    </g>
    <g id="ytick_6">
     <g id="line2d_23">
      <g>
       <use style="fill:#555555;stroke:#555555;stroke-width:0.8;" x="62.5" xlink:href="#m0ba511ffa3" y="80.399273"/>
      </g>
     </g>
     <g id="text_12">
      <!-- 10000 -->
      <g style="fill:#555555;" transform="translate(27.703125 83.969585)scale(0.1 -0.1)">
       <use xlink:href="#HelveticaNeue-49"/>
       <use x="55.599991" xlink:href="#HelveticaNeue-48"/>
       <use x="111.199982" xlink:href="#HelveticaNeue-48"/>
       <use x="166.799973" xlink:href="#HelveticaNeue-48"/>
       <use x="222.399963" xlink:href="#HelveticaNeue-48"/>
      </g>
     </g>
    </g>
    <g id="ytick_7">
     <g id="line2d_24">
      <g>
       <use style="fill:#555555;stroke:#555555;stroke-width:0.8;" x="62.5" xlink:href="#m0ba511ffa3" y="46.106319"/>
      </g>
     </g>
     <g id="text_13">
      <!-- 12000 -->
      <g style="fill:#555555;" transform="translate(27.703125 49.676632)scale(0.1 -0.1)">
       <use xlink:href="#HelveticaNeue-49"/>
       <use x="55.599991" xlink:href="#HelveticaNeue-50"/>
       <use x="111.199982" xlink:href="#HelveticaNeue-48"/>
       <use x="166.799973" xlink:href="#HelveticaNeue-48"/>
       <use x="222.399963" xlink:href="#HelveticaNeue-48"/>
      </g>
     </g>
    </g>
   </g>
   <g id="line2d_25">
    <path clip-path="url(#p3558051b29)" d="M 63.333333 251.692576 
L 65 251.744015 
L 66.666667 251.726869 
L 67.5 251.401086 
L 68.333333 251.778308 
L 69.166667 251.795455 
L 70 251.366793 
L 70.833333 251.161035 
L 71.666667 251.62399 
L 72.5 251.744015 
L 73.333333 251.212474 
L 75 251.298207 
L 75.833333 250.920984 
L 76.666667 251.178181 
L 77.5 250.475176 
L 78.333333 250.69808 
L 79.166667 251.109595 
L 80 250.080807 
L 80.833333 251.349646 
L 81.666667 250.98957 
L 82.5 250.423736 
L 83.333333 249.634998 
L 84.166667 251.246767 
L 85 250.35515 
L 85.833333 251.109595 
L 86.666667 251.538257 
L 87.5 251.452525 
L 89.166667 251.04101 
L 90 251.126742 
L 90.833333 250.852398 
L 92.5 249.82361 
L 93.333333 250.509469 
L 94.166667 250.595201 
L 95 250.423736 
L 95.833333 251.058156 
L 96.666667 248.794821 
L 97.5 250.338004 
L 98.333333 250.286565 
L 99.166667 250.06366 
L 100 250.766666 
L 100.833333 249.583559 
L 101.666667 250.338004 
L 102.5 249.343508 
L 103.333333 250.646641 
L 104.166667 249.943635 
L 105 249.686438 
L 105.833333 248.55477 
L 106.666667 248.434745 
L 107.5 249.634998 
L 108.333333 248.006083 
L 109.166667 248.26328 
L 110 249.686438 
L 110.833333 249.292069 
L 111.666667 247.440249 
L 112.5 249.77217 
L 113.333333 248.280427 
L 114.166667 249.892196 
L 115 247.09732 
L 116.666667 248.486185 
L 117.5 248.160401 
L 118.333333 247.525982 
L 119.166667 249.77217 
L 120 247.063027 
L 120.833333 245.314086 
L 121.666667 247.800325 
L 122.5 248.846261 
L 123.333333 245.777041 
L 124.166667 246.634365 
L 125 243.462267 
L 125.833333 241.096053 
L 126.666667 243.668025 
L 127.5 245.862774 
L 128.333333 245.29694 
L 129.166667 245.502698 
L 130 243.187923 
L 130.833333 242.690675 
L 131.666667 244.971157 
L 132.5 245.416965 
L 133.333333 246.445754 
L 134.166667 244.319591 
L 135 245.348379 
L 135.833333 244.66252 
L 136.666667 244.885424 
L 137.5 244.936864 
L 138.333333 242.982165 
L 139.166667 241.93623 
L 140 245.554137 
L 140.833333 244.405323 
L 141.666667 242.399185 
L 143.333333 234.031705 
L 144.166667 242.827847 
L 145 235.729206 
L 145.833333 237.598172 
L 146.666667 236.998045 
L 147.5 235.403423 
L 148.333333 230.088015 
L 149.166667 236.432211 
L 150 224.909779 
L 150.833333 237.941101 
L 151.666667 227.978998 
L 152.5 239.60431 
L 153.333333 227.893266 
L 154.166667 229.487888 
L 155 227.841826 
L 155.833333 232.437082 
L 156.666667 229.813671 
L 157.5 233.345846 
L 158.333333 224.395385 
L 159.166667 226.452962 
L 160 224.361092 
L 160.833333 205.499967 
L 161.666667 209.323632 
L 162.5 215.599242 
L 163.333333 223.898137 
L 164.166667 220.177351 
L 165 218.925659 
L 165.833333 221.49763 
L 166.666667 215.667828 
L 167.5 226.350083 
L 168.333333 202.670799 
L 169.166667 211.91275 
L 170 213.113003 
L 171.666667 187.547606 
L 172.5 195.469278 
L 173.333333 195.400692 
L 174.166667 199.84163 
L 175 206.597342 
L 175.833333 173.796132 
L 177.5 200.150266 
L 178.333333 188.11344 
L 179.166667 205.551407 
L 180 173.213151 
L 180.833333 212.358558 
L 181.666667 213.044417 
L 183.333333 147.870659 
L 184.166667 206.820246 
L 185 192.091422 
L 185.833333 193.737484 
L 186.666667 193.891802 
L 187.5 166.817516 
L 188.333333 181.169117 
L 189.166667 186.038716 
L 190 174.58487 
L 190.833333 179.505908 
L 191.666667 172.630171 
L 192.5 194.028974 
L 193.333333 172.064338 
L 194.166667 165.874459 
L 195 196.738118 
L 195.833333 213.541665 
L 196.666667 178.717171 
L 197.5 214.604746 
L 198.333333 175.939441 
L 199.166667 209.237899 
L 200 180.328939 
L 200.833333 208.774944 
L 201.666667 214.364696 
L 202.5 194.629101 
L 203.333333 220.177351 
L 204.166667 216.713763 
L 205 211.86131 
L 205.833333 200.047388 
L 206.666667 201.624863 
L 207.5 214.810504 
L 208.333333 221.257579 
L 209.166667 210.35242 
L 210 217.159571 
L 210.833333 215.496363 
L 211.666667 212.821513 
L 212.5 215.805 
L 213.333333 221.103261 
L 214.166667 217.159571 
L 215 218.376971 
L 215.833333 222.406393 
L 216.666667 227.155967 
L 217.5 226.384376 
L 218.333333 212.530023 
L 219.166667 226.778745 
L 220 221.086115 
L 220.833333 220.537427 
L 221.666667 218.342678 
L 222.5 220.263084 
L 223.333333 225.046951 
L 224.166667 229.110666 
L 225 225.304148 
L 225.833333 210.746789 
L 226.666667 229.282131 
L 227.5 229.693646 
L 228.333333 225.664224 
L 229.166667 217.0224 
L 230 229.213545 
L 230.833333 226.847331 
L 231.666667 225.321294 
L 232.5 228.802029 
L 233.333333 217.399622 
L 234.166667 210.575324 
L 235 212.701487 
L 235.833333 230.310919 
L 236.666667 217.056693 
L 237.5 226.332937 
L 238.333333 225.561345 
L 239.166667 234.340341 
L 240 226.830184 
L 240.833333 231.099657 
L 241.666667 227.636069 
L 242.5 233.51731 
L 243.333333 225.081244 
L 244.166667 224.824047 
L 245 234.700417 
L 245.833333 225.407027 
L 246.666667 208.020499 
L 247.5 212.409997 
L 248.333333 225.407027 
L 249.166667 208.449161 
L 250 230.25948 
L 250.833333 231.322561 
L 251.666667 220.314523 
L 252.5 221.994878 
L 253.333333 201.230495 
L 254.166667 221.514777 
L 255 214.193231 
L 255.833333 228.064731 
L 256.666667 227.738948 
L 257.5 226.89877 
L 259.166667 213.901741 
L 260 213.627397 
L 260.833333 223.606647 
L 261.666667 230.516677 
L 262.5 224.8069 
L 263.333333 224.189627 
L 264.166667 215.307752 
L 265 214.107499 
L 265.833333 227.053089 
L 266.666667 221.566216 
L 267.5 235.643473 
L 268.333333 231.545465 
L 269.166667 224.875486 
L 270 210.575324 
L 270.833333 219.011391 
L 271.666667 218.925659 
L 272.5 236.397918 
L 273.333333 207.488959 
L 274.166667 239.741481 
L 275 212.324265 
L 275.833333 214.999115 
L 276.666667 204.351153 
L 277.5 207.831888 
L 278.333333 210.146662 
L 279.166667 219.285735 
L 280 230.670995 
L 280.833333 219.045684 
L 281.666667 205.842897 
L 282.5 203.716734 
L 283.333333 225.14983 
L 284.166667 197.681174 
L 285 222.577858 
L 285.833333 221.583362 
L 286.666667 205.928629 
L 287.5 228.047584 
L 289.166667 198.33274 
L 290 204.899841 
L 290.833333 208.963556 
L 291.666667 217.948309 
L 292.5 182.403663 
L 293.333333 202.27643 
L 294.166667 182.266491 
L 295 198.178422 
L 295.833333 180.620429 
L 296.666667 199.378675 
L 297.5 231.031071 
L 298.333333 192.914453 
L 299.166667 162.51375 
L 300.833333 179.574494 
L 301.666667 218.016895 
L 302.5 198.109836 
L 303.333333 212.427144 
L 304.166667 171.121281 
L 305 166.937541 
L 305.833333 144.835732 
L 307.5 217.451062 
L 308.333333 201.093323 
L 309.166667 165.977338 
L 310 161.056299 
L 310.833333 152.568793 
L 311.666667 159.770314 
L 312.5 147.150507 
L 313.333333 145.62447 
L 314.166667 178.271362 
L 315 177.139695 
L 315.833333 200.373171 
L 316.666667 171.104135 
L 317.5 119.664704 
L 318.333333 107.096337 
L 319.166667 171.652822 
L 320 162.17082 
L 320.833333 184.975635 
L 321.666667 149.173791 
L 322.5 154.592078 
L 323.333333 182.163612 
L 324.166667 147.71634 
L 325 155.946649 
L 325.833333 182.746593 
L 326.666667 183.449598 
L 327.5 195.846501 
L 328.333333 190.325335 
L 330 205.105598 
L 330.833333 210.626764 
L 331.666667 189.810941 
L 332.5 211.312623 
L 333.333333 199.635872 
L 334.166667 199.704458 
L 335 195.915087 
L 335.833333 219.98874 
L 336.666667 217.931163 
L 337.5 225.14983 
L 338.333333 235.489155 
L 339.166667 229.453595 
L 340 225.921421 
L 340.833333 221.874853 
L 341.666667 223.400889 
L 342.5 229.350716 
L 343.333333 232.025567 
L 344.166667 234.031705 
L 345 228.476246 
L 345.833333 205.174184 
L 346.666667 230.482384 
L 347.5 232.625694 
L 348.333333 233.260113 
L 349.166667 232.334203 
L 350 232.797158 
L 350.833333 235.797792 
L 351.666667 231.065364 
L 352.5 233.928826 
L 353.333333 236.157868 
L 354.166667 234.254609 
L 355 238.33547 
L 355.833333 239.724335 
L 356.666667 236.054989 
L 357.5 237.083777 
L 358.333333 239.535724 
L 359.166667 239.741481 
L 360 237.701051 
L 360.833333 236.895166 
L 361.666667 243.085044 
L 362.5 242.090549 
L 363.333333 240.13585 
L 364.166667 233.705922 
L 365 237.272389 
L 365.833333 238.884158 
L 366.666667 239.055622 
L 367.5 244.062394 
L 368.333333 238.352617 
L 369.166667 239.432845 
L 370 238.198298 
L 370.833333 236.346479 
L 371.666667 207.351787 
L 372.5 235.180519 
L 373.333333 240.907442 
L 374.166667 237.272389 
L 375 236.260747 
L 375.833333 233.27726 
L 376.666667 227.996145 
L 377.5 234.597538 
L 378.333333 233.928826 
L 380 224.772607 
L 380.833333 225.09839 
L 381.666667 223.435182 
L 382.5 220.91465 
L 383.333333 227.790387 
L 384.166667 229.076373 
L 385 232.385643 
L 385.833333 213.490225 
L 386.666667 215.51351 
L 387.5 207.420373 
L 388.333333 204.02537 
L 389.166667 222.629298 
L 390 181.73495 
L 390.833333 195.31496 
L 391.666667 192.794428 
L 392.5 188.627834 
L 393.333333 177.997018 
L 395 186.724575 
L 395.833333 176.762472 
L 396.666667 214.759065 
L 397.5 178.614292 
L 398.333333 176.539568 
L 399.166667 142.692423 
L 400 171.498504 
L 400.833333 177.276866 
L 401.666667 191.525589 
L 402.5 186.278767 
L 403.333333 182.026441 
L 404.166667 169.886735 
L 405 183.861114 
L 406.666667 158.775818 
L 407.5 176.470982 
L 408.333333 197.938371 
L 409.166667 170.00676 
L 410 182.489395 
L 410.833333 170.898377 
L 411.666667 154.129123 
L 412.5 161.845037 
L 413.333333 153.80334 
L 414.166667 192.554377 
L 415 157.798469 
L 415.833333 166.028778 
L 416.666667 119.253189 
L 417.5 175.888002 
L 418.333333 173.110273 
L 419.166667 156.443897 
L 420 200.647514 
L 420.833333 183.518184 
L 421.666667 171.927166 
L 422.5 167.674839 
L 423.333333 154.609224 
L 424.166667 158.930136 
L 425 115.703868 
L 425.833333 164.331276 
L 426.666667 116.71551 
L 427.5 111.931643 
L 428.333333 85.663241 
L 429.166667 107.696464 
L 430 102.363909 
L 430.833333 128.443701 
L 431.666667 121.29362 
L 432.5 149.105205 
L 433.333333 71.517398 
L 434.166667 71.757448 
L 435 56.497084 
L 435.833333 71.843181 
L 436.666667 107.062044 
L 437.5 107.627878 
L 438.333333 132.0959 
L 439.166667 94.853753 
L 440 68.413885 
L 440.833333 72.306136 
L 441.666667 78.393135 
L 442.5 97.15138 
L 443.333333 107.816489 
L 444.166667 122.048065 
L 445 107.319241 
L 445.833333 37.704545 
L 446.666667 60.955168 
L 447.5 50.753014 
L 448.333333 84.017179 
L 449.166667 121.825161 
L 450 117.538541 
L 450 117.538541 
" style="fill:none;stroke:#000000;stroke-dasharray:1.5,2.475;stroke-dashoffset:0;stroke-opacity:0.5;stroke-width:1.5;"/>
   </g>
   <g id="line2d_26">
    <path clip-path="url(#p3558051b29)" d="M 62.5 251.726869 
L 66.666667 251.709722 
L 75 251.161035 
L 75.833333 251.006717 
L 76.666667 250.972424 
L 77.5 250.818105 
L 81.666667 250.680934 
L 82.5 250.595201 
L 85.833333 250.972424 
L 86.666667 251.161035 
L 89.166667 251.109595 
L 90.833333 250.715227 
L 92.5 250.492322 
L 93.333333 250.475176 
L 94.166667 250.303711 
L 102.5 250.029367 
L 106.666667 248.914846 
L 109.166667 248.726235 
L 110 248.846261 
L 110.833333 248.726235 
L 111.666667 248.914846 
L 112.5 248.794821 
L 113.333333 248.55477 
L 115.833333 248.143255 
L 116.666667 248.26328 
L 118.333333 247.851765 
L 120 247.697447 
L 121.666667 247.251638 
L 125 244.782546 
L 125.833333 244.302444 
L 126.666667 244.319591 
L 127.5 244.148126 
L 128.333333 244.182419 
L 129.166667 244.491055 
L 132.5 244.731106 
L 134.166667 245.176915 
L 135 245.108329 
L 135.833333 244.816838 
L 136.666667 244.285298 
L 137.5 244.251005 
L 139.166667 243.839489 
L 140 243.136484 
L 140.833333 241.816205 
L 141.666667 241.336104 
L 144.166667 238.164006 
L 145 237.409561 
L 145.833333 236.432211 
L 146.666667 236.2436 
L 147.5 234.15173 
L 148.333333 233.894533 
L 149.166667 232.694279 
L 150 232.814305 
L 150.833333 232.248471 
L 151.666667 232.179885 
L 152.5 231.271122 
L 153.333333 231.648344 
L 154.166667 230.653849 
L 155 230.996778 
L 155.833333 229.607914 
L 156.666667 229.402156 
L 157.5 228.647711 
L 158.333333 225.818542 
L 159.166667 222.320661 
L 160 219.491492 
L 160.833333 217.588233 
L 161.666667 216.868081 
L 162.5 216.439419 
L 163.333333 216.953814 
L 165 220.228791 
L 165.833333 218.857073 
L 166.666667 217.125278 
L 167.5 215.75356 
L 168.333333 213.215882 
L 169.166667 208.84353 
L 170 205.328502 
L 170.833333 201.05903 
L 171.666667 199.618726 
L 172.5 198.555644 
L 173.333333 194.886298 
L 174.166667 193.291676 
L 175 193.85751 
L 175.833333 192.58867 
L 176.666667 193.240236 
L 177.5 190.856876 
L 178.333333 191.799932 
L 179.166667 196.326602 
L 180 196.223723 
L 180.833333 190.908315 
L 181.666667 191.096927 
L 182.5 188.850738 
L 183.333333 189.879527 
L 184.166667 188.147733 
L 185 184.769877 
L 185.833333 185.335711 
L 186.666667 187.873389 
L 187.5 183.672502 
L 188.333333 181.614925 
L 189.166667 179.128686 
L 190 179.197272 
L 190.833333 179.883131 
L 191.666667 178.219923 
L 192.5 179.077247 
L 193.333333 183.415305 
L 194.166667 184.735584 
L 195 190.033845 
L 195.833333 190.033845 
L 196.666667 194.457636 
L 197.5 195.795061 
L 199.166667 196.909582 
L 200 199.155771 
L 200.833333 200.784686 
L 201.666667 205.911483 
L 202.5 207.523251 
L 203.333333 210.026637 
L 204.166667 209.18646 
L 205 208.912116 
L 205.833333 211.072572 
L 206.666667 210.266688 
L 207.5 210.9354 
L 208.333333 212.187093 
L 209.166667 213.970327 
L 210 215.324898 
L 210.833333 215.856439 
L 211.666667 215.736414 
L 212.5 216.748056 
L 213.333333 217.571087 
L 214.166667 219.165709 
L 215 221.034675 
L 215.833333 221.154701 
L 216.666667 221.857706 
L 217.5 222.303514 
L 218.333333 222.337807 
L 219.166667 221.686241 
L 220 220.828917 
L 220.833333 220.726039 
L 221.666667 222.389247 
L 222.5 222.646444 
L 223.333333 222.029171 
L 224.166667 222.869348 
L 225 223.966723 
L 225.833333 224.566849 
L 226.666667 223.898137 
L 227.5 224.001016 
L 228.333333 224.446824 
L 229.166667 225.818542 
L 230 225.767103 
L 230.833333 224.755461 
L 231.666667 223.143692 
L 232.5 221.84056 
L 233.333333 220.983236 
L 234.166667 219.645811 
L 235 219.69725 
L 235.833333 219.98874 
L 237.5 224.961218 
L 238.333333 227.224553 
L 239.166667 227.516043 
L 240 229.367863 
L 240.833333 229.385009 
L 241.666667 229.127812 
L 243.333333 228.819176 
L 245 223.93243 
L 245.833333 222.13205 
L 246.666667 219.645811 
L 247.5 219.371467 
L 248.333333 219.302881 
L 249.166667 219.851568 
L 250 221.960585 
L 251.666667 220.005887 
L 252.5 219.560078 
L 253.333333 218.582729 
L 254.166667 218.462704 
L 255 219.971594 
L 255.833333 220.983236 
L 256.666667 222.629298 
L 257.5 221.583362 
L 258.333333 221.686241 
L 259.166667 221.394751 
L 260 221.274726 
L 260.833333 221.651948 
L 262.5 221.823413 
L 263.333333 222.543565 
L 264.166667 221.84056 
L 265 222.337807 
L 265.833333 223.726672 
L 266.666667 224.841193 
L 267.5 224.961218 
L 268.333333 224.961218 
L 269.166667 223.315157 
L 270 223.863844 
L 270.833333 220.966089 
L 271.666667 221.909146 
L 272.5 221.429044 
L 273.333333 221.926292 
L 274.166667 219.937301 
L 275 217.588233 
L 275.833333 213.936034 
L 276.666667 213.970327 
L 277.5 213.164442 
L 278.333333 214.810504 
L 280 215.204873 
L 280.833333 216.370834 
L 281.666667 214.433282 
L 282.5 213.798862 
L 283.333333 212.941538 
L 284.166667 212.307119 
L 285 214.87909 
L 285.833333 216.09649 
L 286.666667 213.730276 
L 287.5 213.66169 
L 288.333333 211.295476 
L 289.166667 210.283834 
L 290.833333 204.196835 
L 291.666667 200.664661 
L 292.5 199.361529 
L 293.333333 195.692183 
L 294.166667 193.617459 
L 295 195.194935 
L 295.833333 197.561148 
L 296.666667 194.697687 
L 297.5 192.863014 
L 298.333333 189.245107 
L 299.166667 190.719704 
L 300 189.879527 
L 300.833333 189.57089 
L 301.666667 190.016699 
L 302.5 191.148366 
L 303.333333 186.930333 
L 304.166667 183.466745 
L 305 181.083384 
L 305.833333 181.632072 
L 306.666667 179.35159 
L 307.5 180.020303 
L 308.333333 178.494266 
L 309.166667 177.328306 
L 310 170.418276 
L 310.833333 160.71337 
L 311.666667 157.301221 
L 312.5 158.775818 
L 313.333333 164.245544 
L 314.166667 168.686482 
L 315 166.611758 
L 315.833333 161.502108 
L 316.666667 160.113243 
L 317.5 155.363669 
L 318.333333 154.780689 
L 319.166667 151.505712 
L 320 152.654526 
L 320.833333 160.559052 
L 321.666667 164.691352 
L 322.5 162.51375 
L 323.333333 163.936908 
L 324.166667 164.622767 
L 325.833333 176.09376 
L 326.666667 180.243207 
L 328.333333 194.97203 
L 329.166667 196.943875 
L 330 200.287438 
L 331.666667 202.27643 
L 332.5 201.796328 
L 334.166667 204.419739 
L 337.5 222.526419 
L 338.333333 225.869982 
L 339.166667 226.332937 
L 340 227.104528 
L 340.833333 227.430311 
L 341.666667 227.464604 
L 342.5 227.961852 
L 343.333333 226.281497 
L 345 226.847331 
L 345.833333 226.967356 
L 346.666667 227.327432 
L 347.5 228.064731 
L 348.333333 229.830818 
L 349.166667 232.762865 
L 350.833333 233.534457 
L 351.666667 233.757361 
L 352.5 234.477513 
L 353.333333 235.403423 
L 354.166667 235.814938 
L 355.833333 237.340975 
L 357.5 238.266884 
L 358.333333 238.164006 
L 359.166667 238.558374 
L 360 239.312819 
L 360.833333 239.810067 
L 361.666667 239.364259 
L 362.5 239.055622 
L 364.166667 238.832718 
L 365.833333 238.729839 
L 366.666667 238.987036 
L 367.5 239.570017 
L 368.333333 239.398552 
L 369.166667 235.814938 
L 370 234.100291 
L 370.833333 232.814305 
L 371.666667 232.402789 
L 372.5 232.402789 
L 373.333333 232.694279 
L 374.166667 232.694279 
L 375 235.129079 
L 375.833333 234.528952 
L 380.833333 225.990007 
L 381.666667 225.304148 
L 382.5 225.835689 
L 383.333333 225.09839 
L 384.166667 224.035309 
L 385 221.823413 
L 385.833333 218.805633 
L 386.666667 216.782349 
L 387.5 211.106865 
L 388.333333 206.237266 
L 389.166667 202.876556 
L 392.5 186.638843 
L 393.333333 185.455736 
L 394.166667 186.964626 
L 395.833333 185.832958 
L 396.666667 182.043587 
L 398.333333 176.025174 
L 399.166667 175.819416 
L 400 173.521788 
L 400.833333 175.510779 
L 401.666667 176.659593 
L 402.5 181.049091 
L 403.333333 180.671869 
L 405 175.16785 
L 405.833333 175.819416 
L 406.666667 175.184996 
L 407.5 176.899644 
L 408.333333 176.38525 
L 409.166667 174.859213 
L 410 173.847571 
L 410.833333 169.698124 
L 411.666667 167.897744 
L 413.333333 165.291479 
L 414.166667 160.456173 
L 415 161.313497 
L 415.833333 161.467815 
L 416.666667 161.107739 
L 417.5 162.633775 
L 418.333333 167.469082 
L 419.166667 170.761205 
L 420 176.453836 
L 421.666667 171.721408 
L 423.333333 158.57006 
L 425 141.646488 
L 425.833333 130.8785 
L 427.5 114.520761 
L 428.333333 113.286215 
L 429.166667 109.068182 
L 430 113.869195 
L 431.666667 110.73139 
L 433.333333 95.385293 
L 434.166667 89.07539 
L 435 86.05761 
L 435.833333 86.520565 
L 436.666667 92.693296 
L 437.5 95.179536 
L 438.333333 96.654133 
L 439.166667 94.81946 
L 440 90.995795 
L 440.833333 89.452612 
L 441.666667 89.606931 
L 442.5 93.84211 
L 443.333333 92.984787 
L 444.166667 90.790038 
L 445.833333 79.14758 
L 446.666667 78.118791 
L 447.5 79.216166 
L 448.333333 80.999399 
L 449.166667 90.738598 
L 450 98.66027 
L 450 98.66027 
" style="fill:none;stroke:#b3220f;stroke-linecap:square;stroke-width:1.5;"/>
   </g>
   <g id="patch_3">
    <path d="M 62.5 262.5 
L 62.5 27 
" style="fill:none;stroke:#555555;stroke-linecap:square;stroke-linejoin:miter;"/>
   </g>
   <g id="patch_4">
    <path d="M 62.5 262.5 
L 450 262.5 
" style="fill:none;stroke:#555555;stroke-linecap:square;stroke-linejoin:miter;"/>
   </g>
   <g id="text_14">
    <!-- Bogotá D.C. | Casos nuevos 2021-06-22 -->
    <g style="fill:#555555;" transform="translate(129.306094 17)scale(0.14 -0.14)">
     <defs>
      <path d="M 17.296875 40.703125 
L 17.296875 63.40625 
L 36.296875 63.40625 
Q 39.40625 63.40625 42.15625 63.046875 
Q 44.90625 62.703125 47 61.5 
Q 49.09375 60.296875 50.296875 58.09375 
Q 51.5 55.90625 51.5 52.09375 
Q 51.5 46.40625 47.953125 43.546875 
Q 44.40625 40.703125 36.296875 40.703125 
z
M 7.796875 71.40625 
L 7.796875 0 
L 42.296875 0 
Q 47.59375 0 51.640625 1.75 
Q 55.703125 3.5 58.453125 6.34375 
Q 61.203125 9.203125 62.59375 12.890625 
Q 64 16.59375 64 20.5 
Q 64 27.09375 60.5 31.6875 
Q 57 36.296875 50.40625 37.703125 
L 50.40625 37.90625 
Q 55.5 39.90625 58.25 44.046875 
Q 61 48.203125 61 53.90625 
Q 61 59.296875 58.546875 63 
Q 56.09375 66.703125 52.59375 68.796875 
Q 51 69.796875 48.75 70.296875 
Q 46.5 70.796875 43.890625 71.046875 
Q 41.296875 71.296875 38.640625 71.34375 
Q 36 71.40625 33.703125 71.40625 
z
M 17.296875 8 
L 17.296875 32.703125 
L 39 32.703125 
Q 42 32.703125 44.796875 32.140625 
Q 47.59375 31.59375 49.75 30.25 
Q 51.90625 28.90625 53.203125 26.59375 
Q 54.5 24.296875 54.5 20.796875 
Q 54.5 14.796875 50.953125 11.390625 
Q 47.40625 8 41.09375 8 
z
" id="HelveticaNeue-66"/>
      <path d="M 12.59375 25.796875 
Q 12.59375 30.5 13.84375 34.140625 
Q 15.09375 37.796875 17.296875 40.296875 
Q 19.5 42.796875 22.453125 44.09375 
Q 25.40625 45.40625 28.703125 45.40625 
Q 32 45.40625 34.953125 44.09375 
Q 37.90625 42.796875 40.09375 40.296875 
Q 42.296875 37.796875 43.546875 34.140625 
Q 44.796875 30.5 44.796875 25.796875 
Q 44.796875 21.09375 43.546875 17.4375 
Q 42.296875 13.796875 40.09375 11.34375 
Q 37.90625 8.90625 34.953125 7.59375 
Q 32 6.296875 28.703125 6.296875 
Q 25.40625 6.296875 22.453125 7.59375 
Q 19.5 8.90625 17.296875 11.34375 
Q 15.09375 13.796875 13.84375 17.4375 
Q 12.59375 21.09375 12.59375 25.796875 
z
M 3.59375 25.796875 
Q 3.59375 20.09375 5.1875 15.1875 
Q 6.796875 10.296875 10 6.640625 
Q 13.203125 3 17.890625 0.953125 
Q 22.59375 -1.09375 28.703125 -1.09375 
Q 34.90625 -1.09375 39.546875 0.953125 
Q 44.203125 3 47.390625 6.640625 
Q 50.59375 10.296875 52.1875 15.1875 
Q 53.796875 20.09375 53.796875 25.796875 
Q 53.796875 31.5 52.1875 36.453125 
Q 50.59375 41.40625 47.390625 45.046875 
Q 44.203125 48.703125 39.546875 50.796875 
Q 34.90625 52.90625 28.703125 52.90625 
Q 22.59375 52.90625 17.890625 50.796875 
Q 13.203125 48.703125 10 45.046875 
Q 6.796875 41.40625 5.1875 36.453125 
Q 3.59375 31.5 3.59375 25.796875 
z
" id="HelveticaNeue-111"/>
      <path d="M 51 4.40625 
L 51 51.703125 
L 43 51.703125 
L 43 44.296875 
L 42.90625 44.296875 
Q 40.59375 48.59375 36.5 50.75 
Q 32.40625 52.90625 27.5 52.90625 
Q 20.796875 52.90625 16.1875 50.34375 
Q 11.59375 47.796875 8.796875 43.84375 
Q 6 39.90625 4.796875 35.046875 
Q 3.59375 30.203125 3.59375 25.59375 
Q 3.59375 20.296875 5.046875 15.546875 
Q 6.5 10.796875 9.390625 7.25 
Q 12.296875 3.703125 16.59375 1.59375 
Q 20.90625 -0.5 26.703125 -0.5 
Q 31.703125 -0.5 36.140625 1.75 
Q 40.59375 4 42.796875 8.796875 
L 43 8.796875 
L 43 5.40625 
Q 43 1.09375 42.140625 -2.5 
Q 41.296875 -6.09375 39.390625 -8.640625 
Q 37.5 -11.203125 34.59375 -12.640625 
Q 31.703125 -14.09375 27.5 -14.09375 
Q 25.40625 -14.09375 23.09375 -13.640625 
Q 20.796875 -13.203125 18.84375 -12.203125 
Q 16.90625 -11.203125 15.546875 -9.59375 
Q 14.203125 -8 14.09375 -5.703125 
L 5.59375 -5.703125 
Q 5.796875 -9.90625 7.796875 -12.796875 
Q 9.796875 -15.703125 12.84375 -17.5 
Q 15.90625 -19.296875 19.65625 -20.09375 
Q 23.40625 -20.90625 27 -20.90625 
Q 39.40625 -20.90625 45.203125 -14.59375 
Q 51 -8.296875 51 4.40625 
z
M 27.203125 6.90625 
Q 23 6.90625 20.203125 8.65625 
Q 17.40625 10.40625 15.703125 13.25 
Q 14 16.09375 13.296875 19.59375 
Q 12.59375 23.09375 12.59375 26.59375 
Q 12.59375 30.296875 13.4375 33.6875 
Q 14.296875 37.09375 16.140625 39.6875 
Q 18 42.296875 20.890625 43.84375 
Q 23.796875 45.40625 27.90625 45.40625 
Q 31.90625 45.40625 34.703125 43.796875 
Q 37.5 42.203125 39.25 39.546875 
Q 41 36.90625 41.796875 33.59375 
Q 42.59375 30.296875 42.59375 26.90625 
Q 42.59375 23.296875 41.75 19.6875 
Q 40.90625 16.09375 39.09375 13.25 
Q 37.296875 10.40625 34.34375 8.65625 
Q 31.40625 6.90625 27.203125 6.90625 
z
" id="HelveticaNeue-103"/>
      <path d="M 52.203125 0.203125 
Q 50 -1.09375 46.09375 -1.09375 
Q 42.796875 -1.09375 40.84375 0.75 
Q 38.90625 2.59375 38.90625 6.796875 
Q 35.40625 2.59375 30.75 0.75 
Q 26.09375 -1.09375 20.703125 -1.09375 
Q 17.203125 -1.09375 14.046875 -0.296875 
Q 10.90625 0.5 8.59375 2.203125 
Q 6.296875 3.90625 4.9375 6.65625 
Q 3.59375 9.40625 3.59375 13.296875 
Q 3.59375 17.703125 5.09375 20.5 
Q 6.59375 23.296875 9.046875 25.046875 
Q 11.5 26.796875 14.640625 27.6875 
Q 17.796875 28.59375 21.09375 29.203125 
Q 24.59375 29.90625 27.75 30.25 
Q 30.90625 30.59375 33.296875 31.25 
Q 35.703125 31.90625 37.09375 33.15625 
Q 38.5 34.40625 38.5 36.796875 
Q 38.5 39.59375 37.453125 41.296875 
Q 36.40625 43 34.75 43.890625 
Q 33.09375 44.796875 31.046875 45.09375 
Q 29 45.40625 27 45.40625 
Q 21.59375 45.40625 18 43.34375 
Q 14.40625 41.296875 14.09375 35.59375 
L 5.59375 35.59375 
Q 5.796875 40.40625 7.59375 43.703125 
Q 9.40625 47 12.40625 49.046875 
Q 15.40625 51.09375 19.25 52 
Q 23.09375 52.90625 27.5 52.90625 
Q 31 52.90625 34.453125 52.40625 
Q 37.90625 51.90625 40.703125 50.34375 
Q 43.5 48.796875 45.203125 46 
Q 46.90625 43.203125 46.90625 38.703125 
L 46.90625 12.09375 
Q 46.90625 9.09375 47.25 7.6875 
Q 47.59375 6.296875 49.59375 6.296875 
Q 50.703125 6.296875 52.203125 6.796875 
z
M 38.40625 26.703125 
Q 36.796875 25.5 34.1875 24.953125 
Q 31.59375 24.40625 28.75 24.046875 
Q 25.90625 23.703125 23 23.25 
Q 20.09375 22.796875 17.796875 21.796875 
Q 15.5 20.796875 14.046875 18.9375 
Q 12.59375 17.09375 12.59375 13.90625 
Q 12.59375 11.796875 13.4375 10.34375 
Q 14.296875 8.90625 15.640625 8 
Q 17 7.09375 18.796875 6.6875 
Q 20.59375 6.296875 22.59375 6.296875 
Q 26.796875 6.296875 29.796875 7.4375 
Q 32.796875 8.59375 34.6875 10.34375 
Q 36.59375 12.09375 37.5 14.140625 
Q 38.40625 16.203125 38.40625 18 
z
M 41.296875 77 
L 27.203125 60.796875 
L 20.796875 60.796875 
L 30.40625 77 
z
" id="HelveticaNeue-225"/>
      <path id="HelveticaNeue-32"/>
      <path d="M 17.296875 8 
L 17.296875 63.40625 
L 33.296875 63.40625 
Q 39.90625 63.40625 44.40625 61.546875 
Q 48.90625 59.703125 51.75 56.140625 
Q 54.59375 52.59375 55.84375 47.546875 
Q 57.09375 42.5 57.09375 36.09375 
Q 57.09375 29.5 55.75 24.84375 
Q 54.40625 20.203125 52.296875 17.09375 
Q 50.203125 14 47.546875 12.203125 
Q 44.90625 10.40625 42.203125 9.453125 
Q 39.5 8.5 37.09375 8.25 
Q 34.703125 8 33.09375 8 
z
M 7.796875 71.40625 
L 7.796875 0 
L 32.296875 0 
Q 41.203125 0 47.703125 2.5 
Q 54.203125 5 58.390625 9.75 
Q 62.59375 14.5 64.59375 21.453125 
Q 66.59375 28.40625 66.59375 37.40625 
Q 66.59375 54.59375 57.6875 63 
Q 48.796875 71.40625 32.296875 71.40625 
z
" id="HelveticaNeue-68"/>
      <path d="M 8.296875 11.09375 
L 8.296875 0 
L 19.40625 0 
L 19.40625 11.09375 
z
" id="HelveticaNeue-46"/>
      <path d="M 58 49.90625 
L 67.5 49.90625 
Q 66.703125 55.59375 64.09375 59.9375 
Q 61.5 64.296875 57.59375 67.1875 
Q 53.703125 70.09375 48.703125 71.59375 
Q 43.703125 73.09375 38.09375 73.09375 
Q 29.90625 73.09375 23.546875 70.140625 
Q 17.203125 67.203125 12.953125 62.09375 
Q 8.703125 57 6.5 50.140625 
Q 4.296875 43.296875 4.296875 35.5 
Q 4.296875 27.703125 6.34375 20.890625 
Q 8.40625 14.09375 12.5 9.09375 
Q 16.59375 4.09375 22.796875 1.25 
Q 29 -1.59375 37.296875 -1.59375 
Q 51 -1.59375 58.890625 5.90625 
Q 66.796875 13.40625 68.203125 26.90625 
L 58.703125 26.90625 
Q 58.40625 22.5 56.90625 18.703125 
Q 55.40625 14.90625 52.75 12.15625 
Q 50.09375 9.40625 46.4375 7.84375 
Q 42.796875 6.296875 38.09375 6.296875 
Q 31.703125 6.296875 27.09375 8.6875 
Q 22.5 11.09375 19.546875 15.140625 
Q 16.59375 19.203125 15.1875 24.640625 
Q 13.796875 30.09375 13.796875 36.203125 
Q 13.796875 41.796875 15.1875 47 
Q 16.59375 52.203125 19.546875 56.25 
Q 22.5 60.296875 27.046875 62.6875 
Q 31.59375 65.09375 38 65.09375 
Q 45.5 65.09375 50.953125 61.296875 
Q 56.40625 57.5 58 49.90625 
z
" id="HelveticaNeue-67"/>
      <path d="M 7.703125 78.59375 
L 7.703125 -21.296875 
L 14.5 -21.296875 
L 14.5 78.59375 
z
" id="HelveticaNeue-124"/>
      <path d="M 11.59375 16.296875 
L 3.09375 16.296875 
Q 3.296875 11.5 5.09375 8.140625 
Q 6.90625 4.796875 9.90625 2.75 
Q 12.90625 0.703125 16.796875 -0.1875 
Q 20.703125 -1.09375 25 -1.09375 
Q 28.90625 -1.09375 32.84375 -0.34375 
Q 36.796875 0.40625 39.9375 2.296875 
Q 43.09375 4.203125 45.046875 7.296875 
Q 47 10.40625 47 15.09375 
Q 47 18.796875 45.546875 21.296875 
Q 44.09375 23.796875 41.75 25.4375 
Q 39.40625 27.09375 36.34375 28.09375 
Q 33.296875 29.09375 30.09375 29.796875 
Q 27.09375 30.5 24.09375 31.140625 
Q 21.09375 31.796875 18.6875 32.75 
Q 16.296875 33.703125 14.75 35.140625 
Q 13.203125 36.59375 13.203125 38.796875 
Q 13.203125 40.796875 14.203125 42.046875 
Q 15.203125 43.296875 16.796875 44.046875 
Q 18.40625 44.796875 20.34375 45.09375 
Q 22.296875 45.40625 24.203125 45.40625 
Q 26.296875 45.40625 28.34375 44.953125 
Q 30.40625 44.5 32.09375 43.5 
Q 33.796875 42.5 34.890625 40.84375 
Q 36 39.203125 36.203125 36.703125 
L 44.703125 36.703125 
Q 44.40625 41.40625 42.703125 44.546875 
Q 41 47.703125 38.140625 49.546875 
Q 35.296875 51.40625 31.59375 52.15625 
Q 27.90625 52.90625 23.5 52.90625 
Q 20.09375 52.90625 16.640625 52.046875 
Q 13.203125 51.203125 10.453125 49.453125 
Q 7.703125 47.703125 5.953125 44.890625 
Q 4.203125 42.09375 4.203125 38.203125 
Q 4.203125 33.203125 6.703125 30.390625 
Q 9.203125 27.59375 12.953125 26.046875 
Q 16.703125 24.5 21.09375 23.640625 
Q 25.5 22.796875 29.25 21.75 
Q 33 20.703125 35.5 19 
Q 38 17.296875 38 14 
Q 38 11.59375 36.796875 10.046875 
Q 35.59375 8.5 33.75 7.703125 
Q 31.90625 6.90625 29.703125 6.59375 
Q 27.5 6.296875 25.5 6.296875 
Q 22.90625 6.296875 20.453125 6.796875 
Q 18 7.296875 16.046875 8.4375 
Q 14.09375 9.59375 12.890625 11.546875 
Q 11.703125 13.5 11.59375 16.296875 
z
" id="HelveticaNeue-115"/>
      <path d="M 29.703125 0 
L 48.59375 51.703125 
L 39.703125 51.703125 
L 25.59375 8.59375 
L 25.40625 8.59375 
L 10.90625 51.703125 
L 1.40625 51.703125 
L 20.59375 0 
z
" id="HelveticaNeue-118"/>
      <path d="M 5 31.796875 
L 5 23.796875 
L 33.90625 23.796875 
L 33.90625 31.796875 
z
" id="HelveticaNeue-45"/>
     </defs>
     <use xlink:href="#HelveticaNeue-66"/>
     <use x="68.499985" xlink:href="#HelveticaNeue-111"/>
     <use x="125.899979" xlink:href="#HelveticaNeue-103"/>
     <use x="183.299973" xlink:href="#HelveticaNeue-111"/>
     <use x="240.699966" xlink:href="#HelveticaNeue-116"/>
     <use x="272.199951" xlink:href="#HelveticaNeue-225"/>
     <use x="325.899948" xlink:href="#HelveticaNeue-32"/>
     <use x="353.699936" xlink:href="#HelveticaNeue-68"/>
     <use x="424.09993" xlink:href="#HelveticaNeue-46"/>
     <use x="451.899918" xlink:href="#HelveticaNeue-67"/>
     <use x="524.099899" xlink:href="#HelveticaNeue-46"/>
     <use x="551.899887" xlink:href="#HelveticaNeue-32"/>
     <use x="579.699875" xlink:href="#HelveticaNeue-124"/>
     <use x="601.899872" xlink:href="#HelveticaNeue-32"/>
     <use x="629.69986" xlink:href="#HelveticaNeue-67"/>
     <use x="701.899841" xlink:href="#HelveticaNeue-97"/>
     <use x="755.599838" xlink:href="#HelveticaNeue-115"/>
     <use x="805.599823" xlink:href="#HelveticaNeue-111"/>
     <use x="862.999817" xlink:href="#HelveticaNeue-115"/>
     <use x="912.999802" xlink:href="#HelveticaNeue-32"/>
     <use x="940.799789" xlink:href="#HelveticaNeue-110"/>
     <use x="996.39978" xlink:href="#HelveticaNeue-117"/>
     <use x="1051.999771" xlink:href="#HelveticaNeue-101"/>
     <use x="1105.699768" xlink:href="#HelveticaNeue-118"/>
     <use x="1155.699753" xlink:href="#HelveticaNeue-111"/>
     <use x="1213.099747" xlink:href="#HelveticaNeue-115"/>
     <use x="1263.099731" xlink:href="#HelveticaNeue-32"/>
     <use x="1290.899719" xlink:href="#HelveticaNeue-50"/>
     <use x="1346.49971" xlink:href="#HelveticaNeue-48"/>
     <use x="1402.099701" xlink:href="#HelveticaNeue-50"/>
     <use x="1457.699692" xlink:href="#HelveticaNeue-49"/>
     <use x="1513.299683" xlink:href="#HelveticaNeue-45"/>
     <use x="1552.199677" xlink:href="#HelveticaNeue-48"/>
     <use x="1607.799667" xlink:href="#HelveticaNeue-54"/>
     <use x="1663.399658" xlink:href="#HelveticaNeue-45"/>
     <use x="1702.299652" xlink:href="#HelveticaNeue-50"/>
     <use x="1757.899643" xlink:href="#HelveticaNeue-50"/>
    </g>
   </g>
   <g id="legend_1">
    <g id="line2d_27">
     <path d="M 71.5 39.640625 
L 91.5 39.640625 
" style="fill:none;stroke:#000000;stroke-dasharray:1.5,2.475;stroke-dashoffset:0;stroke-opacity:0.5;stroke-width:1.5;"/>
    </g>
    <g id="line2d_28"/>
    <g id="text_15">
     <!-- Actual -->
     <g style="fill:#555555;" transform="translate(99.5 43.140625)scale(0.1 -0.1)">
      <use xlink:href="#HelveticaNeue-65"/>
      <use x="64.799988" xlink:href="#HelveticaNeue-99"/>
      <use x="118.499985" xlink:href="#HelveticaNeue-116"/>
      <use x="149.999969" xlink:href="#HelveticaNeue-117"/>
      <use x="205.59996" xlink:href="#HelveticaNeue-97"/>
      <use x="259.299957" xlink:href="#HelveticaNeue-108"/>
     </g>
    </g>
    <g id="line2d_29">
     <path d="M 71.5 54.310937 
L 91.5 54.310937 
" style="fill:none;stroke:#b3220f;stroke-linecap:square;stroke-width:1.5;"/>
    </g>
    <g id="line2d_30"/>
    <g id="text_16">
     <!-- Promedio semanal (7 días)  -->
     <g style="fill:#555555;" transform="translate(99.5 57.810937)scale(0.1 -0.1)">
      <defs>
       <path d="M 17.296875 37.203125 
L 17.296875 63.40625 
L 35.90625 63.40625 
Q 44 63.40625 47.75 60.046875 
Q 51.5 56.703125 51.5 50.296875 
Q 51.5 43.90625 47.75 40.5 
Q 44 37.09375 35.90625 37.203125 
z
M 7.796875 71.40625 
L 7.796875 0 
L 17.296875 0 
L 17.296875 29.203125 
L 39.09375 29.203125 
Q 49.90625 29.09375 55.453125 34.6875 
Q 61 40.296875 61 50.296875 
Q 61 60.296875 55.453125 65.84375 
Q 49.90625 71.40625 39.09375 71.40625 
z
" id="HelveticaNeue-80"/>
       <path d="M 6.40625 51.703125 
L 6.40625 0 
L 14.90625 0 
L 14.90625 32.203125 
Q 14.90625 33.703125 15.65625 35.953125 
Q 16.40625 38.203125 18.046875 40.296875 
Q 19.703125 42.40625 22.34375 43.90625 
Q 25 45.40625 28.703125 45.40625 
Q 31.59375 45.40625 33.4375 44.546875 
Q 35.296875 43.703125 36.390625 42.140625 
Q 37.5 40.59375 37.953125 38.5 
Q 38.40625 36.40625 38.40625 33.90625 
L 38.40625 0 
L 46.90625 0 
L 46.90625 32.203125 
Q 46.90625 38.203125 50.5 41.796875 
Q 54.09375 45.40625 60.40625 45.40625 
Q 63.5 45.40625 65.453125 44.5 
Q 67.40625 43.59375 68.5 42.046875 
Q 69.59375 40.5 70 38.390625 
Q 70.40625 36.296875 70.40625 33.90625 
L 70.40625 0 
L 78.90625 0 
L 78.90625 37.90625 
Q 78.90625 41.90625 77.65625 44.75 
Q 76.40625 47.59375 74.15625 49.390625 
Q 71.90625 51.203125 68.75 52.046875 
Q 65.59375 52.90625 61.703125 52.90625 
Q 56.59375 52.90625 52.34375 50.59375 
Q 48.09375 48.296875 45.5 44.09375 
Q 43.90625 48.90625 40 50.90625 
Q 36.09375 52.90625 31.296875 52.90625 
Q 20.40625 52.90625 14.59375 44.09375 
L 14.40625 44.09375 
L 14.40625 51.703125 
z
" id="HelveticaNeue-109"/>
       <path d="M 12.59375 25.40625 
Q 12.59375 29.203125 13.390625 32.796875 
Q 14.203125 36.40625 16 39.203125 
Q 17.796875 42 20.796875 43.703125 
Q 23.796875 45.40625 28.09375 45.40625 
Q 32.5 45.40625 35.59375 43.75 
Q 38.703125 42.09375 40.640625 39.390625 
Q 42.59375 36.703125 43.5 33.140625 
Q 44.40625 29.59375 44.40625 25.796875 
Q 44.40625 22.203125 43.546875 18.703125 
Q 42.703125 15.203125 40.796875 12.453125 
Q 38.90625 9.703125 35.90625 8 
Q 32.90625 6.296875 28.59375 6.296875 
Q 24.5 6.296875 21.453125 7.890625 
Q 18.40625 9.5 16.453125 12.203125 
Q 14.5 14.90625 13.546875 18.34375 
Q 12.59375 21.796875 12.59375 25.40625 
z
M 52.59375 0 
L 52.59375 71.40625 
L 44.09375 71.40625 
L 44.09375 44.796875 
L 43.90625 44.796875 
Q 42.5 47.09375 40.453125 48.640625 
Q 38.40625 50.203125 36.09375 51.140625 
Q 33.796875 52.09375 31.5 52.5 
Q 29.203125 52.90625 27.203125 52.90625 
Q 21.296875 52.90625 16.84375 50.75 
Q 12.40625 48.59375 9.453125 44.9375 
Q 6.5 41.296875 5.046875 36.390625 
Q 3.59375 31.5 3.59375 26 
Q 3.59375 20.5 5.09375 15.59375 
Q 6.59375 10.703125 9.546875 7 
Q 12.5 3.296875 16.953125 1.09375 
Q 21.40625 -1.09375 27.40625 -1.09375 
Q 32.796875 -1.09375 37.296875 0.796875 
Q 41.796875 2.703125 43.90625 7 
L 44.09375 7 
L 44.09375 0 
z
" id="HelveticaNeue-100"/>
       <path d="M 15.40625 61 
L 15.40625 71.40625 
L 6.90625 71.40625 
L 6.90625 61 
z
M 6.90625 51.703125 
L 6.90625 0 
L 15.40625 0 
L 15.40625 51.703125 
z
" id="HelveticaNeue-105"/>
       <path d="M 20.40625 -19.703125 
L 26.90625 -19.703125 
Q 19.796875 -8.203125 16.75 3.09375 
Q 13.703125 14.40625 13.703125 27 
Q 13.703125 39.296875 16.703125 50.5 
Q 19.703125 61.703125 26.90625 73.09375 
L 20.40625 73.09375 
Q 12.59375 62.796875 8.640625 50.796875 
Q 4.703125 38.796875 4.703125 27 
Q 4.703125 20.40625 5.796875 14.40625 
Q 6.90625 8.40625 8.953125 2.703125 
Q 11 -3 13.890625 -8.546875 
Q 16.796875 -14.09375 20.40625 -19.703125 
z
" id="HelveticaNeue-40"/>
       <path d="M 50.90625 62.40625 
L 50.90625 69.703125 
L 5 69.703125 
L 5 61.703125 
L 42.203125 61.703125 
Q 36.59375 55.796875 31.75 48.796875 
Q 26.90625 41.796875 23.203125 33.9375 
Q 19.5 26.09375 17.140625 17.546875 
Q 14.796875 9 14.203125 0 
L 23.703125 0 
Q 24.203125 8.296875 26.5 17.09375 
Q 28.796875 25.90625 32.4375 34.203125 
Q 36.09375 42.5 40.796875 49.796875 
Q 45.5 57.09375 50.90625 62.40625 
z
" id="HelveticaNeue-55"/>
       <path d="M 6.90625 0 
L 15.40625 0 
L 15.40625 51.703125 
L 6.90625 51.703125 
z
M 25.5 77 
L 11.40625 60.796875 
L 5 60.796875 
L 14.59375 77 
z
" id="HelveticaNeue-237"/>
       <path d="M -0.90625 -19.703125 
L 5.5 -19.703125 
Q 13.296875 -9.40625 17.25 2.546875 
Q 21.203125 14.5 21.203125 26.296875 
Q 21.203125 32.90625 20.09375 38.90625 
Q 19 44.90625 16.953125 50.65625 
Q 14.90625 56.40625 12 61.953125 
Q 9.09375 67.5 5.5 73.09375 
L -0.90625 73.09375 
Q 6.09375 61.59375 9.140625 50.25 
Q 12.203125 38.90625 12.203125 26.296875 
Q 12.203125 14.09375 9.203125 2.84375 
Q 6.203125 -8.40625 -0.90625 -19.703125 
z
" id="HelveticaNeue-41"/>
      </defs>
      <use xlink:href="#HelveticaNeue-80"/>
      <use x="64.799988" xlink:href="#HelveticaNeue-114"/>
      <use x="96.349976" xlink:href="#HelveticaNeue-111"/>
      <use x="153.749969" xlink:href="#HelveticaNeue-109"/>
      <use x="239.049957" xlink:href="#HelveticaNeue-101"/>
      <use x="292.749954" xlink:href="#HelveticaNeue-100"/>
      <use x="352.049942" xlink:href="#HelveticaNeue-105"/>
      <use x="374.249939" xlink:href="#HelveticaNeue-111"/>
      <use x="431.649933" xlink:href="#HelveticaNeue-32"/>
      <use x="459.449921" xlink:href="#HelveticaNeue-115"/>
      <use x="509.449905" xlink:href="#HelveticaNeue-101"/>
      <use x="563.149902" xlink:href="#HelveticaNeue-109"/>
      <use x="648.44989" xlink:href="#HelveticaNeue-97"/>
      <use x="702.149887" xlink:href="#HelveticaNeue-110"/>
      <use x="757.749878" xlink:href="#HelveticaNeue-97"/>
      <use x="811.449875" xlink:href="#HelveticaNeue-108"/>
      <use x="833.649872" xlink:href="#HelveticaNeue-32"/>
      <use x="861.44986" xlink:href="#HelveticaNeue-40"/>
      <use x="887.349854" xlink:href="#HelveticaNeue-55"/>
      <use x="942.949844" xlink:href="#HelveticaNeue-32"/>
      <use x="970.749832" xlink:href="#HelveticaNeue-100"/>
      <use x="1030.04982" xlink:href="#HelveticaNeue-237"/>
      <use x="1052.249817" xlink:href="#HelveticaNeue-97"/>
      <use x="1105.949814" xlink:href="#HelveticaNeue-115"/>
      <use x="1155.949799" xlink:href="#HelveticaNeue-41"/>
      <use x="1181.849792" xlink:href="#HelveticaNeue-32"/>
     </g>
    </g>
   </g>
  </g>
 </g>
 <defs>
  <clipPath id="p3558051b29">
   <rect height="235.5" width="387.5" x="62.5" y="27"/>
  </clipPath>
 </defs>
</svg>
