<?xml version="1.0" encoding="utf-8" standalone="no"?>
<!DOCTYPE svg PUBLIC "-//W3C//DTD SVG 1.1//EN"
  "http://www.w3.org/Graphics/SVG/1.1/DTD/svg11.dtd">
<!-- Created with matplotlib (https://matplotlib.org/) -->
<svg height="300pt" version="1.1" viewBox="0 0 500 300" width="500pt" xmlns="http://www.w3.org/2000/svg" xmlns:xlink="http://www.w3.org/1999/xlink">
 <metadata>
  <rdf:RDF xmlns:cc="http://creativecommons.org/ns#" xmlns:dc="http://purl.org/dc/elements/1.1/" xmlns:rdf="http://www.w3.org/1999/02/22-rdf-syntax-ns#">
   <cc:Work>
    <dc:type rdf:resource="http://purl.org/dc/dcmitype/StillImage"/>
    <dc:date>2021-06-26T00:14:09.814622</dc:date>
    <dc:format>image/svg+xml</dc:format>
    <dc:creator>
     <cc:Agent>
      <dc:title>Matplotlib v3.3.4, https://matplotlib.org/</dc:title>
     </cc:Agent>
    </dc:creator>
   </cc:Work>
  </rdf:RDF>
 </metadata>
 <defs>
  <style type="text/css">*{stroke-linecap:butt;stroke-linejoin:round;}</style>
 </defs>
 <g id="figure_1">
  <g id="patch_1">
   <path d="M 0 300 
L 500 300 
L 500 0 
L 0 0 
z
" style="fill:#ffffff;"/>
  </g>
  <g id="axes_1">
   <g id="patch_2">
    <path d="M 62.5 262.5 
L 450 262.5 
L 450 36 
L 62.5 36 
z
" style="fill:#ffffff;"/>
   </g>
   <g id="matplotlib.axis_1">
    <g id="xtick_1">
     <g id="line2d_1">
      <defs>
       <path d="M 0 0 
L 0 3.5 
" id="ma09313b89c" style="stroke:#000000;stroke-width:0.8;"/>
      </defs>
      <g>
       <use style="stroke:#000000;stroke-width:0.8;" x="62.5" xlink:href="#ma09313b89c" y="262.5"/>
      </g>
     </g>
    </g>
    <g id="xtick_2">
     <g id="line2d_2">
      <g>
       <use style="stroke:#000000;stroke-width:0.8;" x="77.403846" xlink:href="#ma09313b89c" y="262.5"/>
      </g>
     </g>
     <g id="text_1">
      <!-- Apr -->
      <g transform="translate(69.503846 277)scale(0.1 -0.1)">
       <defs>
        <path d="M 47.015625 16.546875 
L 19.484375 16.546875 
L 13.71875 0 
L 0.875 0 
L 27.734375 71.09375 
L 38.8125 71.09375 
L 65.71875 0 
L 52.828125 0 
z
M 22.953125 26.515625 
L 43.5625 26.515625 
L 33.25 56 
z
" id="Roboto-Medium-65"/>
        <path d="M 52.34375 25.875 
Q 52.34375 13.625 46.78125 6.3125 
Q 41.21875 -0.984375 31.84375 -0.984375 
Q 23.140625 -0.984375 17.921875 4.734375 
L 17.921875 -20.3125 
L 6.0625 -20.3125 
L 6.0625 52.828125 
L 17 52.828125 
L 17.484375 47.46875 
Q 22.703125 53.8125 31.6875 53.8125 
Q 41.359375 53.8125 46.84375 46.609375 
Q 52.34375 39.40625 52.34375 26.609375 
z
M 40.53125 26.90625 
Q 40.53125 34.8125 37.375 39.453125 
Q 34.234375 44.09375 28.375 44.09375 
Q 21.09375 44.09375 17.921875 38.09375 
L 17.921875 14.65625 
Q 21.140625 8.5 28.46875 8.5 
Q 34.125 8.5 37.328125 13.0625 
Q 40.53125 17.625 40.53125 26.90625 
z
" id="Roboto-Medium-112"/>
        <path d="M 33.734375 42 
Q 31.390625 42.390625 28.90625 42.390625 
Q 20.75 42.390625 17.921875 36.140625 
L 17.921875 0 
L 6.0625 0 
L 6.0625 52.828125 
L 17.390625 52.828125 
L 17.671875 46.921875 
Q 21.96875 53.8125 29.59375 53.8125 
Q 32.125 53.8125 33.796875 53.125 
z
" id="Roboto-Medium-114"/>
       </defs>
       <use xlink:href="#Roboto-Medium-65"/>
       <use x="66.552734" xlink:href="#Roboto-Medium-112"/>
       <use x="122.851562" xlink:href="#Roboto-Medium-114"/>
      </g>
     </g>
    </g>
    <g id="xtick_3">
     <g id="line2d_3">
      <g>
       <use style="stroke:#000000;stroke-width:0.8;" x="152.751068" xlink:href="#ma09313b89c" y="262.5"/>
      </g>
     </g>
     <g id="text_2">
      <!-- Jul -->
      <g transform="translate(145.9206 277)scale(0.1 -0.1)">
       <defs>
        <path d="M 36.328125 71.09375 
L 48.640625 71.09375 
L 48.640625 21.234375 
Q 48.640625 11.03125 42.265625 5.015625 
Q 35.890625 -0.984375 25.4375 -0.984375 
Q 14.3125 -0.984375 8.25 4.625 
Q 2.203125 10.25 2.203125 20.265625 
L 14.5 20.265625 
Q 14.5 14.59375 17.3125 11.734375 
Q 20.125 8.890625 25.4375 8.890625 
Q 30.421875 8.890625 33.375 12.1875 
Q 36.328125 15.484375 36.328125 21.296875 
z
" id="Roboto-Medium-74"/>
        <path d="M 38.09375 5.171875 
Q 32.859375 -0.984375 23.25 -0.984375 
Q 14.65625 -0.984375 10.234375 4.046875 
Q 5.8125 9.078125 5.8125 18.609375 
L 5.8125 52.828125 
L 17.671875 52.828125 
L 17.671875 18.75 
Q 17.671875 8.6875 26.03125 8.6875 
Q 34.671875 8.6875 37.703125 14.890625 
L 37.703125 52.828125 
L 49.5625 52.828125 
L 49.5625 0 
L 38.375 0 
z
" id="Roboto-Medium-117"/>
        <path d="M 18.703125 0 
L 6.84375 0 
L 6.84375 75 
L 18.703125 75 
z
" id="Roboto-Medium-108"/>
       </defs>
       <use xlink:href="#Roboto-Medium-74"/>
       <use x="55.517578" xlink:href="#Roboto-Medium-117"/>
       <use x="111.083984" xlink:href="#Roboto-Medium-108"/>
      </g>
     </g>
    </g>
    <g id="xtick_4">
     <g id="line2d_4">
      <g>
       <use style="stroke:#000000;stroke-width:0.8;" x="228.926282" xlink:href="#ma09313b89c" y="262.5"/>
      </g>
     </g>
     <g id="text_3">
      <!-- Oct -->
      <g transform="translate(221.194251 277)scale(0.1 -0.1)">
       <defs>
        <path d="M 63.96875 33.6875 
Q 63.96875 23.25 60.34375 15.359375 
Q 56.734375 7.46875 50.015625 3.234375 
Q 43.3125 -0.984375 34.578125 -0.984375 
Q 25.921875 -0.984375 19.15625 3.234375 
Q 12.40625 7.46875 8.71875 15.28125 
Q 5.03125 23.09375 4.984375 33.296875 
L 4.984375 37.3125 
Q 4.984375 47.703125 8.671875 55.65625 
Q 12.359375 63.625 19.0625 67.84375 
Q 25.78125 72.078125 34.46875 72.078125 
Q 43.171875 72.078125 49.875 67.890625 
Q 56.59375 63.71875 60.25 55.875 
Q 63.921875 48.046875 63.96875 37.640625 
z
M 51.609375 37.40625 
Q 51.609375 49.21875 47.140625 55.515625 
Q 42.671875 61.8125 34.46875 61.8125 
Q 26.46875 61.8125 21.953125 55.53125 
Q 17.4375 49.265625 17.328125 37.796875 
L 17.328125 33.6875 
Q 17.328125 21.96875 21.890625 15.578125 
Q 26.46875 9.1875 34.578125 9.1875 
Q 42.78125 9.1875 47.1875 15.4375 
Q 51.609375 21.6875 51.609375 33.6875 
z
" id="Roboto-Medium-79"/>
        <path d="M 27.78125 8.5 
Q 32.234375 8.5 35.15625 11.078125 
Q 38.09375 13.671875 38.28125 17.484375 
L 49.46875 17.484375 
Q 49.265625 12.546875 46.375 8.265625 
Q 43.5 4 38.5625 1.5 
Q 33.640625 -0.984375 27.9375 -0.984375 
Q 16.84375 -0.984375 10.34375 6.1875 
Q 3.859375 13.375 3.859375 26.03125 
L 3.859375 27.25 
Q 3.859375 39.3125 10.296875 46.5625 
Q 16.75 53.8125 27.875 53.8125 
Q 37.3125 53.8125 43.234375 48.3125 
Q 49.171875 42.828125 49.46875 33.890625 
L 38.28125 33.890625 
Q 38.09375 38.421875 35.1875 41.34375 
Q 32.28125 44.28125 27.78125 44.28125 
Q 22.015625 44.28125 18.890625 40.109375 
Q 15.765625 35.9375 15.71875 27.4375 
L 15.71875 25.53125 
Q 15.71875 16.9375 18.8125 12.71875 
Q 21.921875 8.5 27.78125 8.5 
z
" id="Roboto-Medium-99"/>
        <path d="M 20.953125 65.671875 
L 20.953125 52.828125 
L 30.28125 52.828125 
L 30.28125 44.046875 
L 20.953125 44.046875 
L 20.953125 14.546875 
Q 20.953125 11.53125 22.140625 10.1875 
Q 23.34375 8.84375 26.421875 8.84375 
Q 28.46875 8.84375 30.5625 9.328125 
L 30.5625 0.140625 
Q 26.515625 -0.984375 22.75 -0.984375 
Q 9.078125 -0.984375 9.078125 14.109375 
L 9.078125 44.046875 
L 0.390625 44.046875 
L 0.390625 52.828125 
L 9.078125 52.828125 
L 9.078125 65.671875 
z
" id="Roboto-Medium-116"/>
       </defs>
       <use xlink:href="#Roboto-Medium-79"/>
       <use x="69.042969" xlink:href="#Roboto-Medium-99"/>
       <use x="121.386719" xlink:href="#Roboto-Medium-116"/>
      </g>
     </g>
    </g>
    <g id="xtick_5">
     <g id="line2d_5">
      <g>
       <use style="stroke:#000000;stroke-width:0.8;" x="305.101496" xlink:href="#ma09313b89c" y="262.5"/>
      </g>
     </g>
     <g id="text_4">
      <!-- Jan -->
      <g transform="translate(296.839777 277)scale(0.1 -0.1)">
       <defs>
        <path d="M 37.640625 0 
Q 36.859375 1.515625 36.28125 4.9375 
Q 30.609375 -0.984375 22.40625 -0.984375 
Q 14.453125 -0.984375 9.421875 3.5625 
Q 4.390625 8.109375 4.390625 14.796875 
Q 4.390625 23.25 10.65625 27.765625 
Q 16.9375 32.28125 28.609375 32.28125 
L 35.890625 32.28125 
L 35.890625 35.75 
Q 35.890625 39.84375 33.59375 42.3125 
Q 31.296875 44.78125 26.609375 44.78125 
Q 22.5625 44.78125 19.96875 42.75 
Q 17.390625 40.71875 17.390625 37.59375 
L 5.515625 37.59375 
Q 5.515625 41.9375 8.390625 45.71875 
Q 11.28125 49.515625 16.234375 51.65625 
Q 21.1875 53.8125 27.296875 53.8125 
Q 36.578125 53.8125 42.09375 49.140625 
Q 47.609375 44.484375 47.75 36.03125 
L 47.75 12.203125 
Q 47.75 5.078125 49.75 0.828125 
L 49.75 0 
z
M 24.609375 8.546875 
Q 28.125 8.546875 31.21875 10.25 
Q 34.328125 11.96875 35.890625 14.84375 
L 35.890625 24.8125 
L 29.5 24.8125 
Q 22.90625 24.8125 19.578125 22.515625 
Q 16.265625 20.21875 16.265625 16.015625 
Q 16.265625 12.59375 18.53125 10.5625 
Q 20.796875 8.546875 24.609375 8.546875 
z
" id="Roboto-Medium-97"/>
        <path d="M 17.09375 52.828125 
L 17.4375 46.734375 
Q 23.296875 53.8125 32.8125 53.8125 
Q 49.3125 53.8125 49.609375 34.90625 
L 49.609375 0 
L 37.75 0 
L 37.75 34.234375 
Q 37.75 39.265625 35.578125 41.671875 
Q 33.40625 44.09375 28.46875 44.09375 
Q 21.296875 44.09375 17.78125 37.59375 
L 17.78125 0 
L 5.90625 0 
L 5.90625 52.828125 
z
" id="Roboto-Medium-110"/>
       </defs>
       <use xlink:href="#Roboto-Medium-74"/>
       <use x="55.517578" xlink:href="#Roboto-Medium-97"/>
       <use x="109.619141" xlink:href="#Roboto-Medium-110"/>
      </g>
      <!-- 2021 -->
      <g transform="translate(293.732746 288.03125)scale(0.1 -0.1)">
       <defs>
        <path d="M 53.125 0 
L 5.328125 0 
L 5.328125 8.15625 
L 29 33.984375 
Q 34.125 39.703125 36.296875 43.53125 
Q 38.484375 47.359375 38.484375 51.21875 
Q 38.484375 56.296875 35.625 59.421875 
Q 32.765625 62.546875 27.9375 62.546875 
Q 22.171875 62.546875 19 59.03125 
Q 15.828125 55.515625 15.828125 49.421875 
L 3.953125 49.421875 
Q 3.953125 55.90625 6.90625 61.109375 
Q 9.859375 66.3125 15.34375 69.1875 
Q 20.84375 72.078125 28.03125 72.078125 
Q 38.375 72.078125 44.359375 66.875 
Q 50.34375 61.671875 50.34375 52.484375 
Q 50.34375 47.171875 47.34375 41.328125 
Q 44.34375 35.5 37.5 28.078125 
L 20.125 9.46875 
L 53.125 9.46875 
z
" id="Roboto-Medium-50"/>
        <path d="M 51.65625 29.9375 
Q 51.65625 14.59375 45.921875 6.796875 
Q 40.1875 -0.984375 28.46875 -0.984375 
Q 16.9375 -0.984375 11.109375 6.609375 
Q 5.28125 14.203125 5.125 29.109375 
L 5.125 41.40625 
Q 5.125 56.734375 10.859375 64.40625 
Q 16.609375 72.078125 28.375 72.078125 
Q 40.046875 72.078125 45.78125 64.59375 
Q 51.515625 57.125 51.65625 42.234375 
z
M 39.796875 43.21875 
Q 39.796875 53.21875 37.0625 57.875 
Q 34.328125 62.546875 28.375 62.546875 
Q 22.5625 62.546875 19.828125 58.125 
Q 17.09375 53.71875 16.9375 44.34375 
L 16.9375 28.21875 
Q 16.9375 18.265625 19.71875 13.375 
Q 22.515625 8.5 28.46875 8.5 
Q 34.1875 8.5 36.921875 13.015625 
Q 39.65625 17.53125 39.796875 27.15625 
z
" id="Roboto-Medium-48"/>
        <path d="M 37.453125 0 
L 25.640625 0 
L 25.640625 57.078125 
L 8.203125 51.125 
L 8.203125 61.140625 
L 35.9375 71.34375 
L 37.453125 71.34375 
z
" id="Roboto-Medium-49"/>
       </defs>
       <use xlink:href="#Roboto-Medium-50"/>
       <use x="56.835938" xlink:href="#Roboto-Medium-48"/>
       <use x="113.671875" xlink:href="#Roboto-Medium-50"/>
       <use x="170.507812" xlink:href="#Roboto-Medium-49"/>
      </g>
     </g>
    </g>
    <g id="xtick_6">
     <g id="line2d_6">
      <g>
       <use style="stroke:#000000;stroke-width:0.8;" x="379.620726" xlink:href="#ma09313b89c" y="262.5"/>
      </g>
     </g>
     <g id="text_5">
      <!-- Apr -->
      <g transform="translate(371.720726 277)scale(0.1 -0.1)">
       <use xlink:href="#Roboto-Medium-65"/>
       <use x="66.552734" xlink:href="#Roboto-Medium-112"/>
       <use x="122.851562" xlink:href="#Roboto-Medium-114"/>
      </g>
     </g>
    </g>
    <g id="xtick_7">
     <g id="line2d_7">
      <g>
       <use style="stroke:#000000;stroke-width:0.8;" x="450" xlink:href="#ma09313b89c" y="262.5"/>
      </g>
     </g>
    </g>
    <g id="xtick_8">
     <g id="line2d_8">
      <defs>
       <path d="M 0 0 
L 0 2 
" id="m07e6b246a7" style="stroke:#000000;stroke-width:0.6;"/>
      </defs>
      <g>
       <use style="stroke:#000000;stroke-width:0.6;" x="102.24359" xlink:href="#m07e6b246a7" y="262.5"/>
      </g>
     </g>
    </g>
    <g id="xtick_9">
     <g id="line2d_9">
      <g>
       <use style="stroke:#000000;stroke-width:0.6;" x="127.911325" xlink:href="#m07e6b246a7" y="262.5"/>
      </g>
     </g>
    </g>
    <g id="xtick_10">
     <g id="line2d_10">
      <g>
       <use style="stroke:#000000;stroke-width:0.6;" x="178.418803" xlink:href="#m07e6b246a7" y="262.5"/>
      </g>
     </g>
    </g>
    <g id="xtick_11">
     <g id="line2d_11">
      <g>
       <use style="stroke:#000000;stroke-width:0.6;" x="204.086538" xlink:href="#m07e6b246a7" y="262.5"/>
      </g>
     </g>
    </g>
    <g id="xtick_12">
     <g id="line2d_12">
      <g>
       <use style="stroke:#000000;stroke-width:0.6;" x="254.594017" xlink:href="#m07e6b246a7" y="262.5"/>
      </g>
     </g>
    </g>
    <g id="xtick_13">
     <g id="line2d_13">
      <g>
       <use style="stroke:#000000;stroke-width:0.6;" x="279.433761" xlink:href="#m07e6b246a7" y="262.5"/>
      </g>
     </g>
    </g>
    <g id="xtick_14">
     <g id="line2d_14">
      <g>
       <use style="stroke:#000000;stroke-width:0.6;" x="330.769231" xlink:href="#m07e6b246a7" y="262.5"/>
      </g>
     </g>
    </g>
    <g id="xtick_15">
     <g id="line2d_15">
      <g>
       <use style="stroke:#000000;stroke-width:0.6;" x="353.952991" xlink:href="#m07e6b246a7" y="262.5"/>
      </g>
     </g>
    </g>
    <g id="xtick_16">
     <g id="line2d_16">
      <g>
       <use style="stroke:#000000;stroke-width:0.6;" x="404.46047" xlink:href="#m07e6b246a7" y="262.5"/>
      </g>
     </g>
    </g>
    <g id="xtick_17">
     <g id="line2d_17">
      <g>
       <use style="stroke:#000000;stroke-width:0.6;" x="430.128205" xlink:href="#m07e6b246a7" y="262.5"/>
      </g>
     </g>
    </g>
    <g id="text_6">
     <!-- fecha -->
     <g transform="translate(243.774219 301.5625)scale(0.1 -0.1)">
      <defs>
       <path d="M 11.28125 0 
L 11.28125 45.84375 
L 2.9375 45.84375 
L 2.9375 52.828125 
L 11.28125 52.828125 
L 11.28125 58.25 
Q 11.28125 66.75 15.8125 71.390625 
Q 20.359375 76.03125 28.65625 76.03125 
Q 31.78125 76.03125 34.859375 75.203125 
L 34.375 67.875 
Q 32.078125 68.3125 29.5 68.3125 
Q 25.09375 68.3125 22.703125 65.75 
Q 20.3125 63.1875 20.3125 58.40625 
L 20.3125 52.828125 
L 31.59375 52.828125 
L 31.59375 45.84375 
L 20.3125 45.84375 
L 20.3125 0 
z
" id="Roboto-Regular-102"/>
       <path d="M 28.765625 -0.984375 
Q 18.015625 -0.984375 11.28125 6.078125 
Q 4.546875 13.140625 4.546875 24.953125 
L 4.546875 26.609375 
Q 4.546875 34.46875 7.546875 40.640625 
Q 10.546875 46.828125 15.9375 50.3125 
Q 21.34375 53.8125 27.640625 53.8125 
Q 37.9375 53.8125 43.640625 47.015625 
Q 49.359375 40.234375 49.359375 27.59375 
L 49.359375 23.828125 
L 13.578125 23.828125 
Q 13.765625 16.015625 18.140625 11.203125 
Q 22.515625 6.390625 29.25 6.390625 
Q 34.03125 6.390625 37.34375 8.34375 
Q 40.671875 10.296875 43.171875 13.53125 
L 48.6875 9.234375 
Q 42.046875 -0.984375 28.765625 -0.984375 
z
M 27.640625 46.390625 
Q 22.171875 46.390625 18.453125 42.40625 
Q 14.75 38.421875 13.875 31.25 
L 40.328125 31.25 
L 40.328125 31.9375 
Q 39.9375 38.8125 36.609375 42.59375 
Q 33.296875 46.390625 27.640625 46.390625 
z
" id="Roboto-Regular-101"/>
       <path d="M 28.03125 6.390625 
Q 32.859375 6.390625 36.46875 9.3125 
Q 40.09375 12.25 40.484375 16.65625 
L 49.03125 16.65625 
Q 48.78125 12.109375 45.890625 8 
Q 43.015625 3.90625 38.203125 1.453125 
Q 33.40625 -0.984375 28.03125 -0.984375 
Q 17.234375 -0.984375 10.859375 6.21875 
Q 4.5 13.421875 4.5 25.921875 
L 4.5 27.4375 
Q 4.5 35.15625 7.328125 41.15625 
Q 10.15625 47.171875 15.453125 50.484375 
Q 20.75 53.8125 27.984375 53.8125 
Q 36.859375 53.8125 42.75 48.484375 
Q 48.640625 43.171875 49.03125 34.671875 
L 40.484375 34.671875 
Q 40.09375 39.796875 36.59375 43.09375 
Q 33.109375 46.390625 27.984375 46.390625 
Q 21.09375 46.390625 17.3125 41.421875 
Q 13.53125 36.46875 13.53125 27.09375 
L 13.53125 25.390625 
Q 13.53125 16.265625 17.28125 11.328125 
Q 21.046875 6.390625 28.03125 6.390625 
z
" id="Roboto-Regular-99"/>
       <path d="M 15.875 46.4375 
Q 21.875 53.8125 31.5 53.8125 
Q 48.25 53.8125 48.390625 34.90625 
L 48.390625 0 
L 39.359375 0 
L 39.359375 34.96875 
Q 39.3125 40.671875 36.75 43.40625 
Q 34.1875 46.140625 28.765625 46.140625 
Q 24.359375 46.140625 21.03125 43.796875 
Q 17.71875 41.453125 15.875 37.640625 
L 15.875 0 
L 6.84375 0 
L 6.84375 75 
L 15.875 75 
z
" id="Roboto-Regular-104"/>
       <path d="M 39.453125 0 
Q 38.671875 1.5625 38.1875 5.5625 
Q 31.890625 -0.984375 23.140625 -0.984375 
Q 15.328125 -0.984375 10.328125 3.4375 
Q 5.328125 7.859375 5.328125 14.65625 
Q 5.328125 22.90625 11.59375 27.46875 
Q 17.875 32.03125 29.25 32.03125 
L 38.03125 32.03125 
L 38.03125 36.1875 
Q 38.03125 40.921875 35.203125 43.71875 
Q 32.375 46.53125 26.859375 46.53125 
Q 22.015625 46.53125 18.75 44.09375 
Q 15.484375 41.65625 15.484375 38.1875 
L 6.390625 38.1875 
Q 6.390625 42.140625 9.203125 45.828125 
Q 12.015625 49.515625 16.8125 51.65625 
Q 21.625 53.8125 27.390625 53.8125 
Q 36.53125 53.8125 41.703125 49.234375 
Q 46.875 44.671875 47.078125 36.671875 
L 47.078125 12.359375 
Q 47.078125 5.078125 48.921875 0.78125 
L 48.921875 0 
z
M 24.46875 6.890625 
Q 28.71875 6.890625 32.515625 9.078125 
Q 36.328125 11.28125 38.03125 14.796875 
L 38.03125 25.640625 
L 30.953125 25.640625 
Q 14.359375 25.640625 14.359375 15.921875 
Q 14.359375 11.671875 17.1875 9.28125 
Q 20.015625 6.890625 24.46875 6.890625 
z
" id="Roboto-Regular-97"/>
      </defs>
      <use xlink:href="#Roboto-Regular-102"/>
      <use x="34.716797" xlink:href="#Roboto-Regular-101"/>
      <use x="87.695312" xlink:href="#Roboto-Regular-99"/>
      <use x="140.039062" xlink:href="#Roboto-Regular-104"/>
      <use x="195.117188" xlink:href="#Roboto-Regular-97"/>
     </g>
    </g>
   </g>
   <g id="matplotlib.axis_2">
    <g id="ytick_1">
     <g id="line2d_18">
      <defs>
       <path d="M 0 0 
L -3.5 0 
" id="m40c33122d1" style="stroke:#000000;stroke-width:0.8;"/>
      </defs>
      <g>
       <use style="stroke:#000000;stroke-width:0.8;" x="62.5" xlink:href="#m40c33122d1" y="252.257451"/>
      </g>
     </g>
     <g id="text_7">
      <!-- 0 -->
      <g transform="translate(49.815625 256.007451)scale(0.1 -0.1)">
       <use xlink:href="#Roboto-Medium-48"/>
      </g>
     </g>
    </g>
    <g id="ytick_2">
     <g id="line2d_19">
      <g>
       <use style="stroke:#000000;stroke-width:0.8;" x="62.5" xlink:href="#m40c33122d1" y="225.804587"/>
      </g>
     </g>
     <g id="text_8">
      <!-- 2000 -->
      <g transform="translate(32.7625 229.554587)scale(0.1 -0.1)">
       <use xlink:href="#Roboto-Medium-50"/>
       <use x="56.835938" xlink:href="#Roboto-Medium-48"/>
       <use x="113.671875" xlink:href="#Roboto-Medium-48"/>
       <use x="170.507812" xlink:href="#Roboto-Medium-48"/>
      </g>
     </g>
    </g>
    <g id="ytick_3">
     <g id="line2d_20">
      <g>
       <use style="stroke:#000000;stroke-width:0.8;" x="62.5" xlink:href="#m40c33122d1" y="199.351724"/>
      </g>
     </g>
     <g id="text_9">
      <!-- 4000 -->
      <g transform="translate(32.7625 203.101724)scale(0.1 -0.1)">
       <defs>
        <path d="M 45.453125 25.34375 
L 54.296875 25.34375 
L 54.296875 15.828125 
L 45.453125 15.828125 
L 45.453125 0 
L 33.59375 0 
L 33.59375 15.828125 
L 2.875 15.828125 
L 2.546875 23.046875 
L 33.203125 71.09375 
L 45.453125 71.09375 
z
M 14.984375 25.34375 
L 33.59375 25.34375 
L 33.59375 55.03125 
L 32.71875 53.46875 
z
" id="Roboto-Medium-52"/>
       </defs>
       <use xlink:href="#Roboto-Medium-52"/>
       <use x="56.835938" xlink:href="#Roboto-Medium-48"/>
       <use x="113.671875" xlink:href="#Roboto-Medium-48"/>
       <use x="170.507812" xlink:href="#Roboto-Medium-48"/>
      </g>
     </g>
    </g>
    <g id="ytick_4">
     <g id="line2d_21">
      <g>
       <use style="stroke:#000000;stroke-width:0.8;" x="62.5" xlink:href="#m40c33122d1" y="172.89886"/>
      </g>
     </g>
     <g id="text_10">
      <!-- 6000 -->
      <g transform="translate(32.7625 176.64886)scale(0.1 -0.1)">
       <defs>
        <path d="M 42.234375 71.4375 
L 42.234375 61.625 
L 40.765625 61.625 
Q 30.8125 61.46875 24.84375 56.140625 
Q 18.890625 50.828125 17.78125 41.0625 
Q 23.484375 47.078125 32.375 47.078125 
Q 41.796875 47.078125 47.234375 40.4375 
Q 52.6875 33.796875 52.6875 23.296875 
Q 52.6875 12.453125 46.3125 5.734375 
Q 39.9375 -0.984375 29.59375 -0.984375 
Q 18.953125 -0.984375 12.328125 6.875 
Q 5.71875 14.75 5.71875 27.484375 
L 5.71875 31.546875 
Q 5.71875 50.25 14.8125 60.84375 
Q 23.921875 71.4375 41.015625 71.4375 
z
M 29.5 37.5 
Q 25.59375 37.5 22.34375 35.296875 
Q 19.09375 33.109375 17.578125 29.4375 
L 17.578125 25.828125 
Q 17.578125 17.921875 20.890625 13.25 
Q 24.21875 8.59375 29.484375 8.59375 
Q 34.765625 8.59375 37.84375 12.546875 
Q 40.921875 16.5 40.921875 22.9375 
Q 40.921875 29.390625 37.796875 33.4375 
Q 34.671875 37.5 29.5 37.5 
z
" id="Roboto-Medium-54"/>
       </defs>
       <use xlink:href="#Roboto-Medium-54"/>
       <use x="56.835938" xlink:href="#Roboto-Medium-48"/>
       <use x="113.671875" xlink:href="#Roboto-Medium-48"/>
       <use x="170.507812" xlink:href="#Roboto-Medium-48"/>
      </g>
     </g>
    </g>
    <g id="ytick_5">
     <g id="line2d_22">
      <g>
       <use style="stroke:#000000;stroke-width:0.8;" x="62.5" xlink:href="#m40c33122d1" y="146.445996"/>
      </g>
     </g>
     <g id="text_11">
      <!-- 8000 -->
      <g transform="translate(32.7625 150.195996)scale(0.1 -0.1)">
       <defs>
        <path d="M 50.09375 52.34375 
Q 50.09375 47.125 47.40625 43.046875 
Q 44.734375 38.96875 40.09375 36.625 
Q 45.65625 34.03125 48.65625 29.53125 
Q 51.65625 25.046875 51.65625 19.390625 
Q 51.65625 10.015625 45.3125 4.515625 
Q 38.96875 -0.984375 28.421875 -0.984375 
Q 17.828125 -0.984375 11.453125 4.53125 
Q 5.078125 10.0625 5.078125 19.390625 
Q 5.078125 25.09375 8.109375 29.640625 
Q 11.140625 34.1875 16.609375 36.625 
Q 12.015625 38.96875 9.34375 43.046875 
Q 6.6875 47.125 6.6875 52.34375 
Q 6.6875 61.421875 12.546875 66.75 
Q 18.40625 72.078125 28.375 72.078125 
Q 38.375 72.078125 44.234375 66.75 
Q 50.09375 61.421875 50.09375 52.34375 
z
M 39.796875 19.96875 
Q 39.796875 25.25 36.640625 28.484375 
Q 33.5 31.734375 28.3125 31.734375 
Q 23.140625 31.734375 20.03125 28.515625 
Q 16.9375 25.296875 16.9375 19.96875 
Q 16.9375 14.75 19.984375 11.625 
Q 23.046875 8.5 28.421875 8.5 
Q 33.796875 8.5 36.796875 11.515625 
Q 39.796875 14.546875 39.796875 19.96875 
z
M 38.28125 51.90625 
Q 38.28125 56.546875 35.59375 59.546875 
Q 32.90625 62.546875 28.359375 62.546875 
Q 23.828125 62.546875 21.1875 59.6875 
Q 18.5625 56.84375 18.5625 51.90625 
Q 18.5625 47.015625 21.21875 44.140625 
Q 23.875 41.265625 28.40625 41.265625 
Q 32.953125 41.265625 35.609375 44.140625 
Q 38.28125 47.015625 38.28125 51.90625 
z
" id="Roboto-Medium-56"/>
       </defs>
       <use xlink:href="#Roboto-Medium-56"/>
       <use x="56.835938" xlink:href="#Roboto-Medium-48"/>
       <use x="113.671875" xlink:href="#Roboto-Medium-48"/>
       <use x="170.507812" xlink:href="#Roboto-Medium-48"/>
      </g>
     </g>
    </g>
    <g id="ytick_6">
     <g id="line2d_23">
      <g>
       <use style="stroke:#000000;stroke-width:0.8;" x="62.5" xlink:href="#m40c33122d1" y="119.993133"/>
      </g>
     </g>
     <g id="text_12">
      <!-- 10000 -->
      <g transform="translate(27.078125 123.743133)scale(0.1 -0.1)">
       <use xlink:href="#Roboto-Medium-49"/>
       <use x="56.835938" xlink:href="#Roboto-Medium-48"/>
       <use x="113.671875" xlink:href="#Roboto-Medium-48"/>
       <use x="170.507812" xlink:href="#Roboto-Medium-48"/>
       <use x="227.34375" xlink:href="#Roboto-Medium-48"/>
      </g>
     </g>
    </g>
    <g id="ytick_7">
     <g id="line2d_24">
      <g>
       <use style="stroke:#000000;stroke-width:0.8;" x="62.5" xlink:href="#m40c33122d1" y="93.540269"/>
      </g>
     </g>
     <g id="text_13">
      <!-- 12000 -->
      <g transform="translate(27.078125 97.290269)scale(0.1 -0.1)">
       <use xlink:href="#Roboto-Medium-49"/>
       <use x="56.835938" xlink:href="#Roboto-Medium-50"/>
       <use x="113.671875" xlink:href="#Roboto-Medium-48"/>
       <use x="170.507812" xlink:href="#Roboto-Medium-48"/>
       <use x="227.34375" xlink:href="#Roboto-Medium-48"/>
      </g>
     </g>
    </g>
    <g id="ytick_8">
     <g id="line2d_25">
      <g>
       <use style="stroke:#000000;stroke-width:0.8;" x="62.5" xlink:href="#m40c33122d1" y="67.087405"/>
      </g>
     </g>
     <g id="text_14">
      <!-- 14000 -->
      <g transform="translate(27.078125 70.837405)scale(0.1 -0.1)">
       <use xlink:href="#Roboto-Medium-49"/>
       <use x="56.835938" xlink:href="#Roboto-Medium-52"/>
       <use x="113.671875" xlink:href="#Roboto-Medium-48"/>
       <use x="170.507812" xlink:href="#Roboto-Medium-48"/>
       <use x="227.34375" xlink:href="#Roboto-Medium-48"/>
      </g>
     </g>
    </g>
    <g id="ytick_9">
     <g id="line2d_26">
      <g>
       <use style="stroke:#000000;stroke-width:0.8;" x="62.5" xlink:href="#m40c33122d1" y="40.634542"/>
      </g>
     </g>
     <g id="text_15">
      <!-- 16000 -->
      <g transform="translate(27.078125 44.384542)scale(0.1 -0.1)">
       <use xlink:href="#Roboto-Medium-49"/>
       <use x="56.835938" xlink:href="#Roboto-Medium-54"/>
       <use x="113.671875" xlink:href="#Roboto-Medium-48"/>
       <use x="170.507812" xlink:href="#Roboto-Medium-48"/>
       <use x="227.34375" xlink:href="#Roboto-Medium-48"/>
      </g>
     </g>
    </g>
   </g>
   <g id="line2d_27">
    <path clip-path="url(#peb3454d505)" d="M 63.327991 252.125187 
L 65.811966 252.191319 
L 66.639957 252.15164 
L 67.467949 251.900338 
L 68.29594 252.191319 
L 69.123932 252.204545 
L 69.951923 251.873885 
L 70.779915 251.715167 
L 71.607906 252.072281 
L 72.435897 252.164866 
L 73.263889 251.754847 
L 74.919872 251.820979 
L 75.747863 251.529997 
L 76.575855 251.728394 
L 77.403846 251.18611 
L 78.231838 251.358054 
L 79.059829 251.675488 
L 79.887821 250.881902 
L 80.715812 251.860658 
L 81.543803 251.582903 
L 82.371795 251.146431 
L 83.199786 250.538015 
L 84.027778 251.7813 
L 84.855769 251.093525 
L 85.683761 251.675488 
L 86.511752 252.006149 
L 88.167735 251.7813 
L 88.995726 251.622582 
L 89.823718 251.688715 
L 90.651709 251.477092 
L 92.307692 250.683506 
L 93.135684 251.212563 
L 93.963675 251.278695 
L 94.791667 251.146431 
L 95.619658 251.635809 
L 96.44765 249.88992 
L 97.275641 251.080299 
L 98.103632 251.040619 
L 98.931624 250.868676 
L 99.759615 251.41096 
L 100.587607 250.498336 
L 101.415598 251.080299 
L 102.24359 250.313166 
L 103.071581 251.318375 
L 103.899573 250.776091 
L 104.727564 250.577694 
L 105.555556 249.70475 
L 106.383547 249.612165 
L 107.211538 250.538015 
L 108.03953 249.281504 
L 108.867521 249.4799 
L 109.695513 250.577694 
L 110.523504 250.273486 
L 111.351496 248.845032 
L 112.179487 250.643826 
L 113.007479 249.493127 
L 113.83547 250.736412 
L 114.663462 248.580503 
L 116.319444 249.651844 
L 117.147436 249.400542 
L 117.975427 248.911164 
L 118.803419 250.643826 
L 119.63141 248.55405 
L 120.459402 247.204954 
L 121.287393 249.122787 
L 122.115385 249.929599 
L 122.943376 247.562068 
L 123.771368 248.223389 
L 124.599359 245.7765 
L 125.42735 243.951252 
L 126.255342 245.935217 
L 127.083333 247.6282 
L 127.911325 247.191728 
L 128.739316 247.350445 
L 129.567308 245.564877 
L 130.395299 245.18131 
L 131.223291 246.940426 
L 132.051282 247.284313 
L 132.879274 248.077899 
L 133.707265 246.437821 
L 134.535256 247.231407 
L 135.363248 246.70235 
L 136.191239 246.874293 
L 137.019231 246.913973 
L 137.847222 245.406159 
L 138.675214 244.599347 
L 139.503205 247.390124 
L 140.331197 246.503953 
L 141.159188 244.956461 
L 142.815171 238.501962 
L 143.643162 245.287122 
L 144.471154 239.811379 
L 145.299145 241.25306 
L 146.127137 240.790135 
L 146.955128 239.560077 
L 147.78312 235.459883 
L 148.611111 240.353663 
L 149.439103 231.4655 
L 150.267094 241.517589 
L 151.095085 233.833032 
L 151.923077 242.800552 
L 152.751068 233.766899 
L 153.57906 234.996958 
L 154.407051 233.72722 
L 155.235043 237.271904 
L 156.063034 235.24826 
L 156.891026 237.972905 
L 157.719017 231.068707 
L 158.547009 232.655879 
L 159.375 231.042255 
L 160.202991 216.493179 
L 161.030983 219.442674 
L 161.858974 224.283548 
L 162.686966 230.685141 
L 163.514957 227.815005 
L 164.342949 226.849476 
L 165.17094 228.83344 
L 165.998932 224.336454 
L 166.826923 232.576521 
L 167.654915 214.310818 
L 168.482906 221.439865 
L 169.310897 222.365715 
L 170.96688 202.645105 
L 171.794872 208.755717 
L 172.622863 208.702811 
L 173.450855 212.128457 
L 174.278846 217.339671 
L 175.106838 192.037507 
L 176.762821 212.366533 
L 177.590812 203.081578 
L 178.418803 216.532859 
L 179.246795 191.587808 
L 180.074786 221.783752 
L 180.902778 222.312809 
L 182.558761 172.039142 
L 183.386752 217.511615 
L 184.214744 206.15011 
L 185.042735 207.419847 
L 185.870726 207.538885 
L 186.698718 186.654349 
L 187.526709 197.724873 
L 188.354701 201.481179 
L 189.182692 192.645923 
L 190.010684 196.441909 
L 190.838675 191.13811 
L 191.666667 207.644697 
L 192.494658 190.701637 
L 193.32265 185.926895 
L 194.150641 209.734473 
L 194.978632 222.696376 
L 195.806624 195.833493 
L 196.634615 223.516415 
L 197.462607 193.690811 
L 198.290598 219.376542 
L 199.11859 197.076778 
L 199.946581 219.019428 
L 200.774573 223.331245 
L 201.602564 208.107622 
L 202.430556 227.815005 
L 203.258547 225.143266 
L 204.086538 221.400186 
L 204.91453 212.287174 
L 205.742521 213.504006 
L 206.570513 223.675132 
L 207.398504 228.64827 
L 208.226496 220.23626 
L 209.054487 225.487153 
L 209.882479 224.204189 
L 210.71047 222.140866 
L 211.538462 224.442265 
L 212.366453 228.529232 
L 213.194444 225.487153 
L 214.022436 226.42623 
L 214.850427 229.534441 
L 215.678419 233.198163 
L 216.50641 232.602973 
L 217.334402 221.916017 
L 218.162393 232.907181 
L 218.990385 228.516006 
L 219.818376 228.09276 
L 220.646368 226.399777 
L 221.474359 227.881137 
L 222.30235 231.571312 
L 223.130342 234.705976 
L 223.958333 231.769708 
L 224.786325 220.540468 
L 225.614316 234.83824 
L 226.442308 235.155675 
L 227.270299 232.047463 
L 228.098291 225.381342 
L 228.926282 234.785335 
L 229.754274 232.960087 
L 230.582265 231.782935 
L 231.410256 234.4679 
L 232.238248 225.672323 
L 233.066239 220.408203 
L 233.894231 222.048281 
L 234.722222 235.631826 
L 235.550214 225.407795 
L 236.378205 232.563294 
L 237.206197 231.968105 
L 238.034188 238.740038 
L 238.862179 232.946861 
L 239.690171 236.240242 
L 240.518162 233.568503 
L 241.346154 238.105169 
L 242.174145 231.597765 
L 243.002137 231.399368 
L 243.830128 239.017793 
L 244.65812 231.849067 
L 245.486111 218.437465 
L 246.314103 221.823432 
L 247.142094 231.849067 
L 247.970085 218.768126 
L 248.798077 235.592147 
L 249.626068 236.412186 
L 250.45406 227.920817 
L 251.282051 229.217007 
L 252.110043 213.199798 
L 252.938034 228.846667 
L 253.766026 223.19898 
L 254.594017 233.899164 
L 255.422009 233.647862 
L 256.25 232.999766 
L 257.905983 222.974131 
L 258.733974 222.762508 
L 259.561966 230.460292 
L 260.389957 235.790544 
L 261.217949 231.386142 
L 262.04594 230.90999 
L 262.873932 224.058698 
L 263.701923 223.132848 
L 264.529915 233.118804 
L 265.357906 228.886346 
L 266.185897 239.745247 
L 267.013889 236.584129 
L 267.84188 231.439047 
L 268.669872 220.408203 
L 269.497863 226.915608 
L 270.325855 226.849476 
L 271.153846 240.32721 
L 271.981838 218.027446 
L 272.809829 242.906364 
L 273.637821 221.757299 
L 274.465812 223.820623 
L 275.293803 215.607009 
L 276.121795 218.291974 
L 276.949786 220.077543 
L 277.777778 227.127231 
L 278.605769 235.909581 
L 279.433761 226.942061 
L 280.261752 216.757708 
L 281.089744 215.117631 
L 281.917735 231.65067 
L 282.745726 210.461927 
L 283.573718 229.666706 
L 284.401709 228.899573 
L 285.229701 216.82384 
L 286.057692 233.885937 
L 287.713675 210.964531 
L 288.541667 216.030254 
L 289.369658 219.164919 
L 290.19765 226.095569 
L 291.025641 198.677176 
L 291.853632 214.00661 
L 292.681624 198.571364 
L 293.509615 210.845493 
L 294.337607 197.301627 
L 295.165598 211.771343 
L 295.99359 236.187336 
L 296.821581 206.784979 
L 297.649573 183.334515 
L 299.305556 196.494815 
L 300.133547 226.148475 
L 300.961538 210.792587 
L 301.78953 221.836658 
L 302.617521 189.974184 
L 303.445513 186.746934 
L 304.273504 169.698064 
L 305.929487 225.712002 
L 306.757479 213.093986 
L 307.58547 186.006254 
L 308.413462 182.210268 
L 309.241453 175.663184 
L 310.069444 181.218286 
L 310.897436 171.483632 
L 311.725427 170.306479 
L 312.553419 195.489606 
L 313.38141 194.616661 
L 314.209402 212.538476 
L 315.037393 189.960957 
L 315.865385 150.281662 
L 316.693376 140.586687 
L 317.521368 190.384203 
L 318.349359 183.069986 
L 319.17735 200.661141 
L 320.005342 173.044351 
L 320.833333 177.223903 
L 321.661325 198.492006 
L 322.489316 171.920104 
L 323.317308 178.268791 
L 324.145299 198.941704 
L 324.973291 199.483988 
L 325.801282 209.046698 
L 326.629274 204.787787 
L 328.285256 216.188972 
L 329.113248 220.447883 
L 329.941239 204.390994 
L 330.769231 220.97694 
L 331.597222 211.96974 
L 332.425214 212.022646 
L 333.253205 209.099604 
L 334.081197 227.669514 
L 334.909188 226.082343 
L 335.737179 231.65067 
L 336.565171 239.626209 
L 337.393162 234.970505 
L 338.221154 232.24586 
L 339.049145 229.124422 
L 339.877137 230.301574 
L 340.705128 234.891146 
L 341.53312 236.95447 
L 342.361111 238.501962 
L 343.189103 234.216598 
L 344.017094 216.241877 
L 344.845085 235.764091 
L 345.673077 237.417395 
L 346.501068 237.906773 
L 347.32906 237.192545 
L 348.157051 237.549659 
L 348.985043 239.864285 
L 349.813034 236.213789 
L 350.641026 238.422603 
L 351.469017 240.14204 
L 352.297009 238.673906 
L 353.125 241.821796 
L 353.952991 242.893137 
L 354.780983 240.062681 
L 355.608974 240.856267 
L 356.436966 242.747647 
L 357.264957 242.906364 
L 358.092949 241.332418 
L 358.92094 240.710776 
L 359.748932 245.485518 
L 360.576923 244.718385 
L 361.404915 243.210572 
L 362.232906 238.25066 
L 363.060897 241.001758 
L 363.888889 242.245042 
L 364.71688 242.377307 
L 365.544872 246.239425 
L 366.372863 241.835023 
L 367.200855 242.668288 
L 368.028846 241.715985 
L 368.856838 240.28753 
L 369.684829 217.921634 
L 370.512821 239.388133 
L 371.340812 243.805761 
L 372.168803 241.001758 
L 372.996795 240.221398 
L 373.824786 237.919999 
L 374.652778 233.846258 
L 375.480769 238.938434 
L 376.308761 238.422603 
L 377.964744 231.359689 
L 378.792735 231.610991 
L 379.620726 230.328027 
L 380.448718 228.383742 
L 381.276709 233.687541 
L 382.104701 234.679523 
L 382.932692 237.232225 
L 383.760684 222.656697 
L 384.588675 224.217416 
L 385.416667 217.97454 
L 386.244658 215.355706 
L 387.07265 229.706385 
L 387.900641 198.161345 
L 388.728632 208.636679 
L 389.556624 206.692393 
L 390.384615 203.478371 
L 391.212607 195.277983 
L 392.86859 202.010237 
L 393.696581 194.32568 
L 394.524573 223.635453 
L 395.352564 195.767361 
L 396.180556 194.153736 
L 397.008547 168.04476 
L 397.836538 190.265165 
L 398.66453 194.722473 
L 399.492521 205.713638 
L 400.320513 201.666349 
L 401.148504 198.386194 
L 401.976496 189.021881 
L 402.804487 199.801422 
L 404.46047 180.451153 
L 405.288462 194.10083 
L 406.116453 210.660323 
L 406.944444 189.114466 
L 407.772436 198.743308 
L 408.600427 189.80224 
L 409.428419 176.86679 
L 410.25641 182.818684 
L 411.084402 176.615487 
L 411.912393 206.507223 
L 412.740385 179.697246 
L 413.568376 186.045933 
L 414.396368 149.964227 
L 415.224359 193.651132 
L 416.05235 191.50845 
L 416.880342 178.652358 
L 417.708333 212.750099 
L 418.536325 199.536894 
L 419.364316 190.595826 
L 420.192308 187.315671 
L 421.020299 177.23713 
L 421.848291 180.570191 
L 422.676282 147.226356 
L 423.504274 184.749743 
L 424.332265 148.006715 
L 425.160256 144.316541 
L 425.988248 124.053647 
L 426.816239 141.049612 
L 427.644231 136.936192 
L 428.472222 157.053595 
L 429.300214 151.538173 
L 430.128205 172.991445 
L 430.956197 113.141841 
L 431.784188 113.327011 
L 432.612179 101.568713 
L 433.440171 113.40637 
L 434.268162 140.560234 
L 435.096154 140.996707 
L 435.924145 159.870825 
L 436.752137 131.143015 
L 437.580128 110.761083 
L 438.40812 113.750257 
L 439.236111 118.44564 
L 440.064103 132.928583 
L 440.892094 141.142197 
L 441.720085 152.120136 
L 442.548077 140.758631 
L 443.376068 87.046091 
L 444.20406 104.994359 
L 445.032051 97.124632 
L 445.860043 122.78391 
L 446.688034 151.961419 
L 447.516026 148.641584 
L 448.344017 128.550634 
L 449.172009 46.295455 
L 450 123.868477 
L 450 123.868477 
" style="fill:none;stroke:#000000;stroke-dasharray:1.5,2.475;stroke-dashoffset:0;stroke-opacity:0.5;stroke-width:1.5;"/>
   </g>
   <g id="line2d_28">
    <path clip-path="url(#peb3454d505)" d="M 62.5 252.15164 
L 66.639957 252.138413 
L 76.575855 251.569677 
L 78.231838 251.437412 
L 79.887821 251.397733 
L 82.371795 251.278695 
L 85.683761 251.569677 
L 86.511752 251.715167 
L 88.995726 251.675488 
L 90.651709 251.37128 
L 92.307692 251.199337 
L 93.135684 251.18611 
L 94.791667 251.027393 
L 97.275641 250.961261 
L 98.931624 250.881902 
L 100.587607 250.921582 
L 102.24359 250.842223 
L 107.211538 249.916373 
L 110.523504 249.837014 
L 111.351496 249.982505 
L 114.663462 249.598938 
L 115.491453 249.387315 
L 116.319444 249.4799 
L 117.975427 249.162466 
L 120.459402 248.831805 
L 121.287393 248.699541 
L 124.599359 246.794935 
L 125.42735 246.424595 
L 126.255342 246.437821 
L 127.083333 246.305557 
L 127.911325 246.33201 
L 128.739316 246.570085 
L 132.879274 246.940426 
L 133.707265 247.099143 
L 134.535256 247.046237 
L 135.363248 246.821388 
L 136.191239 246.411368 
L 137.847222 246.265878 
L 138.675214 246.067481 
L 139.503205 245.525197 
L 140.331197 244.506762 
L 141.159188 244.136422 
L 143.643162 241.689532 
L 144.471154 241.107569 
L 145.299145 240.353663 
L 146.127137 240.208172 
L 146.955128 238.594547 
L 147.78312 238.396151 
L 148.611111 237.4703 
L 149.439103 237.562885 
L 150.267094 237.126413 
L 151.095085 237.073507 
L 151.923077 236.372507 
L 152.751068 236.663488 
L 153.57906 235.896355 
L 154.407051 236.160884 
L 155.235043 235.089543 
L 156.063034 234.930825 
L 156.891026 234.348862 
L 157.719017 232.166501 
L 158.547009 229.468309 
L 159.375 227.285948 
L 160.202991 225.817814 
L 161.030983 225.262304 
L 161.858974 224.931643 
L 162.686966 225.328436 
L 164.342949 227.854684 
L 165.17094 226.79657 
L 165.998932 225.4607 
L 166.826923 224.402586 
L 167.654915 222.445074 
L 168.482906 219.072334 
L 169.310897 216.360915 
L 170.138889 213.067534 
L 170.96688 211.956513 
L 171.794872 211.136475 
L 172.622863 208.306018 
L 173.450855 207.07596 
L 174.278846 207.512432 
L 175.106838 206.533676 
L 175.934829 207.036281 
L 176.762821 205.197807 
L 177.590812 205.92526 
L 178.418803 209.417038 
L 179.246795 209.33768 
L 180.074786 205.237486 
L 180.902778 205.382977 
L 181.730769 203.650314 
L 182.558761 204.4439 
L 183.386752 203.10803 
L 184.214744 200.502423 
L 185.042735 200.938896 
L 185.870726 202.896408 
L 186.698718 199.655932 
L 187.526709 198.06876 
L 188.354701 196.150927 
L 189.182692 196.203833 
L 190.010684 196.73289 
L 190.838675 195.449926 
L 191.666667 196.111248 
L 192.494658 199.457535 
L 193.32265 200.475971 
L 194.150641 204.562938 
L 194.978632 204.562938 
L 195.806624 207.975357 
L 196.634615 209.007019 
L 198.290598 209.866737 
L 199.11859 211.5994 
L 199.946581 212.855911 
L 200.774573 216.810614 
L 201.602564 218.053898 
L 202.430556 219.984957 
L 203.258547 219.336862 
L 204.086538 219.125239 
L 204.91453 220.79177 
L 205.742521 220.170128 
L 206.570513 220.685958 
L 207.398504 221.651488 
L 208.226496 223.027037 
L 209.054487 224.071925 
L 209.882479 224.481944 
L 210.71047 224.389359 
L 212.366453 225.804587 
L 213.194444 227.034646 
L 214.022436 228.476327 
L 214.850427 228.568912 
L 215.678419 229.111195 
L 216.50641 229.455083 
L 217.334402 229.481536 
L 218.162393 228.978931 
L 218.990385 228.31761 
L 219.818376 228.238251 
L 220.646368 229.521215 
L 221.474359 229.719611 
L 222.30235 229.24346 
L 223.130342 229.891555 
L 223.958333 230.738047 
L 224.786325 231.200972 
L 225.614316 230.685141 
L 226.442308 230.764499 
L 227.270299 231.108387 
L 228.098291 232.166501 
L 228.926282 232.126822 
L 229.754274 231.346462 
L 230.582265 230.103178 
L 231.410256 229.097969 
L 232.238248 228.436647 
L 233.066239 227.404986 
L 233.894231 227.444665 
L 234.722222 227.669514 
L 236.378205 231.50518 
L 237.206197 233.251069 
L 238.034188 233.475918 
L 238.862179 234.904373 
L 239.690171 234.917599 
L 241.346154 234.626618 
L 242.174145 234.481127 
L 243.830128 230.711594 
L 244.65812 229.322818 
L 245.486111 227.404986 
L 246.314103 227.193363 
L 247.142094 227.140457 
L 247.970085 227.563703 
L 248.798077 229.190554 
L 250.45406 227.682741 
L 251.282051 227.338854 
L 252.110043 226.584947 
L 252.938034 226.492362 
L 253.766026 227.656288 
L 254.594017 228.436647 
L 255.422009 229.706385 
L 256.25 228.899573 
L 257.077991 228.978931 
L 257.905983 228.754082 
L 258.733974 228.661497 
L 259.561966 228.952478 
L 261.217949 229.084743 
L 262.04594 229.640253 
L 262.873932 229.097969 
L 263.701923 229.481536 
L 264.529915 230.552877 
L 265.357906 231.412595 
L 267.013889 231.50518 
L 267.84188 230.235442 
L 268.669872 230.658688 
L 269.497863 228.423421 
L 270.325855 229.150875 
L 271.153846 228.780535 
L 271.981838 229.164101 
L 272.809829 227.629835 
L 273.637821 225.817814 
L 274.465812 223.000584 
L 275.293803 223.027037 
L 276.121795 222.405395 
L 276.949786 223.675132 
L 278.605769 223.97934 
L 279.433761 224.878737 
L 280.261752 223.38415 
L 281.089744 222.894772 
L 281.917735 222.233451 
L 282.745726 221.744073 
L 283.573718 223.728038 
L 284.401709 224.667114 
L 285.229701 222.841867 
L 286.057692 222.788961 
L 286.885684 220.963713 
L 287.713675 220.183354 
L 289.369658 215.487971 
L 290.19765 212.763326 
L 291.025641 211.758117 
L 291.853632 208.92766 
L 292.681624 207.327262 
L 293.509615 208.544094 
L 294.337607 210.369342 
L 295.165598 208.160527 
L 295.99359 206.745299 
L 296.821581 203.954522 
L 297.649573 205.091995 
L 298.477564 204.4439 
L 299.305556 204.205824 
L 300.133547 204.549712 
L 300.961538 205.422656 
L 301.78953 202.168954 
L 302.617521 199.497215 
L 303.445513 197.658741 
L 304.273504 198.081986 
L 305.101496 196.322871 
L 305.929487 196.838702 
L 306.757479 195.661549 
L 307.58547 194.762152 
L 308.413462 189.4319 
L 309.241453 181.94574 
L 310.069444 179.31368 
L 310.897436 180.451153 
L 311.725427 184.670384 
L 312.553419 188.09603 
L 313.38141 186.495632 
L 314.209402 182.554155 
L 315.037393 181.482814 
L 315.865385 177.819093 
L 316.693376 177.369394 
L 317.521368 174.843146 
L 318.349359 175.729317 
L 319.17735 181.826702 
L 320.005342 185.014272 
L 320.833333 183.334515 
L 321.661325 184.432309 
L 322.489316 184.961366 
L 324.145299 193.809849 
L 324.973291 197.010645 
L 326.629274 208.37215 
L 327.457265 209.89319 
L 328.285256 212.472344 
L 329.941239 214.00661 
L 330.769231 213.63627 
L 332.425214 215.659914 
L 335.737179 229.627026 
L 336.565171 232.206181 
L 337.393162 232.563294 
L 338.221154 233.158484 
L 339.049145 233.409786 
L 339.877137 233.436239 
L 340.705128 233.819805 
L 341.53312 232.523615 
L 343.189103 232.960087 
L 344.017094 233.052672 
L 344.845085 233.330427 
L 345.673077 233.899164 
L 346.501068 235.261486 
L 347.32906 237.523206 
L 349.813034 238.290339 
L 350.641026 238.845849 
L 351.469017 239.560077 
L 352.297009 239.877511 
L 353.952991 241.054663 
L 355.608974 241.768891 
L 356.436966 241.689532 
L 357.264957 241.99374 
L 358.092949 242.575703 
L 358.92094 242.95927 
L 360.576923 242.377307 
L 363.060897 242.205363 
L 363.888889 242.126004 
L 364.71688 242.324401 
L 365.544872 242.7741 
L 366.372863 242.641835 
L 367.200855 239.877511 
L 368.028846 238.554868 
L 368.856838 237.562885 
L 369.684829 237.245451 
L 370.512821 237.245451 
L 371.340812 237.4703 
L 372.168803 237.4703 
L 372.996795 239.348454 
L 373.824786 238.885529 
L 378.792735 232.298766 
L 379.620726 231.769708 
L 380.448718 232.179728 
L 381.276709 231.610991 
L 382.104701 230.790952 
L 382.932692 229.084743 
L 383.760684 226.756891 
L 384.588675 225.196172 
L 385.416667 220.818223 
L 386.244658 217.061916 
L 387.07265 214.469535 
L 390.384615 201.944104 
L 391.212607 201.031481 
L 392.040598 202.195407 
L 393.696581 201.322462 
L 394.524573 198.399421 
L 396.180556 193.756943 
L 397.008547 193.598226 
L 397.836538 191.825884 
L 398.66453 193.36015 
L 399.492521 194.246321 
L 400.320513 197.632288 
L 401.148504 197.341306 
L 402.804487 193.095622 
L 403.632479 193.598226 
L 404.46047 193.108848 
L 405.288462 194.431491 
L 406.116453 194.034698 
L 406.944444 192.857546 
L 407.772436 192.077186 
L 408.600427 188.87639 
L 409.428419 187.487614 
L 411.084402 185.477197 
L 411.912393 181.747343 
L 412.740385 182.408665 
L 413.568376 182.527703 
L 414.396368 182.249947 
L 415.224359 183.4271 
L 416.05235 187.156954 
L 416.880342 189.696429 
L 417.708333 194.087604 
L 419.364316 190.437109 
L 421.020299 180.292436 
L 422.676282 167.251174 
L 423.504274 158.931748 
L 425.160256 146.313732 
L 425.988248 145.361429 
L 426.816239 142.107727 
L 427.644231 145.811128 
L 429.300214 143.390691 
L 430.956197 131.553034 
L 431.784188 126.685707 
L 432.612179 124.357855 
L 433.440171 124.714969 
L 434.268162 129.476484 
L 435.096154 131.394317 
L 435.924145 132.53179 
L 436.752137 131.116562 
L 437.580128 128.180294 
L 438.40812 126.976689 
L 439.236111 127.108953 
L 440.064103 130.362655 
L 440.892094 129.701334 
L 441.720085 128.00835 
L 443.376068 119.014377 
L 444.20406 118.234017 
L 445.032051 119.080509 
L 445.860043 121.315776 
L 446.688034 119.37149 
L 447.516026 119.768283 
L 448.344017 119.278905 
L 449.172009 115.430014 
L 450 107.58674 
L 450 107.58674 
" style="fill:none;stroke:#b3220f;stroke-linecap:square;stroke-width:1.5;"/>
   </g>
   <g id="patch_3">
    <path d="M 62.5 262.5 
L 62.5 36 
" style="fill:none;stroke:#000000;stroke-linecap:square;stroke-linejoin:miter;stroke-width:0.8;"/>
   </g>
   <g id="patch_4">
    <path d="M 450 262.5 
L 450 36 
" style="fill:none;stroke:#000000;stroke-linecap:square;stroke-linejoin:miter;stroke-width:0.8;"/>
   </g>
   <g id="patch_5">
    <path d="M 62.5 262.5 
L 450 262.5 
" style="fill:none;stroke:#000000;stroke-linecap:square;stroke-linejoin:miter;stroke-width:0.8;"/>
   </g>
   <g id="patch_6">
    <path d="M 62.5 36 
L 450 36 
" style="fill:none;stroke:#000000;stroke-linecap:square;stroke-linejoin:miter;stroke-width:0.8;"/>
   </g>
   <g id="text_16">
    <!-- Bogotá D.C. | Casos nuevos 2021-06-25 -->
    <g transform="translate(150.933125 30)scale(0.12 -0.12)">
     <defs>
      <path d="M 8.25 0 
L 8.25 71.09375 
L 31.5 71.09375 
Q 43.0625 71.09375 48.890625 66.3125 
Q 54.734375 61.53125 54.734375 52.15625 
Q 54.734375 47.171875 51.90625 43.328125 
Q 49.078125 39.5 44.1875 37.40625 
Q 49.953125 35.796875 53.296875 31.28125 
Q 56.640625 26.765625 56.640625 20.515625 
Q 56.640625 10.9375 50.4375 5.46875 
Q 44.234375 0 32.90625 0 
z
M 17.625 33.25 
L 17.625 7.671875 
L 33.109375 7.671875 
Q 39.65625 7.671875 43.4375 11.0625 
Q 47.21875 14.453125 47.21875 20.40625 
Q 47.21875 33.25 33.25 33.25 
z
M 17.625 40.765625 
L 31.78125 40.765625 
Q 37.9375 40.765625 41.625 43.84375 
Q 45.3125 46.921875 45.3125 52.203125 
Q 45.3125 58.0625 41.890625 60.71875 
Q 38.484375 63.375 31.5 63.375 
L 17.625 63.375 
z
" id="Roboto-Regular-66"/>
      <path d="M 4.4375 26.90625 
Q 4.4375 34.671875 7.484375 40.875 
Q 10.546875 47.078125 15.984375 50.4375 
Q 21.4375 53.8125 28.421875 53.8125 
Q 39.203125 53.8125 45.875 46.34375 
Q 52.546875 38.875 52.546875 26.46875 
L 52.546875 25.828125 
Q 52.546875 18.109375 49.578125 11.984375 
Q 46.625 5.859375 41.125 2.4375 
Q 35.640625 -0.984375 28.515625 -0.984375 
Q 17.78125 -0.984375 11.109375 6.484375 
Q 4.4375 13.96875 4.4375 26.265625 
z
M 13.53125 25.828125 
Q 13.53125 17.046875 17.609375 11.71875 
Q 21.6875 6.390625 28.515625 6.390625 
Q 35.40625 6.390625 39.453125 11.78125 
Q 43.5 17.1875 43.5 26.90625 
Q 43.5 35.59375 39.375 40.984375 
Q 35.25 46.390625 28.421875 46.390625 
Q 21.734375 46.390625 17.625 41.0625 
Q 13.53125 35.75 13.53125 25.828125 
z
" id="Roboto-Regular-111"/>
      <path d="M 4.6875 26.859375 
Q 4.6875 39.203125 10.390625 46.5 
Q 16.109375 53.8125 25.53125 53.8125 
Q 35.203125 53.8125 40.625 46.96875 
L 41.0625 52.828125 
L 49.3125 52.828125 
L 49.3125 1.265625 
Q 49.3125 -8.984375 43.234375 -14.890625 
Q 37.15625 -20.796875 26.90625 -20.796875 
Q 21.1875 -20.796875 15.71875 -18.359375 
Q 10.25 -15.921875 7.375 -11.671875 
L 12.0625 -6.25 
Q 17.875 -13.421875 26.265625 -13.421875 
Q 32.859375 -13.421875 36.546875 -9.703125 
Q 40.234375 -6 40.234375 0.734375 
L 40.234375 5.28125 
Q 34.8125 -0.984375 25.4375 -0.984375 
Q 16.15625 -0.984375 10.421875 6.484375 
Q 4.6875 13.96875 4.6875 26.859375 
z
M 13.765625 25.828125 
Q 13.765625 16.890625 17.421875 11.78125 
Q 21.09375 6.6875 27.6875 6.6875 
Q 36.234375 6.6875 40.234375 14.453125 
L 40.234375 38.578125 
Q 36.078125 46.140625 27.78125 46.140625 
Q 21.1875 46.140625 17.46875 41.015625 
Q 13.765625 35.890625 13.765625 25.828125 
z
" id="Roboto-Regular-103"/>
      <path d="M 19.09375 65.625 
L 19.09375 52.828125 
L 28.953125 52.828125 
L 28.953125 45.84375 
L 19.09375 45.84375 
L 19.09375 13.09375 
Q 19.09375 9.90625 20.40625 8.3125 
Q 21.734375 6.734375 24.90625 6.734375 
Q 26.46875 6.734375 29.203125 7.328125 
L 29.203125 0 
Q 25.640625 -0.984375 22.265625 -0.984375 
Q 16.21875 -0.984375 13.140625 2.671875 
Q 10.0625 6.34375 10.0625 13.09375 
L 10.0625 45.84375 
L 0.4375 45.84375 
L 0.4375 52.828125 
L 10.0625 52.828125 
L 10.0625 65.625 
z
" id="Roboto-Regular-116"/>
      <path d="M 39.453125 0 
Q 38.671875 1.5625 38.1875 5.5625 
Q 31.890625 -0.984375 23.140625 -0.984375 
Q 15.328125 -0.984375 10.328125 3.4375 
Q 5.328125 7.859375 5.328125 14.65625 
Q 5.328125 22.90625 11.59375 27.46875 
Q 17.875 32.03125 29.25 32.03125 
L 38.03125 32.03125 
L 38.03125 36.1875 
Q 38.03125 40.921875 35.203125 43.71875 
Q 32.375 46.53125 26.859375 46.53125 
Q 22.015625 46.53125 18.75 44.09375 
Q 15.484375 41.65625 15.484375 38.1875 
L 6.390625 38.1875 
Q 6.390625 42.140625 9.203125 45.828125 
Q 12.015625 49.515625 16.8125 51.65625 
Q 21.625 53.8125 27.390625 53.8125 
Q 36.53125 53.8125 41.703125 49.234375 
Q 46.875 44.671875 47.078125 36.671875 
L 47.078125 12.359375 
Q 47.078125 5.078125 48.921875 0.78125 
L 48.921875 0 
z
M 24.46875 6.890625 
Q 28.71875 6.890625 32.515625 9.078125 
Q 36.328125 11.28125 38.03125 14.796875 
L 38.03125 25.640625 
L 30.953125 25.640625 
Q 14.359375 25.640625 14.359375 15.921875 
Q 14.359375 11.671875 17.1875 9.28125 
Q 20.015625 6.890625 24.46875 6.890625 
z
M 32.8125 75 
L 43.75 75 
L 30.671875 60.640625 
L 23.390625 60.640625 
z
" id="Roboto-Regular-225"/>
      <path id="Roboto-Regular-32"/>
      <path d="M 8.25 0 
L 8.25 71.09375 
L 28.328125 71.09375 
Q 37.59375 71.09375 44.71875 66.984375 
Q 51.859375 62.890625 55.734375 55.3125 
Q 59.625 47.75 59.671875 37.9375 
L 59.671875 33.40625 
Q 59.671875 23.34375 55.78125 15.765625 
Q 51.90625 8.203125 44.703125 4.140625 
Q 37.5 0.09375 27.9375 0 
z
M 17.625 63.375 
L 17.625 7.671875 
L 27.484375 7.671875 
Q 38.328125 7.671875 44.359375 14.40625 
Q 50.390625 21.140625 50.390625 33.59375 
L 50.390625 37.75 
Q 50.390625 49.859375 44.703125 56.5625 
Q 39.015625 63.28125 28.5625 63.375 
z
" id="Roboto-Regular-68"/>
      <path d="M 7.03125 4.734375 
Q 7.03125 7.078125 8.421875 8.640625 
Q 9.8125 10.203125 12.59375 10.203125 
Q 15.375 10.203125 16.8125 8.640625 
Q 18.265625 7.078125 18.265625 4.734375 
Q 18.265625 2.484375 16.8125 0.96875 
Q 15.375 -0.53125 12.59375 -0.53125 
Q 9.8125 -0.53125 8.421875 0.96875 
Q 7.03125 2.484375 7.03125 4.734375 
z
" id="Roboto-Regular-46"/>
      <path d="M 60.546875 22.5625 
Q 59.234375 11.28125 52.21875 5.140625 
Q 45.21875 -0.984375 33.59375 -0.984375 
Q 21 -0.984375 13.40625 8.046875 
Q 5.8125 17.09375 5.8125 32.234375 
L 5.8125 39.0625 
Q 5.8125 48.96875 9.34375 56.484375 
Q 12.890625 64.015625 19.375 68.046875 
Q 25.875 72.078125 34.421875 72.078125 
Q 45.75 72.078125 52.578125 65.75 
Q 59.421875 59.421875 60.546875 48.25 
L 51.125 48.25 
Q 49.90625 56.734375 45.828125 60.546875 
Q 41.75 64.359375 34.421875 64.359375 
Q 25.4375 64.359375 20.328125 57.71875 
Q 15.234375 51.078125 15.234375 38.8125 
L 15.234375 31.9375 
Q 15.234375 20.359375 20.0625 13.515625 
Q 24.90625 6.6875 33.59375 6.6875 
Q 41.40625 6.6875 45.578125 10.21875 
Q 49.75 13.765625 51.125 22.5625 
z
" id="Roboto-Regular-67"/>
      <path d="M 15.828125 -13.1875 
L 8.546875 -13.1875 
L 8.546875 71.09375 
L 15.828125 71.09375 
z
" id="Roboto-Regular-124"/>
      <path d="M 37.59375 14.015625 
Q 37.59375 17.671875 34.828125 19.703125 
Q 32.078125 21.734375 25.21875 23.1875 
Q 18.359375 24.65625 14.328125 26.703125 
Q 10.296875 28.765625 8.375 31.59375 
Q 6.453125 34.421875 6.453125 38.328125 
Q 6.453125 44.828125 11.9375 49.3125 
Q 17.4375 53.8125 25.984375 53.8125 
Q 34.96875 53.8125 40.546875 49.171875 
Q 46.140625 44.53125 46.140625 37.3125 
L 37.0625 37.3125 
Q 37.0625 41.015625 33.90625 43.703125 
Q 30.765625 46.390625 25.984375 46.390625 
Q 21.046875 46.390625 18.265625 44.234375 
Q 15.484375 42.09375 15.484375 38.625 
Q 15.484375 35.359375 18.0625 33.6875 
Q 20.65625 32.03125 27.421875 30.515625 
Q 34.1875 29 38.375 26.90625 
Q 42.578125 24.8125 44.59375 21.84375 
Q 46.625 18.890625 46.625 14.65625 
Q 46.625 7.5625 40.953125 3.28125 
Q 35.296875 -0.984375 26.265625 -0.984375 
Q 19.921875 -0.984375 15.03125 1.265625 
Q 10.15625 3.515625 7.390625 7.546875 
Q 4.640625 11.578125 4.640625 16.265625 
L 13.671875 16.265625 
Q 13.921875 11.71875 17.3125 9.046875 
Q 20.703125 6.390625 26.265625 6.390625 
Q 31.390625 6.390625 34.484375 8.46875 
Q 37.59375 10.546875 37.59375 14.015625 
z
" id="Roboto-Regular-115"/>
      <path d="M 15.375 52.828125 
L 15.671875 46.1875 
Q 21.734375 53.8125 31.5 53.8125 
Q 48.25 53.8125 48.390625 34.90625 
L 48.390625 0 
L 39.359375 0 
L 39.359375 34.96875 
Q 39.3125 40.671875 36.75 43.40625 
Q 34.1875 46.140625 28.765625 46.140625 
Q 24.359375 46.140625 21.03125 43.796875 
Q 17.71875 41.453125 15.875 37.640625 
L 15.875 0 
L 6.84375 0 
L 6.84375 52.828125 
z
" id="Roboto-Regular-110"/>
      <path d="M 39.453125 5.21875 
Q 34.1875 -0.984375 23.96875 -0.984375 
Q 15.53125 -0.984375 11.109375 3.921875 
Q 6.6875 8.84375 6.640625 18.453125 
L 6.640625 52.828125 
L 15.671875 52.828125 
L 15.671875 18.703125 
Q 15.671875 6.6875 25.4375 6.6875 
Q 35.796875 6.6875 39.203125 14.40625 
L 39.203125 52.828125 
L 48.25 52.828125 
L 48.25 0 
L 39.65625 0 
z
" id="Roboto-Regular-117"/>
      <path d="M 24.265625 12.25 
L 37.359375 52.828125 
L 46.578125 52.828125 
L 27.640625 0 
L 20.75 0 
L 1.609375 52.828125 
L 10.84375 52.828125 
z
" id="Roboto-Regular-118"/>
      <path d="M 52.484375 0 
L 5.90625 0 
L 5.90625 6.5 
L 30.515625 33.84375 
Q 35.984375 40.046875 38.0625 43.921875 
Q 40.140625 47.796875 40.140625 51.953125 
Q 40.140625 57.515625 36.765625 61.078125 
Q 33.40625 64.65625 27.78125 64.65625 
Q 21.046875 64.65625 17.3125 60.8125 
Q 13.578125 56.984375 13.578125 50.140625 
L 4.546875 50.140625 
Q 4.546875 59.96875 10.859375 66.015625 
Q 17.1875 72.078125 27.78125 72.078125 
Q 37.703125 72.078125 43.453125 66.875 
Q 49.21875 61.671875 49.21875 53.03125 
Q 49.21875 42.53125 35.84375 28.03125 
L 16.796875 7.375 
L 52.484375 7.375 
z
" id="Roboto-Regular-50"/>
      <path d="M 50.484375 30.328125 
Q 50.484375 14.453125 45.0625 6.734375 
Q 39.65625 -0.984375 28.125 -0.984375 
Q 16.75 -0.984375 11.28125 6.5625 
Q 5.8125 14.109375 5.609375 29.109375 
L 5.609375 41.15625 
Q 5.609375 56.84375 11.03125 64.453125 
Q 16.453125 72.078125 28.03125 72.078125 
Q 39.5 72.078125 44.921875 64.71875 
Q 50.34375 57.375 50.484375 42.046875 
z
M 41.453125 42.671875 
Q 41.453125 54.15625 38.234375 59.40625 
Q 35.015625 64.65625 28.03125 64.65625 
Q 21.09375 64.65625 17.921875 59.421875 
Q 14.75 54.203125 14.65625 43.359375 
L 14.65625 28.90625 
Q 14.65625 17.390625 18 11.890625 
Q 21.34375 6.390625 28.125 6.390625 
Q 34.8125 6.390625 38.0625 11.5625 
Q 41.3125 16.75 41.453125 27.875 
z
" id="Roboto-Regular-48"/>
      <path d="M 35.59375 0 
L 26.515625 0 
L 26.515625 60.203125 
L 8.296875 53.515625 
L 8.296875 61.71875 
L 34.1875 71.4375 
L 35.59375 71.4375 
z
" id="Roboto-Regular-49"/>
      <path d="M 25.640625 26.515625 
L 1.8125 26.515625 
L 1.8125 33.890625 
L 25.640625 33.890625 
z
" id="Roboto-Regular-45"/>
      <path d="M 41.359375 71.140625 
L 41.359375 63.484375 
L 39.703125 63.484375 
Q 29.15625 63.28125 22.90625 57.21875 
Q 16.65625 51.171875 15.671875 40.1875 
Q 21.296875 46.625 31 46.625 
Q 40.28125 46.625 45.828125 40.078125 
Q 51.375 33.546875 51.375 23.1875 
Q 51.375 12.203125 45.390625 5.609375 
Q 39.40625 -0.984375 29.34375 -0.984375 
Q 19.140625 -0.984375 12.796875 6.859375 
Q 6.453125 14.703125 6.453125 27.046875 
L 6.453125 30.515625 
Q 6.453125 50.140625 14.8125 60.515625 
Q 23.1875 70.90625 39.75 71.140625 
z
M 29.5 39.109375 
Q 24.859375 39.109375 20.953125 36.328125 
Q 17.046875 33.546875 15.53125 29.34375 
L 15.53125 26.03125 
Q 15.53125 17.234375 19.484375 11.859375 
Q 23.4375 6.5 29.34375 6.5 
Q 35.453125 6.5 38.9375 10.984375 
Q 42.4375 15.484375 42.4375 22.75 
Q 42.4375 30.078125 38.890625 34.59375 
Q 35.359375 39.109375 29.5 39.109375 
z
" id="Roboto-Regular-54"/>
      <path d="M 10.0625 35.640625 
L 13.671875 71.09375 
L 50.09375 71.09375 
L 50.09375 62.75 
L 21.34375 62.75 
L 19.1875 43.359375 
Q 24.421875 46.4375 31.0625 46.4375 
Q 40.765625 46.4375 46.484375 40.015625 
Q 52.203125 33.59375 52.203125 22.65625 
Q 52.203125 11.671875 46.265625 5.34375 
Q 40.328125 -0.984375 29.6875 -0.984375 
Q 20.265625 -0.984375 14.296875 4.234375 
Q 8.34375 9.46875 7.515625 18.703125 
L 16.0625 18.703125 
Q 16.890625 12.59375 20.40625 9.484375 
Q 23.921875 6.390625 29.6875 6.390625 
Q 35.984375 6.390625 39.578125 10.6875 
Q 43.171875 14.984375 43.171875 22.5625 
Q 43.171875 29.6875 39.28125 34 
Q 35.40625 38.328125 28.953125 38.328125 
Q 23.046875 38.328125 19.671875 35.75 
L 17.28125 33.796875 
z
" id="Roboto-Regular-53"/>
     </defs>
     <use xlink:href="#Roboto-Regular-66"/>
     <use x="62.255859" xlink:href="#Roboto-Regular-111"/>
     <use x="119.287109" xlink:href="#Roboto-Regular-103"/>
     <use x="175.390625" xlink:href="#Roboto-Regular-111"/>
     <use x="232.421875" xlink:href="#Roboto-Regular-116"/>
     <use x="265.087891" xlink:href="#Roboto-Regular-225"/>
     <use x="319.482422" xlink:href="#Roboto-Regular-32"/>
     <use x="344.238281" xlink:href="#Roboto-Regular-68"/>
     <use x="409.814453" xlink:href="#Roboto-Regular-46"/>
     <use x="436.132812" xlink:href="#Roboto-Regular-67"/>
     <use x="501.220703" xlink:href="#Roboto-Regular-46"/>
     <use x="527.539062" xlink:href="#Roboto-Regular-32"/>
     <use x="552.294922" xlink:href="#Roboto-Regular-124"/>
     <use x="576.660156" xlink:href="#Roboto-Regular-32"/>
     <use x="601.416016" xlink:href="#Roboto-Regular-67"/>
     <use x="666.503906" xlink:href="#Roboto-Regular-97"/>
     <use x="720.898438" xlink:href="#Roboto-Regular-115"/>
     <use x="772.460938" xlink:href="#Roboto-Regular-111"/>
     <use x="829.492188" xlink:href="#Roboto-Regular-115"/>
     <use x="881.054688" xlink:href="#Roboto-Regular-32"/>
     <use x="905.810547" xlink:href="#Roboto-Regular-110"/>
     <use x="960.986328" xlink:href="#Roboto-Regular-117"/>
     <use x="1016.113281" xlink:href="#Roboto-Regular-101"/>
     <use x="1069.091797" xlink:href="#Roboto-Regular-118"/>
     <use x="1117.529297" xlink:href="#Roboto-Regular-111"/>
     <use x="1174.560547" xlink:href="#Roboto-Regular-115"/>
     <use x="1226.123047" xlink:href="#Roboto-Regular-32"/>
     <use x="1250.878906" xlink:href="#Roboto-Regular-50"/>
     <use x="1307.03125" xlink:href="#Roboto-Regular-48"/>
     <use x="1363.183594" xlink:href="#Roboto-Regular-50"/>
     <use x="1419.335938" xlink:href="#Roboto-Regular-49"/>
     <use x="1475.488281" xlink:href="#Roboto-Regular-45"/>
     <use x="1503.076172" xlink:href="#Roboto-Regular-48"/>
     <use x="1559.228516" xlink:href="#Roboto-Regular-54"/>
     <use x="1615.380859" xlink:href="#Roboto-Regular-45"/>
     <use x="1642.96875" xlink:href="#Roboto-Regular-50"/>
     <use x="1699.121094" xlink:href="#Roboto-Regular-53"/>
    </g>
   </g>
   <g id="legend_1">
    <g id="patch_7">
     <path d="M 287.773438 73.75625 
L 443 73.75625 
Q 445 73.75625 445 71.75625 
L 445 43 
Q 445 41 443 41 
L 287.773438 41 
Q 285.773438 41 285.773438 43 
L 285.773438 71.75625 
Q 285.773438 73.75625 287.773438 73.75625 
z
" style="fill:#ffffff;opacity:0.8;stroke:#cccccc;stroke-linejoin:miter;"/>
    </g>
    <g id="line2d_29">
     <path d="M 289.773438 49 
L 309.773438 49 
" style="fill:none;stroke:#000000;stroke-dasharray:1.5,2.475;stroke-dashoffset:0;stroke-opacity:0.5;stroke-width:1.5;"/>
    </g>
    <g id="line2d_30"/>
    <g id="text_17">
     <!-- Actual -->
     <g transform="translate(317.773438 52.5)scale(0.1 -0.1)">
      <use xlink:href="#Roboto-Medium-65"/>
      <use x="66.552734" xlink:href="#Roboto-Medium-99"/>
      <use x="118.896484" xlink:href="#Roboto-Medium-116"/>
      <use x="152.148438" xlink:href="#Roboto-Medium-117"/>
      <use x="207.714844" xlink:href="#Roboto-Medium-97"/>
      <use x="261.816406" xlink:href="#Roboto-Medium-108"/>
     </g>
    </g>
    <g id="line2d_31">
     <path d="M 289.773438 63.995313 
L 309.773438 63.995313 
" style="fill:none;stroke:#b3220f;stroke-linecap:square;stroke-width:1.5;"/>
    </g>
    <g id="line2d_32"/>
    <g id="text_18">
     <!-- Promedio semanal (7 días)  -->
     <g transform="translate(317.773438 67.495313)scale(0.1 -0.1)">
      <defs>
       <path d="M 19.578125 26.421875 
L 19.578125 0 
L 7.234375 0 
L 7.234375 71.09375 
L 34.421875 71.09375 
Q 46.34375 71.09375 53.34375 64.890625 
Q 60.359375 58.6875 60.359375 48.484375 
Q 60.359375 38.03125 53.484375 32.21875 
Q 46.625 26.421875 34.28125 26.421875 
z
M 19.578125 36.328125 
L 34.421875 36.328125 
Q 41.015625 36.328125 44.484375 39.421875 
Q 47.953125 42.53125 47.953125 48.390625 
Q 47.953125 54.15625 44.4375 57.59375 
Q 40.921875 61.03125 34.765625 61.140625 
L 19.578125 61.140625 
z
" id="Roboto-Medium-80"/>
       <path d="M 3.859375 26.90625 
Q 3.859375 34.671875 6.9375 40.890625 
Q 10.015625 47.125 15.578125 50.46875 
Q 21.140625 53.8125 28.375 53.8125 
Q 39.0625 53.8125 45.71875 46.921875 
Q 52.390625 40.046875 52.9375 28.65625 
L 52.984375 25.875 
Q 52.984375 18.0625 49.96875 11.90625 
Q 46.96875 5.765625 41.375 2.390625 
Q 35.796875 -0.984375 28.46875 -0.984375 
Q 17.28125 -0.984375 10.5625 6.46875 
Q 3.859375 13.921875 3.859375 26.3125 
z
M 15.71875 25.875 
Q 15.71875 17.71875 19.09375 13.109375 
Q 22.46875 8.5 28.46875 8.5 
Q 34.46875 8.5 37.8125 13.1875 
Q 41.15625 17.875 41.15625 26.90625 
Q 41.15625 34.90625 37.71875 39.59375 
Q 34.28125 44.28125 28.375 44.28125 
Q 22.5625 44.28125 19.140625 39.671875 
Q 15.71875 35.0625 15.71875 25.875 
z
" id="Roboto-Medium-111"/>
       <path d="M 17.234375 52.828125 
L 17.578125 47.3125 
Q 23.140625 53.8125 32.8125 53.8125 
Q 43.40625 53.8125 47.3125 45.703125 
Q 53.078125 53.8125 63.53125 53.8125 
Q 72.265625 53.8125 76.53125 48.96875 
Q 80.8125 44.140625 80.90625 34.71875 
L 80.90625 0 
L 69.046875 0 
L 69.046875 34.375 
Q 69.046875 39.40625 66.84375 41.75 
Q 64.65625 44.09375 59.578125 44.09375 
Q 55.515625 44.09375 52.953125 41.921875 
Q 50.390625 39.75 49.359375 36.234375 
L 49.421875 0 
L 37.546875 0 
L 37.546875 34.765625 
Q 37.3125 44.09375 28.03125 44.09375 
Q 20.90625 44.09375 17.921875 38.28125 
L 17.921875 0 
L 6.0625 0 
L 6.0625 52.828125 
z
" id="Roboto-Medium-109"/>
       <path d="M 29.34375 -0.984375 
Q 18.0625 -0.984375 11.046875 6.125 
Q 4.046875 13.234375 4.046875 25.046875 
L 4.046875 26.515625 
Q 4.046875 34.421875 7.09375 40.640625 
Q 10.15625 46.875 15.671875 50.34375 
Q 21.1875 53.8125 27.984375 53.8125 
Q 38.765625 53.8125 44.640625 46.921875 
Q 50.53125 40.046875 50.53125 27.4375 
L 50.53125 22.65625 
L 16.015625 22.65625 
Q 16.546875 16.109375 20.375 12.296875 
Q 24.21875 8.5 30.03125 8.5 
Q 38.1875 8.5 43.3125 15.09375 
L 49.703125 8.984375 
Q 46.53125 4.25 41.234375 1.625 
Q 35.9375 -0.984375 29.34375 -0.984375 
z
M 27.9375 44.28125 
Q 23.046875 44.28125 20.046875 40.859375 
Q 17.046875 37.453125 16.21875 31.34375 
L 38.8125 31.34375 
L 38.8125 32.234375 
Q 38.421875 38.1875 35.640625 41.234375 
Q 32.859375 44.28125 27.9375 44.28125 
z
" id="Roboto-Medium-101"/>
       <path d="M 3.859375 26.8125 
Q 3.859375 39.015625 9.515625 46.40625 
Q 15.1875 53.8125 24.703125 53.8125 
Q 33.109375 53.8125 38.28125 47.953125 
L 38.28125 75 
L 50.140625 75 
L 50.140625 0 
L 39.40625 0 
L 38.8125 5.46875 
Q 33.5 -0.984375 24.609375 -0.984375 
Q 15.328125 -0.984375 9.59375 6.484375 
Q 3.859375 13.96875 3.859375 26.8125 
z
M 15.71875 25.78125 
Q 15.71875 17.71875 18.8125 13.203125 
Q 21.921875 8.6875 27.640625 8.6875 
Q 34.90625 8.6875 38.28125 15.1875 
L 38.28125 37.75 
Q 35.015625 44.09375 27.734375 44.09375 
Q 21.96875 44.09375 18.84375 39.53125 
Q 15.71875 34.96875 15.71875 25.78125 
z
" id="Roboto-Medium-100"/>
       <path d="M 18.703125 0 
L 6.84375 0 
L 6.84375 52.828125 
L 18.703125 52.828125 
z
M 6.109375 66.546875 
Q 6.109375 69.28125 7.84375 71.09375 
Q 9.578125 72.90625 12.796875 72.90625 
Q 16.015625 72.90625 17.765625 71.09375 
Q 19.53125 69.28125 19.53125 66.546875 
Q 19.53125 63.875 17.765625 62.078125 
Q 16.015625 60.296875 12.796875 60.296875 
Q 9.578125 60.296875 7.84375 62.078125 
Q 6.109375 63.875 6.109375 66.546875 
z
" id="Roboto-Medium-105"/>
       <path id="Roboto-Medium-32"/>
       <path d="M 35.6875 14.359375 
Q 35.6875 17.53125 33.078125 19.1875 
Q 30.46875 20.84375 24.40625 22.109375 
Q 18.359375 23.390625 14.3125 25.34375 
Q 5.421875 29.640625 5.421875 37.796875 
Q 5.421875 44.625 11.171875 49.21875 
Q 16.9375 53.8125 25.828125 53.8125 
Q 35.296875 53.8125 41.125 49.125 
Q 46.96875 44.4375 46.96875 36.96875 
L 35.109375 36.96875 
Q 35.109375 40.375 32.5625 42.640625 
Q 30.03125 44.921875 25.828125 44.921875 
Q 21.921875 44.921875 19.453125 43.109375 
Q 17 41.3125 17 38.28125 
Q 17 35.546875 19.28125 34.03125 
Q 21.578125 32.515625 28.5625 30.96875 
Q 35.546875 29.4375 39.515625 27.3125 
Q 43.5 25.203125 45.421875 22.21875 
Q 47.359375 19.234375 47.359375 14.984375 
Q 47.359375 7.859375 41.453125 3.4375 
Q 35.546875 -0.984375 25.984375 -0.984375 
Q 19.484375 -0.984375 14.40625 1.359375 
Q 9.328125 3.71875 6.484375 7.8125 
Q 3.65625 11.921875 3.65625 16.65625 
L 15.1875 16.65625 
Q 15.4375 12.453125 18.359375 10.171875 
Q 21.296875 7.90625 26.125 7.90625 
Q 30.8125 7.90625 33.25 9.6875 
Q 35.6875 11.46875 35.6875 14.359375 
z
" id="Roboto-Medium-115"/>
       <path d="M 6.25 28.90625 
Q 6.25 40.1875 9.28125 50.3125 
Q 12.3125 60.453125 18.171875 68.4375 
Q 24.03125 76.421875 30.5625 79.640625 
L 32.90625 72.703125 
Q 26.03125 67.484375 21.75 56.765625 
Q 17.484375 46.046875 17.09375 32.234375 
L 17.046875 28.03125 
Q 17.046875 13.234375 21.21875 1.625 
Q 25.390625 -9.96875 32.90625 -16.015625 
L 30.5625 -22.609375 
Q 24.03125 -19.390625 18.140625 -11.359375 
Q 12.25 -3.328125 9.25 6.75 
Q 6.25 16.84375 6.25 28.90625 
z
" id="Roboto-Medium-40"/>
       <path d="M 52.640625 64.5 
L 24.21875 0 
L 11.765625 0 
L 40.140625 61.578125 
L 3.375 61.578125 
L 3.375 71.09375 
L 52.640625 71.09375 
z
" id="Roboto-Medium-55"/>
       <path d="M 18.84375 0 
L 6.984375 0 
L 6.984375 52.828125 
L 18.84375 52.828125 
z
M 16.609375 74.65625 
L 30.125 74.65625 
L 16.609375 59.859375 
L 7.078125 59.859375 
z
" id="Roboto-Medium-237"/>
       <path d="M 28.953125 28.125 
Q 28.953125 17.28125 25.96875 7.203125 
Q 23 -2.875 16.9375 -11.15625 
Q 10.890625 -19.4375 4.296875 -22.609375 
L 1.953125 -16.015625 
Q 9.28125 -10.359375 13.546875 1.28125 
Q 17.828125 12.9375 17.828125 27.875 
L 17.828125 29 
Q 17.828125 42.578125 14.109375 53.734375 
Q 10.40625 64.890625 3.46875 71.625 
L 1.953125 73 
L 4.296875 79.640625 
Q 10.546875 76.609375 16.40625 68.890625 
Q 22.265625 61.1875 25.390625 51.640625 
Q 28.515625 42.09375 28.90625 31.9375 
z
" id="Roboto-Medium-41"/>
      </defs>
      <use xlink:href="#Roboto-Medium-80"/>
      <use x="63.916016" xlink:href="#Roboto-Medium-114"/>
      <use x="99.072266" xlink:href="#Roboto-Medium-111"/>
      <use x="156.005859" xlink:href="#Roboto-Medium-109"/>
      <use x="243.017578" xlink:href="#Roboto-Medium-101"/>
      <use x="296.679688" xlink:href="#Roboto-Medium-100"/>
      <use x="353.125" xlink:href="#Roboto-Medium-105"/>
      <use x="378.662109" xlink:href="#Roboto-Medium-111"/>
      <use x="435.595703" xlink:href="#Roboto-Medium-32"/>
      <use x="460.498047" xlink:href="#Roboto-Medium-115"/>
      <use x="512.109375" xlink:href="#Roboto-Medium-101"/>
      <use x="565.771484" xlink:href="#Roboto-Medium-109"/>
      <use x="652.783203" xlink:href="#Roboto-Medium-97"/>
      <use x="706.884766" xlink:href="#Roboto-Medium-110"/>
      <use x="762.5" xlink:href="#Roboto-Medium-97"/>
      <use x="816.601562" xlink:href="#Roboto-Medium-108"/>
      <use x="842.138672" xlink:href="#Roboto-Medium-32"/>
      <use x="867.041016" xlink:href="#Roboto-Medium-40"/>
      <use x="901.904297" xlink:href="#Roboto-Medium-55"/>
      <use x="958.740234" xlink:href="#Roboto-Medium-32"/>
      <use x="983.642578" xlink:href="#Roboto-Medium-100"/>
      <use x="1040.087891" xlink:href="#Roboto-Medium-237"/>
      <use x="1066.357422" xlink:href="#Roboto-Medium-97"/>
      <use x="1120.458984" xlink:href="#Roboto-Medium-115"/>
      <use x="1172.070312" xlink:href="#Roboto-Medium-41"/>
      <use x="1207.324219" xlink:href="#Roboto-Medium-32"/>
     </g>
    </g>
   </g>
  </g>
 </g>
 <defs>
  <clipPath id="peb3454d505">
   <rect height="226.5" width="387.5" x="62.5" y="36"/>
  </clipPath>
 </defs>
</svg>
