<?xml version="1.0" encoding="utf-8" standalone="no"?>
<!DOCTYPE svg PUBLIC "-//W3C//DTD SVG 1.1//EN"
  "http://www.w3.org/Graphics/SVG/1.1/DTD/svg11.dtd">
<!-- Created with matplotlib (https://matplotlib.org/) -->
<svg height="300pt" version="1.1" viewBox="0 0 500 300" width="500pt" xmlns="http://www.w3.org/2000/svg" xmlns:xlink="http://www.w3.org/1999/xlink">
 <metadata>
  <rdf:RDF xmlns:cc="http://creativecommons.org/ns#" xmlns:dc="http://purl.org/dc/elements/1.1/" xmlns:rdf="http://www.w3.org/1999/02/22-rdf-syntax-ns#">
   <cc:Work>
    <dc:type rdf:resource="http://purl.org/dc/dcmitype/StillImage"/>
    <dc:date>2021-06-20T18:25:49.024883</dc:date>
    <dc:format>image/svg+xml</dc:format>
    <dc:creator>
     <cc:Agent>
      <dc:title>Matplotlib v3.3.4, https://matplotlib.org/</dc:title>
     </cc:Agent>
    </dc:creator>
   </cc:Work>
  </rdf:RDF>
 </metadata>
 <defs>
  <style type="text/css">*{stroke-linecap:butt;stroke-linejoin:round;}</style>
 </defs>
 <g id="figure_1">
  <g id="patch_1">
   <path d="M 0 300 
L 500 300 
L 500 0 
L 0 0 
z
" style="fill:#ffffff;"/>
  </g>
  <g id="axes_1">
   <g id="patch_2">
    <path d="M 62.5 262.5 
L 450 262.5 
L 450 27 
L 62.5 27 
z
" style="fill:#ffffff;"/>
   </g>
   <g id="matplotlib.axis_1">
    <g id="xtick_1">
     <g id="line2d_1">
      <defs>
       <path d="M 0 0 
L 0 3.5 
" id="m643e1560f1" style="stroke:#555555;stroke-width:0.8;"/>
      </defs>
      <g>
       <use style="fill:#555555;stroke:#555555;stroke-width:0.8;" x="62.5" xlink:href="#m643e1560f1" y="262.5"/>
      </g>
     </g>
    </g>
    <g id="xtick_2">
     <g id="line2d_2">
      <g>
       <use style="fill:#555555;stroke:#555555;stroke-width:0.8;" x="77.597403" xlink:href="#m643e1560f1" y="262.5"/>
      </g>
     </g>
     <g id="text_1">
      <!-- Apr -->
      <g style="fill:#555555;" transform="translate(69.727871 276.640625)scale(0.1 -0.1)">
       <defs>
        <path d="M 20.09375 29.5 
L 32.203125 62.796875 
L 32.40625 62.796875 
L 44.296875 29.5 
z
M 27.203125 71.40625 
L -0.59375 0 
L 9.09375 0 
L 17.09375 21.5 
L 47.296875 21.5 
L 55.09375 0 
L 65.59375 0 
L 37.703125 71.40625 
z
" id="HelveticaNeue-65"/>
        <path d="M 6.703125 51.703125 
L 6.703125 -19.703125 
L 15.203125 -19.703125 
L 15.203125 6.90625 
L 15.40625 6.90625 
Q 16.796875 4.59375 18.84375 3.046875 
Q 20.90625 1.5 23.203125 0.59375 
Q 25.5 -0.296875 27.84375 -0.6875 
Q 30.203125 -1.09375 32.09375 -1.09375 
Q 38 -1.09375 42.453125 1 
Q 46.90625 3.09375 49.84375 6.75 
Q 52.796875 10.40625 54.25 15.296875 
Q 55.703125 20.203125 55.703125 25.703125 
Q 55.703125 31.203125 54.203125 36.09375 
Q 52.703125 41 49.75 44.75 
Q 46.796875 48.5 42.34375 50.703125 
Q 37.90625 52.90625 31.90625 52.90625 
Q 26.5 52.90625 22 50.953125 
Q 17.5 49 15.40625 44.703125 
L 15.203125 44.703125 
L 15.203125 51.703125 
z
M 46.703125 26.296875 
Q 46.703125 22.5 45.890625 18.890625 
Q 45.09375 15.296875 43.296875 12.5 
Q 41.5 9.703125 38.546875 8 
Q 35.59375 6.296875 31.203125 6.296875 
Q 26.796875 6.296875 23.6875 7.9375 
Q 20.59375 9.59375 18.640625 12.296875 
Q 16.703125 15 15.796875 18.546875 
Q 14.90625 22.09375 14.90625 25.90625 
Q 14.90625 29.5 15.75 33 
Q 16.59375 36.5 18.5 39.25 
Q 20.40625 42 23.40625 43.703125 
Q 26.40625 45.40625 30.703125 45.40625 
Q 34.796875 45.40625 37.84375 43.796875 
Q 40.90625 42.203125 42.84375 39.5 
Q 44.796875 36.796875 45.75 33.34375 
Q 46.703125 29.90625 46.703125 26.296875 
z
" id="HelveticaNeue-112"/>
        <path d="M 6.09375 51.703125 
L 6.09375 0 
L 14.59375 0 
L 14.59375 23 
Q 14.59375 28 15.59375 31.84375 
Q 16.59375 35.703125 18.796875 38.390625 
Q 21 41.09375 24.59375 42.5 
Q 28.203125 43.90625 33.296875 43.90625 
L 33.296875 52.90625 
Q 26.40625 53.09375 21.90625 50.09375 
Q 17.40625 47.09375 14.296875 40.796875 
L 14.09375 40.796875 
L 14.09375 51.703125 
z
" id="HelveticaNeue-114"/>
       </defs>
       <use xlink:href="#HelveticaNeue-65"/>
       <use x="64.799988" xlink:href="#HelveticaNeue-112"/>
       <use x="124.099976" xlink:href="#HelveticaNeue-114"/>
      </g>
     </g>
    </g>
    <g id="xtick_3">
     <g id="line2d_3">
      <g>
       <use style="fill:#555555;stroke:#555555;stroke-width:0.8;" x="153.92316" xlink:href="#m643e1560f1" y="262.5"/>
      </g>
     </g>
     <g id="text_2">
      <!-- Jul -->
      <g style="fill:#555555;" transform="translate(147.438004 276.640625)scale(0.1 -0.1)">
       <defs>
        <path d="M 44.09375 17.796875 
L 44.09375 71.40625 
L 34.59375 71.40625 
L 34.59375 19.203125 
Q 34.59375 13.296875 32.140625 9.796875 
Q 29.703125 6.296875 23.203125 6.296875 
Q 19.703125 6.296875 17.453125 7.34375 
Q 15.203125 8.40625 13.953125 10.296875 
Q 12.703125 12.203125 12.203125 14.796875 
Q 11.703125 17.40625 11.703125 20.5 
L 11.703125 23.5 
L 2.203125 23.5 
L 2.203125 19.09375 
Q 2.203125 8.90625 7.59375 3.65625 
Q 13 -1.59375 23 -1.59375 
Q 29 -1.59375 33.046875 0.046875 
Q 37.09375 1.703125 39.546875 4.453125 
Q 42 7.203125 43.046875 10.703125 
Q 44.09375 14.203125 44.09375 17.796875 
z
" id="HelveticaNeue-74"/>
        <path d="M 49.203125 0 
L 49.203125 51.703125 
L 40.703125 51.703125 
L 40.703125 22.5 
Q 40.703125 19 39.75 16.046875 
Q 38.796875 13.09375 36.890625 10.890625 
Q 35 8.703125 32.140625 7.5 
Q 29.296875 6.296875 25.40625 6.296875 
Q 20.5 6.296875 17.703125 9.09375 
Q 14.90625 11.90625 14.90625 16.703125 
L 14.90625 51.703125 
L 6.40625 51.703125 
L 6.40625 17.703125 
Q 6.40625 13.5 7.25 10.046875 
Q 8.09375 6.59375 10.1875 4.09375 
Q 12.296875 1.59375 15.6875 0.25 
Q 19.09375 -1.09375 24.203125 -1.09375 
Q 29.90625 -1.09375 34.09375 1.15625 
Q 38.296875 3.40625 41 8.203125 
L 41.203125 8.203125 
L 41.203125 0 
z
" id="HelveticaNeue-117"/>
        <path d="M 6.90625 71.40625 
L 6.90625 0 
L 15.40625 0 
L 15.40625 71.40625 
z
" id="HelveticaNeue-108"/>
       </defs>
       <use xlink:href="#HelveticaNeue-74"/>
       <use x="51.899994" xlink:href="#HelveticaNeue-117"/>
       <use x="107.499985" xlink:href="#HelveticaNeue-108"/>
      </g>
     </g>
    </g>
    <g id="xtick_4">
     <g id="line2d_4">
      <g>
       <use style="fill:#555555;stroke:#555555;stroke-width:0.8;" x="231.087662" xlink:href="#m643e1560f1" y="262.5"/>
      </g>
     </g>
     <g id="text_3">
      <!-- Oct -->
      <g style="fill:#555555;" transform="translate(223.027506 276.640625)scale(0.1 -0.1)">
       <defs>
        <path d="M 13.296875 35.703125 
Q 13.296875 41.09375 14.6875 46.34375 
Q 16.09375 51.59375 19.09375 55.796875 
Q 22.09375 60 26.796875 62.546875 
Q 31.5 65.09375 38 65.09375 
Q 44.5 65.09375 49.203125 62.546875 
Q 53.90625 60 56.90625 55.796875 
Q 59.90625 51.59375 61.296875 46.34375 
Q 62.703125 41.09375 62.703125 35.703125 
Q 62.703125 30.296875 61.296875 25.046875 
Q 59.90625 19.796875 56.90625 15.59375 
Q 53.90625 11.40625 49.203125 8.84375 
Q 44.5 6.296875 38 6.296875 
Q 31.5 6.296875 26.796875 8.84375 
Q 22.09375 11.40625 19.09375 15.59375 
Q 16.09375 19.796875 14.6875 25.046875 
Q 13.296875 30.296875 13.296875 35.703125 
z
M 3.796875 35.703125 
Q 3.796875 28.40625 5.9375 21.65625 
Q 8.09375 14.90625 12.390625 9.703125 
Q 16.703125 4.5 23.09375 1.453125 
Q 29.5 -1.59375 38 -1.59375 
Q 46.5 -1.59375 52.890625 1.453125 
Q 59.296875 4.5 63.59375 9.703125 
Q 67.90625 14.90625 70.046875 21.65625 
Q 72.203125 28.40625 72.203125 35.703125 
Q 72.203125 43 70.046875 49.75 
Q 67.90625 56.5 63.59375 61.703125 
Q 59.296875 66.90625 52.890625 70 
Q 46.5 73.09375 38 73.09375 
Q 29.5 73.09375 23.09375 70 
Q 16.703125 66.90625 12.390625 61.703125 
Q 8.09375 56.5 5.9375 49.75 
Q 3.796875 43 3.796875 35.703125 
z
" id="HelveticaNeue-79"/>
        <path d="M 41.5 35.09375 
L 50.296875 35.09375 
Q 49.796875 39.703125 47.890625 43.046875 
Q 46 46.40625 43.046875 48.59375 
Q 40.09375 50.796875 36.25 51.84375 
Q 32.40625 52.90625 28 52.90625 
Q 21.90625 52.90625 17.296875 50.75 
Q 12.703125 48.59375 9.640625 44.84375 
Q 6.59375 41.09375 5.09375 36.046875 
Q 3.59375 31 3.59375 25.203125 
Q 3.59375 19.40625 5.140625 14.546875 
Q 6.703125 9.703125 9.75 6.203125 
Q 12.796875 2.703125 17.34375 0.796875 
Q 21.90625 -1.09375 27.796875 -1.09375 
Q 37.703125 -1.09375 43.453125 4.09375 
Q 49.203125 9.296875 50.59375 18.90625 
L 41.90625 18.90625 
Q 41.09375 12.90625 37.546875 9.59375 
Q 34 6.296875 27.703125 6.296875 
Q 23.703125 6.296875 20.796875 7.890625 
Q 17.90625 9.5 16.09375 12.140625 
Q 14.296875 14.796875 13.4375 18.1875 
Q 12.59375 21.59375 12.59375 25.203125 
Q 12.59375 29.09375 13.390625 32.75 
Q 14.203125 36.40625 16.046875 39.203125 
Q 17.90625 42 21 43.703125 
Q 24.09375 45.40625 28.703125 45.40625 
Q 34.09375 45.40625 37.296875 42.703125 
Q 40.5 40 41.5 35.09375 
z
" id="HelveticaNeue-99"/>
        <path d="M 18.203125 51.703125 
L 18.203125 67.203125 
L 9.703125 67.203125 
L 9.703125 51.703125 
L 0.90625 51.703125 
L 0.90625 44.203125 
L 9.703125 44.203125 
L 9.703125 11.296875 
Q 9.703125 7.703125 10.390625 5.5 
Q 11.09375 3.296875 12.546875 2.09375 
Q 14 0.90625 16.34375 0.453125 
Q 18.703125 0 22 0 
L 28.5 0 
L 28.5 7.5 
L 24.59375 7.5 
Q 22.59375 7.5 21.34375 7.640625 
Q 20.09375 7.796875 19.390625 8.296875 
Q 18.703125 8.796875 18.453125 9.6875 
Q 18.203125 10.59375 18.203125 12.09375 
L 18.203125 44.203125 
L 28.5 44.203125 
L 28.5 51.703125 
z
" id="HelveticaNeue-116"/>
       </defs>
       <use xlink:href="#HelveticaNeue-79"/>
       <use x="75.999985" xlink:href="#HelveticaNeue-99"/>
       <use x="129.699982" xlink:href="#HelveticaNeue-116"/>
      </g>
     </g>
    </g>
    <g id="xtick_5">
     <g id="line2d_5">
      <g>
       <use style="fill:#555555;stroke:#555555;stroke-width:0.8;" x="308.252165" xlink:href="#m643e1560f1" y="262.5"/>
      </g>
     </g>
     <g id="text_4">
      <!-- Jan -->
      <g style="fill:#555555;" transform="translate(300.192008 276.640625)scale(0.1 -0.1)">
       <defs>
        <path d="M 52.203125 0.203125 
Q 50 -1.09375 46.09375 -1.09375 
Q 42.796875 -1.09375 40.84375 0.75 
Q 38.90625 2.59375 38.90625 6.796875 
Q 35.40625 2.59375 30.75 0.75 
Q 26.09375 -1.09375 20.703125 -1.09375 
Q 17.203125 -1.09375 14.046875 -0.296875 
Q 10.90625 0.5 8.59375 2.203125 
Q 6.296875 3.90625 4.9375 6.65625 
Q 3.59375 9.40625 3.59375 13.296875 
Q 3.59375 17.703125 5.09375 20.5 
Q 6.59375 23.296875 9.046875 25.046875 
Q 11.5 26.796875 14.640625 27.6875 
Q 17.796875 28.59375 21.09375 29.203125 
Q 24.59375 29.90625 27.75 30.25 
Q 30.90625 30.59375 33.296875 31.25 
Q 35.703125 31.90625 37.09375 33.15625 
Q 38.5 34.40625 38.5 36.796875 
Q 38.5 39.59375 37.453125 41.296875 
Q 36.40625 43 34.75 43.890625 
Q 33.09375 44.796875 31.046875 45.09375 
Q 29 45.40625 27 45.40625 
Q 21.59375 45.40625 18 43.34375 
Q 14.40625 41.296875 14.09375 35.59375 
L 5.59375 35.59375 
Q 5.796875 40.40625 7.59375 43.703125 
Q 9.40625 47 12.40625 49.046875 
Q 15.40625 51.09375 19.25 52 
Q 23.09375 52.90625 27.5 52.90625 
Q 31 52.90625 34.453125 52.40625 
Q 37.90625 51.90625 40.703125 50.34375 
Q 43.5 48.796875 45.203125 46 
Q 46.90625 43.203125 46.90625 38.703125 
L 46.90625 12.09375 
Q 46.90625 9.09375 47.25 7.6875 
Q 47.59375 6.296875 49.59375 6.296875 
Q 50.703125 6.296875 52.203125 6.796875 
z
M 38.40625 26.703125 
Q 36.796875 25.5 34.1875 24.953125 
Q 31.59375 24.40625 28.75 24.046875 
Q 25.90625 23.703125 23 23.25 
Q 20.09375 22.796875 17.796875 21.796875 
Q 15.5 20.796875 14.046875 18.9375 
Q 12.59375 17.09375 12.59375 13.90625 
Q 12.59375 11.796875 13.4375 10.34375 
Q 14.296875 8.90625 15.640625 8 
Q 17 7.09375 18.796875 6.6875 
Q 20.59375 6.296875 22.59375 6.296875 
Q 26.796875 6.296875 29.796875 7.4375 
Q 32.796875 8.59375 34.6875 10.34375 
Q 36.59375 12.09375 37.5 14.140625 
Q 38.40625 16.203125 38.40625 18 
z
" id="HelveticaNeue-97"/>
        <path d="M 6.40625 51.703125 
L 6.40625 0 
L 14.90625 0 
L 14.90625 29.203125 
Q 14.90625 32.703125 15.84375 35.640625 
Q 16.796875 38.59375 18.6875 40.796875 
Q 20.59375 43 23.4375 44.203125 
Q 26.296875 45.40625 30.203125 45.40625 
Q 35.09375 45.40625 37.890625 42.59375 
Q 40.703125 39.796875 40.703125 35 
L 40.703125 0 
L 49.203125 0 
L 49.203125 34 
Q 49.203125 38.203125 48.34375 41.640625 
Q 47.5 45.09375 45.390625 47.59375 
Q 43.296875 50.09375 39.890625 51.5 
Q 36.5 52.90625 31.40625 52.90625 
Q 19.90625 52.90625 14.59375 43.5 
L 14.40625 43.5 
L 14.40625 51.703125 
z
" id="HelveticaNeue-110"/>
       </defs>
       <use xlink:href="#HelveticaNeue-74"/>
       <use x="51.899994" xlink:href="#HelveticaNeue-97"/>
       <use x="105.599991" xlink:href="#HelveticaNeue-110"/>
      </g>
      <!-- 2021 -->
      <g style="fill:#555555;" transform="translate(297.133415 287.179688)scale(0.1 -0.1)">
       <defs>
        <path d="M 4.40625 45.796875 
L 12.90625 45.796875 
Q 12.796875 49 13.546875 52.140625 
Q 14.296875 55.296875 16 57.796875 
Q 17.703125 60.296875 20.34375 61.84375 
Q 23 63.40625 26.703125 63.40625 
Q 29.5 63.40625 32 62.5 
Q 34.5 61.59375 36.34375 59.890625 
Q 38.203125 58.203125 39.296875 55.84375 
Q 40.40625 53.5 40.40625 50.59375 
Q 40.40625 46.90625 39.25 44.09375 
Q 38.09375 41.296875 35.84375 38.890625 
Q 33.59375 36.5 30.1875 34.140625 
Q 26.796875 31.796875 22.296875 29 
Q 18.59375 26.796875 15.1875 24.296875 
Q 11.796875 21.796875 9.09375 18.5 
Q 6.40625 15.203125 4.65625 10.75 
Q 2.90625 6.296875 2.40625 0 
L 48.703125 0 
L 48.703125 7.5 
L 12.296875 7.5 
Q 12.90625 10.796875 14.84375 13.34375 
Q 16.796875 15.90625 19.546875 18.09375 
Q 22.296875 20.296875 25.59375 22.25 
Q 28.90625 24.203125 32.203125 26.203125 
Q 35.5 28.296875 38.59375 30.59375 
Q 41.703125 32.90625 44.09375 35.75 
Q 46.5 38.59375 47.953125 42.1875 
Q 49.40625 45.796875 49.40625 50.5 
Q 49.40625 55.5 47.65625 59.296875 
Q 45.90625 63.09375 42.90625 65.640625 
Q 39.90625 68.203125 35.84375 69.546875 
Q 31.796875 70.90625 27.203125 70.90625 
Q 21.59375 70.90625 17.1875 69 
Q 12.796875 67.09375 9.84375 63.75 
Q 6.90625 60.40625 5.5 55.796875 
Q 4.09375 51.203125 4.40625 45.796875 
z
" id="HelveticaNeue-50"/>
        <path d="M 13.203125 34.90625 
Q 13.203125 37.5 13.25 40.640625 
Q 13.296875 43.796875 13.75 46.9375 
Q 14.203125 50.09375 15.046875 53.09375 
Q 15.90625 56.09375 17.546875 58.34375 
Q 19.203125 60.59375 21.703125 62 
Q 24.203125 63.40625 27.796875 63.40625 
Q 31.40625 63.40625 33.90625 62 
Q 36.40625 60.59375 38.046875 58.34375 
Q 39.703125 56.09375 40.546875 53.09375 
Q 41.40625 50.09375 41.84375 46.9375 
Q 42.296875 43.796875 42.34375 40.640625 
Q 42.40625 37.5 42.40625 34.90625 
Q 42.40625 30.90625 42.15625 25.953125 
Q 41.90625 21 40.546875 16.640625 
Q 39.203125 12.296875 36.203125 9.296875 
Q 33.203125 6.296875 27.796875 6.296875 
Q 22.40625 6.296875 19.40625 9.296875 
Q 16.40625 12.296875 15.046875 16.640625 
Q 13.703125 21 13.453125 25.953125 
Q 13.203125 30.90625 13.203125 34.90625 
z
M 4.203125 34.796875 
Q 4.203125 30.90625 4.390625 26.703125 
Q 4.59375 22.5 5.390625 18.5 
Q 6.203125 14.5 7.703125 10.953125 
Q 9.203125 7.40625 11.796875 4.703125 
Q 14.40625 2 18.34375 0.453125 
Q 22.296875 -1.09375 27.796875 -1.09375 
Q 33.40625 -1.09375 37.296875 0.453125 
Q 41.203125 2 43.796875 4.703125 
Q 46.40625 7.40625 47.90625 10.953125 
Q 49.40625 14.5 50.203125 18.5 
Q 51 22.5 51.203125 26.703125 
Q 51.40625 30.90625 51.40625 34.796875 
Q 51.40625 38.703125 51.203125 42.890625 
Q 51 47.09375 50.203125 51.09375 
Q 49.40625 55.09375 47.90625 58.6875 
Q 46.40625 62.296875 43.796875 65 
Q 41.203125 67.703125 37.25 69.296875 
Q 33.296875 70.90625 27.796875 70.90625 
Q 22.296875 70.90625 18.34375 69.296875 
Q 14.40625 67.703125 11.796875 65 
Q 9.203125 62.296875 7.703125 58.6875 
Q 6.203125 55.09375 5.390625 51.09375 
Q 4.59375 47.09375 4.390625 42.890625 
Q 4.203125 38.703125 4.203125 34.796875 
z
" id="HelveticaNeue-48"/>
        <path d="M 35.59375 0 
L 35.59375 70.90625 
L 29.09375 70.90625 
Q 28.40625 66.90625 26.5 64.296875 
Q 24.59375 61.703125 21.84375 60.203125 
Q 19.09375 58.703125 15.6875 58.140625 
Q 12.296875 57.59375 8.703125 57.59375 
L 8.703125 50.796875 
L 27.09375 50.796875 
L 27.09375 0 
z
" id="HelveticaNeue-49"/>
       </defs>
       <use xlink:href="#HelveticaNeue-50"/>
       <use x="55.599991" xlink:href="#HelveticaNeue-48"/>
       <use x="111.199982" xlink:href="#HelveticaNeue-50"/>
       <use x="166.799973" xlink:href="#HelveticaNeue-49"/>
      </g>
     </g>
    </g>
    <g id="xtick_6">
     <g id="line2d_6">
      <g>
       <use style="fill:#555555;stroke:#555555;stroke-width:0.8;" x="383.739177" xlink:href="#m643e1560f1" y="262.5"/>
      </g>
     </g>
     <g id="text_5">
      <!-- Apr -->
      <g style="fill:#555555;" transform="translate(375.869646 276.640625)scale(0.1 -0.1)">
       <use xlink:href="#HelveticaNeue-65"/>
       <use x="64.799988" xlink:href="#HelveticaNeue-112"/>
       <use x="124.099976" xlink:href="#HelveticaNeue-114"/>
      </g>
     </g>
    </g>
    <g id="xtick_7">
     <g id="line2d_7">
      <g>
       <use style="fill:#555555;stroke:#555555;stroke-width:0.8;" x="450" xlink:href="#m643e1560f1" y="262.5"/>
      </g>
     </g>
    </g>
    <g id="xtick_8">
     <g id="line2d_8">
      <defs>
       <path d="M 0 0 
L 0 2 
" id="m4e6a675b4f" style="stroke:#555555;stroke-width:0.6;"/>
      </defs>
      <g>
       <use style="fill:#555555;stroke:#555555;stroke-width:0.6;" x="102.75974" xlink:href="#m4e6a675b4f" y="262.5"/>
      </g>
     </g>
    </g>
    <g id="xtick_9">
     <g id="line2d_9">
      <g>
       <use style="fill:#555555;stroke:#555555;stroke-width:0.6;" x="128.760823" xlink:href="#m4e6a675b4f" y="262.5"/>
      </g>
     </g>
    </g>
    <g id="xtick_10">
     <g id="line2d_10">
      <g>
       <use style="fill:#555555;stroke:#555555;stroke-width:0.6;" x="179.924242" xlink:href="#m4e6a675b4f" y="262.5"/>
      </g>
     </g>
    </g>
    <g id="xtick_11">
     <g id="line2d_11">
      <g>
       <use style="fill:#555555;stroke:#555555;stroke-width:0.6;" x="205.925325" xlink:href="#m4e6a675b4f" y="262.5"/>
      </g>
     </g>
    </g>
    <g id="xtick_12">
     <g id="line2d_12">
      <g>
       <use style="fill:#555555;stroke:#555555;stroke-width:0.6;" x="257.088745" xlink:href="#m4e6a675b4f" y="262.5"/>
      </g>
     </g>
    </g>
    <g id="xtick_13">
     <g id="line2d_13">
      <g>
       <use style="fill:#555555;stroke:#555555;stroke-width:0.6;" x="282.251082" xlink:href="#m4e6a675b4f" y="262.5"/>
      </g>
     </g>
    </g>
    <g id="xtick_14">
     <g id="line2d_14">
      <g>
       <use style="fill:#555555;stroke:#555555;stroke-width:0.6;" x="334.253247" xlink:href="#m4e6a675b4f" y="262.5"/>
      </g>
     </g>
    </g>
    <g id="xtick_15">
     <g id="line2d_15">
      <g>
       <use style="fill:#555555;stroke:#555555;stroke-width:0.6;" x="357.738095" xlink:href="#m4e6a675b4f" y="262.5"/>
      </g>
     </g>
    </g>
    <g id="xtick_16">
     <g id="line2d_16">
      <g>
       <use style="fill:#555555;stroke:#555555;stroke-width:0.6;" x="408.901515" xlink:href="#m4e6a675b4f" y="262.5"/>
      </g>
     </g>
    </g>
    <g id="xtick_17">
     <g id="line2d_17">
      <g>
       <use style="fill:#555555;stroke:#555555;stroke-width:0.6;" x="434.902597" xlink:href="#m4e6a675b4f" y="262.5"/>
      </g>
     </g>
    </g>
    <g id="text_6">
     <!-- fecha -->
     <g style="fill:#555555;" transform="translate(243.935156 300.290625)scale(0.1 -0.1)">
      <defs>
       <path d="M 9.90625 44.203125 
L 9.90625 0 
L 18.40625 0 
L 18.40625 44.203125 
L 28.40625 44.203125 
L 28.40625 51.703125 
L 18.40625 51.703125 
L 18.40625 58.90625 
Q 18.40625 62.296875 20.09375 63.5 
Q 21.796875 64.703125 24.90625 64.703125 
Q 26 64.703125 27.296875 64.546875 
Q 28.59375 64.40625 29.703125 64 
L 29.703125 71.40625 
Q 28.5 71.796875 26.953125 72 
Q 25.40625 72.203125 24.203125 72.203125 
Q 17.203125 72.203125 13.546875 68.953125 
Q 9.90625 65.703125 9.90625 59.40625 
L 9.90625 51.703125 
L 1.203125 51.703125 
L 1.203125 44.203125 
z
" id="HelveticaNeue-102"/>
       <path d="M 42.296875 30.796875 
L 12.59375 30.796875 
Q 12.796875 33.796875 13.890625 36.4375 
Q 15 39.09375 16.890625 41.09375 
Q 18.796875 43.09375 21.4375 44.25 
Q 24.09375 45.40625 27.40625 45.40625 
Q 30.59375 45.40625 33.25 44.25 
Q 35.90625 43.09375 37.84375 41.140625 
Q 39.796875 39.203125 40.9375 36.5 
Q 42.09375 33.796875 42.296875 30.796875 
z
M 50.5 16.40625 
L 42.09375 16.40625 
Q 41 11.296875 37.546875 8.796875 
Q 34.09375 6.296875 28.703125 6.296875 
Q 24.5 6.296875 21.390625 7.6875 
Q 18.296875 9.09375 16.296875 11.4375 
Q 14.296875 13.796875 13.390625 16.84375 
Q 12.5 19.90625 12.59375 23.296875 
L 51.296875 23.296875 
Q 51.5 28 50.453125 33.203125 
Q 49.40625 38.40625 46.65625 42.796875 
Q 43.90625 47.203125 39.34375 50.046875 
Q 34.796875 52.90625 27.90625 52.90625 
Q 22.59375 52.90625 18.140625 50.90625 
Q 13.703125 48.90625 10.453125 45.296875 
Q 7.203125 41.703125 5.390625 36.796875 
Q 3.59375 31.90625 3.59375 26 
Q 3.796875 20.09375 5.34375 15.09375 
Q 6.90625 10.09375 10 6.5 
Q 13.09375 2.90625 17.640625 0.90625 
Q 22.203125 -1.09375 28.40625 -1.09375 
Q 37.203125 -1.09375 43 3.296875 
Q 48.796875 7.703125 50.5 16.40625 
z
" id="HelveticaNeue-101"/>
       <path d="M 6.40625 71.40625 
L 6.40625 0 
L 14.90625 0 
L 14.90625 29.203125 
Q 14.90625 32.703125 15.84375 35.640625 
Q 16.796875 38.59375 18.6875 40.796875 
Q 20.59375 43 23.4375 44.203125 
Q 26.296875 45.40625 30.203125 45.40625 
Q 35.09375 45.40625 37.890625 42.59375 
Q 40.703125 39.796875 40.703125 35 
L 40.703125 0 
L 49.203125 0 
L 49.203125 34 
Q 49.203125 38.203125 48.34375 41.640625 
Q 47.5 45.09375 45.390625 47.59375 
Q 43.296875 50.09375 39.890625 51.5 
Q 36.5 52.90625 31.40625 52.90625 
Q 29.09375 52.90625 26.640625 52.40625 
Q 24.203125 51.90625 21.953125 50.84375 
Q 19.703125 49.796875 17.890625 48.140625 
Q 16.09375 46.5 15.09375 44.09375 
L 14.90625 44.09375 
L 14.90625 71.40625 
z
" id="HelveticaNeue-104"/>
      </defs>
      <use xlink:href="#HelveticaNeue-102"/>
      <use x="29.599991" xlink:href="#HelveticaNeue-101"/>
      <use x="83.299988" xlink:href="#HelveticaNeue-99"/>
      <use x="136.999985" xlink:href="#HelveticaNeue-104"/>
      <use x="192.599976" xlink:href="#HelveticaNeue-97"/>
     </g>
    </g>
   </g>
   <g id="matplotlib.axis_2">
    <g id="ytick_1">
     <g id="line2d_18">
      <defs>
       <path d="M 0 0 
L -3.5 0 
" id="m8493b295e1" style="stroke:#555555;stroke-width:0.8;"/>
      </defs>
      <g>
       <use style="fill:#555555;stroke:#555555;stroke-width:0.8;" x="62.5" xlink:href="#m8493b295e1" y="251.864024"/>
      </g>
     </g>
     <g id="text_7">
      <!-- 0 -->
      <g style="fill:#555555;" transform="translate(49.940625 255.434336)scale(0.1 -0.1)">
       <use xlink:href="#HelveticaNeue-48"/>
      </g>
     </g>
    </g>
    <g id="ytick_2">
     <g id="line2d_19">
      <g>
       <use style="fill:#555555;stroke:#555555;stroke-width:0.8;" x="62.5" xlink:href="#m8493b295e1" y="217.579308"/>
      </g>
     </g>
     <g id="text_8">
      <!-- 2000 -->
      <g style="fill:#555555;" transform="translate(33.2625 221.14962)scale(0.1 -0.1)">
       <use xlink:href="#HelveticaNeue-50"/>
       <use x="55.599991" xlink:href="#HelveticaNeue-48"/>
       <use x="111.199982" xlink:href="#HelveticaNeue-48"/>
       <use x="166.799973" xlink:href="#HelveticaNeue-48"/>
      </g>
     </g>
    </g>
    <g id="ytick_3">
     <g id="line2d_20">
      <g>
       <use style="fill:#555555;stroke:#555555;stroke-width:0.8;" x="62.5" xlink:href="#m8493b295e1" y="183.294592"/>
      </g>
     </g>
     <g id="text_9">
      <!-- 4000 -->
      <g style="fill:#555555;" transform="translate(33.2625 186.864904)scale(0.1 -0.1)">
       <defs>
        <path d="M 33.90625 24.09375 
L 10.09375 24.09375 
L 33.703125 58.796875 
L 33.90625 58.796875 
z
M 41.90625 24.09375 
L 41.90625 70.90625 
L 35.09375 70.90625 
L 2.796875 24.796875 
L 2.796875 16.59375 
L 33.90625 16.59375 
L 33.90625 0 
L 41.90625 0 
L 41.90625 16.59375 
L 51.5 16.59375 
L 51.5 24.09375 
z
" id="HelveticaNeue-52"/>
       </defs>
       <use xlink:href="#HelveticaNeue-52"/>
       <use x="55.599991" xlink:href="#HelveticaNeue-48"/>
       <use x="111.199982" xlink:href="#HelveticaNeue-48"/>
       <use x="166.799973" xlink:href="#HelveticaNeue-48"/>
      </g>
     </g>
    </g>
    <g id="ytick_4">
     <g id="line2d_21">
      <g>
       <use style="fill:#555555;stroke:#555555;stroke-width:0.8;" x="62.5" xlink:href="#m8493b295e1" y="149.009876"/>
      </g>
     </g>
     <g id="text_10">
      <!-- 6000 -->
      <g style="fill:#555555;" transform="translate(33.2625 152.580188)scale(0.1 -0.1)">
       <defs>
        <path d="M 41.40625 52.796875 
L 49.90625 52.796875 
Q 49.09375 61.59375 43.890625 66.25 
Q 38.703125 70.90625 29.90625 70.90625 
Q 22.296875 70.90625 17.296875 67.703125 
Q 12.296875 64.5 9.296875 59.203125 
Q 6.296875 53.90625 5.046875 47.046875 
Q 3.796875 40.203125 3.796875 32.90625 
Q 3.796875 27.296875 4.640625 21.296875 
Q 5.5 15.296875 8.09375 10.296875 
Q 10.703125 5.296875 15.5 2.09375 
Q 20.296875 -1.09375 28.203125 -1.09375 
Q 34.90625 -1.09375 39.453125 1.15625 
Q 44 3.40625 46.75 6.84375 
Q 49.5 10.296875 50.703125 14.5 
Q 51.90625 18.703125 51.90625 22.59375 
Q 51.90625 27.5 50.40625 31.703125 
Q 48.90625 35.90625 46.15625 39 
Q 43.40625 42.09375 39.34375 43.84375 
Q 35.296875 45.59375 30.203125 45.59375 
Q 24.40625 45.59375 19.953125 43.390625 
Q 15.5 41.203125 12.5 36.296875 
L 12.296875 36.5 
Q 12.40625 40.59375 13.09375 45.296875 
Q 13.796875 50 15.640625 54.046875 
Q 17.5 58.09375 20.796875 60.75 
Q 24.09375 63.40625 29.5 63.40625 
Q 34.59375 63.40625 37.6875 60.5 
Q 40.796875 57.59375 41.40625 52.796875 
z
M 28.59375 38.09375 
Q 32.203125 38.09375 34.890625 36.796875 
Q 37.59375 35.5 39.390625 33.34375 
Q 41.203125 31.203125 42.046875 28.25 
Q 42.90625 25.296875 42.90625 22 
Q 42.90625 18.90625 41.953125 16.046875 
Q 41 13.203125 39.203125 11 
Q 37.40625 8.796875 34.75 7.546875 
Q 32.09375 6.296875 28.59375 6.296875 
Q 25.09375 6.296875 22.34375 7.546875 
Q 19.59375 8.796875 17.75 10.890625 
Q 15.90625 13 14.90625 15.890625 
Q 13.90625 18.796875 13.90625 22.09375 
Q 13.90625 25.40625 14.84375 28.34375 
Q 15.796875 31.296875 17.6875 33.4375 
Q 19.59375 35.59375 22.296875 36.84375 
Q 25 38.09375 28.59375 38.09375 
z
" id="HelveticaNeue-54"/>
       </defs>
       <use xlink:href="#HelveticaNeue-54"/>
       <use x="55.599991" xlink:href="#HelveticaNeue-48"/>
       <use x="111.199982" xlink:href="#HelveticaNeue-48"/>
       <use x="166.799973" xlink:href="#HelveticaNeue-48"/>
      </g>
     </g>
    </g>
    <g id="ytick_5">
     <g id="line2d_22">
      <g>
       <use style="fill:#555555;stroke:#555555;stroke-width:0.8;" x="62.5" xlink:href="#m8493b295e1" y="114.72516"/>
      </g>
     </g>
     <g id="text_11">
      <!-- 8000 -->
      <g style="fill:#555555;" transform="translate(33.2625 118.295472)scale(0.1 -0.1)">
       <defs>
        <path d="M 15.5 52.5 
Q 15.5 55.203125 16.5 57.203125 
Q 17.5 59.203125 19.140625 60.59375 
Q 20.796875 62 23.09375 62.703125 
Q 25.40625 63.40625 27.90625 63.40625 
Q 33.09375 63.40625 36.4375 60.65625 
Q 39.796875 57.90625 39.796875 52.5 
Q 39.796875 47.09375 36.5 44.09375 
Q 33.203125 41.09375 28.09375 41.09375 
Q 25.5 41.09375 23.203125 41.796875 
Q 20.90625 42.5 19.203125 43.890625 
Q 17.5 45.296875 16.5 47.4375 
Q 15.5 49.59375 15.5 52.5 
z
M 6.5 52.796875 
Q 6.5 48 9.203125 43.953125 
Q 11.90625 39.90625 16.40625 38.09375 
Q 10.40625 36 7.203125 31.34375 
Q 4 26.703125 4 20.40625 
Q 4 15 5.84375 10.953125 
Q 7.703125 6.90625 10.953125 4.203125 
Q 14.203125 1.5 18.59375 0.203125 
Q 23 -1.09375 28.09375 -1.09375 
Q 33 -1.09375 37.296875 0.296875 
Q 41.59375 1.703125 44.75 4.453125 
Q 47.90625 7.203125 49.75 11.203125 
Q 51.59375 15.203125 51.59375 20.40625 
Q 51.59375 27 48.5 31.546875 
Q 45.40625 36.09375 39 38.09375 
Q 43.5 40.09375 46.140625 44.046875 
Q 48.796875 48 48.796875 52.796875 
Q 48.796875 56.203125 47.59375 59.453125 
Q 46.40625 62.703125 43.84375 65.25 
Q 41.296875 67.796875 37.1875 69.34375 
Q 33.09375 70.90625 27.296875 70.90625 
Q 23.203125 70.90625 19.453125 69.703125 
Q 15.703125 68.5 12.796875 66.203125 
Q 9.90625 63.90625 8.203125 60.546875 
Q 6.5 57.203125 6.5 52.796875 
z
M 13 20 
Q 13 23.09375 14.140625 25.59375 
Q 15.296875 28.09375 17.34375 29.890625 
Q 19.40625 31.703125 22.15625 32.640625 
Q 24.90625 33.59375 28 33.59375 
Q 31 33.59375 33.640625 32.546875 
Q 36.296875 31.5 38.296875 29.703125 
Q 40.296875 27.90625 41.4375 25.453125 
Q 42.59375 23 42.59375 20.09375 
Q 42.59375 17.09375 41.546875 14.59375 
Q 40.5 12.09375 38.546875 10.25 
Q 36.59375 8.40625 33.9375 7.34375 
Q 31.296875 6.296875 28.09375 6.296875 
Q 21.5 6.296875 17.25 9.9375 
Q 13 13.59375 13 20 
z
" id="HelveticaNeue-56"/>
       </defs>
       <use xlink:href="#HelveticaNeue-56"/>
       <use x="55.599991" xlink:href="#HelveticaNeue-48"/>
       <use x="111.199982" xlink:href="#HelveticaNeue-48"/>
       <use x="166.799973" xlink:href="#HelveticaNeue-48"/>
      </g>
     </g>
    </g>
    <g id="ytick_6">
     <g id="line2d_23">
      <g>
       <use style="fill:#555555;stroke:#555555;stroke-width:0.8;" x="62.5" xlink:href="#m8493b295e1" y="80.440444"/>
      </g>
     </g>
     <g id="text_12">
      <!-- 10000 -->
      <g style="fill:#555555;" transform="translate(27.703125 84.010756)scale(0.1 -0.1)">
       <use xlink:href="#HelveticaNeue-49"/>
       <use x="55.599991" xlink:href="#HelveticaNeue-48"/>
       <use x="111.199982" xlink:href="#HelveticaNeue-48"/>
       <use x="166.799973" xlink:href="#HelveticaNeue-48"/>
       <use x="222.399963" xlink:href="#HelveticaNeue-48"/>
      </g>
     </g>
    </g>
    <g id="ytick_7">
     <g id="line2d_24">
      <g>
       <use style="fill:#555555;stroke:#555555;stroke-width:0.8;" x="62.5" xlink:href="#m8493b295e1" y="46.155728"/>
      </g>
     </g>
     <g id="text_13">
      <!-- 12000 -->
      <g style="fill:#555555;" transform="translate(27.703125 49.72604)scale(0.1 -0.1)">
       <use xlink:href="#HelveticaNeue-49"/>
       <use x="55.599991" xlink:href="#HelveticaNeue-50"/>
       <use x="111.199982" xlink:href="#HelveticaNeue-48"/>
       <use x="166.799973" xlink:href="#HelveticaNeue-48"/>
       <use x="222.399963" xlink:href="#HelveticaNeue-48"/>
      </g>
     </g>
    </g>
   </g>
   <g id="line2d_25">
    <path clip-path="url(#pfa416e5a1f)" d="M 63.338745 251.6926 
L 65.016234 251.744027 
L 66.693723 251.726885 
L 67.532468 251.40118 
L 68.371212 251.778312 
L 69.209957 251.795455 
L 70.048701 251.366896 
L 70.887446 251.161187 
L 71.72619 251.624031 
L 72.564935 251.744027 
L 73.40368 251.212614 
L 75.081169 251.298326 
L 75.919913 250.921194 
L 76.758658 251.17833 
L 77.597403 250.475493 
L 78.436147 250.698344 
L 79.274892 251.10976 
L 80.113636 250.081219 
L 80.952381 251.349753 
L 81.791126 250.989764 
L 82.62987 250.424066 
L 83.468615 249.635517 
L 84.307359 251.246899 
L 85.146104 250.355496 
L 85.984848 251.10976 
L 86.823593 251.538319 
L 87.662338 251.452607 
L 89.339827 251.041191 
L 90.178571 251.126903 
L 91.017316 250.852625 
L 92.694805 249.824083 
L 93.53355 250.509778 
L 94.372294 250.595489 
L 95.211039 250.424066 
L 96.049784 251.058333 
L 96.888528 248.795542 
L 97.727273 250.338354 
L 98.566017 250.286927 
L 99.404762 250.064076 
L 100.243506 250.766913 
L 101.082251 249.58409 
L 101.920996 250.338354 
L 102.75974 249.344097 
L 103.598485 250.646917 
L 104.437229 249.94408 
L 105.275974 249.686945 
L 106.114719 248.555549 
L 106.953463 248.435552 
L 107.792208 249.635517 
L 108.630952 248.006993 
L 109.469697 248.264129 
L 110.308442 249.686945 
L 111.147186 249.29267 
L 111.985931 247.441296 
L 112.824675 249.772656 
L 113.66342 248.281271 
L 114.502165 249.892653 
L 115.340909 247.098448 
L 117.018398 248.486979 
L 117.857143 248.161275 
L 118.695887 247.527007 
L 119.534632 249.772656 
L 120.373377 247.064164 
L 121.212121 245.315643 
L 122.050866 247.801285 
L 122.88961 248.846969 
L 123.728355 245.778487 
L 124.5671 246.635605 
L 125.405844 243.464269 
L 126.244589 241.098623 
L 127.083333 243.669977 
L 127.922078 245.864199 
L 128.760823 245.298501 
L 129.599567 245.504209 
L 130.438312 243.189991 
L 131.277056 242.692862 
L 132.115801 244.972796 
L 132.954545 245.418497 
L 133.79329 246.447039 
L 134.632035 244.321386 
L 135.470779 245.349928 
L 136.309524 244.664234 
L 137.148268 244.887084 
L 137.987013 244.938511 
L 138.825758 242.984283 
L 139.664502 241.938599 
L 140.503247 245.555636 
L 141.341991 244.407098 
L 142.180736 242.401442 
L 143.858225 234.035972 
L 144.69697 242.830001 
L 145.535714 235.733065 
L 146.374459 237.601582 
L 147.213203 237.0016 
L 148.051948 235.40736 
L 148.890693 230.093229 
L 149.729437 236.435902 
L 150.568182 224.916237 
L 151.406926 237.944429 
L 152.245671 227.984719 
L 153.084416 239.607238 
L 153.92316 227.899007 
L 154.761905 229.493247 
L 155.600649 227.84758 
L 156.439394 232.441732 
L 157.278139 229.818952 
L 158.116883 233.350277 
L 158.955628 224.401966 
L 159.794372 226.459049 
L 160.633117 224.367682 
L 161.471861 205.511088 
L 162.310606 209.333834 
L 163.149351 215.607937 
L 163.988095 223.904838 
L 164.82684 220.184946 
L 165.665584 218.933554 
L 166.504329 221.504908 
L 167.343074 215.676506 
L 168.181818 226.356195 
L 169.020563 202.682599 
L 169.859307 211.92233 
L 170.698052 213.122295 
L 172.375541 187.563039 
L 173.214286 195.482809 
L 174.05303 195.414239 
L 174.891775 199.85411 
L 175.730519 206.608199 
L 176.569264 173.814868 
L 178.246753 200.162672 
L 179.085498 188.128737 
L 179.924242 205.562515 
L 180.762987 173.232028 
L 181.601732 212.368031 
L 182.440476 213.053725 
L 184.117965 147.895623 
L 184.95671 206.83105 
L 185.795455 192.105764 
L 186.634199 193.75143 
L 187.472944 193.905712 
L 188.311688 166.837928 
L 189.150433 181.186082 
L 189.989177 186.054512 
L 190.827922 174.603416 
L 191.666667 179.523273 
L 192.505411 172.649188 
L 193.344156 194.04285 
L 194.1829 172.08349 
L 195.021645 165.895099 
L 195.86039 196.751343 
L 196.699134 213.550854 
L 197.537879 178.734725 
L 198.376623 214.61368 
L 199.215368 175.957663 
L 200.054113 209.248122 
L 200.892857 180.346106 
L 201.731602 208.785278 
L 202.570346 214.373687 
L 203.409091 194.642833 
L 204.247835 220.184946 
L 205.08658 216.72219 
L 205.925325 211.870903 
L 206.764069 200.059818 
L 207.602814 201.636915 
L 208.441558 214.819388 
L 209.280303 221.264915 
L 210.119048 210.362375 
L 210.957792 217.167891 
L 211.796537 215.505083 
L 212.635281 212.830875 
L 213.474026 215.813645 
L 214.312771 221.110634 
L 215.151515 217.167891 
L 215.99026 218.384999 
L 216.829004 222.413453 
L 217.667749 227.161886 
L 218.506494 226.39048 
L 219.345238 212.539455 
L 220.183983 226.784754 
L 221.022727 221.093491 
L 221.861472 220.544936 
L 222.700216 218.350714 
L 223.538961 220.270658 
L 224.377706 225.053376 
L 225.21645 229.116115 
L 226.055195 225.310511 
L 226.893939 210.756649 
L 227.732684 229.287538 
L 228.571429 229.698955 
L 229.410173 225.670501 
L 230.248918 217.030753 
L 231.087662 229.218969 
L 231.926407 226.853324 
L 232.765152 225.327654 
L 233.603896 228.807552 
L 234.442641 217.407884 
L 235.281385 210.585226 
L 236.12013 212.710878 
L 236.958874 230.31608 
L 237.797619 217.065037 
L 238.636364 226.339053 
L 239.475108 225.567647 
L 240.313853 234.344534 
L 241.152597 226.836181 
L 241.991342 231.104628 
L 242.830087 227.641872 
L 243.668831 233.521701 
L 244.507576 225.087661 
L 245.34632 224.830525 
L 246.185065 234.704524 
L 247.02381 225.413366 
L 247.862554 208.031015 
L 248.701299 212.419458 
L 249.540043 225.413366 
L 250.378788 208.459574 
L 251.217532 230.264653 
L 252.056277 231.327479 
L 252.895022 220.322085 
L 253.733766 222.002036 
L 254.572511 201.242641 
L 255.411255 221.52205 
L 256.25 214.202263 
L 257.088745 228.070431 
L 257.927489 227.744726 
L 258.766234 226.904751 
L 260.443723 213.910843 
L 261.282468 213.636566 
L 262.121212 223.613418 
L 262.959957 230.521788 
L 263.798701 224.813383 
L 264.637446 224.196258 
L 265.47619 215.316517 
L 266.314935 214.116552 
L 267.15368 227.059032 
L 267.992424 221.573477 
L 268.831169 235.647353 
L 269.669913 231.55033 
L 270.508658 224.881952 
L 271.347403 210.585226 
L 272.186147 219.019266 
L 273.024892 218.933554 
L 273.863636 236.401617 
L 274.702381 207.499601 
L 275.541126 239.744377 
L 276.37987 212.333746 
L 277.218615 215.007954 
L 278.057359 204.36255 
L 278.896104 207.842449 
L 279.734848 210.156667 
L 280.573593 219.293544 
L 281.412338 230.676069 
L 282.251082 219.053551 
L 283.089827 205.853935 
L 283.928571 203.728283 
L 284.767316 225.15623 
L 285.606061 197.694173 
L 286.444805 222.584877 
L 287.28355 221.59062 
L 288.122294 205.939647 
L 288.961039 228.053289 
L 290.638528 198.345582 
L 291.477273 204.911105 
L 292.316017 208.973844 
L 293.154762 217.95644 
L 293.993506 182.420332 
L 294.832251 202.288325 
L 295.670996 182.283193 
L 296.50974 198.191301 
L 297.348485 180.637526 
L 298.187229 199.391266 
L 299.025974 231.036059 
L 299.864719 192.928597 
L 300.703463 162.535196 
L 302.380952 179.591843 
L 303.219697 218.025009 
L 304.058442 198.122732 
L 304.897186 212.436601 
L 305.735931 171.14066 
L 306.574675 166.957925 
L 307.41342 144.861425 
L 309.090909 217.459311 
L 309.929654 201.105502 
L 310.768398 165.997953 
L 311.607143 161.078096 
L 312.445887 152.592629 
L 313.284632 159.792419 
L 314.123377 147.175644 
L 314.962121 145.649974 
L 315.800866 178.289023 
L 316.63961 177.157628 
L 317.478355 200.385523 
L 318.3171 171.123518 
L 319.155844 119.696444 
L 319.994589 107.131095 
L 320.833333 171.706358 
L 321.672078 162.192349 
L 322.510823 185.077397 
L 323.349567 149.198442 
L 324.188312 154.598285 
L 325.027056 182.197481 
L 325.865801 147.758484 
L 326.704545 156.003958 
L 327.54329 182.780321 
L 328.382035 183.466016 
L 329.220779 195.842798 
L 330.059524 190.357243 
L 331.737013 205.116814 
L 332.575758 210.636653 
L 333.414502 189.82583 
L 334.253247 211.322347 
L 335.091991 199.631259 
L 335.930736 199.716971 
L 336.769481 195.92851 
L 337.608225 219.99638 
L 338.44697 217.939297 
L 339.285714 225.15623 
L 340.124459 235.493072 
L 340.963203 229.458962 
L 341.801948 225.927636 
L 342.640693 221.88204 
L 343.479437 223.40771 
L 344.318182 229.356108 
L 345.156926 232.030316 
L 345.995671 234.035972 
L 346.834416 228.481848 
L 347.67316 205.185383 
L 348.511905 230.487504 
L 349.350649 232.630298 
L 350.189394 233.264566 
L 351.028139 232.338878 
L 351.866883 232.801722 
L 352.705628 235.801635 
L 353.544372 231.070344 
L 354.383117 233.933118 
L 355.221861 236.161624 
L 356.060606 234.258822 
L 356.899351 238.338704 
L 357.738095 239.727235 
L 358.57684 236.05877 
L 359.415584 237.087311 
L 360.254329 239.538669 
L 361.093074 239.744377 
L 361.931818 237.704436 
L 362.770563 236.898745 
L 363.609307 243.087137 
L 364.448052 242.09288 
L 365.286797 240.138651 
L 366.125541 233.710267 
L 366.964286 237.275877 
L 367.80303 238.887259 
L 368.641775 239.058683 
L 369.480519 244.064251 
L 370.319264 238.355846 
L 371.158009 239.435814 
L 371.996753 238.201565 
L 372.835498 236.35019 
L 373.674242 207.379605 
L 374.512987 235.18451 
L 375.351732 240.910057 
L 376.190476 237.275877 
L 377.029221 236.264478 
L 377.867965 233.281708 
L 378.70671 228.001862 
L 379.545455 234.601669 
L 380.384199 233.933118 
L 382.061688 224.779098 
L 382.900433 225.104803 
L 383.739177 223.441994 
L 384.577922 220.922068 
L 385.416667 227.796153 
L 386.255411 229.08183 
L 387.094156 232.407448 
L 387.9329 213.499427 
L 388.771645 215.539367 
L 389.61039 207.431032 
L 390.449134 204.036845 
L 391.287879 222.619161 
L 392.126623 181.75178 
L 392.965368 195.328527 
L 393.804113 192.808601 
L 394.642857 188.694435 
L 395.481602 178.014746 
L 397.159091 186.740206 
L 397.997835 176.797638 
L 398.83658 214.767961 
L 399.675325 178.683298 
L 400.514069 176.574788 
L 401.352814 142.718631 
L 402.191558 171.552077 
L 403.030303 177.294767 
L 403.869048 191.522924 
L 404.707792 186.311647 
L 405.546537 182.0432 
L 406.385281 169.90641 
L 407.224026 183.877432 
L 408.901515 158.798162 
L 409.74026 176.489076 
L 410.579004 197.934166 
L 411.417749 170.043549 
L 412.256494 182.506044 
L 413.095238 170.917809 
L 413.933983 154.152583 
L 414.772727 161.866644 
L 415.611472 153.826879 
L 416.450216 192.568608 
L 417.288961 157.83819 
L 418.127706 166.04938 
L 418.96645 119.285027 
L 419.805195 175.889093 
L 420.643939 173.112031 
L 421.482684 156.466802 
L 422.321429 200.659801 
L 423.160173 183.517443 
L 423.998918 171.963493 
L 424.837662 167.695046 
L 425.676407 154.649712 
L 426.515152 158.952444 
L 427.353896 115.736559 
L 428.192641 164.335144 
L 429.031385 116.730816 
L 429.87013 111.96524 
L 430.708874 85.703148 
L 431.547619 107.731078 
L 432.386364 102.399805 
L 433.225108 128.473331 
L 434.063853 121.376395 
L 434.902597 149.095588 
L 435.741342 71.54356 
L 436.580087 71.766411 
L 437.418831 56.509712 
L 438.257576 71.90355 
L 439.09632 107.045384 
L 439.935065 107.662508 
L 440.77381 132.124653 
L 441.612554 94.891452 
L 442.451299 68.440793 
L 443.290043 72.297824 
L 444.128788 78.383361 
L 444.967532 97.188528 
L 445.806277 107.799647 
L 446.645022 122.079232 
L 447.483766 107.336804 
L 448.322511 37.704545 
L 449.161255 60.949583 
L 450 50.784165 
L 450 50.784165 
" style="fill:none;stroke:#000000;stroke-dasharray:1.5,2.475;stroke-dashoffset:0;stroke-opacity:0.5;stroke-width:1.5;"/>
   </g>
   <g id="line2d_26">
    <path clip-path="url(#pfa416e5a1f)" d="M 62.5 251.726885 
L 66.693723 251.709743 
L 75.081169 251.161187 
L 75.919913 251.006906 
L 76.758658 250.972621 
L 77.597403 250.81834 
L 81.791126 250.681201 
L 82.62987 250.595489 
L 85.984848 250.972621 
L 86.823593 251.161187 
L 89.339827 251.10976 
L 91.017316 250.715486 
L 92.694805 250.492635 
L 93.53355 250.475493 
L 94.372294 250.304069 
L 102.75974 250.029792 
L 106.953463 248.915538 
L 109.469697 248.726972 
L 110.308442 248.846969 
L 111.147186 248.726972 
L 111.985931 248.915538 
L 112.824675 248.795542 
L 113.66342 248.555549 
L 116.179654 248.144132 
L 117.018398 248.264129 
L 118.695887 247.852712 
L 120.373377 247.698431 
L 122.050866 247.25273 
L 125.405844 244.78423 
L 126.244589 244.304244 
L 127.083333 244.321386 
L 127.922078 244.149963 
L 128.760823 244.184248 
L 129.599567 244.49281 
L 132.954545 244.732803 
L 134.632035 245.178504 
L 135.470779 245.109935 
L 136.309524 244.818515 
L 137.148268 244.287102 
L 137.987013 244.252817 
L 139.664502 243.8414 
L 140.503247 243.138564 
L 141.341991 241.818602 
L 142.180736 241.338616 
L 144.69697 238.16728 
L 145.535714 237.413016 
L 146.374459 236.435902 
L 147.213203 236.247336 
L 148.051948 234.155968 
L 148.890693 233.898833 
L 149.729437 232.698868 
L 150.568182 232.818864 
L 151.406926 232.253166 
L 152.245671 232.184597 
L 153.084416 231.276052 
L 153.92316 231.653184 
L 154.761905 230.658927 
L 155.600649 231.001774 
L 156.439394 229.613243 
L 157.278139 229.407535 
L 158.116883 228.653271 
L 158.955628 225.824782 
L 159.794372 222.327741 
L 160.633117 219.499252 
L 161.471861 217.59645 
L 162.310606 216.876471 
L 163.149351 216.447912 
L 163.988095 216.962183 
L 165.665584 220.236373 
L 166.504329 218.864985 
L 167.343074 217.133607 
L 168.181818 215.762218 
L 169.020563 213.225149 
L 169.859307 208.853848 
L 170.698052 205.339664 
L 171.536797 201.071217 
L 172.375541 199.631259 
L 173.214286 198.568433 
L 174.05303 194.899968 
L 174.891775 193.305729 
L 175.730519 193.871427 
L 176.569264 192.602892 
L 177.408009 193.254302 
L 178.246753 190.871514 
L 179.085498 191.814344 
L 179.924242 196.339926 
L 180.762987 196.237072 
L 181.601732 190.922941 
L 182.440476 191.111507 
L 183.279221 188.865858 
L 184.117965 189.8944 
L 184.95671 188.163022 
L 185.795455 184.785977 
L 186.634199 185.351675 
L 187.472944 187.888744 
L 188.311688 183.688866 
L 189.150433 181.631783 
L 189.989177 179.146141 
L 190.827922 179.214711 
L 191.666667 179.900405 
L 192.505411 178.237596 
L 193.344156 179.094714 
L 194.1829 183.431731 
L 195.021645 184.751692 
L 195.86039 190.048681 
L 196.699134 190.048681 
L 197.537879 194.471409 
L 198.376623 195.808513 
L 200.054113 196.922767 
L 200.892857 199.168415 
L 201.731602 200.796939 
L 202.570346 205.922505 
L 203.409091 207.533886 
L 204.247835 210.03667 
L 205.08658 209.196695 
L 205.925325 208.922417 
L 206.764069 211.082354 
L 207.602814 210.276663 
L 208.441558 210.945215 
L 209.280303 212.196608 
L 210.119048 213.979413 
L 210.957792 215.333659 
L 211.796537 215.865072 
L 212.635281 215.745076 
L 213.474026 216.756475 
L 214.312771 217.579308 
L 215.151515 219.173547 
L 215.99026 221.042064 
L 216.829004 221.162061 
L 217.667749 221.864897 
L 218.506494 222.310599 
L 219.345238 222.344883 
L 220.183983 221.693474 
L 221.022727 220.836356 
L 221.861472 220.733502 
L 222.700216 222.396311 
L 223.538961 222.653446 
L 224.377706 222.036321 
L 225.21645 222.876297 
L 226.055195 223.973408 
L 226.893939 224.57339 
L 227.732684 223.904838 
L 228.571429 224.007692 
L 229.410173 224.453394 
L 230.248918 225.824782 
L 231.087662 225.773355 
L 231.926407 224.761956 
L 232.765152 223.150574 
L 233.603896 221.847755 
L 234.442641 220.990637 
L 235.281385 219.653533 
L 236.12013 219.70496 
L 236.958874 219.99638 
L 238.636364 224.967664 
L 239.475108 227.230456 
L 240.313853 227.521876 
L 241.152597 229.37325 
L 241.991342 229.390393 
L 242.830087 229.133257 
L 244.507576 228.824695 
L 246.185065 223.939123 
L 247.02381 222.139175 
L 247.862554 219.653533 
L 248.701299 219.379256 
L 249.540043 219.310686 
L 250.378788 219.859242 
L 251.217532 221.967752 
L 252.895022 220.013523 
L 253.733766 219.567822 
L 254.572511 218.590707 
L 255.411255 218.470711 
L 256.25 219.979238 
L 257.088745 220.990637 
L 257.927489 222.636304 
L 258.766234 221.59062 
L 259.604978 221.693474 
L 260.443723 221.402054 
L 261.282468 221.282057 
L 262.121212 221.659189 
L 263.798701 221.830613 
L 264.637446 222.550592 
L 265.47619 221.847755 
L 266.314935 222.344883 
L 267.15368 223.733414 
L 267.992424 224.847668 
L 268.831169 224.967664 
L 269.669913 224.967664 
L 270.508658 223.321998 
L 271.347403 223.870553 
L 272.186147 220.973495 
L 273.024892 221.916325 
L 273.863636 221.436339 
L 274.702381 221.933467 
L 275.541126 219.944953 
L 276.37987 217.59645 
L 277.218615 213.945128 
L 278.057359 213.979413 
L 278.896104 213.173722 
L 279.734848 214.819388 
L 281.412338 215.213663 
L 282.251082 216.379343 
L 283.089827 214.442256 
L 283.928571 213.807989 
L 284.767316 212.950871 
L 285.606061 212.316604 
L 286.444805 214.887958 
L 287.28355 216.105065 
L 288.122294 213.73942 
L 288.961039 213.67085 
L 289.799784 211.305205 
L 290.638528 210.293806 
L 292.316017 204.208269 
L 293.154762 200.676943 
L 293.993506 199.374124 
L 294.832251 195.705659 
L 295.670996 193.631434 
L 296.50974 195.208531 
L 297.348485 197.574176 
L 298.187229 194.711402 
L 299.025974 192.87717 
L 299.864719 189.260133 
L 300.703463 190.734375 
L 301.542208 189.8944 
L 302.380952 189.585837 
L 303.219697 190.031539 
L 304.058442 191.162934 
L 304.897186 186.945914 
L 305.735931 183.483158 
L 306.574675 181.10037 
L 307.41342 181.648926 
L 308.252165 179.368992 
L 309.090909 180.037544 
L 309.929654 178.511874 
L 310.768398 177.346194 
L 311.607143 170.437823 
L 312.445887 160.735249 
L 313.284632 157.32392 
L 314.123377 158.798162 
L 314.962121 164.266575 
L 315.800866 168.706445 
L 316.63961 166.63222 
L 317.478355 161.523797 
L 318.3171 160.135266 
L 319.155844 155.386833 
L 319.994589 154.821135 
L 320.833333 151.546945 
L 321.672078 152.695483 
L 322.510823 160.59811 
L 323.349567 164.729418 
L 324.188312 162.552339 
L 325.027056 163.975154 
L 325.865801 164.660849 
L 327.54329 176.111944 
L 328.382035 180.260395 
L 330.059524 194.98568 
L 330.898268 196.957051 
L 331.737013 200.299811 
L 333.414502 202.271182 
L 334.253247 201.808339 
L 335.930736 204.431119 
L 339.285714 222.533449 
L 340.124459 225.876209 
L 340.963203 226.339053 
L 341.801948 227.110459 
L 342.640693 227.436164 
L 343.479437 227.470449 
L 344.318182 227.967577 
L 345.156926 226.287626 
L 346.834416 226.853324 
L 347.67316 226.97332 
L 348.511905 227.33331 
L 349.350649 228.070431 
L 350.189394 229.836094 
L 351.028139 232.767437 
L 352.705628 233.538843 
L 353.544372 233.761694 
L 354.383117 234.481673 
L 355.221861 235.40736 
L 356.060606 235.818777 
L 357.738095 237.344447 
L 359.415584 238.270134 
L 360.254329 238.16728 
L 361.093074 238.561554 
L 361.931818 239.315818 
L 362.770563 239.812946 
L 363.609307 239.367245 
L 364.448052 239.058683 
L 366.125541 238.835832 
L 367.80303 238.732978 
L 368.641775 238.990113 
L 369.480519 239.572953 
L 370.319264 239.40153 
L 371.158009 235.818777 
L 371.996753 234.104541 
L 372.835498 232.818864 
L 373.674242 232.407448 
L 374.512987 232.42459 
L 375.351732 232.698868 
L 376.190476 232.698868 
L 377.029221 235.133083 
L 377.867965 234.5331 
L 382.900433 225.996206 
L 383.739177 225.310511 
L 384.577922 225.841925 
L 385.416667 225.104803 
L 386.255411 224.041977 
L 387.094156 221.830613 
L 387.9329 218.813558 
L 388.771645 216.807902 
L 389.61039 211.116639 
L 390.449134 206.248209 
L 391.287879 202.888307 
L 394.642857 186.671636 
L 395.481602 185.471671 
L 396.320346 186.997341 
L 397.997835 185.865946 
L 398.83658 182.077485 
L 400.514069 176.060517 
L 401.352814 175.854809 
L 402.191558 173.557733 
L 403.030303 175.546246 
L 403.869048 176.677642 
L 404.707792 181.066085 
L 405.546537 180.688954 
L 407.224026 175.203399 
L 408.062771 175.837666 
L 408.901515 175.220541 
L 409.74026 176.917635 
L 410.579004 176.420506 
L 411.417749 174.877694 
L 412.256494 173.866295 
L 413.095238 169.717844 
L 413.933983 167.917897 
L 415.611472 165.312258 
L 416.450216 160.495256 
L 417.288961 161.335231 
L 418.127706 161.489513 
L 418.96645 161.129523 
L 419.805195 162.655193 
L 420.643939 167.489338 
L 421.482684 170.763528 
L 422.321429 176.471933 
L 423.998918 171.740643 
L 425.676407 158.592454 
L 427.353896 141.672947 
L 428.192641 130.890404 
L 429.87013 114.536594 
L 430.708874 113.302344 
L 431.547619 109.102467 
L 432.386364 113.902327 
L 434.063853 110.765275 
L 435.741342 95.405722 
L 436.580087 89.097335 
L 437.418831 86.063137 
L 438.257576 86.543123 
L 439.09632 92.714372 
L 439.935065 95.200014 
L 440.77381 96.674257 
L 441.612554 94.840025 
L 442.451299 91.017279 
L 443.290043 89.457324 
L 444.128788 89.628748 
L 444.967532 93.845768 
L 445.806277 92.98865 
L 446.645022 90.794428 
L 448.322511 78.571927 
L 449.161255 70.857866 
L 450 60.761017 
L 450 60.761017 
" style="fill:none;stroke:#b3220f;stroke-linecap:square;stroke-width:1.5;"/>
   </g>
   <g id="patch_3">
    <path d="M 62.5 262.5 
L 62.5 27 
" style="fill:none;stroke:#555555;stroke-linecap:square;stroke-linejoin:miter;"/>
   </g>
   <g id="patch_4">
    <path d="M 62.5 262.5 
L 450 262.5 
" style="fill:none;stroke:#555555;stroke-linecap:square;stroke-linejoin:miter;"/>
   </g>
   <g id="text_14">
    <!-- Bogot D.C. | Casos nuevos 2021-06-19 -->
    <g style="fill:#555555;" transform="translate(129.306094 17)scale(0.14 -0.14)">
     <defs>
      <path d="M 17.296875 40.703125 
L 17.296875 63.40625 
L 36.296875 63.40625 
Q 39.40625 63.40625 42.15625 63.046875 
Q 44.90625 62.703125 47 61.5 
Q 49.09375 60.296875 50.296875 58.09375 
Q 51.5 55.90625 51.5 52.09375 
Q 51.5 46.40625 47.953125 43.546875 
Q 44.40625 40.703125 36.296875 40.703125 
z
M 7.796875 71.40625 
L 7.796875 0 
L 42.296875 0 
Q 47.59375 0 51.640625 1.75 
Q 55.703125 3.5 58.453125 6.34375 
Q 61.203125 9.203125 62.59375 12.890625 
Q 64 16.59375 64 20.5 
Q 64 27.09375 60.5 31.6875 
Q 57 36.296875 50.40625 37.703125 
L 50.40625 37.90625 
Q 55.5 39.90625 58.25 44.046875 
Q 61 48.203125 61 53.90625 
Q 61 59.296875 58.546875 63 
Q 56.09375 66.703125 52.59375 68.796875 
Q 51 69.796875 48.75 70.296875 
Q 46.5 70.796875 43.890625 71.046875 
Q 41.296875 71.296875 38.640625 71.34375 
Q 36 71.40625 33.703125 71.40625 
z
M 17.296875 8 
L 17.296875 32.703125 
L 39 32.703125 
Q 42 32.703125 44.796875 32.140625 
Q 47.59375 31.59375 49.75 30.25 
Q 51.90625 28.90625 53.203125 26.59375 
Q 54.5 24.296875 54.5 20.796875 
Q 54.5 14.796875 50.953125 11.390625 
Q 47.40625 8 41.09375 8 
z
" id="HelveticaNeue-66"/>
      <path d="M 12.59375 25.796875 
Q 12.59375 30.5 13.84375 34.140625 
Q 15.09375 37.796875 17.296875 40.296875 
Q 19.5 42.796875 22.453125 44.09375 
Q 25.40625 45.40625 28.703125 45.40625 
Q 32 45.40625 34.953125 44.09375 
Q 37.90625 42.796875 40.09375 40.296875 
Q 42.296875 37.796875 43.546875 34.140625 
Q 44.796875 30.5 44.796875 25.796875 
Q 44.796875 21.09375 43.546875 17.4375 
Q 42.296875 13.796875 40.09375 11.34375 
Q 37.90625 8.90625 34.953125 7.59375 
Q 32 6.296875 28.703125 6.296875 
Q 25.40625 6.296875 22.453125 7.59375 
Q 19.5 8.90625 17.296875 11.34375 
Q 15.09375 13.796875 13.84375 17.4375 
Q 12.59375 21.09375 12.59375 25.796875 
z
M 3.59375 25.796875 
Q 3.59375 20.09375 5.1875 15.1875 
Q 6.796875 10.296875 10 6.640625 
Q 13.203125 3 17.890625 0.953125 
Q 22.59375 -1.09375 28.703125 -1.09375 
Q 34.90625 -1.09375 39.546875 0.953125 
Q 44.203125 3 47.390625 6.640625 
Q 50.59375 10.296875 52.1875 15.1875 
Q 53.796875 20.09375 53.796875 25.796875 
Q 53.796875 31.5 52.1875 36.453125 
Q 50.59375 41.40625 47.390625 45.046875 
Q 44.203125 48.703125 39.546875 50.796875 
Q 34.90625 52.90625 28.703125 52.90625 
Q 22.59375 52.90625 17.890625 50.796875 
Q 13.203125 48.703125 10 45.046875 
Q 6.796875 41.40625 5.1875 36.453125 
Q 3.59375 31.5 3.59375 25.796875 
z
" id="HelveticaNeue-111"/>
      <path d="M 51 4.40625 
L 51 51.703125 
L 43 51.703125 
L 43 44.296875 
L 42.90625 44.296875 
Q 40.59375 48.59375 36.5 50.75 
Q 32.40625 52.90625 27.5 52.90625 
Q 20.796875 52.90625 16.1875 50.34375 
Q 11.59375 47.796875 8.796875 43.84375 
Q 6 39.90625 4.796875 35.046875 
Q 3.59375 30.203125 3.59375 25.59375 
Q 3.59375 20.296875 5.046875 15.546875 
Q 6.5 10.796875 9.390625 7.25 
Q 12.296875 3.703125 16.59375 1.59375 
Q 20.90625 -0.5 26.703125 -0.5 
Q 31.703125 -0.5 36.140625 1.75 
Q 40.59375 4 42.796875 8.796875 
L 43 8.796875 
L 43 5.40625 
Q 43 1.09375 42.140625 -2.5 
Q 41.296875 -6.09375 39.390625 -8.640625 
Q 37.5 -11.203125 34.59375 -12.640625 
Q 31.703125 -14.09375 27.5 -14.09375 
Q 25.40625 -14.09375 23.09375 -13.640625 
Q 20.796875 -13.203125 18.84375 -12.203125 
Q 16.90625 -11.203125 15.546875 -9.59375 
Q 14.203125 -8 14.09375 -5.703125 
L 5.59375 -5.703125 
Q 5.796875 -9.90625 7.796875 -12.796875 
Q 9.796875 -15.703125 12.84375 -17.5 
Q 15.90625 -19.296875 19.65625 -20.09375 
Q 23.40625 -20.90625 27 -20.90625 
Q 39.40625 -20.90625 45.203125 -14.59375 
Q 51 -8.296875 51 4.40625 
z
M 27.203125 6.90625 
Q 23 6.90625 20.203125 8.65625 
Q 17.40625 10.40625 15.703125 13.25 
Q 14 16.09375 13.296875 19.59375 
Q 12.59375 23.09375 12.59375 26.59375 
Q 12.59375 30.296875 13.4375 33.6875 
Q 14.296875 37.09375 16.140625 39.6875 
Q 18 42.296875 20.890625 43.84375 
Q 23.796875 45.40625 27.90625 45.40625 
Q 31.90625 45.40625 34.703125 43.796875 
Q 37.5 42.203125 39.25 39.546875 
Q 41 36.90625 41.796875 33.59375 
Q 42.59375 30.296875 42.59375 26.90625 
Q 42.59375 23.296875 41.75 19.6875 
Q 40.90625 16.09375 39.09375 13.25 
Q 37.296875 10.40625 34.34375 8.65625 
Q 31.40625 6.90625 27.203125 6.90625 
z
" id="HelveticaNeue-103"/>
      <path d="M 52.203125 0.203125 
Q 50 -1.09375 46.09375 -1.09375 
Q 42.796875 -1.09375 40.84375 0.75 
Q 38.90625 2.59375 38.90625 6.796875 
Q 35.40625 2.59375 30.75 0.75 
Q 26.09375 -1.09375 20.703125 -1.09375 
Q 17.203125 -1.09375 14.046875 -0.296875 
Q 10.90625 0.5 8.59375 2.203125 
Q 6.296875 3.90625 4.9375 6.65625 
Q 3.59375 9.40625 3.59375 13.296875 
Q 3.59375 17.703125 5.09375 20.5 
Q 6.59375 23.296875 9.046875 25.046875 
Q 11.5 26.796875 14.640625 27.6875 
Q 17.796875 28.59375 21.09375 29.203125 
Q 24.59375 29.90625 27.75 30.25 
Q 30.90625 30.59375 33.296875 31.25 
Q 35.703125 31.90625 37.09375 33.15625 
Q 38.5 34.40625 38.5 36.796875 
Q 38.5 39.59375 37.453125 41.296875 
Q 36.40625 43 34.75 43.890625 
Q 33.09375 44.796875 31.046875 45.09375 
Q 29 45.40625 27 45.40625 
Q 21.59375 45.40625 18 43.34375 
Q 14.40625 41.296875 14.09375 35.59375 
L 5.59375 35.59375 
Q 5.796875 40.40625 7.59375 43.703125 
Q 9.40625 47 12.40625 49.046875 
Q 15.40625 51.09375 19.25 52 
Q 23.09375 52.90625 27.5 52.90625 
Q 31 52.90625 34.453125 52.40625 
Q 37.90625 51.90625 40.703125 50.34375 
Q 43.5 48.796875 45.203125 46 
Q 46.90625 43.203125 46.90625 38.703125 
L 46.90625 12.09375 
Q 46.90625 9.09375 47.25 7.6875 
Q 47.59375 6.296875 49.59375 6.296875 
Q 50.703125 6.296875 52.203125 6.796875 
z
M 38.40625 26.703125 
Q 36.796875 25.5 34.1875 24.953125 
Q 31.59375 24.40625 28.75 24.046875 
Q 25.90625 23.703125 23 23.25 
Q 20.09375 22.796875 17.796875 21.796875 
Q 15.5 20.796875 14.046875 18.9375 
Q 12.59375 17.09375 12.59375 13.90625 
Q 12.59375 11.796875 13.4375 10.34375 
Q 14.296875 8.90625 15.640625 8 
Q 17 7.09375 18.796875 6.6875 
Q 20.59375 6.296875 22.59375 6.296875 
Q 26.796875 6.296875 29.796875 7.4375 
Q 32.796875 8.59375 34.6875 10.34375 
Q 36.59375 12.09375 37.5 14.140625 
Q 38.40625 16.203125 38.40625 18 
z
M 41.296875 77 
L 27.203125 60.796875 
L 20.796875 60.796875 
L 30.40625 77 
z
" id="HelveticaNeue-225"/>
      <path id="HelveticaNeue-32"/>
      <path d="M 17.296875 8 
L 17.296875 63.40625 
L 33.296875 63.40625 
Q 39.90625 63.40625 44.40625 61.546875 
Q 48.90625 59.703125 51.75 56.140625 
Q 54.59375 52.59375 55.84375 47.546875 
Q 57.09375 42.5 57.09375 36.09375 
Q 57.09375 29.5 55.75 24.84375 
Q 54.40625 20.203125 52.296875 17.09375 
Q 50.203125 14 47.546875 12.203125 
Q 44.90625 10.40625 42.203125 9.453125 
Q 39.5 8.5 37.09375 8.25 
Q 34.703125 8 33.09375 8 
z
M 7.796875 71.40625 
L 7.796875 0 
L 32.296875 0 
Q 41.203125 0 47.703125 2.5 
Q 54.203125 5 58.390625 9.75 
Q 62.59375 14.5 64.59375 21.453125 
Q 66.59375 28.40625 66.59375 37.40625 
Q 66.59375 54.59375 57.6875 63 
Q 48.796875 71.40625 32.296875 71.40625 
z
" id="HelveticaNeue-68"/>
      <path d="M 8.296875 11.09375 
L 8.296875 0 
L 19.40625 0 
L 19.40625 11.09375 
z
" id="HelveticaNeue-46"/>
      <path d="M 58 49.90625 
L 67.5 49.90625 
Q 66.703125 55.59375 64.09375 59.9375 
Q 61.5 64.296875 57.59375 67.1875 
Q 53.703125 70.09375 48.703125 71.59375 
Q 43.703125 73.09375 38.09375 73.09375 
Q 29.90625 73.09375 23.546875 70.140625 
Q 17.203125 67.203125 12.953125 62.09375 
Q 8.703125 57 6.5 50.140625 
Q 4.296875 43.296875 4.296875 35.5 
Q 4.296875 27.703125 6.34375 20.890625 
Q 8.40625 14.09375 12.5 9.09375 
Q 16.59375 4.09375 22.796875 1.25 
Q 29 -1.59375 37.296875 -1.59375 
Q 51 -1.59375 58.890625 5.90625 
Q 66.796875 13.40625 68.203125 26.90625 
L 58.703125 26.90625 
Q 58.40625 22.5 56.90625 18.703125 
Q 55.40625 14.90625 52.75 12.15625 
Q 50.09375 9.40625 46.4375 7.84375 
Q 42.796875 6.296875 38.09375 6.296875 
Q 31.703125 6.296875 27.09375 8.6875 
Q 22.5 11.09375 19.546875 15.140625 
Q 16.59375 19.203125 15.1875 24.640625 
Q 13.796875 30.09375 13.796875 36.203125 
Q 13.796875 41.796875 15.1875 47 
Q 16.59375 52.203125 19.546875 56.25 
Q 22.5 60.296875 27.046875 62.6875 
Q 31.59375 65.09375 38 65.09375 
Q 45.5 65.09375 50.953125 61.296875 
Q 56.40625 57.5 58 49.90625 
z
" id="HelveticaNeue-67"/>
      <path d="M 7.703125 78.59375 
L 7.703125 -21.296875 
L 14.5 -21.296875 
L 14.5 78.59375 
z
" id="HelveticaNeue-124"/>
      <path d="M 11.59375 16.296875 
L 3.09375 16.296875 
Q 3.296875 11.5 5.09375 8.140625 
Q 6.90625 4.796875 9.90625 2.75 
Q 12.90625 0.703125 16.796875 -0.1875 
Q 20.703125 -1.09375 25 -1.09375 
Q 28.90625 -1.09375 32.84375 -0.34375 
Q 36.796875 0.40625 39.9375 2.296875 
Q 43.09375 4.203125 45.046875 7.296875 
Q 47 10.40625 47 15.09375 
Q 47 18.796875 45.546875 21.296875 
Q 44.09375 23.796875 41.75 25.4375 
Q 39.40625 27.09375 36.34375 28.09375 
Q 33.296875 29.09375 30.09375 29.796875 
Q 27.09375 30.5 24.09375 31.140625 
Q 21.09375 31.796875 18.6875 32.75 
Q 16.296875 33.703125 14.75 35.140625 
Q 13.203125 36.59375 13.203125 38.796875 
Q 13.203125 40.796875 14.203125 42.046875 
Q 15.203125 43.296875 16.796875 44.046875 
Q 18.40625 44.796875 20.34375 45.09375 
Q 22.296875 45.40625 24.203125 45.40625 
Q 26.296875 45.40625 28.34375 44.953125 
Q 30.40625 44.5 32.09375 43.5 
Q 33.796875 42.5 34.890625 40.84375 
Q 36 39.203125 36.203125 36.703125 
L 44.703125 36.703125 
Q 44.40625 41.40625 42.703125 44.546875 
Q 41 47.703125 38.140625 49.546875 
Q 35.296875 51.40625 31.59375 52.15625 
Q 27.90625 52.90625 23.5 52.90625 
Q 20.09375 52.90625 16.640625 52.046875 
Q 13.203125 51.203125 10.453125 49.453125 
Q 7.703125 47.703125 5.953125 44.890625 
Q 4.203125 42.09375 4.203125 38.203125 
Q 4.203125 33.203125 6.703125 30.390625 
Q 9.203125 27.59375 12.953125 26.046875 
Q 16.703125 24.5 21.09375 23.640625 
Q 25.5 22.796875 29.25 21.75 
Q 33 20.703125 35.5 19 
Q 38 17.296875 38 14 
Q 38 11.59375 36.796875 10.046875 
Q 35.59375 8.5 33.75 7.703125 
Q 31.90625 6.90625 29.703125 6.59375 
Q 27.5 6.296875 25.5 6.296875 
Q 22.90625 6.296875 20.453125 6.796875 
Q 18 7.296875 16.046875 8.4375 
Q 14.09375 9.59375 12.890625 11.546875 
Q 11.703125 13.5 11.59375 16.296875 
z
" id="HelveticaNeue-115"/>
      <path d="M 29.703125 0 
L 48.59375 51.703125 
L 39.703125 51.703125 
L 25.59375 8.59375 
L 25.40625 8.59375 
L 10.90625 51.703125 
L 1.40625 51.703125 
L 20.59375 0 
z
" id="HelveticaNeue-118"/>
      <path d="M 5 31.796875 
L 5 23.796875 
L 33.90625 23.796875 
L 33.90625 31.796875 
z
" id="HelveticaNeue-45"/>
      <path d="M 13.40625 17.09375 
L 4.90625 17.09375 
Q 5.703125 7.90625 11.59375 3.40625 
Q 17.5 -1.09375 26.40625 -1.09375 
Q 39.296875 -1.09375 45.140625 8.75 
Q 51 18.59375 51 37 
Q 51 47.09375 49.046875 53.640625 
Q 47.09375 60.203125 43.796875 64 
Q 40.5 67.796875 36.09375 69.34375 
Q 31.703125 70.90625 26.703125 70.90625 
Q 21.59375 70.90625 17.296875 69.203125 
Q 13 67.5 9.890625 64.453125 
Q 6.796875 61.40625 5.09375 57.15625 
Q 3.40625 52.90625 3.40625 47.796875 
Q 3.40625 42.59375 4.84375 38.1875 
Q 6.296875 33.796875 9.140625 30.6875 
Q 12 27.59375 16.203125 25.84375 
Q 20.40625 24.09375 25.796875 24.09375 
Q 31 24.09375 35.390625 26.75 
Q 39.796875 29.40625 42.203125 33.90625 
L 42.40625 33.703125 
Q 42 19.796875 38.09375 13.046875 
Q 34.203125 6.296875 26.40625 6.296875 
Q 21.296875 6.296875 17.59375 9.09375 
Q 13.90625 11.90625 13.40625 17.09375 
z
M 40.90625 47.203125 
Q 40.90625 44.09375 39.90625 41.25 
Q 38.90625 38.40625 37 36.25 
Q 35.09375 34.09375 32.390625 32.84375 
Q 29.703125 31.59375 26.40625 31.59375 
Q 23.296875 31.59375 20.75 32.84375 
Q 18.203125 34.09375 16.34375 36.1875 
Q 14.5 38.296875 13.453125 41 
Q 12.40625 43.703125 12.40625 46.59375 
Q 12.40625 49.90625 13.15625 52.90625 
Q 13.90625 55.90625 15.546875 58.25 
Q 17.203125 60.59375 19.84375 62 
Q 22.5 63.40625 26.296875 63.40625 
Q 29.90625 63.40625 32.59375 62.09375 
Q 35.296875 60.796875 37.140625 58.546875 
Q 39 56.296875 39.953125 53.390625 
Q 40.90625 50.5 40.90625 47.203125 
z
" id="HelveticaNeue-57"/>
     </defs>
     <use xlink:href="#HelveticaNeue-66"/>
     <use x="68.499985" xlink:href="#HelveticaNeue-111"/>
     <use x="125.899979" xlink:href="#HelveticaNeue-103"/>
     <use x="183.299973" xlink:href="#HelveticaNeue-111"/>
     <use x="240.699966" xlink:href="#HelveticaNeue-116"/>
     <use x="272.199951" xlink:href="#HelveticaNeue-225"/>
     <use x="325.899948" xlink:href="#HelveticaNeue-32"/>
     <use x="353.699936" xlink:href="#HelveticaNeue-68"/>
     <use x="424.09993" xlink:href="#HelveticaNeue-46"/>
     <use x="451.899918" xlink:href="#HelveticaNeue-67"/>
     <use x="524.099899" xlink:href="#HelveticaNeue-46"/>
     <use x="551.899887" xlink:href="#HelveticaNeue-32"/>
     <use x="579.699875" xlink:href="#HelveticaNeue-124"/>
     <use x="601.899872" xlink:href="#HelveticaNeue-32"/>
     <use x="629.69986" xlink:href="#HelveticaNeue-67"/>
     <use x="701.899841" xlink:href="#HelveticaNeue-97"/>
     <use x="755.599838" xlink:href="#HelveticaNeue-115"/>
     <use x="805.599823" xlink:href="#HelveticaNeue-111"/>
     <use x="862.999817" xlink:href="#HelveticaNeue-115"/>
     <use x="912.999802" xlink:href="#HelveticaNeue-32"/>
     <use x="940.799789" xlink:href="#HelveticaNeue-110"/>
     <use x="996.39978" xlink:href="#HelveticaNeue-117"/>
     <use x="1051.999771" xlink:href="#HelveticaNeue-101"/>
     <use x="1105.699768" xlink:href="#HelveticaNeue-118"/>
     <use x="1155.699753" xlink:href="#HelveticaNeue-111"/>
     <use x="1213.099747" xlink:href="#HelveticaNeue-115"/>
     <use x="1263.099731" xlink:href="#HelveticaNeue-32"/>
     <use x="1290.899719" xlink:href="#HelveticaNeue-50"/>
     <use x="1346.49971" xlink:href="#HelveticaNeue-48"/>
     <use x="1402.099701" xlink:href="#HelveticaNeue-50"/>
     <use x="1457.699692" xlink:href="#HelveticaNeue-49"/>
     <use x="1513.299683" xlink:href="#HelveticaNeue-45"/>
     <use x="1552.199677" xlink:href="#HelveticaNeue-48"/>
     <use x="1607.799667" xlink:href="#HelveticaNeue-54"/>
     <use x="1663.399658" xlink:href="#HelveticaNeue-45"/>
     <use x="1702.299652" xlink:href="#HelveticaNeue-49"/>
     <use x="1757.899643" xlink:href="#HelveticaNeue-57"/>
    </g>
   </g>
   <g id="legend_1">
    <g id="line2d_27">
     <path d="M 71.5 39.640625 
L 91.5 39.640625 
" style="fill:none;stroke:#000000;stroke-dasharray:1.5,2.475;stroke-dashoffset:0;stroke-opacity:0.5;stroke-width:1.5;"/>
    </g>
    <g id="line2d_28"/>
    <g id="text_15">
     <!-- Actual -->
     <g style="fill:#555555;" transform="translate(99.5 43.140625)scale(0.1 -0.1)">
      <use xlink:href="#HelveticaNeue-65"/>
      <use x="64.799988" xlink:href="#HelveticaNeue-99"/>
      <use x="118.499985" xlink:href="#HelveticaNeue-116"/>
      <use x="149.999969" xlink:href="#HelveticaNeue-117"/>
      <use x="205.59996" xlink:href="#HelveticaNeue-97"/>
      <use x="259.299957" xlink:href="#HelveticaNeue-108"/>
     </g>
    </g>
    <g id="line2d_29">
     <path d="M 71.5 54.310937 
L 91.5 54.310937 
" style="fill:none;stroke:#b3220f;stroke-linecap:square;stroke-width:1.5;"/>
    </g>
    <g id="line2d_30"/>
    <g id="text_16">
     <!-- Promedio semanal (7 das)  -->
     <g style="fill:#555555;" transform="translate(99.5 57.810937)scale(0.1 -0.1)">
      <defs>
       <path d="M 17.296875 37.203125 
L 17.296875 63.40625 
L 35.90625 63.40625 
Q 44 63.40625 47.75 60.046875 
Q 51.5 56.703125 51.5 50.296875 
Q 51.5 43.90625 47.75 40.5 
Q 44 37.09375 35.90625 37.203125 
z
M 7.796875 71.40625 
L 7.796875 0 
L 17.296875 0 
L 17.296875 29.203125 
L 39.09375 29.203125 
Q 49.90625 29.09375 55.453125 34.6875 
Q 61 40.296875 61 50.296875 
Q 61 60.296875 55.453125 65.84375 
Q 49.90625 71.40625 39.09375 71.40625 
z
" id="HelveticaNeue-80"/>
       <path d="M 6.40625 51.703125 
L 6.40625 0 
L 14.90625 0 
L 14.90625 32.203125 
Q 14.90625 33.703125 15.65625 35.953125 
Q 16.40625 38.203125 18.046875 40.296875 
Q 19.703125 42.40625 22.34375 43.90625 
Q 25 45.40625 28.703125 45.40625 
Q 31.59375 45.40625 33.4375 44.546875 
Q 35.296875 43.703125 36.390625 42.140625 
Q 37.5 40.59375 37.953125 38.5 
Q 38.40625 36.40625 38.40625 33.90625 
L 38.40625 0 
L 46.90625 0 
L 46.90625 32.203125 
Q 46.90625 38.203125 50.5 41.796875 
Q 54.09375 45.40625 60.40625 45.40625 
Q 63.5 45.40625 65.453125 44.5 
Q 67.40625 43.59375 68.5 42.046875 
Q 69.59375 40.5 70 38.390625 
Q 70.40625 36.296875 70.40625 33.90625 
L 70.40625 0 
L 78.90625 0 
L 78.90625 37.90625 
Q 78.90625 41.90625 77.65625 44.75 
Q 76.40625 47.59375 74.15625 49.390625 
Q 71.90625 51.203125 68.75 52.046875 
Q 65.59375 52.90625 61.703125 52.90625 
Q 56.59375 52.90625 52.34375 50.59375 
Q 48.09375 48.296875 45.5 44.09375 
Q 43.90625 48.90625 40 50.90625 
Q 36.09375 52.90625 31.296875 52.90625 
Q 20.40625 52.90625 14.59375 44.09375 
L 14.40625 44.09375 
L 14.40625 51.703125 
z
" id="HelveticaNeue-109"/>
       <path d="M 12.59375 25.40625 
Q 12.59375 29.203125 13.390625 32.796875 
Q 14.203125 36.40625 16 39.203125 
Q 17.796875 42 20.796875 43.703125 
Q 23.796875 45.40625 28.09375 45.40625 
Q 32.5 45.40625 35.59375 43.75 
Q 38.703125 42.09375 40.640625 39.390625 
Q 42.59375 36.703125 43.5 33.140625 
Q 44.40625 29.59375 44.40625 25.796875 
Q 44.40625 22.203125 43.546875 18.703125 
Q 42.703125 15.203125 40.796875 12.453125 
Q 38.90625 9.703125 35.90625 8 
Q 32.90625 6.296875 28.59375 6.296875 
Q 24.5 6.296875 21.453125 7.890625 
Q 18.40625 9.5 16.453125 12.203125 
Q 14.5 14.90625 13.546875 18.34375 
Q 12.59375 21.796875 12.59375 25.40625 
z
M 52.59375 0 
L 52.59375 71.40625 
L 44.09375 71.40625 
L 44.09375 44.796875 
L 43.90625 44.796875 
Q 42.5 47.09375 40.453125 48.640625 
Q 38.40625 50.203125 36.09375 51.140625 
Q 33.796875 52.09375 31.5 52.5 
Q 29.203125 52.90625 27.203125 52.90625 
Q 21.296875 52.90625 16.84375 50.75 
Q 12.40625 48.59375 9.453125 44.9375 
Q 6.5 41.296875 5.046875 36.390625 
Q 3.59375 31.5 3.59375 26 
Q 3.59375 20.5 5.09375 15.59375 
Q 6.59375 10.703125 9.546875 7 
Q 12.5 3.296875 16.953125 1.09375 
Q 21.40625 -1.09375 27.40625 -1.09375 
Q 32.796875 -1.09375 37.296875 0.796875 
Q 41.796875 2.703125 43.90625 7 
L 44.09375 7 
L 44.09375 0 
z
" id="HelveticaNeue-100"/>
       <path d="M 15.40625 61 
L 15.40625 71.40625 
L 6.90625 71.40625 
L 6.90625 61 
z
M 6.90625 51.703125 
L 6.90625 0 
L 15.40625 0 
L 15.40625 51.703125 
z
" id="HelveticaNeue-105"/>
       <path d="M 20.40625 -19.703125 
L 26.90625 -19.703125 
Q 19.796875 -8.203125 16.75 3.09375 
Q 13.703125 14.40625 13.703125 27 
Q 13.703125 39.296875 16.703125 50.5 
Q 19.703125 61.703125 26.90625 73.09375 
L 20.40625 73.09375 
Q 12.59375 62.796875 8.640625 50.796875 
Q 4.703125 38.796875 4.703125 27 
Q 4.703125 20.40625 5.796875 14.40625 
Q 6.90625 8.40625 8.953125 2.703125 
Q 11 -3 13.890625 -8.546875 
Q 16.796875 -14.09375 20.40625 -19.703125 
z
" id="HelveticaNeue-40"/>
       <path d="M 50.90625 62.40625 
L 50.90625 69.703125 
L 5 69.703125 
L 5 61.703125 
L 42.203125 61.703125 
Q 36.59375 55.796875 31.75 48.796875 
Q 26.90625 41.796875 23.203125 33.9375 
Q 19.5 26.09375 17.140625 17.546875 
Q 14.796875 9 14.203125 0 
L 23.703125 0 
Q 24.203125 8.296875 26.5 17.09375 
Q 28.796875 25.90625 32.4375 34.203125 
Q 36.09375 42.5 40.796875 49.796875 
Q 45.5 57.09375 50.90625 62.40625 
z
" id="HelveticaNeue-55"/>
       <path d="M 6.90625 0 
L 15.40625 0 
L 15.40625 51.703125 
L 6.90625 51.703125 
z
M 25.5 77 
L 11.40625 60.796875 
L 5 60.796875 
L 14.59375 77 
z
" id="HelveticaNeue-237"/>
       <path d="M -0.90625 -19.703125 
L 5.5 -19.703125 
Q 13.296875 -9.40625 17.25 2.546875 
Q 21.203125 14.5 21.203125 26.296875 
Q 21.203125 32.90625 20.09375 38.90625 
Q 19 44.90625 16.953125 50.65625 
Q 14.90625 56.40625 12 61.953125 
Q 9.09375 67.5 5.5 73.09375 
L -0.90625 73.09375 
Q 6.09375 61.59375 9.140625 50.25 
Q 12.203125 38.90625 12.203125 26.296875 
Q 12.203125 14.09375 9.203125 2.84375 
Q 6.203125 -8.40625 -0.90625 -19.703125 
z
" id="HelveticaNeue-41"/>
      </defs>
      <use xlink:href="#HelveticaNeue-80"/>
      <use x="64.799988" xlink:href="#HelveticaNeue-114"/>
      <use x="96.349976" xlink:href="#HelveticaNeue-111"/>
      <use x="153.749969" xlink:href="#HelveticaNeue-109"/>
      <use x="239.049957" xlink:href="#HelveticaNeue-101"/>
      <use x="292.749954" xlink:href="#HelveticaNeue-100"/>
      <use x="352.049942" xlink:href="#HelveticaNeue-105"/>
      <use x="374.249939" xlink:href="#HelveticaNeue-111"/>
      <use x="431.649933" xlink:href="#HelveticaNeue-32"/>
      <use x="459.449921" xlink:href="#HelveticaNeue-115"/>
      <use x="509.449905" xlink:href="#HelveticaNeue-101"/>
      <use x="563.149902" xlink:href="#HelveticaNeue-109"/>
      <use x="648.44989" xlink:href="#HelveticaNeue-97"/>
      <use x="702.149887" xlink:href="#HelveticaNeue-110"/>
      <use x="757.749878" xlink:href="#HelveticaNeue-97"/>
      <use x="811.449875" xlink:href="#HelveticaNeue-108"/>
      <use x="833.649872" xlink:href="#HelveticaNeue-32"/>
      <use x="861.44986" xlink:href="#HelveticaNeue-40"/>
      <use x="887.349854" xlink:href="#HelveticaNeue-55"/>
      <use x="942.949844" xlink:href="#HelveticaNeue-32"/>
      <use x="970.749832" xlink:href="#HelveticaNeue-100"/>
      <use x="1030.04982" xlink:href="#HelveticaNeue-237"/>
      <use x="1052.249817" xlink:href="#HelveticaNeue-97"/>
      <use x="1105.949814" xlink:href="#HelveticaNeue-115"/>
      <use x="1155.949799" xlink:href="#HelveticaNeue-41"/>
      <use x="1181.849792" xlink:href="#HelveticaNeue-32"/>
     </g>
    </g>
   </g>
  </g>
 </g>
 <defs>
  <clipPath id="pfa416e5a1f">
   <rect height="235.5" width="387.5" x="62.5" y="27"/>
  </clipPath>
 </defs>
</svg>
