<?xml version="1.0" encoding="utf-8" standalone="no"?>
<!DOCTYPE svg PUBLIC "-//W3C//DTD SVG 1.1//EN"
  "http://www.w3.org/Graphics/SVG/1.1/DTD/svg11.dtd">
<!-- Created with matplotlib (https://matplotlib.org/) -->
<svg height="300pt" version="1.1" viewBox="0 0 500 300" width="500pt" xmlns="http://www.w3.org/2000/svg" xmlns:xlink="http://www.w3.org/1999/xlink">
 <metadata>
  <rdf:RDF xmlns:cc="http://creativecommons.org/ns#" xmlns:dc="http://purl.org/dc/elements/1.1/" xmlns:rdf="http://www.w3.org/1999/02/22-rdf-syntax-ns#">
   <cc:Work>
    <dc:type rdf:resource="http://purl.org/dc/dcmitype/StillImage"/>
    <dc:date>2021-06-15T19:22:31.387573</dc:date>
    <dc:format>image/svg+xml</dc:format>
    <dc:creator>
     <cc:Agent>
      <dc:title>Matplotlib v3.3.4, https://matplotlib.org/</dc:title>
     </cc:Agent>
    </dc:creator>
   </cc:Work>
  </rdf:RDF>
 </metadata>
 <defs>
  <style type="text/css">*{stroke-linecap:butt;stroke-linejoin:round;}</style>
 </defs>
 <g id="figure_1">
  <g id="patch_1">
   <path d="M 0 300 
L 500 300 
L 500 0 
L 0 0 
z
" style="fill:#ffffff;"/>
  </g>
  <g id="axes_1">
   <g id="patch_2">
    <path d="M 62.5 262.5 
L 450 262.5 
L 450 27 
L 62.5 27 
z
" style="fill:#ffffff;"/>
   </g>
   <g id="matplotlib.axis_1">
    <g id="xtick_1">
     <g id="line2d_1">
      <defs>
       <path d="M 0 0 
L 0 3.5 
" id="m23779c65cf" style="stroke:#555555;stroke-width:0.8;"/>
      </defs>
      <g>
       <use style="fill:#555555;stroke:#555555;stroke-width:0.8;" x="62.5" xlink:href="#m23779c65cf" y="262.5"/>
      </g>
     </g>
    </g>
    <g id="xtick_2">
     <g id="line2d_2">
      <g>
       <use style="fill:#555555;stroke:#555555;stroke-width:0.8;" x="77.762582" xlink:href="#m23779c65cf" y="262.5"/>
      </g>
     </g>
     <g id="text_1">
      <!-- Apr -->
      <g style="fill:#555555;" transform="translate(69.893051 276.640625)scale(0.1 -0.1)">
       <defs>
        <path d="M 20.09375 29.5 
L 32.203125 62.796875 
L 32.40625 62.796875 
L 44.296875 29.5 
z
M 27.203125 71.40625 
L -0.59375 0 
L 9.09375 0 
L 17.09375 21.5 
L 47.296875 21.5 
L 55.09375 0 
L 65.59375 0 
L 37.703125 71.40625 
z
" id="HelveticaNeue-65"/>
        <path d="M 6.703125 51.703125 
L 6.703125 -19.703125 
L 15.203125 -19.703125 
L 15.203125 6.90625 
L 15.40625 6.90625 
Q 16.796875 4.59375 18.84375 3.046875 
Q 20.90625 1.5 23.203125 0.59375 
Q 25.5 -0.296875 27.84375 -0.6875 
Q 30.203125 -1.09375 32.09375 -1.09375 
Q 38 -1.09375 42.453125 1 
Q 46.90625 3.09375 49.84375 6.75 
Q 52.796875 10.40625 54.25 15.296875 
Q 55.703125 20.203125 55.703125 25.703125 
Q 55.703125 31.203125 54.203125 36.09375 
Q 52.703125 41 49.75 44.75 
Q 46.796875 48.5 42.34375 50.703125 
Q 37.90625 52.90625 31.90625 52.90625 
Q 26.5 52.90625 22 50.953125 
Q 17.5 49 15.40625 44.703125 
L 15.203125 44.703125 
L 15.203125 51.703125 
z
M 46.703125 26.296875 
Q 46.703125 22.5 45.890625 18.890625 
Q 45.09375 15.296875 43.296875 12.5 
Q 41.5 9.703125 38.546875 8 
Q 35.59375 6.296875 31.203125 6.296875 
Q 26.796875 6.296875 23.6875 7.9375 
Q 20.59375 9.59375 18.640625 12.296875 
Q 16.703125 15 15.796875 18.546875 
Q 14.90625 22.09375 14.90625 25.90625 
Q 14.90625 29.5 15.75 33 
Q 16.59375 36.5 18.5 39.25 
Q 20.40625 42 23.40625 43.703125 
Q 26.40625 45.40625 30.703125 45.40625 
Q 34.796875 45.40625 37.84375 43.796875 
Q 40.90625 42.203125 42.84375 39.5 
Q 44.796875 36.796875 45.75 33.34375 
Q 46.703125 29.90625 46.703125 26.296875 
z
" id="HelveticaNeue-112"/>
        <path d="M 6.09375 51.703125 
L 6.09375 0 
L 14.59375 0 
L 14.59375 23 
Q 14.59375 28 15.59375 31.84375 
Q 16.59375 35.703125 18.796875 38.390625 
Q 21 41.09375 24.59375 42.5 
Q 28.203125 43.90625 33.296875 43.90625 
L 33.296875 52.90625 
Q 26.40625 53.09375 21.90625 50.09375 
Q 17.40625 47.09375 14.296875 40.796875 
L 14.09375 40.796875 
L 14.09375 51.703125 
z
" id="HelveticaNeue-114"/>
       </defs>
       <use xlink:href="#HelveticaNeue-65"/>
       <use x="64.799988" xlink:href="#HelveticaNeue-112"/>
       <use x="124.099976" xlink:href="#HelveticaNeue-114"/>
      </g>
     </g>
    </g>
    <g id="xtick_3">
     <g id="line2d_3">
      <g>
       <use style="fill:#555555;stroke:#555555;stroke-width:0.8;" x="154.923414" xlink:href="#m23779c65cf" y="262.5"/>
      </g>
     </g>
     <g id="text_2">
      <!-- Jul -->
      <g style="fill:#555555;" transform="translate(148.438257 276.640625)scale(0.1 -0.1)">
       <defs>
        <path d="M 44.09375 17.796875 
L 44.09375 71.40625 
L 34.59375 71.40625 
L 34.59375 19.203125 
Q 34.59375 13.296875 32.140625 9.796875 
Q 29.703125 6.296875 23.203125 6.296875 
Q 19.703125 6.296875 17.453125 7.34375 
Q 15.203125 8.40625 13.953125 10.296875 
Q 12.703125 12.203125 12.203125 14.796875 
Q 11.703125 17.40625 11.703125 20.5 
L 11.703125 23.5 
L 2.203125 23.5 
L 2.203125 19.09375 
Q 2.203125 8.90625 7.59375 3.65625 
Q 13 -1.59375 23 -1.59375 
Q 29 -1.59375 33.046875 0.046875 
Q 37.09375 1.703125 39.546875 4.453125 
Q 42 7.203125 43.046875 10.703125 
Q 44.09375 14.203125 44.09375 17.796875 
z
" id="HelveticaNeue-74"/>
        <path d="M 49.203125 0 
L 49.203125 51.703125 
L 40.703125 51.703125 
L 40.703125 22.5 
Q 40.703125 19 39.75 16.046875 
Q 38.796875 13.09375 36.890625 10.890625 
Q 35 8.703125 32.140625 7.5 
Q 29.296875 6.296875 25.40625 6.296875 
Q 20.5 6.296875 17.703125 9.09375 
Q 14.90625 11.90625 14.90625 16.703125 
L 14.90625 51.703125 
L 6.40625 51.703125 
L 6.40625 17.703125 
Q 6.40625 13.5 7.25 10.046875 
Q 8.09375 6.59375 10.1875 4.09375 
Q 12.296875 1.59375 15.6875 0.25 
Q 19.09375 -1.09375 24.203125 -1.09375 
Q 29.90625 -1.09375 34.09375 1.15625 
Q 38.296875 3.40625 41 8.203125 
L 41.203125 8.203125 
L 41.203125 0 
z
" id="HelveticaNeue-117"/>
        <path d="M 6.90625 71.40625 
L 6.90625 0 
L 15.40625 0 
L 15.40625 71.40625 
z
" id="HelveticaNeue-108"/>
       </defs>
       <use xlink:href="#HelveticaNeue-74"/>
       <use x="51.899994" xlink:href="#HelveticaNeue-117"/>
       <use x="107.499985" xlink:href="#HelveticaNeue-108"/>
      </g>
     </g>
    </g>
    <g id="xtick_4">
     <g id="line2d_4">
      <g>
       <use style="fill:#555555;stroke:#555555;stroke-width:0.8;" x="232.932166" xlink:href="#m23779c65cf" y="262.5"/>
      </g>
     </g>
     <g id="text_3">
      <!-- Oct -->
      <g style="fill:#555555;" transform="translate(224.87201 276.640625)scale(0.1 -0.1)">
       <defs>
        <path d="M 13.296875 35.703125 
Q 13.296875 41.09375 14.6875 46.34375 
Q 16.09375 51.59375 19.09375 55.796875 
Q 22.09375 60 26.796875 62.546875 
Q 31.5 65.09375 38 65.09375 
Q 44.5 65.09375 49.203125 62.546875 
Q 53.90625 60 56.90625 55.796875 
Q 59.90625 51.59375 61.296875 46.34375 
Q 62.703125 41.09375 62.703125 35.703125 
Q 62.703125 30.296875 61.296875 25.046875 
Q 59.90625 19.796875 56.90625 15.59375 
Q 53.90625 11.40625 49.203125 8.84375 
Q 44.5 6.296875 38 6.296875 
Q 31.5 6.296875 26.796875 8.84375 
Q 22.09375 11.40625 19.09375 15.59375 
Q 16.09375 19.796875 14.6875 25.046875 
Q 13.296875 30.296875 13.296875 35.703125 
z
M 3.796875 35.703125 
Q 3.796875 28.40625 5.9375 21.65625 
Q 8.09375 14.90625 12.390625 9.703125 
Q 16.703125 4.5 23.09375 1.453125 
Q 29.5 -1.59375 38 -1.59375 
Q 46.5 -1.59375 52.890625 1.453125 
Q 59.296875 4.5 63.59375 9.703125 
Q 67.90625 14.90625 70.046875 21.65625 
Q 72.203125 28.40625 72.203125 35.703125 
Q 72.203125 43 70.046875 49.75 
Q 67.90625 56.5 63.59375 61.703125 
Q 59.296875 66.90625 52.890625 70 
Q 46.5 73.09375 38 73.09375 
Q 29.5 73.09375 23.09375 70 
Q 16.703125 66.90625 12.390625 61.703125 
Q 8.09375 56.5 5.9375 49.75 
Q 3.796875 43 3.796875 35.703125 
z
" id="HelveticaNeue-79"/>
        <path d="M 41.5 35.09375 
L 50.296875 35.09375 
Q 49.796875 39.703125 47.890625 43.046875 
Q 46 46.40625 43.046875 48.59375 
Q 40.09375 50.796875 36.25 51.84375 
Q 32.40625 52.90625 28 52.90625 
Q 21.90625 52.90625 17.296875 50.75 
Q 12.703125 48.59375 9.640625 44.84375 
Q 6.59375 41.09375 5.09375 36.046875 
Q 3.59375 31 3.59375 25.203125 
Q 3.59375 19.40625 5.140625 14.546875 
Q 6.703125 9.703125 9.75 6.203125 
Q 12.796875 2.703125 17.34375 0.796875 
Q 21.90625 -1.09375 27.796875 -1.09375 
Q 37.703125 -1.09375 43.453125 4.09375 
Q 49.203125 9.296875 50.59375 18.90625 
L 41.90625 18.90625 
Q 41.09375 12.90625 37.546875 9.59375 
Q 34 6.296875 27.703125 6.296875 
Q 23.703125 6.296875 20.796875 7.890625 
Q 17.90625 9.5 16.09375 12.140625 
Q 14.296875 14.796875 13.4375 18.1875 
Q 12.59375 21.59375 12.59375 25.203125 
Q 12.59375 29.09375 13.390625 32.75 
Q 14.203125 36.40625 16.046875 39.203125 
Q 17.90625 42 21 43.703125 
Q 24.09375 45.40625 28.703125 45.40625 
Q 34.09375 45.40625 37.296875 42.703125 
Q 40.5 40 41.5 35.09375 
z
" id="HelveticaNeue-99"/>
        <path d="M 18.203125 51.703125 
L 18.203125 67.203125 
L 9.703125 67.203125 
L 9.703125 51.703125 
L 0.90625 51.703125 
L 0.90625 44.203125 
L 9.703125 44.203125 
L 9.703125 11.296875 
Q 9.703125 7.703125 10.390625 5.5 
Q 11.09375 3.296875 12.546875 2.09375 
Q 14 0.90625 16.34375 0.453125 
Q 18.703125 0 22 0 
L 28.5 0 
L 28.5 7.5 
L 24.59375 7.5 
Q 22.59375 7.5 21.34375 7.640625 
Q 20.09375 7.796875 19.390625 8.296875 
Q 18.703125 8.796875 18.453125 9.6875 
Q 18.203125 10.59375 18.203125 12.09375 
L 18.203125 44.203125 
L 28.5 44.203125 
L 28.5 51.703125 
z
" id="HelveticaNeue-116"/>
       </defs>
       <use xlink:href="#HelveticaNeue-79"/>
       <use x="75.999985" xlink:href="#HelveticaNeue-99"/>
       <use x="129.699982" xlink:href="#HelveticaNeue-116"/>
      </g>
     </g>
    </g>
    <g id="xtick_5">
     <g id="line2d_5">
      <g>
       <use style="fill:#555555;stroke:#555555;stroke-width:0.8;" x="310.940919" xlink:href="#m23779c65cf" y="262.5"/>
      </g>
     </g>
     <g id="text_4">
      <!-- Jan -->
      <g style="fill:#555555;" transform="translate(302.880763 276.640625)scale(0.1 -0.1)">
       <defs>
        <path d="M 52.203125 0.203125 
Q 50 -1.09375 46.09375 -1.09375 
Q 42.796875 -1.09375 40.84375 0.75 
Q 38.90625 2.59375 38.90625 6.796875 
Q 35.40625 2.59375 30.75 0.75 
Q 26.09375 -1.09375 20.703125 -1.09375 
Q 17.203125 -1.09375 14.046875 -0.296875 
Q 10.90625 0.5 8.59375 2.203125 
Q 6.296875 3.90625 4.9375 6.65625 
Q 3.59375 9.40625 3.59375 13.296875 
Q 3.59375 17.703125 5.09375 20.5 
Q 6.59375 23.296875 9.046875 25.046875 
Q 11.5 26.796875 14.640625 27.6875 
Q 17.796875 28.59375 21.09375 29.203125 
Q 24.59375 29.90625 27.75 30.25 
Q 30.90625 30.59375 33.296875 31.25 
Q 35.703125 31.90625 37.09375 33.15625 
Q 38.5 34.40625 38.5 36.796875 
Q 38.5 39.59375 37.453125 41.296875 
Q 36.40625 43 34.75 43.890625 
Q 33.09375 44.796875 31.046875 45.09375 
Q 29 45.40625 27 45.40625 
Q 21.59375 45.40625 18 43.34375 
Q 14.40625 41.296875 14.09375 35.59375 
L 5.59375 35.59375 
Q 5.796875 40.40625 7.59375 43.703125 
Q 9.40625 47 12.40625 49.046875 
Q 15.40625 51.09375 19.25 52 
Q 23.09375 52.90625 27.5 52.90625 
Q 31 52.90625 34.453125 52.40625 
Q 37.90625 51.90625 40.703125 50.34375 
Q 43.5 48.796875 45.203125 46 
Q 46.90625 43.203125 46.90625 38.703125 
L 46.90625 12.09375 
Q 46.90625 9.09375 47.25 7.6875 
Q 47.59375 6.296875 49.59375 6.296875 
Q 50.703125 6.296875 52.203125 6.796875 
z
M 38.40625 26.703125 
Q 36.796875 25.5 34.1875 24.953125 
Q 31.59375 24.40625 28.75 24.046875 
Q 25.90625 23.703125 23 23.25 
Q 20.09375 22.796875 17.796875 21.796875 
Q 15.5 20.796875 14.046875 18.9375 
Q 12.59375 17.09375 12.59375 13.90625 
Q 12.59375 11.796875 13.4375 10.34375 
Q 14.296875 8.90625 15.640625 8 
Q 17 7.09375 18.796875 6.6875 
Q 20.59375 6.296875 22.59375 6.296875 
Q 26.796875 6.296875 29.796875 7.4375 
Q 32.796875 8.59375 34.6875 10.34375 
Q 36.59375 12.09375 37.5 14.140625 
Q 38.40625 16.203125 38.40625 18 
z
" id="HelveticaNeue-97"/>
        <path d="M 6.40625 51.703125 
L 6.40625 0 
L 14.90625 0 
L 14.90625 29.203125 
Q 14.90625 32.703125 15.84375 35.640625 
Q 16.796875 38.59375 18.6875 40.796875 
Q 20.59375 43 23.4375 44.203125 
Q 26.296875 45.40625 30.203125 45.40625 
Q 35.09375 45.40625 37.890625 42.59375 
Q 40.703125 39.796875 40.703125 35 
L 40.703125 0 
L 49.203125 0 
L 49.203125 34 
Q 49.203125 38.203125 48.34375 41.640625 
Q 47.5 45.09375 45.390625 47.59375 
Q 43.296875 50.09375 39.890625 51.5 
Q 36.5 52.90625 31.40625 52.90625 
Q 19.90625 52.90625 14.59375 43.5 
L 14.40625 43.5 
L 14.40625 51.703125 
z
" id="HelveticaNeue-110"/>
       </defs>
       <use xlink:href="#HelveticaNeue-74"/>
       <use x="51.899994" xlink:href="#HelveticaNeue-97"/>
       <use x="105.599991" xlink:href="#HelveticaNeue-110"/>
      </g>
      <!-- 2021 -->
      <g style="fill:#555555;" transform="translate(299.822169 287.179688)scale(0.1 -0.1)">
       <defs>
        <path d="M 4.40625 45.796875 
L 12.90625 45.796875 
Q 12.796875 49 13.546875 52.140625 
Q 14.296875 55.296875 16 57.796875 
Q 17.703125 60.296875 20.34375 61.84375 
Q 23 63.40625 26.703125 63.40625 
Q 29.5 63.40625 32 62.5 
Q 34.5 61.59375 36.34375 59.890625 
Q 38.203125 58.203125 39.296875 55.84375 
Q 40.40625 53.5 40.40625 50.59375 
Q 40.40625 46.90625 39.25 44.09375 
Q 38.09375 41.296875 35.84375 38.890625 
Q 33.59375 36.5 30.1875 34.140625 
Q 26.796875 31.796875 22.296875 29 
Q 18.59375 26.796875 15.1875 24.296875 
Q 11.796875 21.796875 9.09375 18.5 
Q 6.40625 15.203125 4.65625 10.75 
Q 2.90625 6.296875 2.40625 0 
L 48.703125 0 
L 48.703125 7.5 
L 12.296875 7.5 
Q 12.90625 10.796875 14.84375 13.34375 
Q 16.796875 15.90625 19.546875 18.09375 
Q 22.296875 20.296875 25.59375 22.25 
Q 28.90625 24.203125 32.203125 26.203125 
Q 35.5 28.296875 38.59375 30.59375 
Q 41.703125 32.90625 44.09375 35.75 
Q 46.5 38.59375 47.953125 42.1875 
Q 49.40625 45.796875 49.40625 50.5 
Q 49.40625 55.5 47.65625 59.296875 
Q 45.90625 63.09375 42.90625 65.640625 
Q 39.90625 68.203125 35.84375 69.546875 
Q 31.796875 70.90625 27.203125 70.90625 
Q 21.59375 70.90625 17.1875 69 
Q 12.796875 67.09375 9.84375 63.75 
Q 6.90625 60.40625 5.5 55.796875 
Q 4.09375 51.203125 4.40625 45.796875 
z
" id="HelveticaNeue-50"/>
        <path d="M 13.203125 34.90625 
Q 13.203125 37.5 13.25 40.640625 
Q 13.296875 43.796875 13.75 46.9375 
Q 14.203125 50.09375 15.046875 53.09375 
Q 15.90625 56.09375 17.546875 58.34375 
Q 19.203125 60.59375 21.703125 62 
Q 24.203125 63.40625 27.796875 63.40625 
Q 31.40625 63.40625 33.90625 62 
Q 36.40625 60.59375 38.046875 58.34375 
Q 39.703125 56.09375 40.546875 53.09375 
Q 41.40625 50.09375 41.84375 46.9375 
Q 42.296875 43.796875 42.34375 40.640625 
Q 42.40625 37.5 42.40625 34.90625 
Q 42.40625 30.90625 42.15625 25.953125 
Q 41.90625 21 40.546875 16.640625 
Q 39.203125 12.296875 36.203125 9.296875 
Q 33.203125 6.296875 27.796875 6.296875 
Q 22.40625 6.296875 19.40625 9.296875 
Q 16.40625 12.296875 15.046875 16.640625 
Q 13.703125 21 13.453125 25.953125 
Q 13.203125 30.90625 13.203125 34.90625 
z
M 4.203125 34.796875 
Q 4.203125 30.90625 4.390625 26.703125 
Q 4.59375 22.5 5.390625 18.5 
Q 6.203125 14.5 7.703125 10.953125 
Q 9.203125 7.40625 11.796875 4.703125 
Q 14.40625 2 18.34375 0.453125 
Q 22.296875 -1.09375 27.796875 -1.09375 
Q 33.40625 -1.09375 37.296875 0.453125 
Q 41.203125 2 43.796875 4.703125 
Q 46.40625 7.40625 47.90625 10.953125 
Q 49.40625 14.5 50.203125 18.5 
Q 51 22.5 51.203125 26.703125 
Q 51.40625 30.90625 51.40625 34.796875 
Q 51.40625 38.703125 51.203125 42.890625 
Q 51 47.09375 50.203125 51.09375 
Q 49.40625 55.09375 47.90625 58.6875 
Q 46.40625 62.296875 43.796875 65 
Q 41.203125 67.703125 37.25 69.296875 
Q 33.296875 70.90625 27.796875 70.90625 
Q 22.296875 70.90625 18.34375 69.296875 
Q 14.40625 67.703125 11.796875 65 
Q 9.203125 62.296875 7.703125 58.6875 
Q 6.203125 55.09375 5.390625 51.09375 
Q 4.59375 47.09375 4.390625 42.890625 
Q 4.203125 38.703125 4.203125 34.796875 
z
" id="HelveticaNeue-48"/>
        <path d="M 35.59375 0 
L 35.59375 70.90625 
L 29.09375 70.90625 
Q 28.40625 66.90625 26.5 64.296875 
Q 24.59375 61.703125 21.84375 60.203125 
Q 19.09375 58.703125 15.6875 58.140625 
Q 12.296875 57.59375 8.703125 57.59375 
L 8.703125 50.796875 
L 27.09375 50.796875 
L 27.09375 0 
z
" id="HelveticaNeue-49"/>
       </defs>
       <use xlink:href="#HelveticaNeue-50"/>
       <use x="55.599991" xlink:href="#HelveticaNeue-48"/>
       <use x="111.199982" xlink:href="#HelveticaNeue-50"/>
       <use x="166.799973" xlink:href="#HelveticaNeue-49"/>
      </g>
     </g>
    </g>
    <g id="xtick_6">
     <g id="line2d_6">
      <g>
       <use style="fill:#555555;stroke:#555555;stroke-width:0.8;" x="387.253829" xlink:href="#m23779c65cf" y="262.5"/>
      </g>
     </g>
     <g id="text_5">
      <!-- Apr -->
      <g style="fill:#555555;" transform="translate(379.384298 276.640625)scale(0.1 -0.1)">
       <use xlink:href="#HelveticaNeue-65"/>
       <use x="64.799988" xlink:href="#HelveticaNeue-112"/>
       <use x="124.099976" xlink:href="#HelveticaNeue-114"/>
      </g>
     </g>
    </g>
    <g id="xtick_7">
     <g id="line2d_7">
      <g>
       <use style="fill:#555555;stroke:#555555;stroke-width:0.8;" x="450" xlink:href="#m23779c65cf" y="262.5"/>
      </g>
     </g>
    </g>
    <g id="xtick_8">
     <g id="line2d_8">
      <defs>
       <path d="M 0 0 
L 0 2 
" id="md847bd0061" style="stroke:#555555;stroke-width:0.6;"/>
      </defs>
      <g>
       <use style="fill:#555555;stroke:#555555;stroke-width:0.6;" x="103.200219" xlink:href="#md847bd0061" y="262.5"/>
      </g>
     </g>
    </g>
    <g id="xtick_9">
     <g id="line2d_9">
      <g>
       <use style="fill:#555555;stroke:#555555;stroke-width:0.6;" x="129.485777" xlink:href="#md847bd0061" y="262.5"/>
      </g>
     </g>
    </g>
    <g id="xtick_10">
     <g id="line2d_10">
      <g>
       <use style="fill:#555555;stroke:#555555;stroke-width:0.6;" x="181.208972" xlink:href="#md847bd0061" y="262.5"/>
      </g>
     </g>
    </g>
    <g id="xtick_11">
     <g id="line2d_11">
      <g>
       <use style="fill:#555555;stroke:#555555;stroke-width:0.6;" x="207.49453" xlink:href="#md847bd0061" y="262.5"/>
      </g>
     </g>
    </g>
    <g id="xtick_12">
     <g id="line2d_12">
      <g>
       <use style="fill:#555555;stroke:#555555;stroke-width:0.6;" x="259.217724" xlink:href="#md847bd0061" y="262.5"/>
      </g>
     </g>
    </g>
    <g id="xtick_13">
     <g id="line2d_13">
      <g>
       <use style="fill:#555555;stroke:#555555;stroke-width:0.6;" x="284.655361" xlink:href="#md847bd0061" y="262.5"/>
      </g>
     </g>
    </g>
    <g id="xtick_14">
     <g id="line2d_14">
      <g>
       <use style="fill:#555555;stroke:#555555;stroke-width:0.6;" x="337.226477" xlink:href="#md847bd0061" y="262.5"/>
      </g>
     </g>
    </g>
    <g id="xtick_15">
     <g id="line2d_15">
      <g>
       <use style="fill:#555555;stroke:#555555;stroke-width:0.6;" x="360.968271" xlink:href="#md847bd0061" y="262.5"/>
      </g>
     </g>
    </g>
    <g id="xtick_16">
     <g id="line2d_16">
      <g>
       <use style="fill:#555555;stroke:#555555;stroke-width:0.6;" x="412.691466" xlink:href="#md847bd0061" y="262.5"/>
      </g>
     </g>
    </g>
    <g id="xtick_17">
     <g id="line2d_17">
      <g>
       <use style="fill:#555555;stroke:#555555;stroke-width:0.6;" x="438.977024" xlink:href="#md847bd0061" y="262.5"/>
      </g>
     </g>
    </g>
    <g id="text_6">
     <!-- fecha -->
     <g style="fill:#555555;" transform="translate(243.935156 300.290625)scale(0.1 -0.1)">
      <defs>
       <path d="M 9.90625 44.203125 
L 9.90625 0 
L 18.40625 0 
L 18.40625 44.203125 
L 28.40625 44.203125 
L 28.40625 51.703125 
L 18.40625 51.703125 
L 18.40625 58.90625 
Q 18.40625 62.296875 20.09375 63.5 
Q 21.796875 64.703125 24.90625 64.703125 
Q 26 64.703125 27.296875 64.546875 
Q 28.59375 64.40625 29.703125 64 
L 29.703125 71.40625 
Q 28.5 71.796875 26.953125 72 
Q 25.40625 72.203125 24.203125 72.203125 
Q 17.203125 72.203125 13.546875 68.953125 
Q 9.90625 65.703125 9.90625 59.40625 
L 9.90625 51.703125 
L 1.203125 51.703125 
L 1.203125 44.203125 
z
" id="HelveticaNeue-102"/>
       <path d="M 42.296875 30.796875 
L 12.59375 30.796875 
Q 12.796875 33.796875 13.890625 36.4375 
Q 15 39.09375 16.890625 41.09375 
Q 18.796875 43.09375 21.4375 44.25 
Q 24.09375 45.40625 27.40625 45.40625 
Q 30.59375 45.40625 33.25 44.25 
Q 35.90625 43.09375 37.84375 41.140625 
Q 39.796875 39.203125 40.9375 36.5 
Q 42.09375 33.796875 42.296875 30.796875 
z
M 50.5 16.40625 
L 42.09375 16.40625 
Q 41 11.296875 37.546875 8.796875 
Q 34.09375 6.296875 28.703125 6.296875 
Q 24.5 6.296875 21.390625 7.6875 
Q 18.296875 9.09375 16.296875 11.4375 
Q 14.296875 13.796875 13.390625 16.84375 
Q 12.5 19.90625 12.59375 23.296875 
L 51.296875 23.296875 
Q 51.5 28 50.453125 33.203125 
Q 49.40625 38.40625 46.65625 42.796875 
Q 43.90625 47.203125 39.34375 50.046875 
Q 34.796875 52.90625 27.90625 52.90625 
Q 22.59375 52.90625 18.140625 50.90625 
Q 13.703125 48.90625 10.453125 45.296875 
Q 7.203125 41.703125 5.390625 36.796875 
Q 3.59375 31.90625 3.59375 26 
Q 3.796875 20.09375 5.34375 15.09375 
Q 6.90625 10.09375 10 6.5 
Q 13.09375 2.90625 17.640625 0.90625 
Q 22.203125 -1.09375 28.40625 -1.09375 
Q 37.203125 -1.09375 43 3.296875 
Q 48.796875 7.703125 50.5 16.40625 
z
" id="HelveticaNeue-101"/>
       <path d="M 6.40625 71.40625 
L 6.40625 0 
L 14.90625 0 
L 14.90625 29.203125 
Q 14.90625 32.703125 15.84375 35.640625 
Q 16.796875 38.59375 18.6875 40.796875 
Q 20.59375 43 23.4375 44.203125 
Q 26.296875 45.40625 30.203125 45.40625 
Q 35.09375 45.40625 37.890625 42.59375 
Q 40.703125 39.796875 40.703125 35 
L 40.703125 0 
L 49.203125 0 
L 49.203125 34 
Q 49.203125 38.203125 48.34375 41.640625 
Q 47.5 45.09375 45.390625 47.59375 
Q 43.296875 50.09375 39.890625 51.5 
Q 36.5 52.90625 31.40625 52.90625 
Q 29.09375 52.90625 26.640625 52.40625 
Q 24.203125 51.90625 21.953125 50.84375 
Q 19.703125 49.796875 17.890625 48.140625 
Q 16.09375 46.5 15.09375 44.09375 
L 14.90625 44.09375 
L 14.90625 71.40625 
z
" id="HelveticaNeue-104"/>
      </defs>
      <use xlink:href="#HelveticaNeue-102"/>
      <use x="29.599991" xlink:href="#HelveticaNeue-101"/>
      <use x="83.299988" xlink:href="#HelveticaNeue-99"/>
      <use x="136.999985" xlink:href="#HelveticaNeue-104"/>
      <use x="192.599976" xlink:href="#HelveticaNeue-97"/>
     </g>
    </g>
   </g>
   <g id="matplotlib.axis_2">
    <g id="ytick_1">
     <g id="line2d_18">
      <defs>
       <path d="M 0 0 
L -3.5 0 
" id="m1eb36f76c8" style="stroke:#555555;stroke-width:0.8;"/>
      </defs>
      <g>
       <use style="fill:#555555;stroke:#555555;stroke-width:0.8;" x="62.5" xlink:href="#m1eb36f76c8" y="251.870627"/>
      </g>
     </g>
     <g id="text_7">
      <!-- 0 -->
      <g style="fill:#555555;" transform="translate(49.940625 255.440939)scale(0.1 -0.1)">
       <use xlink:href="#HelveticaNeue-48"/>
      </g>
     </g>
    </g>
    <g id="ytick_2">
     <g id="line2d_19">
      <g>
       <use style="fill:#555555;stroke:#555555;stroke-width:0.8;" x="62.5" xlink:href="#m1eb36f76c8" y="214.284442"/>
      </g>
     </g>
     <g id="text_8">
      <!-- 2000 -->
      <g style="fill:#555555;" transform="translate(33.2625 217.854755)scale(0.1 -0.1)">
       <use xlink:href="#HelveticaNeue-50"/>
       <use x="55.599991" xlink:href="#HelveticaNeue-48"/>
       <use x="111.199982" xlink:href="#HelveticaNeue-48"/>
       <use x="166.799973" xlink:href="#HelveticaNeue-48"/>
      </g>
     </g>
    </g>
    <g id="ytick_3">
     <g id="line2d_20">
      <g>
       <use style="fill:#555555;stroke:#555555;stroke-width:0.8;" x="62.5" xlink:href="#m1eb36f76c8" y="176.698257"/>
      </g>
     </g>
     <g id="text_9">
      <!-- 4000 -->
      <g style="fill:#555555;" transform="translate(33.2625 180.26857)scale(0.1 -0.1)">
       <defs>
        <path d="M 33.90625 24.09375 
L 10.09375 24.09375 
L 33.703125 58.796875 
L 33.90625 58.796875 
z
M 41.90625 24.09375 
L 41.90625 70.90625 
L 35.09375 70.90625 
L 2.796875 24.796875 
L 2.796875 16.59375 
L 33.90625 16.59375 
L 33.90625 0 
L 41.90625 0 
L 41.90625 16.59375 
L 51.5 16.59375 
L 51.5 24.09375 
z
" id="HelveticaNeue-52"/>
       </defs>
       <use xlink:href="#HelveticaNeue-52"/>
       <use x="55.599991" xlink:href="#HelveticaNeue-48"/>
       <use x="111.199982" xlink:href="#HelveticaNeue-48"/>
       <use x="166.799973" xlink:href="#HelveticaNeue-48"/>
      </g>
     </g>
    </g>
    <g id="ytick_4">
     <g id="line2d_21">
      <g>
       <use style="fill:#555555;stroke:#555555;stroke-width:0.8;" x="62.5" xlink:href="#m1eb36f76c8" y="139.112072"/>
      </g>
     </g>
     <g id="text_10">
      <!-- 6000 -->
      <g style="fill:#555555;" transform="translate(33.2625 142.682385)scale(0.1 -0.1)">
       <defs>
        <path d="M 41.40625 52.796875 
L 49.90625 52.796875 
Q 49.09375 61.59375 43.890625 66.25 
Q 38.703125 70.90625 29.90625 70.90625 
Q 22.296875 70.90625 17.296875 67.703125 
Q 12.296875 64.5 9.296875 59.203125 
Q 6.296875 53.90625 5.046875 47.046875 
Q 3.796875 40.203125 3.796875 32.90625 
Q 3.796875 27.296875 4.640625 21.296875 
Q 5.5 15.296875 8.09375 10.296875 
Q 10.703125 5.296875 15.5 2.09375 
Q 20.296875 -1.09375 28.203125 -1.09375 
Q 34.90625 -1.09375 39.453125 1.15625 
Q 44 3.40625 46.75 6.84375 
Q 49.5 10.296875 50.703125 14.5 
Q 51.90625 18.703125 51.90625 22.59375 
Q 51.90625 27.5 50.40625 31.703125 
Q 48.90625 35.90625 46.15625 39 
Q 43.40625 42.09375 39.34375 43.84375 
Q 35.296875 45.59375 30.203125 45.59375 
Q 24.40625 45.59375 19.953125 43.390625 
Q 15.5 41.203125 12.5 36.296875 
L 12.296875 36.5 
Q 12.40625 40.59375 13.09375 45.296875 
Q 13.796875 50 15.640625 54.046875 
Q 17.5 58.09375 20.796875 60.75 
Q 24.09375 63.40625 29.5 63.40625 
Q 34.59375 63.40625 37.6875 60.5 
Q 40.796875 57.59375 41.40625 52.796875 
z
M 28.59375 38.09375 
Q 32.203125 38.09375 34.890625 36.796875 
Q 37.59375 35.5 39.390625 33.34375 
Q 41.203125 31.203125 42.046875 28.25 
Q 42.90625 25.296875 42.90625 22 
Q 42.90625 18.90625 41.953125 16.046875 
Q 41 13.203125 39.203125 11 
Q 37.40625 8.796875 34.75 7.546875 
Q 32.09375 6.296875 28.59375 6.296875 
Q 25.09375 6.296875 22.34375 7.546875 
Q 19.59375 8.796875 17.75 10.890625 
Q 15.90625 13 14.90625 15.890625 
Q 13.90625 18.796875 13.90625 22.09375 
Q 13.90625 25.40625 14.84375 28.34375 
Q 15.796875 31.296875 17.6875 33.4375 
Q 19.59375 35.59375 22.296875 36.84375 
Q 25 38.09375 28.59375 38.09375 
z
" id="HelveticaNeue-54"/>
       </defs>
       <use xlink:href="#HelveticaNeue-54"/>
       <use x="55.599991" xlink:href="#HelveticaNeue-48"/>
       <use x="111.199982" xlink:href="#HelveticaNeue-48"/>
       <use x="166.799973" xlink:href="#HelveticaNeue-48"/>
      </g>
     </g>
    </g>
    <g id="ytick_5">
     <g id="line2d_22">
      <g>
       <use style="fill:#555555;stroke:#555555;stroke-width:0.8;" x="62.5" xlink:href="#m1eb36f76c8" y="101.525887"/>
      </g>
     </g>
     <g id="text_11">
      <!-- 8000 -->
      <g style="fill:#555555;" transform="translate(33.2625 105.0962)scale(0.1 -0.1)">
       <defs>
        <path d="M 15.5 52.5 
Q 15.5 55.203125 16.5 57.203125 
Q 17.5 59.203125 19.140625 60.59375 
Q 20.796875 62 23.09375 62.703125 
Q 25.40625 63.40625 27.90625 63.40625 
Q 33.09375 63.40625 36.4375 60.65625 
Q 39.796875 57.90625 39.796875 52.5 
Q 39.796875 47.09375 36.5 44.09375 
Q 33.203125 41.09375 28.09375 41.09375 
Q 25.5 41.09375 23.203125 41.796875 
Q 20.90625 42.5 19.203125 43.890625 
Q 17.5 45.296875 16.5 47.4375 
Q 15.5 49.59375 15.5 52.5 
z
M 6.5 52.796875 
Q 6.5 48 9.203125 43.953125 
Q 11.90625 39.90625 16.40625 38.09375 
Q 10.40625 36 7.203125 31.34375 
Q 4 26.703125 4 20.40625 
Q 4 15 5.84375 10.953125 
Q 7.703125 6.90625 10.953125 4.203125 
Q 14.203125 1.5 18.59375 0.203125 
Q 23 -1.09375 28.09375 -1.09375 
Q 33 -1.09375 37.296875 0.296875 
Q 41.59375 1.703125 44.75 4.453125 
Q 47.90625 7.203125 49.75 11.203125 
Q 51.59375 15.203125 51.59375 20.40625 
Q 51.59375 27 48.5 31.546875 
Q 45.40625 36.09375 39 38.09375 
Q 43.5 40.09375 46.140625 44.046875 
Q 48.796875 48 48.796875 52.796875 
Q 48.796875 56.203125 47.59375 59.453125 
Q 46.40625 62.703125 43.84375 65.25 
Q 41.296875 67.796875 37.1875 69.34375 
Q 33.09375 70.90625 27.296875 70.90625 
Q 23.203125 70.90625 19.453125 69.703125 
Q 15.703125 68.5 12.796875 66.203125 
Q 9.90625 63.90625 8.203125 60.546875 
Q 6.5 57.203125 6.5 52.796875 
z
M 13 20 
Q 13 23.09375 14.140625 25.59375 
Q 15.296875 28.09375 17.34375 29.890625 
Q 19.40625 31.703125 22.15625 32.640625 
Q 24.90625 33.59375 28 33.59375 
Q 31 33.59375 33.640625 32.546875 
Q 36.296875 31.5 38.296875 29.703125 
Q 40.296875 27.90625 41.4375 25.453125 
Q 42.59375 23 42.59375 20.09375 
Q 42.59375 17.09375 41.546875 14.59375 
Q 40.5 12.09375 38.546875 10.25 
Q 36.59375 8.40625 33.9375 7.34375 
Q 31.296875 6.296875 28.09375 6.296875 
Q 21.5 6.296875 17.25 9.9375 
Q 13 13.59375 13 20 
z
" id="HelveticaNeue-56"/>
       </defs>
       <use xlink:href="#HelveticaNeue-56"/>
       <use x="55.599991" xlink:href="#HelveticaNeue-48"/>
       <use x="111.199982" xlink:href="#HelveticaNeue-48"/>
       <use x="166.799973" xlink:href="#HelveticaNeue-48"/>
      </g>
     </g>
    </g>
    <g id="ytick_6">
     <g id="line2d_23">
      <g>
       <use style="fill:#555555;stroke:#555555;stroke-width:0.8;" x="62.5" xlink:href="#m1eb36f76c8" y="63.939703"/>
      </g>
     </g>
     <g id="text_12">
      <!-- 10000 -->
      <g style="fill:#555555;" transform="translate(27.703125 67.510015)scale(0.1 -0.1)">
       <use xlink:href="#HelveticaNeue-49"/>
       <use x="55.599991" xlink:href="#HelveticaNeue-48"/>
       <use x="111.199982" xlink:href="#HelveticaNeue-48"/>
       <use x="166.799973" xlink:href="#HelveticaNeue-48"/>
       <use x="222.399963" xlink:href="#HelveticaNeue-48"/>
      </g>
     </g>
    </g>
   </g>
   <g id="line2d_24">
    <path clip-path="url(#p2139399fd6)" d="M 63.347921 251.682696 
L 65.043764 251.739075 
L 66.739606 251.720282 
L 67.587527 251.363213 
L 68.435449 251.776661 
L 69.28337 251.795455 
L 70.131291 251.325627 
L 70.979212 251.10011 
L 71.827133 251.607524 
L 72.675055 251.739075 
L 73.522976 251.156489 
L 75.218818 251.250455 
L 76.06674 250.837007 
L 76.914661 251.118903 
L 77.762582 250.348386 
L 78.610503 250.592697 
L 79.458425 251.043731 
L 80.306346 249.916145 
L 81.154267 251.306834 
L 82.002188 250.912179 
L 82.850109 250.292007 
L 83.698031 249.427525 
L 84.545952 251.194076 
L 85.393873 250.216835 
L 86.241794 251.043731 
L 87.089716 251.513558 
L 87.937637 251.419593 
L 89.633479 250.968558 
L 90.4814 251.062524 
L 91.329322 250.761834 
L 93.025164 249.634249 
L 93.873085 250.385973 
L 94.721007 250.479938 
L 95.568928 250.292007 
L 96.416849 250.987352 
L 97.26477 248.506663 
L 98.112691 250.198042 
L 98.960613 250.141662 
L 99.808534 249.897352 
L 100.656455 250.667869 
L 101.504376 249.371146 
L 102.352298 250.198042 
L 103.200219 249.108042 
L 104.04814 250.536317 
L 104.896061 249.765801 
L 105.743982 249.483904 
L 106.591904 248.24356 
L 107.439825 248.112008 
L 108.287746 249.427525 
L 109.135667 247.642181 
L 109.983589 247.924078 
L 110.83151 249.483904 
L 111.679431 249.051663 
L 112.527352 247.022009 
L 113.375274 249.57787 
L 114.223195 247.942871 
L 115.071116 249.709421 
L 115.919037 246.646147 
L 117.61488 248.168388 
L 118.462801 247.811319 
L 119.310722 247.115975 
L 120.158643 249.57787 
L 121.006565 246.608561 
L 121.854486 244.691666 
L 122.702407 247.416664 
L 123.550328 248.563043 
L 124.398249 245.199079 
L 125.246171 246.138734 
L 126.094092 242.662012 
L 126.942013 240.068565 
L 127.789934 242.887529 
L 128.637856 245.293045 
L 129.485777 244.672873 
L 130.333698 244.89839 
L 131.181619 242.361322 
L 132.02954 241.816322 
L 132.877462 244.315804 
L 133.725383 244.804424 
L 134.573304 245.93201 
L 135.421225 243.601666 
L 136.269147 244.729252 
L 137.117068 243.977528 
L 137.964989 244.221838 
L 138.81291 244.278218 
L 139.660832 242.135805 
L 140.508753 240.989426 
L 141.356674 244.954769 
L 142.204595 243.695632 
L 143.052516 241.49684 
L 144.748359 232.325811 
L 145.59628 241.966667 
L 146.444201 234.186327 
L 147.292123 236.234774 
L 148.140044 235.577016 
L 148.987965 233.829258 
L 149.835886 228.0034 
L 150.683807 234.956844 
L 151.531729 222.327886 
L 152.37965 236.610636 
L 153.227571 225.691849 
L 154.075492 238.433566 
L 154.923414 225.597884 
L 155.771335 227.345641 
L 156.619256 225.541504 
L 157.467177 230.578053 
L 158.315098 227.70271 
L 159.16302 231.574087 
L 160.010941 221.764093 
L 160.858862 224.019264 
L 161.706783 221.726507 
L 162.554705 201.054105 
L 163.402626 205.244965 
L 164.250547 212.123236 
L 165.098468 221.219093 
L 165.946389 217.140992 
L 166.794311 215.769096 
L 167.642232 218.58806 
L 168.490153 212.198409 
L 169.338074 223.906505 
L 170.185996 197.953245 
L 171.033917 208.082722 
L 171.881838 209.398238 
L 173.577681 181.377737 
L 174.425602 190.060146 
L 175.273523 189.984974 
L 176.121444 194.852384 
L 176.969365 202.256863 
L 177.817287 166.305677 
L 179.513129 195.19066 
L 180.36105 181.997909 
L 181.208972 201.110484 
L 182.056893 165.666712 
L 182.904814 208.571342 
L 183.752735 209.323066 
L 185.448578 137.890521 
L 186.296499 202.501173 
L 187.14442 186.357907 
L 187.992341 188.162044 
L 188.840263 188.331181 
L 189.688184 158.656888 
L 190.536105 174.386707 
L 191.384026 179.723945 
L 192.231947 167.170159 
L 193.079869 172.563777 
L 193.92779 165.027747 
L 194.775711 188.481526 
L 195.623632 164.407575 
L 196.471554 157.623268 
L 197.319475 191.450835 
L 198.167396 209.868065 
L 199.015317 171.699295 
L 199.863239 211.033237 
L 200.71116 168.654814 
L 201.559081 205.150999 
L 202.407002 173.465845 
L 203.254923 204.643586 
L 204.102845 210.770134 
L 204.950766 189.139284 
L 205.798687 217.140992 
L 206.646608 213.344787 
L 207.49453 208.026342 
L 208.342451 195.077902 
L 209.190372 196.806866 
L 210.038293 211.258754 
L 210.886214 218.324957 
L 211.734136 206.37255 
L 212.582057 213.833408 
L 213.429978 212.010478 
L 214.277899 209.078755 
L 215.125821 212.348754 
L 215.973742 218.155819 
L 216.821663 213.833408 
L 217.669584 215.167717 
L 218.517505 219.584094 
L 219.365427 224.789781 
L 220.213348 223.944092 
L 221.061269 208.759273 
L 221.90919 224.376333 
L 222.757112 218.137026 
L 223.605033 217.535647 
L 224.452954 215.130131 
L 225.300875 217.234958 
L 226.148796 222.47823 
L 226.996718 226.932193 
L 227.844639 222.760127 
L 228.69256 206.804791 
L 229.540481 227.120124 
L 230.388403 227.571158 
L 231.236324 223.154782 
L 232.084245 213.683063 
L 232.932166 227.044952 
L 233.780088 224.451505 
L 234.628009 222.77892 
L 235.47593 226.593918 
L 236.323851 214.096511 
L 237.171772 206.61686 
L 238.019694 208.947204 
L 238.867615 228.24771 
L 239.715536 213.720649 
L 240.563457 223.887712 
L 241.411379 223.042023 
L 242.2593 232.664086 
L 243.107221 224.432712 
L 243.955142 229.112192 
L 244.803063 225.315987 
L 245.650985 231.762018 
L 246.498906 222.515817 
L 247.346827 222.23392 
L 248.194748 233.058741 
L 249.04267 222.872885 
L 249.890591 203.81669 
L 250.738512 208.627721 
L 251.586433 222.872885 
L 252.434354 204.286517 
L 253.282276 228.19133 
L 254.130197 229.356502 
L 254.978118 217.291337 
L 255.826039 219.13306 
L 256.673961 196.374625 
L 257.521882 218.606853 
L 258.369803 210.582203 
L 259.217724 225.785815 
L 260.065646 225.428746 
L 260.913567 224.507884 
L 262.609409 210.26272 
L 263.45733 209.962031 
L 264.305252 220.899611 
L 265.153173 228.473227 
L 266.001094 222.215127 
L 266.849015 221.538576 
L 267.696937 211.803754 
L 268.544858 210.488237 
L 269.392779 224.677022 
L 270.2407 218.663233 
L 271.088621 234.092361 
L 271.936543 229.600812 
L 272.784464 222.290299 
L 273.632385 206.61686 
L 274.480306 215.863062 
L 275.328228 215.769096 
L 276.176149 234.919258 
L 277.02407 203.234104 
L 277.871991 238.583911 
L 278.719912 208.533756 
L 279.567834 211.465478 
L 280.415755 199.794968 
L 281.263676 203.609966 
L 282.111597 206.147033 
L 282.959519 216.163751 
L 283.80744 228.642365 
L 284.655361 215.900648 
L 285.503282 201.429967 
L 286.351204 199.099623 
L 287.199125 222.590989 
L 288.047046 192.484455 
L 288.894967 219.772025 
L 289.742888 218.682026 
L 290.59081 201.523932 
L 291.438731 225.767022 
L 293.134573 193.198592 
L 293.982495 200.396347 
L 294.830416 204.85031 
L 295.678337 214.69789 
L 296.526258 175.739809 
L 297.374179 197.521004 
L 298.222101 175.589465 
L 299.070022 193.029454 
L 299.917943 173.785328 
L 300.765864 194.344971 
L 301.613786 229.03702 
L 302.461707 187.259975 
L 303.309628 153.939822 
L 305.00547 172.638949 
L 305.853392 214.773062 
L 306.701313 192.954282 
L 307.549234 208.646514 
L 308.397155 163.373955 
L 309.245077 158.78844 
L 310.092998 134.564144 
L 311.78884 214.15289 
L 312.636761 196.22428 
L 313.484683 157.736027 
L 314.332604 152.342409 
L 315.180525 143.039829 
L 316.028446 150.932927 
L 316.876368 137.101211 
L 317.724289 135.428626 
L 318.57221 171.210674 
L 319.420131 169.97033 
L 320.268053 195.43497 
L 321.115974 163.355162 
L 321.963895 106.975884 
L 322.811816 93.200547 
L 323.659737 163.994127 
L 324.507659 153.56396 
L 325.35558 178.652739 
L 326.203501 139.318796 
L 327.051422 145.23862 
L 327.899344 175.495499 
L 328.747265 137.740177 
L 329.595186 146.779654 
L 330.443107 176.134464 
L 331.291028 176.886188 
L 332.13895 190.454801 
L 332.986871 184.441011 
L 334.682713 200.621864 
L 335.530635 206.67324 
L 336.378556 183.858425 
L 337.226477 207.424963 
L 338.074398 194.608074 
L 338.922319 194.70204 
L 339.770241 190.548766 
L 340.618162 216.934268 
L 341.466083 214.679097 
L 342.314004 222.590989 
L 343.161926 233.923224 
L 344.009847 227.308055 
L 344.857768 223.436678 
L 345.705689 219.001508 
L 346.553611 220.674093 
L 347.401532 227.195297 
L 348.249453 230.127019 
L 349.097374 232.325811 
L 349.945295 226.236849 
L 350.793217 200.697036 
L 351.641138 228.435641 
L 352.489059 230.784777 
L 353.33698 231.480122 
L 354.184902 230.465295 
L 355.032823 230.972708 
L 355.880744 234.261499 
L 356.728665 229.074606 
L 357.576586 232.213052 
L 358.424508 234.656154 
L 359.272429 232.570121 
L 360.12035 237.042877 
L 360.968271 238.565117 
L 361.816193 234.543396 
L 362.664114 235.670981 
L 363.512035 238.358393 
L 364.359956 238.583911 
L 365.207877 236.347533 
L 366.055799 235.464257 
L 366.90372 242.248564 
L 367.751641 241.158564 
L 368.599562 239.016152 
L 369.447484 231.968742 
L 370.295405 235.877705 
L 371.143326 237.644256 
L 371.991247 237.832187 
L 372.839168 243.31977 
L 373.68709 237.06167 
L 374.535011 238.245635 
L 375.382932 236.892532 
L 376.230853 234.862878 
L 377.078775 203.102552 
L 377.926696 233.584948 
L 378.774617 239.861841 
L 379.622538 235.877705 
L 380.47046 234.768913 
L 381.318381 231.498915 
L 382.166302 225.710642 
L 383.014223 232.945983 
L 383.862144 232.213052 
L 385.557987 222.177541 
L 386.405908 222.53461 
L 387.253829 220.71168 
L 388.101751 217.949095 
L 388.949672 225.485125 
L 389.797593 226.894607 
L 390.645514 230.540467 
L 391.493435 209.811686 
L 392.341357 212.048064 
L 393.189278 203.158931 
L 394.037199 199.437899 
L 394.88512 219.809611 
L 395.733042 175.006879 
L 396.580963 189.891008 
L 397.428884 187.128423 
L 398.276805 182.618081 
L 399.124726 170.909985 
L 400.820569 180.475669 
L 401.66849 169.575675 
L 402.516411 211.202375 
L 403.364333 171.642915 
L 404.212254 169.331365 
L 405.060175 132.215007 
L 405.908096 163.824989 
L 406.756018 170.120675 
L 407.603939 185.718942 
L 408.45186 180.005841 
L 409.299781 175.326361 
L 410.147702 162.020852 
L 410.995624 177.337222 
L 412.691466 149.842928 
L 413.539387 169.237399 
L 414.387309 192.747558 
L 415.23523 162.171197 
L 416.083151 175.833775 
L 416.931072 163.129644 
L 417.778993 144.75 
L 418.626915 153.206892 
L 419.474836 144.392931 
L 420.322757 186.86532 
L 421.170678 148.790515 
L 422.0186 157.792406 
L 422.866521 106.52485 
L 423.714442 168.579641 
L 424.562363 165.53516 
L 425.410284 147.287067 
L 426.258206 195.73566 
L 427.106127 176.942567 
L 427.954048 164.276023 
L 428.801969 159.596543 
L 429.649891 145.295 
L 430.497812 150.012066 
L 431.345733 102.63468 
L 432.193654 155.913097 
L 433.041575 103.724679 
L 433.889497 98.5002 
L 434.737418 69.709182 
L 435.585339 93.858306 
L 436.43326 87.994861 
L 437.281182 116.597948 
L 438.129103 108.817607 
L 438.977024 139.206038 
L 439.824945 54.204881 
L 440.672867 54.430398 
L 441.520788 37.704545 
L 442.368709 54.580742 
L 443.21663 93.106582 
L 444.064551 93.783133 
L 444.912473 120.619669 
L 445.760394 79.801073 
L 446.608315 50.784538 
L 447.456236 55.012984 
L 448.304158 61.684531 
L 449.152079 82.300554 
L 450 93.933478 
L 450 93.933478 
" style="fill:none;stroke:#000000;stroke-dasharray:1.5,2.475;stroke-dashoffset:0;stroke-opacity:0.5;stroke-width:1.5;"/>
   </g>
   <g id="line2d_25">
    <path clip-path="url(#p2139399fd6)" d="M 62.5 251.720282 
L 65.043764 251.701489 
L 70.979212 251.494765 
L 75.218818 251.10011 
L 76.06674 250.930972 
L 76.914661 250.893386 
L 77.762582 250.724248 
L 82.002188 250.573904 
L 82.850109 250.479938 
L 85.393873 250.724248 
L 87.937637 251.118903 
L 88.785558 251.156489 
L 89.633479 251.043731 
L 91.329322 250.61149 
L 93.025164 250.36718 
L 93.873085 250.348386 
L 94.721007 250.160456 
L 100.656455 249.972525 
L 102.352298 249.916145 
L 103.200219 249.859766 
L 107.439825 248.638215 
L 109.983589 248.431491 
L 110.83151 248.563043 
L 111.679431 248.431491 
L 112.527352 248.638215 
L 113.375274 248.506663 
L 114.223195 248.24356 
L 115.071116 248.112008 
L 115.919037 248.093215 
L 116.766958 247.792526 
L 117.61488 247.924078 
L 119.310722 247.473043 
L 121.006565 247.303905 
L 122.702407 246.815285 
L 125.246171 244.691666 
L 126.942013 243.582873 
L 127.789934 243.601666 
L 128.637856 243.413735 
L 129.485777 243.451322 
L 130.333698 243.789597 
L 133.725383 244.0527 
L 135.421225 244.541321 
L 136.269147 244.466148 
L 137.117068 244.146666 
L 137.964989 243.56408 
L 138.81291 243.526494 
L 140.508753 243.07546 
L 141.356674 242.304943 
L 142.204595 240.857875 
L 143.052516 240.331668 
L 145.59628 236.854946 
L 146.444201 236.02805 
L 147.292123 234.956844 
L 148.140044 234.75012 
L 148.987965 232.457362 
L 149.835886 232.175466 
L 150.683807 230.85995 
L 151.531729 230.991501 
L 152.37965 230.371329 
L 153.227571 230.296157 
L 154.075492 229.300123 
L 154.923414 229.713571 
L 155.771335 228.623572 
L 156.619256 228.999433 
L 157.467177 227.477193 
L 158.315098 227.251676 
L 159.16302 226.42478 
L 160.010941 223.323919 
L 160.858862 219.490129 
L 161.706783 216.389268 
L 162.554705 214.303235 
L 163.402626 213.513925 
L 164.250547 213.044098 
L 165.098468 213.607891 
L 166.794311 217.197371 
L 167.642232 215.693924 
L 168.490153 213.795822 
L 169.338074 212.292374 
L 170.185996 209.510997 
L 171.033917 204.718758 
L 171.881838 200.866174 
L 172.729759 196.186694 
L 173.577681 194.608074 
L 174.425602 193.442903 
L 175.273523 189.421181 
L 176.121444 187.673423 
L 176.969365 188.293595 
L 177.817287 186.902906 
L 178.665208 187.617044 
L 179.513129 185.004804 
L 180.36105 186.038424 
L 181.208972 190.9998 
L 182.056893 190.887042 
L 182.904814 185.061183 
L 183.752735 185.267907 
L 184.600656 182.806012 
L 185.448578 183.933598 
L 186.296499 182.035495 
L 187.14442 178.333256 
L 187.992341 178.953428 
L 188.840263 181.734806 
L 189.688184 177.130498 
L 190.536105 174.875327 
L 191.384026 172.150329 
L 192.231947 172.225501 
L 193.079869 172.977225 
L 193.92779 171.154295 
L 194.775711 172.09395 
L 195.623632 176.848602 
L 196.471554 178.29567 
L 197.319475 184.102736 
L 198.167396 184.102736 
L 199.015317 188.951353 
L 199.863239 190.417215 
L 201.559081 191.638766 
L 202.407002 194.100661 
L 203.254923 195.886005 
L 204.102845 201.505139 
L 204.950766 203.27169 
L 205.798687 206.015481 
L 206.646608 205.09462 
L 207.49453 204.79393 
L 208.342451 207.16186 
L 209.190372 206.278585 
L 210.038293 207.011515 
L 210.886214 208.383411 
L 211.734136 210.337893 
L 212.582057 211.822547 
L 213.429978 212.405133 
L 214.277899 212.273581 
L 215.125821 213.382374 
L 215.973742 214.284442 
L 216.821663 216.0322 
L 217.669584 218.080647 
L 218.517505 218.212198 
L 219.365427 218.982715 
L 220.213348 219.471336 
L 221.061269 219.508922 
L 221.90919 218.794784 
L 222.757112 217.85513 
L 223.605033 217.742371 
L 224.452954 219.565301 
L 225.300875 219.847197 
L 226.148796 219.170646 
L 226.996718 220.091508 
L 227.844639 221.294266 
L 228.69256 221.952024 
L 229.540481 221.219093 
L 230.388403 221.331852 
L 231.236324 221.820472 
L 232.084245 223.323919 
L 232.932166 223.26754 
L 233.780088 222.158748 
L 234.628009 220.392197 
L 235.47593 218.963922 
L 236.323851 218.024267 
L 237.171772 216.558406 
L 238.019694 216.614785 
L 238.867615 216.934268 
L 240.563457 222.384265 
L 241.411379 224.864953 
L 242.2593 225.184436 
L 243.107221 227.21409 
L 243.955142 227.232883 
L 244.803063 226.950986 
L 246.498906 226.612711 
L 248.194748 221.256679 
L 249.04267 219.283405 
L 249.890591 216.558406 
L 250.738512 216.257717 
L 251.586433 216.182544 
L 252.434354 216.783923 
L 253.282276 219.095474 
L 254.978118 216.953061 
L 255.826039 216.464441 
L 256.673961 215.393234 
L 257.521882 215.261683 
L 258.369803 216.915475 
L 259.217724 218.024267 
L 260.065646 219.828404 
L 260.913567 218.682026 
L 261.761488 218.794784 
L 262.609409 218.475302 
L 263.45733 218.34375 
L 264.305252 218.757198 
L 266.001094 218.945129 
L 266.849015 219.734439 
L 267.696937 218.963922 
L 268.544858 219.508922 
L 269.392779 221.031162 
L 270.2407 222.252713 
L 271.088621 222.384265 
L 271.936543 222.384265 
L 272.784464 220.580128 
L 273.632385 221.181507 
L 274.480306 218.005474 
L 275.328228 219.039094 
L 276.176149 218.512888 
L 277.02407 219.057888 
L 277.871991 216.877889 
L 278.719912 214.303235 
L 279.567834 210.300306 
L 280.415755 210.337893 
L 281.263676 209.454617 
L 282.111597 211.258754 
L 283.80744 211.690995 
L 284.655361 212.968926 
L 285.503282 210.845306 
L 286.351204 210.149962 
L 287.199125 209.210307 
L 288.047046 208.514963 
L 288.894967 211.333927 
L 289.742888 212.668236 
L 290.59081 210.074789 
L 291.438731 209.999617 
L 292.286652 207.40617 
L 293.134573 206.297378 
L 294.830416 199.62583 
L 295.678337 195.754453 
L 296.526258 194.326178 
L 297.374179 190.304456 
L 298.222101 188.030492 
L 299.070022 189.759456 
L 299.917943 192.352903 
L 300.765864 189.214457 
L 301.613786 187.203596 
L 302.461707 183.238253 
L 303.309628 184.854459 
L 304.157549 183.933598 
L 305.00547 183.595322 
L 305.853392 184.083942 
L 306.701313 185.324287 
L 307.549234 180.701186 
L 308.397155 176.904981 
L 309.245077 174.292741 
L 310.092998 174.89412 
L 310.940919 172.394639 
L 311.78884 173.12757 
L 312.636761 171.454984 
L 313.484683 170.177054 
L 314.332604 162.603438 
L 315.180525 151.966547 
L 316.028446 148.226722 
L 316.876368 149.842928 
L 317.724289 155.837925 
L 318.57221 160.705335 
L 319.420131 158.431371 
L 320.268053 152.83103 
L 321.115974 151.308789 
L 321.963895 146.103103 
L 322.811816 145.482931 
L 323.659737 141.89345 
L 324.507659 143.152587 
L 325.35558 151.816203 
L 326.203501 156.345338 
L 327.051422 153.958615 
L 327.899344 155.518442 
L 328.747265 156.270166 
L 330.443107 168.823951 
L 331.291028 173.37188 
L 332.986871 189.515146 
L 333.834792 191.676352 
L 334.682713 195.341005 
L 336.378556 197.50221 
L 337.226477 196.994797 
L 338.922319 199.87014 
L 342.314004 219.715646 
L 343.161926 223.380299 
L 344.009847 223.887712 
L 344.857768 224.733401 
L 345.705689 225.09047 
L 346.553611 225.128056 
L 347.401532 225.673056 
L 348.249453 223.831333 
L 349.945295 224.451505 
L 350.793217 224.583057 
L 351.641138 224.977712 
L 352.489059 225.785815 
L 353.33698 227.721503 
L 354.184902 230.935122 
L 355.880744 231.780811 
L 356.728665 232.025121 
L 357.576586 232.814431 
L 358.424508 233.829258 
L 359.272429 234.280292 
L 360.12035 235.201154 
L 360.968271 235.952878 
L 362.664114 236.967705 
L 363.512035 236.854946 
L 364.359956 237.287187 
L 365.207877 238.114083 
L 366.055799 238.659083 
L 366.90372 238.170463 
L 367.751641 237.832187 
L 369.447484 237.587877 
L 370.295405 237.587877 
L 371.143326 237.475118 
L 371.991247 237.757014 
L 372.839168 238.39598 
L 373.68709 238.208049 
L 374.535011 234.280292 
L 375.382932 232.400983 
L 376.230853 230.991501 
L 377.078775 230.540467 
L 377.926696 230.55926 
L 378.774617 230.85995 
L 379.622538 230.85995 
L 380.47046 233.528569 
L 381.318381 232.87081 
L 386.405908 223.51185 
L 387.253829 222.760127 
L 388.101751 223.342713 
L 388.949672 222.53461 
L 389.797593 221.369438 
L 390.645514 218.945129 
L 391.493435 215.637545 
L 392.341357 213.438753 
L 393.189278 207.199446 
L 394.037199 201.862208 
L 394.88512 198.178762 
L 398.276805 180.400496 
L 399.124726 179.08498 
L 399.972648 180.757565 
L 401.66849 179.517221 
L 402.516411 175.363948 
L 404.212254 168.767572 
L 405.060175 168.542055 
L 405.908096 166.023781 
L 406.756018 168.203779 
L 407.603939 169.444123 
L 408.45186 174.255155 
L 409.299781 173.841707 
L 410.995624 167.827918 
L 411.843545 168.523262 
L 412.691466 167.846711 
L 413.539387 169.707227 
L 414.387309 169.162227 
L 415.23523 167.470849 
L 416.083151 166.362056 
L 416.931072 161.814128 
L 417.778993 159.840853 
L 419.474836 156.984303 
L 420.322757 151.703444 
L 421.170678 152.624306 
L 422.0186 152.793444 
L 422.866521 152.398789 
L 423.714442 154.071374 
L 424.562363 159.371026 
L 425.410284 162.960507 
L 426.258206 169.218606 
L 427.106127 166.794297 
L 427.954048 164.031713 
L 429.649891 149.617411 
L 431.345733 131.068629 
L 432.193654 119.247774 
L 433.889497 101.319163 
L 434.737418 99.966061 
L 435.585339 95.361753 
L 436.43326 100.623819 
L 438.129103 97.184683 
L 439.824945 80.346072 
L 440.672867 73.430214 
L 441.520788 70.103837 
L 442.368709 70.630043 
L 443.21663 77.395557 
L 444.064551 80.120555 
L 444.912473 81.755554 
L 445.760394 79.7259 
L 446.608315 75.553834 
L 447.456236 73.843662 
L 448.304158 69.784354 
L 449.152079 70.799181 
L 450 75.910902 
L 450 75.910902 
" style="fill:none;stroke:#b3220f;stroke-linecap:square;stroke-width:1.5;"/>
   </g>
   <g id="patch_3">
    <path d="M 62.5 262.5 
L 62.5 27 
" style="fill:none;stroke:#555555;stroke-linecap:square;stroke-linejoin:miter;"/>
   </g>
   <g id="patch_4">
    <path d="M 62.5 262.5 
L 450 262.5 
" style="fill:none;stroke:#555555;stroke-linecap:square;stroke-linejoin:miter;"/>
   </g>
   <g id="text_13">
    <!-- Bogot D.C. | Casos nuevos 2021-06-14 -->
    <g style="fill:#555555;" transform="translate(129.306094 17)scale(0.14 -0.14)">
     <defs>
      <path d="M 17.296875 40.703125 
L 17.296875 63.40625 
L 36.296875 63.40625 
Q 39.40625 63.40625 42.15625 63.046875 
Q 44.90625 62.703125 47 61.5 
Q 49.09375 60.296875 50.296875 58.09375 
Q 51.5 55.90625 51.5 52.09375 
Q 51.5 46.40625 47.953125 43.546875 
Q 44.40625 40.703125 36.296875 40.703125 
z
M 7.796875 71.40625 
L 7.796875 0 
L 42.296875 0 
Q 47.59375 0 51.640625 1.75 
Q 55.703125 3.5 58.453125 6.34375 
Q 61.203125 9.203125 62.59375 12.890625 
Q 64 16.59375 64 20.5 
Q 64 27.09375 60.5 31.6875 
Q 57 36.296875 50.40625 37.703125 
L 50.40625 37.90625 
Q 55.5 39.90625 58.25 44.046875 
Q 61 48.203125 61 53.90625 
Q 61 59.296875 58.546875 63 
Q 56.09375 66.703125 52.59375 68.796875 
Q 51 69.796875 48.75 70.296875 
Q 46.5 70.796875 43.890625 71.046875 
Q 41.296875 71.296875 38.640625 71.34375 
Q 36 71.40625 33.703125 71.40625 
z
M 17.296875 8 
L 17.296875 32.703125 
L 39 32.703125 
Q 42 32.703125 44.796875 32.140625 
Q 47.59375 31.59375 49.75 30.25 
Q 51.90625 28.90625 53.203125 26.59375 
Q 54.5 24.296875 54.5 20.796875 
Q 54.5 14.796875 50.953125 11.390625 
Q 47.40625 8 41.09375 8 
z
" id="HelveticaNeue-66"/>
      <path d="M 12.59375 25.796875 
Q 12.59375 30.5 13.84375 34.140625 
Q 15.09375 37.796875 17.296875 40.296875 
Q 19.5 42.796875 22.453125 44.09375 
Q 25.40625 45.40625 28.703125 45.40625 
Q 32 45.40625 34.953125 44.09375 
Q 37.90625 42.796875 40.09375 40.296875 
Q 42.296875 37.796875 43.546875 34.140625 
Q 44.796875 30.5 44.796875 25.796875 
Q 44.796875 21.09375 43.546875 17.4375 
Q 42.296875 13.796875 40.09375 11.34375 
Q 37.90625 8.90625 34.953125 7.59375 
Q 32 6.296875 28.703125 6.296875 
Q 25.40625 6.296875 22.453125 7.59375 
Q 19.5 8.90625 17.296875 11.34375 
Q 15.09375 13.796875 13.84375 17.4375 
Q 12.59375 21.09375 12.59375 25.796875 
z
M 3.59375 25.796875 
Q 3.59375 20.09375 5.1875 15.1875 
Q 6.796875 10.296875 10 6.640625 
Q 13.203125 3 17.890625 0.953125 
Q 22.59375 -1.09375 28.703125 -1.09375 
Q 34.90625 -1.09375 39.546875 0.953125 
Q 44.203125 3 47.390625 6.640625 
Q 50.59375 10.296875 52.1875 15.1875 
Q 53.796875 20.09375 53.796875 25.796875 
Q 53.796875 31.5 52.1875 36.453125 
Q 50.59375 41.40625 47.390625 45.046875 
Q 44.203125 48.703125 39.546875 50.796875 
Q 34.90625 52.90625 28.703125 52.90625 
Q 22.59375 52.90625 17.890625 50.796875 
Q 13.203125 48.703125 10 45.046875 
Q 6.796875 41.40625 5.1875 36.453125 
Q 3.59375 31.5 3.59375 25.796875 
z
" id="HelveticaNeue-111"/>
      <path d="M 51 4.40625 
L 51 51.703125 
L 43 51.703125 
L 43 44.296875 
L 42.90625 44.296875 
Q 40.59375 48.59375 36.5 50.75 
Q 32.40625 52.90625 27.5 52.90625 
Q 20.796875 52.90625 16.1875 50.34375 
Q 11.59375 47.796875 8.796875 43.84375 
Q 6 39.90625 4.796875 35.046875 
Q 3.59375 30.203125 3.59375 25.59375 
Q 3.59375 20.296875 5.046875 15.546875 
Q 6.5 10.796875 9.390625 7.25 
Q 12.296875 3.703125 16.59375 1.59375 
Q 20.90625 -0.5 26.703125 -0.5 
Q 31.703125 -0.5 36.140625 1.75 
Q 40.59375 4 42.796875 8.796875 
L 43 8.796875 
L 43 5.40625 
Q 43 1.09375 42.140625 -2.5 
Q 41.296875 -6.09375 39.390625 -8.640625 
Q 37.5 -11.203125 34.59375 -12.640625 
Q 31.703125 -14.09375 27.5 -14.09375 
Q 25.40625 -14.09375 23.09375 -13.640625 
Q 20.796875 -13.203125 18.84375 -12.203125 
Q 16.90625 -11.203125 15.546875 -9.59375 
Q 14.203125 -8 14.09375 -5.703125 
L 5.59375 -5.703125 
Q 5.796875 -9.90625 7.796875 -12.796875 
Q 9.796875 -15.703125 12.84375 -17.5 
Q 15.90625 -19.296875 19.65625 -20.09375 
Q 23.40625 -20.90625 27 -20.90625 
Q 39.40625 -20.90625 45.203125 -14.59375 
Q 51 -8.296875 51 4.40625 
z
M 27.203125 6.90625 
Q 23 6.90625 20.203125 8.65625 
Q 17.40625 10.40625 15.703125 13.25 
Q 14 16.09375 13.296875 19.59375 
Q 12.59375 23.09375 12.59375 26.59375 
Q 12.59375 30.296875 13.4375 33.6875 
Q 14.296875 37.09375 16.140625 39.6875 
Q 18 42.296875 20.890625 43.84375 
Q 23.796875 45.40625 27.90625 45.40625 
Q 31.90625 45.40625 34.703125 43.796875 
Q 37.5 42.203125 39.25 39.546875 
Q 41 36.90625 41.796875 33.59375 
Q 42.59375 30.296875 42.59375 26.90625 
Q 42.59375 23.296875 41.75 19.6875 
Q 40.90625 16.09375 39.09375 13.25 
Q 37.296875 10.40625 34.34375 8.65625 
Q 31.40625 6.90625 27.203125 6.90625 
z
" id="HelveticaNeue-103"/>
      <path d="M 52.203125 0.203125 
Q 50 -1.09375 46.09375 -1.09375 
Q 42.796875 -1.09375 40.84375 0.75 
Q 38.90625 2.59375 38.90625 6.796875 
Q 35.40625 2.59375 30.75 0.75 
Q 26.09375 -1.09375 20.703125 -1.09375 
Q 17.203125 -1.09375 14.046875 -0.296875 
Q 10.90625 0.5 8.59375 2.203125 
Q 6.296875 3.90625 4.9375 6.65625 
Q 3.59375 9.40625 3.59375 13.296875 
Q 3.59375 17.703125 5.09375 20.5 
Q 6.59375 23.296875 9.046875 25.046875 
Q 11.5 26.796875 14.640625 27.6875 
Q 17.796875 28.59375 21.09375 29.203125 
Q 24.59375 29.90625 27.75 30.25 
Q 30.90625 30.59375 33.296875 31.25 
Q 35.703125 31.90625 37.09375 33.15625 
Q 38.5 34.40625 38.5 36.796875 
Q 38.5 39.59375 37.453125 41.296875 
Q 36.40625 43 34.75 43.890625 
Q 33.09375 44.796875 31.046875 45.09375 
Q 29 45.40625 27 45.40625 
Q 21.59375 45.40625 18 43.34375 
Q 14.40625 41.296875 14.09375 35.59375 
L 5.59375 35.59375 
Q 5.796875 40.40625 7.59375 43.703125 
Q 9.40625 47 12.40625 49.046875 
Q 15.40625 51.09375 19.25 52 
Q 23.09375 52.90625 27.5 52.90625 
Q 31 52.90625 34.453125 52.40625 
Q 37.90625 51.90625 40.703125 50.34375 
Q 43.5 48.796875 45.203125 46 
Q 46.90625 43.203125 46.90625 38.703125 
L 46.90625 12.09375 
Q 46.90625 9.09375 47.25 7.6875 
Q 47.59375 6.296875 49.59375 6.296875 
Q 50.703125 6.296875 52.203125 6.796875 
z
M 38.40625 26.703125 
Q 36.796875 25.5 34.1875 24.953125 
Q 31.59375 24.40625 28.75 24.046875 
Q 25.90625 23.703125 23 23.25 
Q 20.09375 22.796875 17.796875 21.796875 
Q 15.5 20.796875 14.046875 18.9375 
Q 12.59375 17.09375 12.59375 13.90625 
Q 12.59375 11.796875 13.4375 10.34375 
Q 14.296875 8.90625 15.640625 8 
Q 17 7.09375 18.796875 6.6875 
Q 20.59375 6.296875 22.59375 6.296875 
Q 26.796875 6.296875 29.796875 7.4375 
Q 32.796875 8.59375 34.6875 10.34375 
Q 36.59375 12.09375 37.5 14.140625 
Q 38.40625 16.203125 38.40625 18 
z
M 41.296875 77 
L 27.203125 60.796875 
L 20.796875 60.796875 
L 30.40625 77 
z
" id="HelveticaNeue-225"/>
      <path id="HelveticaNeue-32"/>
      <path d="M 17.296875 8 
L 17.296875 63.40625 
L 33.296875 63.40625 
Q 39.90625 63.40625 44.40625 61.546875 
Q 48.90625 59.703125 51.75 56.140625 
Q 54.59375 52.59375 55.84375 47.546875 
Q 57.09375 42.5 57.09375 36.09375 
Q 57.09375 29.5 55.75 24.84375 
Q 54.40625 20.203125 52.296875 17.09375 
Q 50.203125 14 47.546875 12.203125 
Q 44.90625 10.40625 42.203125 9.453125 
Q 39.5 8.5 37.09375 8.25 
Q 34.703125 8 33.09375 8 
z
M 7.796875 71.40625 
L 7.796875 0 
L 32.296875 0 
Q 41.203125 0 47.703125 2.5 
Q 54.203125 5 58.390625 9.75 
Q 62.59375 14.5 64.59375 21.453125 
Q 66.59375 28.40625 66.59375 37.40625 
Q 66.59375 54.59375 57.6875 63 
Q 48.796875 71.40625 32.296875 71.40625 
z
" id="HelveticaNeue-68"/>
      <path d="M 8.296875 11.09375 
L 8.296875 0 
L 19.40625 0 
L 19.40625 11.09375 
z
" id="HelveticaNeue-46"/>
      <path d="M 58 49.90625 
L 67.5 49.90625 
Q 66.703125 55.59375 64.09375 59.9375 
Q 61.5 64.296875 57.59375 67.1875 
Q 53.703125 70.09375 48.703125 71.59375 
Q 43.703125 73.09375 38.09375 73.09375 
Q 29.90625 73.09375 23.546875 70.140625 
Q 17.203125 67.203125 12.953125 62.09375 
Q 8.703125 57 6.5 50.140625 
Q 4.296875 43.296875 4.296875 35.5 
Q 4.296875 27.703125 6.34375 20.890625 
Q 8.40625 14.09375 12.5 9.09375 
Q 16.59375 4.09375 22.796875 1.25 
Q 29 -1.59375 37.296875 -1.59375 
Q 51 -1.59375 58.890625 5.90625 
Q 66.796875 13.40625 68.203125 26.90625 
L 58.703125 26.90625 
Q 58.40625 22.5 56.90625 18.703125 
Q 55.40625 14.90625 52.75 12.15625 
Q 50.09375 9.40625 46.4375 7.84375 
Q 42.796875 6.296875 38.09375 6.296875 
Q 31.703125 6.296875 27.09375 8.6875 
Q 22.5 11.09375 19.546875 15.140625 
Q 16.59375 19.203125 15.1875 24.640625 
Q 13.796875 30.09375 13.796875 36.203125 
Q 13.796875 41.796875 15.1875 47 
Q 16.59375 52.203125 19.546875 56.25 
Q 22.5 60.296875 27.046875 62.6875 
Q 31.59375 65.09375 38 65.09375 
Q 45.5 65.09375 50.953125 61.296875 
Q 56.40625 57.5 58 49.90625 
z
" id="HelveticaNeue-67"/>
      <path d="M 7.703125 78.59375 
L 7.703125 -21.296875 
L 14.5 -21.296875 
L 14.5 78.59375 
z
" id="HelveticaNeue-124"/>
      <path d="M 11.59375 16.296875 
L 3.09375 16.296875 
Q 3.296875 11.5 5.09375 8.140625 
Q 6.90625 4.796875 9.90625 2.75 
Q 12.90625 0.703125 16.796875 -0.1875 
Q 20.703125 -1.09375 25 -1.09375 
Q 28.90625 -1.09375 32.84375 -0.34375 
Q 36.796875 0.40625 39.9375 2.296875 
Q 43.09375 4.203125 45.046875 7.296875 
Q 47 10.40625 47 15.09375 
Q 47 18.796875 45.546875 21.296875 
Q 44.09375 23.796875 41.75 25.4375 
Q 39.40625 27.09375 36.34375 28.09375 
Q 33.296875 29.09375 30.09375 29.796875 
Q 27.09375 30.5 24.09375 31.140625 
Q 21.09375 31.796875 18.6875 32.75 
Q 16.296875 33.703125 14.75 35.140625 
Q 13.203125 36.59375 13.203125 38.796875 
Q 13.203125 40.796875 14.203125 42.046875 
Q 15.203125 43.296875 16.796875 44.046875 
Q 18.40625 44.796875 20.34375 45.09375 
Q 22.296875 45.40625 24.203125 45.40625 
Q 26.296875 45.40625 28.34375 44.953125 
Q 30.40625 44.5 32.09375 43.5 
Q 33.796875 42.5 34.890625 40.84375 
Q 36 39.203125 36.203125 36.703125 
L 44.703125 36.703125 
Q 44.40625 41.40625 42.703125 44.546875 
Q 41 47.703125 38.140625 49.546875 
Q 35.296875 51.40625 31.59375 52.15625 
Q 27.90625 52.90625 23.5 52.90625 
Q 20.09375 52.90625 16.640625 52.046875 
Q 13.203125 51.203125 10.453125 49.453125 
Q 7.703125 47.703125 5.953125 44.890625 
Q 4.203125 42.09375 4.203125 38.203125 
Q 4.203125 33.203125 6.703125 30.390625 
Q 9.203125 27.59375 12.953125 26.046875 
Q 16.703125 24.5 21.09375 23.640625 
Q 25.5 22.796875 29.25 21.75 
Q 33 20.703125 35.5 19 
Q 38 17.296875 38 14 
Q 38 11.59375 36.796875 10.046875 
Q 35.59375 8.5 33.75 7.703125 
Q 31.90625 6.90625 29.703125 6.59375 
Q 27.5 6.296875 25.5 6.296875 
Q 22.90625 6.296875 20.453125 6.796875 
Q 18 7.296875 16.046875 8.4375 
Q 14.09375 9.59375 12.890625 11.546875 
Q 11.703125 13.5 11.59375 16.296875 
z
" id="HelveticaNeue-115"/>
      <path d="M 29.703125 0 
L 48.59375 51.703125 
L 39.703125 51.703125 
L 25.59375 8.59375 
L 25.40625 8.59375 
L 10.90625 51.703125 
L 1.40625 51.703125 
L 20.59375 0 
z
" id="HelveticaNeue-118"/>
      <path d="M 5 31.796875 
L 5 23.796875 
L 33.90625 23.796875 
L 33.90625 31.796875 
z
" id="HelveticaNeue-45"/>
     </defs>
     <use xlink:href="#HelveticaNeue-66"/>
     <use x="68.499985" xlink:href="#HelveticaNeue-111"/>
     <use x="125.899979" xlink:href="#HelveticaNeue-103"/>
     <use x="183.299973" xlink:href="#HelveticaNeue-111"/>
     <use x="240.699966" xlink:href="#HelveticaNeue-116"/>
     <use x="272.199951" xlink:href="#HelveticaNeue-225"/>
     <use x="325.899948" xlink:href="#HelveticaNeue-32"/>
     <use x="353.699936" xlink:href="#HelveticaNeue-68"/>
     <use x="424.09993" xlink:href="#HelveticaNeue-46"/>
     <use x="451.899918" xlink:href="#HelveticaNeue-67"/>
     <use x="524.099899" xlink:href="#HelveticaNeue-46"/>
     <use x="551.899887" xlink:href="#HelveticaNeue-32"/>
     <use x="579.699875" xlink:href="#HelveticaNeue-124"/>
     <use x="601.899872" xlink:href="#HelveticaNeue-32"/>
     <use x="629.69986" xlink:href="#HelveticaNeue-67"/>
     <use x="701.899841" xlink:href="#HelveticaNeue-97"/>
     <use x="755.599838" xlink:href="#HelveticaNeue-115"/>
     <use x="805.599823" xlink:href="#HelveticaNeue-111"/>
     <use x="862.999817" xlink:href="#HelveticaNeue-115"/>
     <use x="912.999802" xlink:href="#HelveticaNeue-32"/>
     <use x="940.799789" xlink:href="#HelveticaNeue-110"/>
     <use x="996.39978" xlink:href="#HelveticaNeue-117"/>
     <use x="1051.999771" xlink:href="#HelveticaNeue-101"/>
     <use x="1105.699768" xlink:href="#HelveticaNeue-118"/>
     <use x="1155.699753" xlink:href="#HelveticaNeue-111"/>
     <use x="1213.099747" xlink:href="#HelveticaNeue-115"/>
     <use x="1263.099731" xlink:href="#HelveticaNeue-32"/>
     <use x="1290.899719" xlink:href="#HelveticaNeue-50"/>
     <use x="1346.49971" xlink:href="#HelveticaNeue-48"/>
     <use x="1402.099701" xlink:href="#HelveticaNeue-50"/>
     <use x="1457.699692" xlink:href="#HelveticaNeue-49"/>
     <use x="1513.299683" xlink:href="#HelveticaNeue-45"/>
     <use x="1552.199677" xlink:href="#HelveticaNeue-48"/>
     <use x="1607.799667" xlink:href="#HelveticaNeue-54"/>
     <use x="1663.399658" xlink:href="#HelveticaNeue-45"/>
     <use x="1702.299652" xlink:href="#HelveticaNeue-49"/>
     <use x="1757.899643" xlink:href="#HelveticaNeue-52"/>
    </g>
   </g>
   <g id="legend_1">
    <g id="line2d_26">
     <path d="M 71.5 39.640625 
L 91.5 39.640625 
" style="fill:none;stroke:#000000;stroke-dasharray:1.5,2.475;stroke-dashoffset:0;stroke-opacity:0.5;stroke-width:1.5;"/>
    </g>
    <g id="line2d_27"/>
    <g id="text_14">
     <!-- Actual -->
     <g style="fill:#555555;" transform="translate(99.5 43.140625)scale(0.1 -0.1)">
      <use xlink:href="#HelveticaNeue-65"/>
      <use x="64.799988" xlink:href="#HelveticaNeue-99"/>
      <use x="118.499985" xlink:href="#HelveticaNeue-116"/>
      <use x="149.999969" xlink:href="#HelveticaNeue-117"/>
      <use x="205.59996" xlink:href="#HelveticaNeue-97"/>
      <use x="259.299957" xlink:href="#HelveticaNeue-108"/>
     </g>
    </g>
    <g id="line2d_28">
     <path d="M 71.5 54.310937 
L 91.5 54.310937 
" style="fill:none;stroke:#b3220f;stroke-linecap:square;stroke-width:1.5;"/>
    </g>
    <g id="line2d_29"/>
    <g id="text_15">
     <!-- Promedio semanal (7 das)  -->
     <g style="fill:#555555;" transform="translate(99.5 57.810937)scale(0.1 -0.1)">
      <defs>
       <path d="M 17.296875 37.203125 
L 17.296875 63.40625 
L 35.90625 63.40625 
Q 44 63.40625 47.75 60.046875 
Q 51.5 56.703125 51.5 50.296875 
Q 51.5 43.90625 47.75 40.5 
Q 44 37.09375 35.90625 37.203125 
z
M 7.796875 71.40625 
L 7.796875 0 
L 17.296875 0 
L 17.296875 29.203125 
L 39.09375 29.203125 
Q 49.90625 29.09375 55.453125 34.6875 
Q 61 40.296875 61 50.296875 
Q 61 60.296875 55.453125 65.84375 
Q 49.90625 71.40625 39.09375 71.40625 
z
" id="HelveticaNeue-80"/>
       <path d="M 6.40625 51.703125 
L 6.40625 0 
L 14.90625 0 
L 14.90625 32.203125 
Q 14.90625 33.703125 15.65625 35.953125 
Q 16.40625 38.203125 18.046875 40.296875 
Q 19.703125 42.40625 22.34375 43.90625 
Q 25 45.40625 28.703125 45.40625 
Q 31.59375 45.40625 33.4375 44.546875 
Q 35.296875 43.703125 36.390625 42.140625 
Q 37.5 40.59375 37.953125 38.5 
Q 38.40625 36.40625 38.40625 33.90625 
L 38.40625 0 
L 46.90625 0 
L 46.90625 32.203125 
Q 46.90625 38.203125 50.5 41.796875 
Q 54.09375 45.40625 60.40625 45.40625 
Q 63.5 45.40625 65.453125 44.5 
Q 67.40625 43.59375 68.5 42.046875 
Q 69.59375 40.5 70 38.390625 
Q 70.40625 36.296875 70.40625 33.90625 
L 70.40625 0 
L 78.90625 0 
L 78.90625 37.90625 
Q 78.90625 41.90625 77.65625 44.75 
Q 76.40625 47.59375 74.15625 49.390625 
Q 71.90625 51.203125 68.75 52.046875 
Q 65.59375 52.90625 61.703125 52.90625 
Q 56.59375 52.90625 52.34375 50.59375 
Q 48.09375 48.296875 45.5 44.09375 
Q 43.90625 48.90625 40 50.90625 
Q 36.09375 52.90625 31.296875 52.90625 
Q 20.40625 52.90625 14.59375 44.09375 
L 14.40625 44.09375 
L 14.40625 51.703125 
z
" id="HelveticaNeue-109"/>
       <path d="M 12.59375 25.40625 
Q 12.59375 29.203125 13.390625 32.796875 
Q 14.203125 36.40625 16 39.203125 
Q 17.796875 42 20.796875 43.703125 
Q 23.796875 45.40625 28.09375 45.40625 
Q 32.5 45.40625 35.59375 43.75 
Q 38.703125 42.09375 40.640625 39.390625 
Q 42.59375 36.703125 43.5 33.140625 
Q 44.40625 29.59375 44.40625 25.796875 
Q 44.40625 22.203125 43.546875 18.703125 
Q 42.703125 15.203125 40.796875 12.453125 
Q 38.90625 9.703125 35.90625 8 
Q 32.90625 6.296875 28.59375 6.296875 
Q 24.5 6.296875 21.453125 7.890625 
Q 18.40625 9.5 16.453125 12.203125 
Q 14.5 14.90625 13.546875 18.34375 
Q 12.59375 21.796875 12.59375 25.40625 
z
M 52.59375 0 
L 52.59375 71.40625 
L 44.09375 71.40625 
L 44.09375 44.796875 
L 43.90625 44.796875 
Q 42.5 47.09375 40.453125 48.640625 
Q 38.40625 50.203125 36.09375 51.140625 
Q 33.796875 52.09375 31.5 52.5 
Q 29.203125 52.90625 27.203125 52.90625 
Q 21.296875 52.90625 16.84375 50.75 
Q 12.40625 48.59375 9.453125 44.9375 
Q 6.5 41.296875 5.046875 36.390625 
Q 3.59375 31.5 3.59375 26 
Q 3.59375 20.5 5.09375 15.59375 
Q 6.59375 10.703125 9.546875 7 
Q 12.5 3.296875 16.953125 1.09375 
Q 21.40625 -1.09375 27.40625 -1.09375 
Q 32.796875 -1.09375 37.296875 0.796875 
Q 41.796875 2.703125 43.90625 7 
L 44.09375 7 
L 44.09375 0 
z
" id="HelveticaNeue-100"/>
       <path d="M 15.40625 61 
L 15.40625 71.40625 
L 6.90625 71.40625 
L 6.90625 61 
z
M 6.90625 51.703125 
L 6.90625 0 
L 15.40625 0 
L 15.40625 51.703125 
z
" id="HelveticaNeue-105"/>
       <path d="M 20.40625 -19.703125 
L 26.90625 -19.703125 
Q 19.796875 -8.203125 16.75 3.09375 
Q 13.703125 14.40625 13.703125 27 
Q 13.703125 39.296875 16.703125 50.5 
Q 19.703125 61.703125 26.90625 73.09375 
L 20.40625 73.09375 
Q 12.59375 62.796875 8.640625 50.796875 
Q 4.703125 38.796875 4.703125 27 
Q 4.703125 20.40625 5.796875 14.40625 
Q 6.90625 8.40625 8.953125 2.703125 
Q 11 -3 13.890625 -8.546875 
Q 16.796875 -14.09375 20.40625 -19.703125 
z
" id="HelveticaNeue-40"/>
       <path d="M 50.90625 62.40625 
L 50.90625 69.703125 
L 5 69.703125 
L 5 61.703125 
L 42.203125 61.703125 
Q 36.59375 55.796875 31.75 48.796875 
Q 26.90625 41.796875 23.203125 33.9375 
Q 19.5 26.09375 17.140625 17.546875 
Q 14.796875 9 14.203125 0 
L 23.703125 0 
Q 24.203125 8.296875 26.5 17.09375 
Q 28.796875 25.90625 32.4375 34.203125 
Q 36.09375 42.5 40.796875 49.796875 
Q 45.5 57.09375 50.90625 62.40625 
z
" id="HelveticaNeue-55"/>
       <path d="M 6.90625 0 
L 15.40625 0 
L 15.40625 51.703125 
L 6.90625 51.703125 
z
M 25.5 77 
L 11.40625 60.796875 
L 5 60.796875 
L 14.59375 77 
z
" id="HelveticaNeue-237"/>
       <path d="M -0.90625 -19.703125 
L 5.5 -19.703125 
Q 13.296875 -9.40625 17.25 2.546875 
Q 21.203125 14.5 21.203125 26.296875 
Q 21.203125 32.90625 20.09375 38.90625 
Q 19 44.90625 16.953125 50.65625 
Q 14.90625 56.40625 12 61.953125 
Q 9.09375 67.5 5.5 73.09375 
L -0.90625 73.09375 
Q 6.09375 61.59375 9.140625 50.25 
Q 12.203125 38.90625 12.203125 26.296875 
Q 12.203125 14.09375 9.203125 2.84375 
Q 6.203125 -8.40625 -0.90625 -19.703125 
z
" id="HelveticaNeue-41"/>
      </defs>
      <use xlink:href="#HelveticaNeue-80"/>
      <use x="64.799988" xlink:href="#HelveticaNeue-114"/>
      <use x="96.349976" xlink:href="#HelveticaNeue-111"/>
      <use x="153.749969" xlink:href="#HelveticaNeue-109"/>
      <use x="239.049957" xlink:href="#HelveticaNeue-101"/>
      <use x="292.749954" xlink:href="#HelveticaNeue-100"/>
      <use x="352.049942" xlink:href="#HelveticaNeue-105"/>
      <use x="374.249939" xlink:href="#HelveticaNeue-111"/>
      <use x="431.649933" xlink:href="#HelveticaNeue-32"/>
      <use x="459.449921" xlink:href="#HelveticaNeue-115"/>
      <use x="509.449905" xlink:href="#HelveticaNeue-101"/>
      <use x="563.149902" xlink:href="#HelveticaNeue-109"/>
      <use x="648.44989" xlink:href="#HelveticaNeue-97"/>
      <use x="702.149887" xlink:href="#HelveticaNeue-110"/>
      <use x="757.749878" xlink:href="#HelveticaNeue-97"/>
      <use x="811.449875" xlink:href="#HelveticaNeue-108"/>
      <use x="833.649872" xlink:href="#HelveticaNeue-32"/>
      <use x="861.44986" xlink:href="#HelveticaNeue-40"/>
      <use x="887.349854" xlink:href="#HelveticaNeue-55"/>
      <use x="942.949844" xlink:href="#HelveticaNeue-32"/>
      <use x="970.749832" xlink:href="#HelveticaNeue-100"/>
      <use x="1030.04982" xlink:href="#HelveticaNeue-237"/>
      <use x="1052.249817" xlink:href="#HelveticaNeue-97"/>
      <use x="1105.949814" xlink:href="#HelveticaNeue-115"/>
      <use x="1155.949799" xlink:href="#HelveticaNeue-41"/>
      <use x="1181.849792" xlink:href="#HelveticaNeue-32"/>
     </g>
    </g>
   </g>
  </g>
 </g>
 <defs>
  <clipPath id="p2139399fd6">
   <rect height="235.5" width="387.5" x="62.5" y="27"/>
  </clipPath>
 </defs>
</svg>
