<?xml version="1.0" encoding="utf-8" standalone="no"?>
<!DOCTYPE svg PUBLIC "-//W3C//DTD SVG 1.1//EN"
  "http://www.w3.org/Graphics/SVG/1.1/DTD/svg11.dtd">
<!-- Created with matplotlib (https://matplotlib.org/) -->
<svg height="300pt" version="1.1" viewBox="0 0 500 300" width="500pt" xmlns="http://www.w3.org/2000/svg" xmlns:xlink="http://www.w3.org/1999/xlink">
 <metadata>
  <rdf:RDF xmlns:cc="http://creativecommons.org/ns#" xmlns:dc="http://purl.org/dc/elements/1.1/" xmlns:rdf="http://www.w3.org/1999/02/22-rdf-syntax-ns#">
   <cc:Work>
    <dc:type rdf:resource="http://purl.org/dc/dcmitype/StillImage"/>
    <dc:date>2021-07-10T13:31:42.792519</dc:date>
    <dc:format>image/svg+xml</dc:format>
    <dc:creator>
     <cc:Agent>
      <dc:title>Matplotlib v3.3.4, https://matplotlib.org/</dc:title>
     </cc:Agent>
    </dc:creator>
   </cc:Work>
  </rdf:RDF>
 </metadata>
 <defs>
  <style type="text/css">*{stroke-linecap:butt;stroke-linejoin:round;}</style>
 </defs>
 <g id="figure_1">
  <g id="patch_1">
   <path d="M 0 300 
L 500 300 
L 500 0 
L 0 0 
z
" style="fill:#ffffff;"/>
  </g>
  <g id="axes_1">
   <g id="patch_2">
    <path d="M 62.5 262.5 
L 450 262.5 
L 450 27 
L 62.5 27 
z
" style="fill:#ffffff;"/>
   </g>
   <g id="matplotlib.axis_1">
    <g id="xtick_1">
     <g id="line2d_1">
      <defs>
       <path d="M 0 0 
L 0 3.5 
" id="m9b9f18636b" style="stroke:#555555;stroke-width:0.8;"/>
      </defs>
      <g>
       <use style="fill:#555555;stroke:#555555;stroke-width:0.8;" x="62.5" xlink:href="#m9b9f18636b" y="262.5"/>
      </g>
     </g>
    </g>
    <g id="xtick_2">
     <g id="line2d_2">
      <g>
       <use style="fill:#555555;stroke:#555555;stroke-width:0.8;" x="76.970954" xlink:href="#m9b9f18636b" y="262.5"/>
      </g>
     </g>
     <g id="text_1">
      <!-- Apr -->
      <g style="fill:#555555;" transform="translate(69.101423 276.640625)scale(0.1 -0.1)">
       <defs>
        <path d="M 20.09375 29.5 
L 32.203125 62.796875 
L 32.40625 62.796875 
L 44.296875 29.5 
z
M 27.203125 71.40625 
L -0.59375 0 
L 9.09375 0 
L 17.09375 21.5 
L 47.296875 21.5 
L 55.09375 0 
L 65.59375 0 
L 37.703125 71.40625 
z
" id="HelveticaNeue-65"/>
        <path d="M 6.703125 51.703125 
L 6.703125 -19.703125 
L 15.203125 -19.703125 
L 15.203125 6.90625 
L 15.40625 6.90625 
Q 16.796875 4.59375 18.84375 3.046875 
Q 20.90625 1.5 23.203125 0.59375 
Q 25.5 -0.296875 27.84375 -0.6875 
Q 30.203125 -1.09375 32.09375 -1.09375 
Q 38 -1.09375 42.453125 1 
Q 46.90625 3.09375 49.84375 6.75 
Q 52.796875 10.40625 54.25 15.296875 
Q 55.703125 20.203125 55.703125 25.703125 
Q 55.703125 31.203125 54.203125 36.09375 
Q 52.703125 41 49.75 44.75 
Q 46.796875 48.5 42.34375 50.703125 
Q 37.90625 52.90625 31.90625 52.90625 
Q 26.5 52.90625 22 50.953125 
Q 17.5 49 15.40625 44.703125 
L 15.203125 44.703125 
L 15.203125 51.703125 
z
M 46.703125 26.296875 
Q 46.703125 22.5 45.890625 18.890625 
Q 45.09375 15.296875 43.296875 12.5 
Q 41.5 9.703125 38.546875 8 
Q 35.59375 6.296875 31.203125 6.296875 
Q 26.796875 6.296875 23.6875 7.9375 
Q 20.59375 9.59375 18.640625 12.296875 
Q 16.703125 15 15.796875 18.546875 
Q 14.90625 22.09375 14.90625 25.90625 
Q 14.90625 29.5 15.75 33 
Q 16.59375 36.5 18.5 39.25 
Q 20.40625 42 23.40625 43.703125 
Q 26.40625 45.40625 30.703125 45.40625 
Q 34.796875 45.40625 37.84375 43.796875 
Q 40.90625 42.203125 42.84375 39.5 
Q 44.796875 36.796875 45.75 33.34375 
Q 46.703125 29.90625 46.703125 26.296875 
z
" id="HelveticaNeue-112"/>
        <path d="M 6.09375 51.703125 
L 6.09375 0 
L 14.59375 0 
L 14.59375 23 
Q 14.59375 28 15.59375 31.84375 
Q 16.59375 35.703125 18.796875 38.390625 
Q 21 41.09375 24.59375 42.5 
Q 28.203125 43.90625 33.296875 43.90625 
L 33.296875 52.90625 
Q 26.40625 53.09375 21.90625 50.09375 
Q 17.40625 47.09375 14.296875 40.796875 
L 14.09375 40.796875 
L 14.09375 51.703125 
z
" id="HelveticaNeue-114"/>
       </defs>
       <use xlink:href="#HelveticaNeue-65"/>
       <use x="64.799988" xlink:href="#HelveticaNeue-112"/>
       <use x="124.099976" xlink:href="#HelveticaNeue-114"/>
      </g>
     </g>
    </g>
    <g id="xtick_3">
     <g id="line2d_3">
      <g>
       <use style="fill:#555555;stroke:#555555;stroke-width:0.8;" x="150.129668" xlink:href="#m9b9f18636b" y="262.5"/>
      </g>
     </g>
     <g id="text_2">
      <!-- Jul -->
      <g style="fill:#555555;" transform="translate(143.644512 276.640625)scale(0.1 -0.1)">
       <defs>
        <path d="M 44.09375 17.796875 
L 44.09375 71.40625 
L 34.59375 71.40625 
L 34.59375 19.203125 
Q 34.59375 13.296875 32.140625 9.796875 
Q 29.703125 6.296875 23.203125 6.296875 
Q 19.703125 6.296875 17.453125 7.34375 
Q 15.203125 8.40625 13.953125 10.296875 
Q 12.703125 12.203125 12.203125 14.796875 
Q 11.703125 17.40625 11.703125 20.5 
L 11.703125 23.5 
L 2.203125 23.5 
L 2.203125 19.09375 
Q 2.203125 8.90625 7.59375 3.65625 
Q 13 -1.59375 23 -1.59375 
Q 29 -1.59375 33.046875 0.046875 
Q 37.09375 1.703125 39.546875 4.453125 
Q 42 7.203125 43.046875 10.703125 
Q 44.09375 14.203125 44.09375 17.796875 
z
" id="HelveticaNeue-74"/>
        <path d="M 49.203125 0 
L 49.203125 51.703125 
L 40.703125 51.703125 
L 40.703125 22.5 
Q 40.703125 19 39.75 16.046875 
Q 38.796875 13.09375 36.890625 10.890625 
Q 35 8.703125 32.140625 7.5 
Q 29.296875 6.296875 25.40625 6.296875 
Q 20.5 6.296875 17.703125 9.09375 
Q 14.90625 11.90625 14.90625 16.703125 
L 14.90625 51.703125 
L 6.40625 51.703125 
L 6.40625 17.703125 
Q 6.40625 13.5 7.25 10.046875 
Q 8.09375 6.59375 10.1875 4.09375 
Q 12.296875 1.59375 15.6875 0.25 
Q 19.09375 -1.09375 24.203125 -1.09375 
Q 29.90625 -1.09375 34.09375 1.15625 
Q 38.296875 3.40625 41 8.203125 
L 41.203125 8.203125 
L 41.203125 0 
z
" id="HelveticaNeue-117"/>
        <path d="M 6.90625 71.40625 
L 6.90625 0 
L 15.40625 0 
L 15.40625 71.40625 
z
" id="HelveticaNeue-108"/>
       </defs>
       <use xlink:href="#HelveticaNeue-74"/>
       <use x="51.899994" xlink:href="#HelveticaNeue-117"/>
       <use x="107.499985" xlink:href="#HelveticaNeue-108"/>
      </g>
     </g>
    </g>
    <g id="xtick_4">
     <g id="line2d_4">
      <g>
       <use style="fill:#555555;stroke:#555555;stroke-width:0.8;" x="224.092324" xlink:href="#m9b9f18636b" y="262.5"/>
      </g>
     </g>
     <g id="text_3">
      <!-- Oct -->
      <g style="fill:#555555;" transform="translate(216.032167 276.640625)scale(0.1 -0.1)">
       <defs>
        <path d="M 13.296875 35.703125 
Q 13.296875 41.09375 14.6875 46.34375 
Q 16.09375 51.59375 19.09375 55.796875 
Q 22.09375 60 26.796875 62.546875 
Q 31.5 65.09375 38 65.09375 
Q 44.5 65.09375 49.203125 62.546875 
Q 53.90625 60 56.90625 55.796875 
Q 59.90625 51.59375 61.296875 46.34375 
Q 62.703125 41.09375 62.703125 35.703125 
Q 62.703125 30.296875 61.296875 25.046875 
Q 59.90625 19.796875 56.90625 15.59375 
Q 53.90625 11.40625 49.203125 8.84375 
Q 44.5 6.296875 38 6.296875 
Q 31.5 6.296875 26.796875 8.84375 
Q 22.09375 11.40625 19.09375 15.59375 
Q 16.09375 19.796875 14.6875 25.046875 
Q 13.296875 30.296875 13.296875 35.703125 
z
M 3.796875 35.703125 
Q 3.796875 28.40625 5.9375 21.65625 
Q 8.09375 14.90625 12.390625 9.703125 
Q 16.703125 4.5 23.09375 1.453125 
Q 29.5 -1.59375 38 -1.59375 
Q 46.5 -1.59375 52.890625 1.453125 
Q 59.296875 4.5 63.59375 9.703125 
Q 67.90625 14.90625 70.046875 21.65625 
Q 72.203125 28.40625 72.203125 35.703125 
Q 72.203125 43 70.046875 49.75 
Q 67.90625 56.5 63.59375 61.703125 
Q 59.296875 66.90625 52.890625 70 
Q 46.5 73.09375 38 73.09375 
Q 29.5 73.09375 23.09375 70 
Q 16.703125 66.90625 12.390625 61.703125 
Q 8.09375 56.5 5.9375 49.75 
Q 3.796875 43 3.796875 35.703125 
z
" id="HelveticaNeue-79"/>
        <path d="M 41.5 35.09375 
L 50.296875 35.09375 
Q 49.796875 39.703125 47.890625 43.046875 
Q 46 46.40625 43.046875 48.59375 
Q 40.09375 50.796875 36.25 51.84375 
Q 32.40625 52.90625 28 52.90625 
Q 21.90625 52.90625 17.296875 50.75 
Q 12.703125 48.59375 9.640625 44.84375 
Q 6.59375 41.09375 5.09375 36.046875 
Q 3.59375 31 3.59375 25.203125 
Q 3.59375 19.40625 5.140625 14.546875 
Q 6.703125 9.703125 9.75 6.203125 
Q 12.796875 2.703125 17.34375 0.796875 
Q 21.90625 -1.09375 27.796875 -1.09375 
Q 37.703125 -1.09375 43.453125 4.09375 
Q 49.203125 9.296875 50.59375 18.90625 
L 41.90625 18.90625 
Q 41.09375 12.90625 37.546875 9.59375 
Q 34 6.296875 27.703125 6.296875 
Q 23.703125 6.296875 20.796875 7.890625 
Q 17.90625 9.5 16.09375 12.140625 
Q 14.296875 14.796875 13.4375 18.1875 
Q 12.59375 21.59375 12.59375 25.203125 
Q 12.59375 29.09375 13.390625 32.75 
Q 14.203125 36.40625 16.046875 39.203125 
Q 17.90625 42 21 43.703125 
Q 24.09375 45.40625 28.703125 45.40625 
Q 34.09375 45.40625 37.296875 42.703125 
Q 40.5 40 41.5 35.09375 
z
" id="HelveticaNeue-99"/>
        <path d="M 18.203125 51.703125 
L 18.203125 67.203125 
L 9.703125 67.203125 
L 9.703125 51.703125 
L 0.90625 51.703125 
L 0.90625 44.203125 
L 9.703125 44.203125 
L 9.703125 11.296875 
Q 9.703125 7.703125 10.390625 5.5 
Q 11.09375 3.296875 12.546875 2.09375 
Q 14 0.90625 16.34375 0.453125 
Q 18.703125 0 22 0 
L 28.5 0 
L 28.5 7.5 
L 24.59375 7.5 
Q 22.59375 7.5 21.34375 7.640625 
Q 20.09375 7.796875 19.390625 8.296875 
Q 18.703125 8.796875 18.453125 9.6875 
Q 18.203125 10.59375 18.203125 12.09375 
L 18.203125 44.203125 
L 28.5 44.203125 
L 28.5 51.703125 
z
" id="HelveticaNeue-116"/>
       </defs>
       <use xlink:href="#HelveticaNeue-79"/>
       <use x="75.999985" xlink:href="#HelveticaNeue-99"/>
       <use x="129.699982" xlink:href="#HelveticaNeue-116"/>
      </g>
     </g>
    </g>
    <g id="xtick_5">
     <g id="line2d_5">
      <g>
       <use style="fill:#555555;stroke:#555555;stroke-width:0.8;" x="298.054979" xlink:href="#m9b9f18636b" y="262.5"/>
      </g>
     </g>
     <g id="text_4">
      <!-- Jan -->
      <g style="fill:#555555;" transform="translate(289.994823 276.640625)scale(0.1 -0.1)">
       <defs>
        <path d="M 52.203125 0.203125 
Q 50 -1.09375 46.09375 -1.09375 
Q 42.796875 -1.09375 40.84375 0.75 
Q 38.90625 2.59375 38.90625 6.796875 
Q 35.40625 2.59375 30.75 0.75 
Q 26.09375 -1.09375 20.703125 -1.09375 
Q 17.203125 -1.09375 14.046875 -0.296875 
Q 10.90625 0.5 8.59375 2.203125 
Q 6.296875 3.90625 4.9375 6.65625 
Q 3.59375 9.40625 3.59375 13.296875 
Q 3.59375 17.703125 5.09375 20.5 
Q 6.59375 23.296875 9.046875 25.046875 
Q 11.5 26.796875 14.640625 27.6875 
Q 17.796875 28.59375 21.09375 29.203125 
Q 24.59375 29.90625 27.75 30.25 
Q 30.90625 30.59375 33.296875 31.25 
Q 35.703125 31.90625 37.09375 33.15625 
Q 38.5 34.40625 38.5 36.796875 
Q 38.5 39.59375 37.453125 41.296875 
Q 36.40625 43 34.75 43.890625 
Q 33.09375 44.796875 31.046875 45.09375 
Q 29 45.40625 27 45.40625 
Q 21.59375 45.40625 18 43.34375 
Q 14.40625 41.296875 14.09375 35.59375 
L 5.59375 35.59375 
Q 5.796875 40.40625 7.59375 43.703125 
Q 9.40625 47 12.40625 49.046875 
Q 15.40625 51.09375 19.25 52 
Q 23.09375 52.90625 27.5 52.90625 
Q 31 52.90625 34.453125 52.40625 
Q 37.90625 51.90625 40.703125 50.34375 
Q 43.5 48.796875 45.203125 46 
Q 46.90625 43.203125 46.90625 38.703125 
L 46.90625 12.09375 
Q 46.90625 9.09375 47.25 7.6875 
Q 47.59375 6.296875 49.59375 6.296875 
Q 50.703125 6.296875 52.203125 6.796875 
z
M 38.40625 26.703125 
Q 36.796875 25.5 34.1875 24.953125 
Q 31.59375 24.40625 28.75 24.046875 
Q 25.90625 23.703125 23 23.25 
Q 20.09375 22.796875 17.796875 21.796875 
Q 15.5 20.796875 14.046875 18.9375 
Q 12.59375 17.09375 12.59375 13.90625 
Q 12.59375 11.796875 13.4375 10.34375 
Q 14.296875 8.90625 15.640625 8 
Q 17 7.09375 18.796875 6.6875 
Q 20.59375 6.296875 22.59375 6.296875 
Q 26.796875 6.296875 29.796875 7.4375 
Q 32.796875 8.59375 34.6875 10.34375 
Q 36.59375 12.09375 37.5 14.140625 
Q 38.40625 16.203125 38.40625 18 
z
" id="HelveticaNeue-97"/>
        <path d="M 6.40625 51.703125 
L 6.40625 0 
L 14.90625 0 
L 14.90625 29.203125 
Q 14.90625 32.703125 15.84375 35.640625 
Q 16.796875 38.59375 18.6875 40.796875 
Q 20.59375 43 23.4375 44.203125 
Q 26.296875 45.40625 30.203125 45.40625 
Q 35.09375 45.40625 37.890625 42.59375 
Q 40.703125 39.796875 40.703125 35 
L 40.703125 0 
L 49.203125 0 
L 49.203125 34 
Q 49.203125 38.203125 48.34375 41.640625 
Q 47.5 45.09375 45.390625 47.59375 
Q 43.296875 50.09375 39.890625 51.5 
Q 36.5 52.90625 31.40625 52.90625 
Q 19.90625 52.90625 14.59375 43.5 
L 14.40625 43.5 
L 14.40625 51.703125 
z
" id="HelveticaNeue-110"/>
       </defs>
       <use xlink:href="#HelveticaNeue-74"/>
       <use x="51.899994" xlink:href="#HelveticaNeue-97"/>
       <use x="105.599991" xlink:href="#HelveticaNeue-110"/>
      </g>
      <!-- 2021 -->
      <g style="fill:#555555;" transform="translate(286.936229 287.179688)scale(0.1 -0.1)">
       <defs>
        <path d="M 4.40625 45.796875 
L 12.90625 45.796875 
Q 12.796875 49 13.546875 52.140625 
Q 14.296875 55.296875 16 57.796875 
Q 17.703125 60.296875 20.34375 61.84375 
Q 23 63.40625 26.703125 63.40625 
Q 29.5 63.40625 32 62.5 
Q 34.5 61.59375 36.34375 59.890625 
Q 38.203125 58.203125 39.296875 55.84375 
Q 40.40625 53.5 40.40625 50.59375 
Q 40.40625 46.90625 39.25 44.09375 
Q 38.09375 41.296875 35.84375 38.890625 
Q 33.59375 36.5 30.1875 34.140625 
Q 26.796875 31.796875 22.296875 29 
Q 18.59375 26.796875 15.1875 24.296875 
Q 11.796875 21.796875 9.09375 18.5 
Q 6.40625 15.203125 4.65625 10.75 
Q 2.90625 6.296875 2.40625 0 
L 48.703125 0 
L 48.703125 7.5 
L 12.296875 7.5 
Q 12.90625 10.796875 14.84375 13.34375 
Q 16.796875 15.90625 19.546875 18.09375 
Q 22.296875 20.296875 25.59375 22.25 
Q 28.90625 24.203125 32.203125 26.203125 
Q 35.5 28.296875 38.59375 30.59375 
Q 41.703125 32.90625 44.09375 35.75 
Q 46.5 38.59375 47.953125 42.1875 
Q 49.40625 45.796875 49.40625 50.5 
Q 49.40625 55.5 47.65625 59.296875 
Q 45.90625 63.09375 42.90625 65.640625 
Q 39.90625 68.203125 35.84375 69.546875 
Q 31.796875 70.90625 27.203125 70.90625 
Q 21.59375 70.90625 17.1875 69 
Q 12.796875 67.09375 9.84375 63.75 
Q 6.90625 60.40625 5.5 55.796875 
Q 4.09375 51.203125 4.40625 45.796875 
z
" id="HelveticaNeue-50"/>
        <path d="M 13.203125 34.90625 
Q 13.203125 37.5 13.25 40.640625 
Q 13.296875 43.796875 13.75 46.9375 
Q 14.203125 50.09375 15.046875 53.09375 
Q 15.90625 56.09375 17.546875 58.34375 
Q 19.203125 60.59375 21.703125 62 
Q 24.203125 63.40625 27.796875 63.40625 
Q 31.40625 63.40625 33.90625 62 
Q 36.40625 60.59375 38.046875 58.34375 
Q 39.703125 56.09375 40.546875 53.09375 
Q 41.40625 50.09375 41.84375 46.9375 
Q 42.296875 43.796875 42.34375 40.640625 
Q 42.40625 37.5 42.40625 34.90625 
Q 42.40625 30.90625 42.15625 25.953125 
Q 41.90625 21 40.546875 16.640625 
Q 39.203125 12.296875 36.203125 9.296875 
Q 33.203125 6.296875 27.796875 6.296875 
Q 22.40625 6.296875 19.40625 9.296875 
Q 16.40625 12.296875 15.046875 16.640625 
Q 13.703125 21 13.453125 25.953125 
Q 13.203125 30.90625 13.203125 34.90625 
z
M 4.203125 34.796875 
Q 4.203125 30.90625 4.390625 26.703125 
Q 4.59375 22.5 5.390625 18.5 
Q 6.203125 14.5 7.703125 10.953125 
Q 9.203125 7.40625 11.796875 4.703125 
Q 14.40625 2 18.34375 0.453125 
Q 22.296875 -1.09375 27.796875 -1.09375 
Q 33.40625 -1.09375 37.296875 0.453125 
Q 41.203125 2 43.796875 4.703125 
Q 46.40625 7.40625 47.90625 10.953125 
Q 49.40625 14.5 50.203125 18.5 
Q 51 22.5 51.203125 26.703125 
Q 51.40625 30.90625 51.40625 34.796875 
Q 51.40625 38.703125 51.203125 42.890625 
Q 51 47.09375 50.203125 51.09375 
Q 49.40625 55.09375 47.90625 58.6875 
Q 46.40625 62.296875 43.796875 65 
Q 41.203125 67.703125 37.25 69.296875 
Q 33.296875 70.90625 27.796875 70.90625 
Q 22.296875 70.90625 18.34375 69.296875 
Q 14.40625 67.703125 11.796875 65 
Q 9.203125 62.296875 7.703125 58.6875 
Q 6.203125 55.09375 5.390625 51.09375 
Q 4.59375 47.09375 4.390625 42.890625 
Q 4.203125 38.703125 4.203125 34.796875 
z
" id="HelveticaNeue-48"/>
        <path d="M 35.59375 0 
L 35.59375 70.90625 
L 29.09375 70.90625 
Q 28.40625 66.90625 26.5 64.296875 
Q 24.59375 61.703125 21.84375 60.203125 
Q 19.09375 58.703125 15.6875 58.140625 
Q 12.296875 57.59375 8.703125 57.59375 
L 8.703125 50.796875 
L 27.09375 50.796875 
L 27.09375 0 
z
" id="HelveticaNeue-49"/>
       </defs>
       <use xlink:href="#HelveticaNeue-50"/>
       <use x="55.599991" xlink:href="#HelveticaNeue-48"/>
       <use x="111.199982" xlink:href="#HelveticaNeue-50"/>
       <use x="166.799973" xlink:href="#HelveticaNeue-49"/>
      </g>
     </g>
    </g>
    <g id="xtick_6">
     <g id="line2d_6">
      <g>
       <use style="fill:#555555;stroke:#555555;stroke-width:0.8;" x="370.409751" xlink:href="#m9b9f18636b" y="262.5"/>
      </g>
     </g>
     <g id="text_5">
      <!-- Apr -->
      <g style="fill:#555555;" transform="translate(362.54022 276.640625)scale(0.1 -0.1)">
       <use xlink:href="#HelveticaNeue-65"/>
       <use x="64.799988" xlink:href="#HelveticaNeue-112"/>
       <use x="124.099976" xlink:href="#HelveticaNeue-114"/>
      </g>
     </g>
    </g>
    <g id="xtick_7">
     <g id="line2d_7">
      <g>
       <use style="fill:#555555;stroke:#555555;stroke-width:0.8;" x="443.568465" xlink:href="#m9b9f18636b" y="262.5"/>
      </g>
     </g>
     <g id="text_6">
      <!-- Jul -->
      <g style="fill:#555555;" transform="translate(437.083308 276.640625)scale(0.1 -0.1)">
       <use xlink:href="#HelveticaNeue-74"/>
       <use x="51.899994" xlink:href="#HelveticaNeue-117"/>
       <use x="107.499985" xlink:href="#HelveticaNeue-108"/>
      </g>
     </g>
    </g>
    <g id="xtick_8">
     <g id="line2d_8">
      <g>
       <use style="fill:#555555;stroke:#555555;stroke-width:0.8;" x="450" xlink:href="#m9b9f18636b" y="262.5"/>
      </g>
     </g>
    </g>
    <g id="xtick_9">
     <g id="line2d_9">
      <defs>
       <path d="M 0 0 
L 0 2 
" id="m82ac09ba5e" style="stroke:#555555;stroke-width:0.6;"/>
      </defs>
      <g>
       <use style="fill:#555555;stroke:#555555;stroke-width:0.6;" x="101.089212" xlink:href="#m82ac09ba5e" y="262.5"/>
      </g>
     </g>
    </g>
    <g id="xtick_10">
     <g id="line2d_10">
      <g>
       <use style="fill:#555555;stroke:#555555;stroke-width:0.6;" x="126.011411" xlink:href="#m82ac09ba5e" y="262.5"/>
      </g>
     </g>
    </g>
    <g id="xtick_11">
     <g id="line2d_11">
      <g>
       <use style="fill:#555555;stroke:#555555;stroke-width:0.6;" x="175.051867" xlink:href="#m82ac09ba5e" y="262.5"/>
      </g>
     </g>
    </g>
    <g id="xtick_12">
     <g id="line2d_12">
      <g>
       <use style="fill:#555555;stroke:#555555;stroke-width:0.6;" x="199.974066" xlink:href="#m82ac09ba5e" y="262.5"/>
      </g>
     </g>
    </g>
    <g id="xtick_13">
     <g id="line2d_13">
      <g>
       <use style="fill:#555555;stroke:#555555;stroke-width:0.6;" x="249.014523" xlink:href="#m82ac09ba5e" y="262.5"/>
      </g>
     </g>
    </g>
    <g id="xtick_14">
     <g id="line2d_14">
      <g>
       <use style="fill:#555555;stroke:#555555;stroke-width:0.6;" x="273.13278" xlink:href="#m82ac09ba5e" y="262.5"/>
      </g>
     </g>
    </g>
    <g id="xtick_15">
     <g id="line2d_15">
      <g>
       <use style="fill:#555555;stroke:#555555;stroke-width:0.6;" x="322.977178" xlink:href="#m82ac09ba5e" y="262.5"/>
      </g>
     </g>
    </g>
    <g id="xtick_16">
     <g id="line2d_16">
      <g>
       <use style="fill:#555555;stroke:#555555;stroke-width:0.6;" x="345.487552" xlink:href="#m82ac09ba5e" y="262.5"/>
      </g>
     </g>
    </g>
    <g id="xtick_17">
     <g id="line2d_17">
      <g>
       <use style="fill:#555555;stroke:#555555;stroke-width:0.6;" x="394.528008" xlink:href="#m82ac09ba5e" y="262.5"/>
      </g>
     </g>
    </g>
    <g id="xtick_18">
     <g id="line2d_18">
      <g>
       <use style="fill:#555555;stroke:#555555;stroke-width:0.6;" x="419.450207" xlink:href="#m82ac09ba5e" y="262.5"/>
      </g>
     </g>
    </g>
    <g id="text_7">
     <!-- fecha -->
     <g style="fill:#555555;" transform="translate(243.935156 300.290625)scale(0.1 -0.1)">
      <defs>
       <path d="M 9.90625 44.203125 
L 9.90625 0 
L 18.40625 0 
L 18.40625 44.203125 
L 28.40625 44.203125 
L 28.40625 51.703125 
L 18.40625 51.703125 
L 18.40625 58.90625 
Q 18.40625 62.296875 20.09375 63.5 
Q 21.796875 64.703125 24.90625 64.703125 
Q 26 64.703125 27.296875 64.546875 
Q 28.59375 64.40625 29.703125 64 
L 29.703125 71.40625 
Q 28.5 71.796875 26.953125 72 
Q 25.40625 72.203125 24.203125 72.203125 
Q 17.203125 72.203125 13.546875 68.953125 
Q 9.90625 65.703125 9.90625 59.40625 
L 9.90625 51.703125 
L 1.203125 51.703125 
L 1.203125 44.203125 
z
" id="HelveticaNeue-102"/>
       <path d="M 42.296875 30.796875 
L 12.59375 30.796875 
Q 12.796875 33.796875 13.890625 36.4375 
Q 15 39.09375 16.890625 41.09375 
Q 18.796875 43.09375 21.4375 44.25 
Q 24.09375 45.40625 27.40625 45.40625 
Q 30.59375 45.40625 33.25 44.25 
Q 35.90625 43.09375 37.84375 41.140625 
Q 39.796875 39.203125 40.9375 36.5 
Q 42.09375 33.796875 42.296875 30.796875 
z
M 50.5 16.40625 
L 42.09375 16.40625 
Q 41 11.296875 37.546875 8.796875 
Q 34.09375 6.296875 28.703125 6.296875 
Q 24.5 6.296875 21.390625 7.6875 
Q 18.296875 9.09375 16.296875 11.4375 
Q 14.296875 13.796875 13.390625 16.84375 
Q 12.5 19.90625 12.59375 23.296875 
L 51.296875 23.296875 
Q 51.5 28 50.453125 33.203125 
Q 49.40625 38.40625 46.65625 42.796875 
Q 43.90625 47.203125 39.34375 50.046875 
Q 34.796875 52.90625 27.90625 52.90625 
Q 22.59375 52.90625 18.140625 50.90625 
Q 13.703125 48.90625 10.453125 45.296875 
Q 7.203125 41.703125 5.390625 36.796875 
Q 3.59375 31.90625 3.59375 26 
Q 3.796875 20.09375 5.34375 15.09375 
Q 6.90625 10.09375 10 6.5 
Q 13.09375 2.90625 17.640625 0.90625 
Q 22.203125 -1.09375 28.40625 -1.09375 
Q 37.203125 -1.09375 43 3.296875 
Q 48.796875 7.703125 50.5 16.40625 
z
" id="HelveticaNeue-101"/>
       <path d="M 6.40625 71.40625 
L 6.40625 0 
L 14.90625 0 
L 14.90625 29.203125 
Q 14.90625 32.703125 15.84375 35.640625 
Q 16.796875 38.59375 18.6875 40.796875 
Q 20.59375 43 23.4375 44.203125 
Q 26.296875 45.40625 30.203125 45.40625 
Q 35.09375 45.40625 37.890625 42.59375 
Q 40.703125 39.796875 40.703125 35 
L 40.703125 0 
L 49.203125 0 
L 49.203125 34 
Q 49.203125 38.203125 48.34375 41.640625 
Q 47.5 45.09375 45.390625 47.59375 
Q 43.296875 50.09375 39.890625 51.5 
Q 36.5 52.90625 31.40625 52.90625 
Q 29.09375 52.90625 26.640625 52.40625 
Q 24.203125 51.90625 21.953125 50.84375 
Q 19.703125 49.796875 17.890625 48.140625 
Q 16.09375 46.5 15.09375 44.09375 
L 14.90625 44.09375 
L 14.90625 71.40625 
z
" id="HelveticaNeue-104"/>
      </defs>
      <use xlink:href="#HelveticaNeue-102"/>
      <use x="29.599991" xlink:href="#HelveticaNeue-101"/>
      <use x="83.299988" xlink:href="#HelveticaNeue-99"/>
      <use x="136.999985" xlink:href="#HelveticaNeue-104"/>
      <use x="192.599976" xlink:href="#HelveticaNeue-97"/>
     </g>
    </g>
   </g>
   <g id="matplotlib.axis_2">
    <g id="ytick_1">
     <g id="line2d_19">
      <defs>
       <path d="M 0 0 
L -3.5 0 
" id="me84e88cd23" style="stroke:#555555;stroke-width:0.8;"/>
      </defs>
      <g>
       <use style="fill:#555555;stroke:#555555;stroke-width:0.8;" x="62.5" xlink:href="#me84e88cd23" y="251.850462"/>
      </g>
     </g>
     <g id="text_8">
      <!-- 0 -->
      <g style="fill:#555555;" transform="translate(49.940625 255.420775)scale(0.1 -0.1)">
       <use xlink:href="#HelveticaNeue-48"/>
      </g>
     </g>
    </g>
    <g id="ytick_2">
     <g id="line2d_20">
      <g>
       <use style="fill:#555555;stroke:#555555;stroke-width:0.8;" x="62.5" xlink:href="#me84e88cd23" y="224.346492"/>
      </g>
     </g>
     <g id="text_9">
      <!-- 2000 -->
      <g style="fill:#555555;" transform="translate(33.2625 227.916804)scale(0.1 -0.1)">
       <use xlink:href="#HelveticaNeue-50"/>
       <use x="55.599991" xlink:href="#HelveticaNeue-48"/>
       <use x="111.199982" xlink:href="#HelveticaNeue-48"/>
       <use x="166.799973" xlink:href="#HelveticaNeue-48"/>
      </g>
     </g>
    </g>
    <g id="ytick_3">
     <g id="line2d_21">
      <g>
       <use style="fill:#555555;stroke:#555555;stroke-width:0.8;" x="62.5" xlink:href="#me84e88cd23" y="196.842521"/>
      </g>
     </g>
     <g id="text_10">
      <!-- 4000 -->
      <g style="fill:#555555;" transform="translate(33.2625 200.412833)scale(0.1 -0.1)">
       <defs>
        <path d="M 33.90625 24.09375 
L 10.09375 24.09375 
L 33.703125 58.796875 
L 33.90625 58.796875 
z
M 41.90625 24.09375 
L 41.90625 70.90625 
L 35.09375 70.90625 
L 2.796875 24.796875 
L 2.796875 16.59375 
L 33.90625 16.59375 
L 33.90625 0 
L 41.90625 0 
L 41.90625 16.59375 
L 51.5 16.59375 
L 51.5 24.09375 
z
" id="HelveticaNeue-52"/>
       </defs>
       <use xlink:href="#HelveticaNeue-52"/>
       <use x="55.599991" xlink:href="#HelveticaNeue-48"/>
       <use x="111.199982" xlink:href="#HelveticaNeue-48"/>
       <use x="166.799973" xlink:href="#HelveticaNeue-48"/>
      </g>
     </g>
    </g>
    <g id="ytick_4">
     <g id="line2d_22">
      <g>
       <use style="fill:#555555;stroke:#555555;stroke-width:0.8;" x="62.5" xlink:href="#me84e88cd23" y="169.33855"/>
      </g>
     </g>
     <g id="text_11">
      <!-- 6000 -->
      <g style="fill:#555555;" transform="translate(33.2625 172.908862)scale(0.1 -0.1)">
       <defs>
        <path d="M 41.40625 52.796875 
L 49.90625 52.796875 
Q 49.09375 61.59375 43.890625 66.25 
Q 38.703125 70.90625 29.90625 70.90625 
Q 22.296875 70.90625 17.296875 67.703125 
Q 12.296875 64.5 9.296875 59.203125 
Q 6.296875 53.90625 5.046875 47.046875 
Q 3.796875 40.203125 3.796875 32.90625 
Q 3.796875 27.296875 4.640625 21.296875 
Q 5.5 15.296875 8.09375 10.296875 
Q 10.703125 5.296875 15.5 2.09375 
Q 20.296875 -1.09375 28.203125 -1.09375 
Q 34.90625 -1.09375 39.453125 1.15625 
Q 44 3.40625 46.75 6.84375 
Q 49.5 10.296875 50.703125 14.5 
Q 51.90625 18.703125 51.90625 22.59375 
Q 51.90625 27.5 50.40625 31.703125 
Q 48.90625 35.90625 46.15625 39 
Q 43.40625 42.09375 39.34375 43.84375 
Q 35.296875 45.59375 30.203125 45.59375 
Q 24.40625 45.59375 19.953125 43.390625 
Q 15.5 41.203125 12.5 36.296875 
L 12.296875 36.5 
Q 12.40625 40.59375 13.09375 45.296875 
Q 13.796875 50 15.640625 54.046875 
Q 17.5 58.09375 20.796875 60.75 
Q 24.09375 63.40625 29.5 63.40625 
Q 34.59375 63.40625 37.6875 60.5 
Q 40.796875 57.59375 41.40625 52.796875 
z
M 28.59375 38.09375 
Q 32.203125 38.09375 34.890625 36.796875 
Q 37.59375 35.5 39.390625 33.34375 
Q 41.203125 31.203125 42.046875 28.25 
Q 42.90625 25.296875 42.90625 22 
Q 42.90625 18.90625 41.953125 16.046875 
Q 41 13.203125 39.203125 11 
Q 37.40625 8.796875 34.75 7.546875 
Q 32.09375 6.296875 28.59375 6.296875 
Q 25.09375 6.296875 22.34375 7.546875 
Q 19.59375 8.796875 17.75 10.890625 
Q 15.90625 13 14.90625 15.890625 
Q 13.90625 18.796875 13.90625 22.09375 
Q 13.90625 25.40625 14.84375 28.34375 
Q 15.796875 31.296875 17.6875 33.4375 
Q 19.59375 35.59375 22.296875 36.84375 
Q 25 38.09375 28.59375 38.09375 
z
" id="HelveticaNeue-54"/>
       </defs>
       <use xlink:href="#HelveticaNeue-54"/>
       <use x="55.599991" xlink:href="#HelveticaNeue-48"/>
       <use x="111.199982" xlink:href="#HelveticaNeue-48"/>
       <use x="166.799973" xlink:href="#HelveticaNeue-48"/>
      </g>
     </g>
    </g>
    <g id="ytick_5">
     <g id="line2d_23">
      <g>
       <use style="fill:#555555;stroke:#555555;stroke-width:0.8;" x="62.5" xlink:href="#me84e88cd23" y="141.834579"/>
      </g>
     </g>
     <g id="text_12">
      <!-- 8000 -->
      <g style="fill:#555555;" transform="translate(33.2625 145.404892)scale(0.1 -0.1)">
       <defs>
        <path d="M 15.5 52.5 
Q 15.5 55.203125 16.5 57.203125 
Q 17.5 59.203125 19.140625 60.59375 
Q 20.796875 62 23.09375 62.703125 
Q 25.40625 63.40625 27.90625 63.40625 
Q 33.09375 63.40625 36.4375 60.65625 
Q 39.796875 57.90625 39.796875 52.5 
Q 39.796875 47.09375 36.5 44.09375 
Q 33.203125 41.09375 28.09375 41.09375 
Q 25.5 41.09375 23.203125 41.796875 
Q 20.90625 42.5 19.203125 43.890625 
Q 17.5 45.296875 16.5 47.4375 
Q 15.5 49.59375 15.5 52.5 
z
M 6.5 52.796875 
Q 6.5 48 9.203125 43.953125 
Q 11.90625 39.90625 16.40625 38.09375 
Q 10.40625 36 7.203125 31.34375 
Q 4 26.703125 4 20.40625 
Q 4 15 5.84375 10.953125 
Q 7.703125 6.90625 10.953125 4.203125 
Q 14.203125 1.5 18.59375 0.203125 
Q 23 -1.09375 28.09375 -1.09375 
Q 33 -1.09375 37.296875 0.296875 
Q 41.59375 1.703125 44.75 4.453125 
Q 47.90625 7.203125 49.75 11.203125 
Q 51.59375 15.203125 51.59375 20.40625 
Q 51.59375 27 48.5 31.546875 
Q 45.40625 36.09375 39 38.09375 
Q 43.5 40.09375 46.140625 44.046875 
Q 48.796875 48 48.796875 52.796875 
Q 48.796875 56.203125 47.59375 59.453125 
Q 46.40625 62.703125 43.84375 65.25 
Q 41.296875 67.796875 37.1875 69.34375 
Q 33.09375 70.90625 27.296875 70.90625 
Q 23.203125 70.90625 19.453125 69.703125 
Q 15.703125 68.5 12.796875 66.203125 
Q 9.90625 63.90625 8.203125 60.546875 
Q 6.5 57.203125 6.5 52.796875 
z
M 13 20 
Q 13 23.09375 14.140625 25.59375 
Q 15.296875 28.09375 17.34375 29.890625 
Q 19.40625 31.703125 22.15625 32.640625 
Q 24.90625 33.59375 28 33.59375 
Q 31 33.59375 33.640625 32.546875 
Q 36.296875 31.5 38.296875 29.703125 
Q 40.296875 27.90625 41.4375 25.453125 
Q 42.59375 23 42.59375 20.09375 
Q 42.59375 17.09375 41.546875 14.59375 
Q 40.5 12.09375 38.546875 10.25 
Q 36.59375 8.40625 33.9375 7.34375 
Q 31.296875 6.296875 28.09375 6.296875 
Q 21.5 6.296875 17.25 9.9375 
Q 13 13.59375 13 20 
z
" id="HelveticaNeue-56"/>
       </defs>
       <use xlink:href="#HelveticaNeue-56"/>
       <use x="55.599991" xlink:href="#HelveticaNeue-48"/>
       <use x="111.199982" xlink:href="#HelveticaNeue-48"/>
       <use x="166.799973" xlink:href="#HelveticaNeue-48"/>
      </g>
     </g>
    </g>
    <g id="ytick_6">
     <g id="line2d_24">
      <g>
       <use style="fill:#555555;stroke:#555555;stroke-width:0.8;" x="62.5" xlink:href="#me84e88cd23" y="114.330608"/>
      </g>
     </g>
     <g id="text_13">
      <!-- 10000 -->
      <g style="fill:#555555;" transform="translate(27.703125 117.900921)scale(0.1 -0.1)">
       <use xlink:href="#HelveticaNeue-49"/>
       <use x="55.599991" xlink:href="#HelveticaNeue-48"/>
       <use x="111.199982" xlink:href="#HelveticaNeue-48"/>
       <use x="166.799973" xlink:href="#HelveticaNeue-48"/>
       <use x="222.399963" xlink:href="#HelveticaNeue-48"/>
      </g>
     </g>
    </g>
    <g id="ytick_7">
     <g id="line2d_25">
      <g>
       <use style="fill:#555555;stroke:#555555;stroke-width:0.8;" x="62.5" xlink:href="#me84e88cd23" y="86.826637"/>
      </g>
     </g>
     <g id="text_14">
      <!-- 12000 -->
      <g style="fill:#555555;" transform="translate(27.703125 90.39695)scale(0.1 -0.1)">
       <use xlink:href="#HelveticaNeue-49"/>
       <use x="55.599991" xlink:href="#HelveticaNeue-50"/>
       <use x="111.199982" xlink:href="#HelveticaNeue-48"/>
       <use x="166.799973" xlink:href="#HelveticaNeue-48"/>
       <use x="222.399963" xlink:href="#HelveticaNeue-48"/>
      </g>
     </g>
    </g>
    <g id="ytick_8">
     <g id="line2d_26">
      <g>
       <use style="fill:#555555;stroke:#555555;stroke-width:0.8;" x="62.5" xlink:href="#me84e88cd23" y="59.322667"/>
      </g>
     </g>
     <g id="text_15">
      <!-- 14000 -->
      <g style="fill:#555555;" transform="translate(27.703125 62.892979)scale(0.1 -0.1)">
       <use xlink:href="#HelveticaNeue-49"/>
       <use x="55.599991" xlink:href="#HelveticaNeue-52"/>
       <use x="111.199982" xlink:href="#HelveticaNeue-48"/>
       <use x="166.799973" xlink:href="#HelveticaNeue-48"/>
       <use x="222.399963" xlink:href="#HelveticaNeue-48"/>
      </g>
     </g>
    </g>
    <g id="ytick_9">
     <g id="line2d_27">
      <g>
       <use style="fill:#555555;stroke:#555555;stroke-width:0.8;" x="62.5" xlink:href="#me84e88cd23" y="31.818696"/>
      </g>
     </g>
     <g id="text_16">
      <!-- 16000 -->
      <g style="fill:#555555;" transform="translate(27.703125 35.389008)scale(0.1 -0.1)">
       <use xlink:href="#HelveticaNeue-49"/>
       <use x="55.599991" xlink:href="#HelveticaNeue-54"/>
       <use x="111.199982" xlink:href="#HelveticaNeue-48"/>
       <use x="166.799973" xlink:href="#HelveticaNeue-48"/>
       <use x="222.399963" xlink:href="#HelveticaNeue-48"/>
      </g>
     </g>
    </g>
   </g>
   <g id="line2d_28">
    <path clip-path="url(#pd56a13c41d)" d="M 63.303942 251.712943 
L 65.715768 251.781703 
L 66.51971 251.740447 
L 67.323651 251.479159 
L 68.127593 251.781703 
L 68.931535 251.795455 
L 69.735477 251.451655 
L 70.539419 251.286631 
L 71.343361 251.657935 
L 72.147303 251.754199 
L 72.951245 251.327887 
L 74.559129 251.396647 
L 75.363071 251.094103 
L 76.167012 251.300383 
L 76.970954 250.736552 
L 77.774896 250.915327 
L 78.578838 251.245375 
L 79.38278 250.420256 
L 80.186722 251.437903 
L 80.990664 251.149111 
L 81.794606 250.695296 
L 82.598548 250.062704 
L 83.40249 251.355391 
L 84.206432 250.640288 
L 85.010373 251.245375 
L 85.814315 251.589175 
L 87.422199 251.355391 
L 88.226141 251.190367 
L 89.030083 251.259127 
L 89.834025 251.039095 
L 91.441909 250.213976 
L 92.245851 250.764056 
L 93.049793 250.832816 
L 93.853734 250.695296 
L 94.657676 251.204119 
L 95.461618 249.388857 
L 96.26556 250.626536 
L 97.069502 250.58528 
L 97.873444 250.406504 
L 98.677386 250.970335 
L 99.481328 250.021448 
L 100.28527 250.626536 
L 101.089212 249.828921 
L 101.893154 250.874072 
L 102.697095 250.31024 
L 103.501037 250.10396 
L 104.304979 249.196329 
L 105.108921 249.100065 
L 105.912863 250.062704 
L 106.716805 248.756266 
L 107.520747 248.962546 
L 108.324689 250.10396 
L 109.128631 249.787665 
L 109.932573 248.30245 
L 110.736515 250.17272 
L 111.540456 248.976298 
L 112.344398 250.268984 
L 113.14834 248.027411 
L 114.756224 249.141321 
L 115.560166 248.880034 
L 116.364108 248.37121 
L 117.16805 250.17272 
L 117.971992 247.999907 
L 118.775934 246.597204 
L 119.579876 248.591242 
L 120.383817 249.430113 
L 121.187759 246.968508 
L 121.991701 247.656107 
L 122.795643 245.11199 
L 123.599585 243.214216 
L 125.207469 247.037268 
L 126.011411 246.583452 
L 126.815353 246.748476 
L 127.619295 244.891958 
L 128.423237 244.49315 
L 129.227178 246.322164 
L 130.03112 246.679716 
L 130.835062 247.504835 
L 131.639004 245.799589 
L 132.442946 246.624708 
L 133.246888 246.074629 
L 134.05083 246.253404 
L 134.854772 246.29466 
L 135.658714 244.726934 
L 136.462656 243.888063 
L 137.266598 246.789732 
L 138.070539 245.868349 
L 138.874481 244.259367 
L 140.482365 237.548398 
L 141.286307 244.603166 
L 142.090249 238.909844 
L 142.894191 240.408811 
L 143.698133 239.927491 
L 144.502075 238.648556 
L 145.306017 234.385441 
L 146.109959 239.473676 
L 146.9139 230.232341 
L 147.717842 240.68385 
L 148.521784 232.693947 
L 149.325726 242.017793 
L 150.129668 232.625187 
L 150.93361 233.904122 
L 151.737552 232.583931 
L 152.541494 236.269463 
L 153.345436 234.165409 
L 154.149378 236.998318 
L 154.95332 229.819782 
L 155.757261 231.47002 
L 156.561203 229.792278 
L 157.365145 214.665094 
L 158.169087 217.731787 
L 158.973029 222.765013 
L 159.776971 229.420974 
L 160.580913 226.436793 
L 161.384855 225.432898 
L 162.188797 227.495696 
L 162.992739 222.820021 
L 163.79668 231.387508 
L 164.600622 212.396016 
L 165.404564 219.808336 
L 166.208506 220.770975 
L 167.81639 200.266765 
L 168.620332 206.620182 
L 169.424274 206.565174 
L 170.228216 210.126939 
L 171.032158 215.545221 
L 171.8361 189.237673 
L 173.443983 210.374474 
L 174.247925 200.720581 
L 175.051867 214.70635 
L 175.855809 188.770105 
L 176.659751 220.165888 
L 177.463693 220.715967 
L 179.071577 168.444671 
L 179.875519 215.723997 
L 180.679461 203.911041 
L 181.483402 205.231232 
L 182.287344 205.355 
L 183.091286 183.640615 
L 183.895228 195.151027 
L 184.69917 199.05659 
L 185.503112 189.870264 
L 186.307054 193.817084 
L 187.110996 188.302538 
L 187.914938 205.465016 
L 188.71888 187.848722 
L 189.522822 182.884256 
L 190.326763 207.637829 
L 191.130705 221.114775 
L 191.934647 193.184493 
L 192.738589 221.967398 
L 193.542531 190.956671 
L 194.346473 217.663027 
L 195.150415 194.477179 
L 195.954357 217.291723 
L 196.758299 221.77487 
L 197.562241 205.946335 
L 198.366183 226.436793 
L 199.170124 223.658892 
L 199.974066 219.76708 
L 200.778008 210.291963 
L 201.58195 211.557145 
L 202.385892 222.132422 
L 203.189834 227.303169 
L 203.993776 218.556906 
L 204.797718 224.016444 
L 205.60166 222.682501 
L 206.405602 220.537192 
L 207.209544 222.930037 
L 208.013485 227.179401 
L 208.817427 224.016444 
L 209.621369 224.992835 
L 210.425311 228.224552 
L 211.229253 232.033851 
L 212.033195 231.415012 
L 212.837137 220.303408 
L 213.641079 231.731308 
L 214.445021 227.165649 
L 215.248963 226.725585 
L 216.052905 224.965331 
L 216.856846 226.505553 
L 217.660788 230.342357 
L 218.46473 233.601578 
L 219.268672 230.548637 
L 220.072614 218.873201 
L 220.876556 233.739098 
L 221.680498 234.069145 
L 222.48444 230.837429 
L 223.288382 223.906428 
L 224.092324 233.68409 
L 224.896266 231.786316 
L 225.700207 230.562389 
L 226.504149 233.354042 
L 227.308091 224.208972 
L 228.112033 218.735682 
L 228.915975 220.440928 
L 229.719917 234.564217 
L 230.523859 223.933932 
L 231.327801 231.373756 
L 232.131743 230.754917 
L 232.935685 237.795933 
L 233.739627 231.772564 
L 234.543568 235.196808 
L 235.34751 232.418907 
L 236.151452 237.135838 
L 236.955394 230.369861 
L 237.759336 230.163581 
L 238.563278 238.084725 
L 239.36722 230.631149 
L 240.171162 216.686636 
L 240.975104 220.207144 
L 241.779046 230.631149 
L 242.582988 217.030435 
L 243.386929 234.522961 
L 244.190871 235.375584 
L 244.994813 226.546809 
L 245.798755 227.894504 
L 246.602697 211.24085 
L 247.406639 227.509448 
L 248.210581 221.637351 
L 249.014523 232.762707 
L 249.818465 232.501419 
L 250.622407 231.827572 
L 252.23029 221.403567 
L 253.034232 221.183535 
L 253.838174 229.187191 
L 254.642116 234.729241 
L 255.446058 230.149829 
L 256.25 229.654758 
L 257.053942 222.53123 
L 257.857884 221.568591 
L 258.661826 231.95134 
L 259.465768 227.550704 
L 260.26971 238.841084 
L 261.073651 235.55436 
L 261.877593 230.204837 
L 262.681535 218.735682 
L 263.485477 225.501658 
L 264.289419 225.432898 
L 265.093361 239.446172 
L 265.897303 216.260324 
L 266.701245 242.127809 
L 267.505187 220.138384 
L 268.309129 222.283694 
L 269.113071 213.743711 
L 269.917012 216.535364 
L 270.720954 218.391882 
L 271.524896 225.72169 
L 272.328838 234.853009 
L 273.936722 214.940134 
L 274.740664 213.234887 
L 275.544606 230.424869 
L 276.348548 208.394189 
L 277.15249 228.362071 
L 277.956432 227.564456 
L 278.760373 215.008894 
L 279.564315 232.748955 
L 281.172199 208.916764 
L 281.976141 214.183774 
L 282.780083 217.442995 
L 283.584025 224.649035 
L 284.387967 196.14117 
L 285.191909 212.079721 
L 285.995851 196.031154 
L 286.799793 208.792996 
L 287.603734 194.710963 
L 288.407676 209.755635 
L 289.211618 235.1418 
L 290.01556 204.571137 
L 290.819502 180.188866 
L 292.427386 193.872092 
L 293.231328 224.704043 
L 294.03527 208.737988 
L 294.839212 220.220896 
L 295.643154 187.092363 
L 296.447095 183.736879 
L 297.251037 166.010569 
L 298.858921 224.250228 
L 299.662863 211.117082 
L 300.466805 182.966767 
L 301.270747 179.019948 
L 302.074689 172.212715 
L 302.878631 177.988549 
L 303.682573 167.867087 
L 304.486515 166.643161 
L 305.290456 192.826941 
L 306.094398 191.905558 
L 306.89834 210.539498 
L 307.702282 187.078611 
L 308.506224 145.808903 
L 309.310166 135.74245 
L 310.114108 187.518675 
L 310.91805 179.913827 
L 311.721992 198.176463 
L 312.525934 169.489822 
L 313.329876 173.835449 
L 314.133817 195.93489 
L 314.937759 168.320903 
L 315.741701 174.921856 
L 316.545643 196.416209 
L 317.349585 196.980041 
L 318.153527 206.922726 
L 318.957469 202.494587 
L 320.565353 214.348798 
L 321.369295 218.776938 
L 322.173237 202.082027 
L 322.977178 219.327017 
L 323.78112 209.961915 
L 324.585062 210.016923 
L 325.389004 206.991486 
L 326.192946 226.285522 
L 326.996888 224.635283 
L 327.80083 230.424869 
L 328.604772 238.717316 
L 329.408714 233.876618 
L 330.212656 231.043709 
L 331.016598 227.784488 
L 331.820539 229.022167 
L 332.624481 233.794106 
L 333.428423 235.925663 
L 334.232365 237.534646 
L 335.036307 233.079002 
L 335.840249 214.390054 
L 336.644191 234.701737 
L 337.448133 236.420735 
L 338.252075 236.929558 
L 339.056017 236.186951 
L 339.859959 236.585759 
L 340.6639 238.964852 
L 341.467842 235.169304 
L 342.271784 237.465886 
L 343.075726 239.253644 
L 343.879668 237.727173 
L 344.68361 241.000146 
L 345.487552 242.114057 
L 346.291494 239.171132 
L 347.095436 239.996251 
L 347.899378 241.962785 
L 348.70332 242.127809 
L 349.507261 240.491323 
L 350.311203 239.844979 
L 351.115145 244.809446 
L 351.919087 244.011831 
L 352.723029 242.444104 
L 353.526971 237.28711 
L 354.330913 240.147523 
L 355.134855 241.44021 
L 355.938797 241.577729 
L 356.742739 245.593309 
L 357.54668 241.013898 
L 358.350622 241.880273 
L 359.154564 240.89013 
L 359.958506 239.418668 
L 360.762448 216.150308 
L 361.56639 238.469781 
L 362.370332 243.062944 
L 363.174274 240.161275 
L 363.978216 239.336156 
L 364.782158 236.94331 
L 365.5861 232.707699 
L 366.390041 238.002213 
L 367.193983 237.465886 
L 368.801867 230.122326 
L 369.605809 230.383613 
L 370.409751 229.049671 
L 371.213693 227.028129 
L 372.017635 232.542675 
L 372.821577 233.574074 
L 373.625519 236.228207 
L 374.429461 221.073519 
L 375.233402 222.696253 
L 376.037344 216.205316 
L 376.841286 213.482423 
L 377.645228 228.403327 
L 378.44917 195.604842 
L 379.253112 206.496415 
L 380.057054 204.474873 
L 380.860996 201.13314 
L 381.664938 192.606909 
L 383.272822 199.60667 
L 384.076763 191.616766 
L 384.880705 222.091166 
L 385.684647 193.129485 
L 386.488589 191.437991 
L 387.292531 164.291571 
L 388.096473 187.381155 
L 388.900415 192.029326 
L 389.704357 203.457226 
L 390.508299 199.249118 
L 391.312241 195.838626 
L 392.116183 186.10222 
L 392.920124 197.310088 
L 394.528008 177.190934 
L 395.33195 191.382983 
L 396.135892 208.600468 
L 396.939834 186.198484 
L 397.743776 196.209929 
L 398.547718 186.913587 
L 399.35166 173.464146 
L 400.155602 179.652539 
L 400.959544 173.202858 
L 401.763485 204.282345 
L 402.567427 176.40707 
L 403.371369 183.008023 
L 404.175311 145.492607 
L 404.979253 190.915415 
L 405.783195 188.687593 
L 406.587137 175.306912 
L 407.391079 210.773282 
L 408.195021 197.035049 
L 408.998963 187.738706 
L 409.802905 184.328214 
L 410.606846 173.849201 
L 411.410788 177.314701 
L 412.21473 142.645946 
L 413.018672 181.660329 
L 413.822614 143.457313 
L 414.626556 139.620509 
L 415.430498 118.552468 
L 416.23444 136.223769 
L 417.038382 131.946902 
L 417.842324 152.863671 
L 418.646266 147.129093 
L 419.450207 169.434814 
L 420.254149 107.193328 
L 421.058091 107.399608 
L 421.862033 95.174093 
L 422.665975 107.482119 
L 423.469917 135.714946 
L 424.273859 136.168761 
L 425.077801 155.792844 
L 425.881743 125.923532 
L 426.685685 104.745474 
L 427.489627 107.839671 
L 428.293568 112.721626 
L 429.09751 127.766298 
L 429.901452 136.320033 
L 430.705394 147.734181 
L 431.509336 135.921225 
L 432.313278 80.074413 
L 433.11722 98.722105 
L 433.921162 90.553425 
L 435.529046 147.569157 
L 436.332988 144.117409 
L 437.136929 123.228143 
L 437.940871 37.704545 
L 438.744813 118.346188 
L 439.548755 100.028543 
L 440.352697 154.390142 
L 441.156639 122.059224 
L 441.960581 123.489431 
L 442.764523 93.688878 
L 443.568465 93.028783 
L 444.372407 130.090384 
L 445.176349 139.48299 
L 445.98029 157.140539 
L 446.784232 159.767168 
L 447.588174 135.027346 
L 448.392116 158.199442 
L 449.196058 175.870743 
L 450 163.026389 
L 450 163.026389 
" style="fill:none;stroke:#000000;stroke-dasharray:1.5,2.475;stroke-dashoffset:0;stroke-opacity:0.5;stroke-width:1.5;"/>
   </g>
   <g id="line2d_29">
    <path clip-path="url(#pd56a13c41d)" d="M 62.5 251.740447 
L 66.51971 251.726695 
L 76.167012 251.135359 
L 77.774896 250.997839 
L 79.38278 250.956583 
L 81.794606 250.832816 
L 85.010373 251.135359 
L 85.814315 251.286631 
L 88.226141 251.245375 
L 89.834025 250.929079 
L 91.441909 250.750304 
L 92.245851 250.736552 
L 93.853734 250.571528 
L 96.26556 250.502768 
L 97.873444 250.420256 
L 99.481328 250.461512 
L 101.089212 250.379 
L 105.912863 249.416361 
L 109.128631 249.333849 
L 109.932573 249.485121 
L 113.14834 249.086313 
L 113.952282 248.866282 
L 114.756224 248.962546 
L 116.364108 248.632498 
L 118.775934 248.288698 
L 119.579876 248.151178 
L 122.795643 246.170893 
L 123.599585 245.785837 
L 124.403527 245.799589 
L 125.207469 245.662069 
L 126.011411 245.689573 
L 126.815353 245.937109 
L 130.835062 246.322164 
L 131.639004 246.487188 
L 132.442946 246.43218 
L 133.246888 246.198396 
L 134.05083 245.772085 
L 135.658714 245.620813 
L 136.462656 245.414533 
L 137.266598 244.850702 
L 138.070539 243.791799 
L 138.874481 243.406743 
L 141.286307 240.862626 
L 142.090249 240.257539 
L 142.894191 239.473676 
L 143.698133 239.322404 
L 144.502075 237.644662 
L 145.306017 237.438382 
L 146.109959 236.475743 
L 146.9139 236.572007 
L 147.717842 236.118191 
L 148.521784 236.063183 
L 149.325726 235.334328 
L 150.129668 235.636872 
L 150.93361 234.839257 
L 151.737552 235.114296 
L 152.541494 234.000385 
L 153.345436 233.835362 
L 154.149378 233.230274 
L 154.95332 230.961197 
L 155.757261 228.155792 
L 156.561203 225.886714 
L 157.365145 224.360244 
L 158.169087 223.78266 
L 158.973029 223.438861 
L 159.776971 223.85142 
L 161.384855 226.478049 
L 162.188797 225.377891 
L 162.992739 223.98894 
L 163.79668 222.888781 
L 164.600622 220.853487 
L 165.404564 217.346731 
L 166.208506 214.527574 
L 167.012448 211.10333 
L 167.81639 209.948163 
L 168.620332 209.09554 
L 169.424274 206.152615 
L 170.228216 204.87368 
L 171.032158 205.327496 
L 171.8361 204.309849 
L 172.640041 204.832424 
L 173.443983 202.920898 
L 174.247925 203.677258 
L 175.051867 207.307782 
L 175.855809 207.22527 
L 176.659751 202.962154 
L 177.463693 203.113426 
L 178.267635 201.311916 
L 179.071577 202.137035 
L 179.875519 200.748085 
L 180.679461 198.038944 
L 181.483402 198.492759 
L 182.287344 200.528053 
L 183.091286 197.158816 
L 183.895228 195.508578 
L 184.69917 193.51454 
L 185.503112 193.569548 
L 186.307054 194.119628 
L 187.110996 192.785685 
L 187.914938 193.473284 
L 188.71888 196.952537 
L 189.522822 198.01144 
L 190.326763 202.260803 
L 191.130705 202.260803 
L 191.934647 205.808815 
L 192.738589 206.88147 
L 194.346473 207.775349 
L 195.150415 209.576859 
L 195.954357 210.883298 
L 196.758299 214.995142 
L 197.562241 216.287828 
L 198.366183 218.295618 
L 199.170124 217.621771 
L 199.974066 217.401739 
L 200.778008 219.134489 
L 201.58195 218.488146 
L 202.385892 219.024473 
L 203.189834 220.028368 
L 203.993776 221.458575 
L 204.797718 222.544982 
L 205.60166 222.971293 
L 206.405602 222.875029 
L 208.013485 224.346492 
L 208.817427 225.625426 
L 209.621369 227.124393 
L 210.425311 227.220657 
L 211.229253 227.784488 
L 212.033195 228.14204 
L 212.837137 228.169544 
L 213.641079 227.646968 
L 214.445021 226.959369 
L 215.248963 226.876857 
L 216.052905 228.2108 
L 216.856846 228.417079 
L 217.660788 227.922008 
L 218.46473 228.595855 
L 219.268672 229.475982 
L 220.072614 229.957302 
L 220.876556 229.420974 
L 221.680498 229.503486 
L 222.48444 229.861038 
L 223.288382 230.961197 
L 224.092324 230.919941 
L 224.896266 230.108574 
L 225.700207 228.815887 
L 226.504149 227.770736 
L 227.308091 227.083137 
L 228.112033 226.010482 
L 228.915975 226.051738 
L 229.719917 226.285522 
L 231.327801 230.273597 
L 232.131743 232.088859 
L 232.935685 232.322643 
L 233.739627 233.807858 
L 234.543568 233.82161 
L 236.151452 233.519066 
L 236.955394 233.367794 
L 238.563278 229.448478 
L 239.36722 228.00452 
L 240.171162 226.010482 
L 240.975104 225.79045 
L 241.779046 225.735442 
L 242.582988 226.175506 
L 243.386929 227.867 
L 244.994813 226.299274 
L 245.798755 225.941722 
L 246.602697 225.157859 
L 247.406639 225.061595 
L 248.210581 226.27177 
L 249.014523 227.083137 
L 249.818465 228.403327 
L 250.622407 227.564456 
L 251.426349 227.646968 
L 252.23029 227.413184 
L 253.034232 227.31692 
L 253.838174 227.619464 
L 255.446058 227.756984 
L 256.25 228.334567 
L 257.053942 227.770736 
L 257.857884 228.169544 
L 258.661826 229.283454 
L 259.465768 230.177333 
L 261.073651 230.273597 
L 261.877593 228.953407 
L 262.681535 229.39347 
L 263.485477 227.069385 
L 264.289419 227.825744 
L 265.093361 227.440688 
L 265.897303 227.839496 
L 266.701245 226.244266 
L 267.505187 224.360244 
L 268.309129 221.431071 
L 269.113071 221.458575 
L 269.917012 220.812231 
L 270.720954 222.132422 
L 272.328838 222.448718 
L 273.13278 223.383853 
L 273.936722 221.829878 
L 274.740664 221.321055 
L 275.544606 220.633456 
L 276.348548 220.124632 
L 277.15249 222.18743 
L 277.956432 223.163821 
L 278.760373 221.266047 
L 279.564315 221.211039 
L 280.368257 219.313265 
L 281.172199 218.501898 
L 282.780083 213.619943 
L 283.584025 210.787034 
L 284.387967 209.741883 
L 285.191909 206.798958 
L 285.995851 205.134968 
L 286.799793 206.400151 
L 287.603734 208.297925 
L 288.407676 206.001343 
L 289.211618 204.529881 
L 290.01556 201.628212 
L 290.819502 202.810882 
L 291.623444 202.137035 
L 292.427386 201.889499 
L 293.231328 202.247051 
L 294.03527 203.154682 
L 294.839212 199.771694 
L 295.643154 196.993793 
L 296.447095 195.082267 
L 297.251037 195.52233 
L 298.054979 193.693316 
L 298.858921 194.229644 
L 299.662863 193.005717 
L 300.466805 192.070582 
L 301.270747 186.528532 
L 302.074689 178.744908 
L 302.878631 176.008263 
L 303.682573 177.190934 
L 304.486515 181.577817 
L 305.290456 185.125829 
L 306.094398 183.475591 
L 306.89834 179.377499 
L 307.702282 178.263588 
L 308.506224 174.440537 
L 309.310166 173.986721 
L 310.114108 171.360092 
L 310.91805 172.267723 
L 311.721992 178.607388 
L 312.525934 181.935369 
L 313.329876 180.175114 
L 314.133817 181.330281 
L 314.937759 181.880361 
L 316.545643 191.066687 
L 317.349585 194.408419 
L 318.957469 206.221375 
L 319.761411 207.802853 
L 320.565353 210.48449 
L 322.173237 212.079721 
L 322.977178 211.694665 
L 324.585062 213.812471 
L 327.80083 228.320815 
L 328.604772 231.002453 
L 329.408714 231.373756 
L 330.212656 231.992596 
L 331.016598 232.253883 
L 331.820539 232.281387 
L 332.624481 232.666443 
L 333.428423 231.318748 
L 335.036307 231.772564 
L 335.840249 231.88258 
L 336.644191 232.157619 
L 337.448133 232.762707 
L 338.252075 234.179161 
L 339.056017 236.530751 
L 341.467842 237.328366 
L 342.271784 237.905949 
L 343.075726 238.648556 
L 343.879668 238.978604 
L 345.487552 240.202531 
L 347.095436 240.945138 
L 347.899378 240.862626 
L 348.70332 241.178922 
L 349.507261 241.784009 
L 350.311203 242.182817 
L 351.919087 241.577729 
L 354.330913 241.398954 
L 355.134855 241.316442 
L 355.938797 241.522721 
L 356.742739 241.990289 
L 357.54668 241.852769 
L 358.350622 238.978604 
L 359.154564 237.603406 
L 359.958506 236.572007 
L 360.762448 236.241959 
L 361.56639 236.255711 
L 362.370332 236.489495 
L 363.174274 236.475743 
L 363.978216 238.428525 
L 364.782158 237.947205 
L 369.605809 231.098716 
L 370.409751 230.548637 
L 371.213693 230.974949 
L 372.017635 230.383613 
L 372.821577 229.53099 
L 373.625519 227.756984 
L 374.429461 225.336635 
L 375.233402 223.7139 
L 376.037344 219.161993 
L 376.841286 215.256429 
L 377.645228 212.56104 
L 380.860996 199.53791 
L 381.664938 198.589023 
L 382.46888 199.799198 
L 384.076763 198.891567 
L 384.880705 195.852378 
L 386.488589 191.025431 
L 387.292531 190.860407 
L 388.096473 189.017641 
L 388.900415 190.612871 
L 389.704357 191.534254 
L 390.508299 195.054763 
L 391.312241 194.752219 
L 392.920124 190.337832 
L 393.724066 190.860407 
L 394.528008 190.351584 
L 395.33195 191.726782 
L 396.135892 191.314223 
L 396.939834 190.090296 
L 397.743776 189.278929 
L 398.547718 185.950948 
L 399.35166 184.50699 
L 400.959544 182.416688 
L 401.763485 178.538628 
L 402.567427 179.226227 
L 403.371369 179.349995 
L 404.175311 179.061204 
L 404.979253 180.28513 
L 405.783195 184.16319 
L 406.587137 186.789819 
L 407.391079 191.369231 
L 408.998963 187.573683 
L 410.606846 177.02591 
L 412.21473 163.466452 
L 413.018672 154.816453 
L 414.626556 141.697059 
L 415.430498 140.706916 
L 416.23444 137.323928 
L 417.038382 141.174484 
L 418.646266 138.65787 
L 420.254149 126.349844 
L 421.058091 121.289113 
L 421.862033 118.868763 
L 422.665975 119.240067 
L 423.469917 124.190782 
L 424.273859 126.18482 
L 425.077801 127.381242 
L 425.881743 125.896028 
L 426.685685 122.843087 
L 427.489627 121.591657 
L 428.293568 121.729176 
L 429.09751 125.112165 
L 429.901452 124.424566 
L 430.705394 122.650559 
L 432.313278 113.312961 
L 433.11722 112.501594 
L 433.921162 113.381721 
L 434.725104 115.705807 
L 435.529046 113.684265 
L 436.332988 114.083073 
L 437.136929 112.144043 
L 437.940871 113.010418 
L 438.744813 110.823852 
L 439.548755 111.387683 
L 440.352697 111.772739 
L 441.156639 117.108509 
L 441.960581 116.585934 
L 442.764523 118.923771 
L 443.568465 119.968922 
L 444.372407 126.638635 
L 445.176349 131.836886 
L 446.784232 150.718362 
L 447.588174 155.256517 
L 448.392116 158.061922 
L 450 160.427263 
L 450 160.427263 
" style="fill:none;stroke:#b3220f;stroke-linecap:square;stroke-width:1.5;"/>
   </g>
   <g id="patch_3">
    <path d="M 62.5 262.5 
L 62.5 27 
" style="fill:none;stroke:#555555;stroke-linecap:square;stroke-linejoin:miter;"/>
   </g>
   <g id="patch_4">
    <path d="M 62.5 262.5 
L 450 262.5 
" style="fill:none;stroke:#555555;stroke-linecap:square;stroke-linejoin:miter;"/>
   </g>
   <g id="text_17">
    <!-- Bogot D.C. | Casos nuevos 2021-07-09 -->
    <g style="fill:#555555;" transform="translate(129.306094 17)scale(0.14 -0.14)">
     <defs>
      <path d="M 17.296875 40.703125 
L 17.296875 63.40625 
L 36.296875 63.40625 
Q 39.40625 63.40625 42.15625 63.046875 
Q 44.90625 62.703125 47 61.5 
Q 49.09375 60.296875 50.296875 58.09375 
Q 51.5 55.90625 51.5 52.09375 
Q 51.5 46.40625 47.953125 43.546875 
Q 44.40625 40.703125 36.296875 40.703125 
z
M 7.796875 71.40625 
L 7.796875 0 
L 42.296875 0 
Q 47.59375 0 51.640625 1.75 
Q 55.703125 3.5 58.453125 6.34375 
Q 61.203125 9.203125 62.59375 12.890625 
Q 64 16.59375 64 20.5 
Q 64 27.09375 60.5 31.6875 
Q 57 36.296875 50.40625 37.703125 
L 50.40625 37.90625 
Q 55.5 39.90625 58.25 44.046875 
Q 61 48.203125 61 53.90625 
Q 61 59.296875 58.546875 63 
Q 56.09375 66.703125 52.59375 68.796875 
Q 51 69.796875 48.75 70.296875 
Q 46.5 70.796875 43.890625 71.046875 
Q 41.296875 71.296875 38.640625 71.34375 
Q 36 71.40625 33.703125 71.40625 
z
M 17.296875 8 
L 17.296875 32.703125 
L 39 32.703125 
Q 42 32.703125 44.796875 32.140625 
Q 47.59375 31.59375 49.75 30.25 
Q 51.90625 28.90625 53.203125 26.59375 
Q 54.5 24.296875 54.5 20.796875 
Q 54.5 14.796875 50.953125 11.390625 
Q 47.40625 8 41.09375 8 
z
" id="HelveticaNeue-66"/>
      <path d="M 12.59375 25.796875 
Q 12.59375 30.5 13.84375 34.140625 
Q 15.09375 37.796875 17.296875 40.296875 
Q 19.5 42.796875 22.453125 44.09375 
Q 25.40625 45.40625 28.703125 45.40625 
Q 32 45.40625 34.953125 44.09375 
Q 37.90625 42.796875 40.09375 40.296875 
Q 42.296875 37.796875 43.546875 34.140625 
Q 44.796875 30.5 44.796875 25.796875 
Q 44.796875 21.09375 43.546875 17.4375 
Q 42.296875 13.796875 40.09375 11.34375 
Q 37.90625 8.90625 34.953125 7.59375 
Q 32 6.296875 28.703125 6.296875 
Q 25.40625 6.296875 22.453125 7.59375 
Q 19.5 8.90625 17.296875 11.34375 
Q 15.09375 13.796875 13.84375 17.4375 
Q 12.59375 21.09375 12.59375 25.796875 
z
M 3.59375 25.796875 
Q 3.59375 20.09375 5.1875 15.1875 
Q 6.796875 10.296875 10 6.640625 
Q 13.203125 3 17.890625 0.953125 
Q 22.59375 -1.09375 28.703125 -1.09375 
Q 34.90625 -1.09375 39.546875 0.953125 
Q 44.203125 3 47.390625 6.640625 
Q 50.59375 10.296875 52.1875 15.1875 
Q 53.796875 20.09375 53.796875 25.796875 
Q 53.796875 31.5 52.1875 36.453125 
Q 50.59375 41.40625 47.390625 45.046875 
Q 44.203125 48.703125 39.546875 50.796875 
Q 34.90625 52.90625 28.703125 52.90625 
Q 22.59375 52.90625 17.890625 50.796875 
Q 13.203125 48.703125 10 45.046875 
Q 6.796875 41.40625 5.1875 36.453125 
Q 3.59375 31.5 3.59375 25.796875 
z
" id="HelveticaNeue-111"/>
      <path d="M 51 4.40625 
L 51 51.703125 
L 43 51.703125 
L 43 44.296875 
L 42.90625 44.296875 
Q 40.59375 48.59375 36.5 50.75 
Q 32.40625 52.90625 27.5 52.90625 
Q 20.796875 52.90625 16.1875 50.34375 
Q 11.59375 47.796875 8.796875 43.84375 
Q 6 39.90625 4.796875 35.046875 
Q 3.59375 30.203125 3.59375 25.59375 
Q 3.59375 20.296875 5.046875 15.546875 
Q 6.5 10.796875 9.390625 7.25 
Q 12.296875 3.703125 16.59375 1.59375 
Q 20.90625 -0.5 26.703125 -0.5 
Q 31.703125 -0.5 36.140625 1.75 
Q 40.59375 4 42.796875 8.796875 
L 43 8.796875 
L 43 5.40625 
Q 43 1.09375 42.140625 -2.5 
Q 41.296875 -6.09375 39.390625 -8.640625 
Q 37.5 -11.203125 34.59375 -12.640625 
Q 31.703125 -14.09375 27.5 -14.09375 
Q 25.40625 -14.09375 23.09375 -13.640625 
Q 20.796875 -13.203125 18.84375 -12.203125 
Q 16.90625 -11.203125 15.546875 -9.59375 
Q 14.203125 -8 14.09375 -5.703125 
L 5.59375 -5.703125 
Q 5.796875 -9.90625 7.796875 -12.796875 
Q 9.796875 -15.703125 12.84375 -17.5 
Q 15.90625 -19.296875 19.65625 -20.09375 
Q 23.40625 -20.90625 27 -20.90625 
Q 39.40625 -20.90625 45.203125 -14.59375 
Q 51 -8.296875 51 4.40625 
z
M 27.203125 6.90625 
Q 23 6.90625 20.203125 8.65625 
Q 17.40625 10.40625 15.703125 13.25 
Q 14 16.09375 13.296875 19.59375 
Q 12.59375 23.09375 12.59375 26.59375 
Q 12.59375 30.296875 13.4375 33.6875 
Q 14.296875 37.09375 16.140625 39.6875 
Q 18 42.296875 20.890625 43.84375 
Q 23.796875 45.40625 27.90625 45.40625 
Q 31.90625 45.40625 34.703125 43.796875 
Q 37.5 42.203125 39.25 39.546875 
Q 41 36.90625 41.796875 33.59375 
Q 42.59375 30.296875 42.59375 26.90625 
Q 42.59375 23.296875 41.75 19.6875 
Q 40.90625 16.09375 39.09375 13.25 
Q 37.296875 10.40625 34.34375 8.65625 
Q 31.40625 6.90625 27.203125 6.90625 
z
" id="HelveticaNeue-103"/>
      <path d="M 52.203125 0.203125 
Q 50 -1.09375 46.09375 -1.09375 
Q 42.796875 -1.09375 40.84375 0.75 
Q 38.90625 2.59375 38.90625 6.796875 
Q 35.40625 2.59375 30.75 0.75 
Q 26.09375 -1.09375 20.703125 -1.09375 
Q 17.203125 -1.09375 14.046875 -0.296875 
Q 10.90625 0.5 8.59375 2.203125 
Q 6.296875 3.90625 4.9375 6.65625 
Q 3.59375 9.40625 3.59375 13.296875 
Q 3.59375 17.703125 5.09375 20.5 
Q 6.59375 23.296875 9.046875 25.046875 
Q 11.5 26.796875 14.640625 27.6875 
Q 17.796875 28.59375 21.09375 29.203125 
Q 24.59375 29.90625 27.75 30.25 
Q 30.90625 30.59375 33.296875 31.25 
Q 35.703125 31.90625 37.09375 33.15625 
Q 38.5 34.40625 38.5 36.796875 
Q 38.5 39.59375 37.453125 41.296875 
Q 36.40625 43 34.75 43.890625 
Q 33.09375 44.796875 31.046875 45.09375 
Q 29 45.40625 27 45.40625 
Q 21.59375 45.40625 18 43.34375 
Q 14.40625 41.296875 14.09375 35.59375 
L 5.59375 35.59375 
Q 5.796875 40.40625 7.59375 43.703125 
Q 9.40625 47 12.40625 49.046875 
Q 15.40625 51.09375 19.25 52 
Q 23.09375 52.90625 27.5 52.90625 
Q 31 52.90625 34.453125 52.40625 
Q 37.90625 51.90625 40.703125 50.34375 
Q 43.5 48.796875 45.203125 46 
Q 46.90625 43.203125 46.90625 38.703125 
L 46.90625 12.09375 
Q 46.90625 9.09375 47.25 7.6875 
Q 47.59375 6.296875 49.59375 6.296875 
Q 50.703125 6.296875 52.203125 6.796875 
z
M 38.40625 26.703125 
Q 36.796875 25.5 34.1875 24.953125 
Q 31.59375 24.40625 28.75 24.046875 
Q 25.90625 23.703125 23 23.25 
Q 20.09375 22.796875 17.796875 21.796875 
Q 15.5 20.796875 14.046875 18.9375 
Q 12.59375 17.09375 12.59375 13.90625 
Q 12.59375 11.796875 13.4375 10.34375 
Q 14.296875 8.90625 15.640625 8 
Q 17 7.09375 18.796875 6.6875 
Q 20.59375 6.296875 22.59375 6.296875 
Q 26.796875 6.296875 29.796875 7.4375 
Q 32.796875 8.59375 34.6875 10.34375 
Q 36.59375 12.09375 37.5 14.140625 
Q 38.40625 16.203125 38.40625 18 
z
M 41.296875 77 
L 27.203125 60.796875 
L 20.796875 60.796875 
L 30.40625 77 
z
" id="HelveticaNeue-225"/>
      <path id="HelveticaNeue-32"/>
      <path d="M 17.296875 8 
L 17.296875 63.40625 
L 33.296875 63.40625 
Q 39.90625 63.40625 44.40625 61.546875 
Q 48.90625 59.703125 51.75 56.140625 
Q 54.59375 52.59375 55.84375 47.546875 
Q 57.09375 42.5 57.09375 36.09375 
Q 57.09375 29.5 55.75 24.84375 
Q 54.40625 20.203125 52.296875 17.09375 
Q 50.203125 14 47.546875 12.203125 
Q 44.90625 10.40625 42.203125 9.453125 
Q 39.5 8.5 37.09375 8.25 
Q 34.703125 8 33.09375 8 
z
M 7.796875 71.40625 
L 7.796875 0 
L 32.296875 0 
Q 41.203125 0 47.703125 2.5 
Q 54.203125 5 58.390625 9.75 
Q 62.59375 14.5 64.59375 21.453125 
Q 66.59375 28.40625 66.59375 37.40625 
Q 66.59375 54.59375 57.6875 63 
Q 48.796875 71.40625 32.296875 71.40625 
z
" id="HelveticaNeue-68"/>
      <path d="M 8.296875 11.09375 
L 8.296875 0 
L 19.40625 0 
L 19.40625 11.09375 
z
" id="HelveticaNeue-46"/>
      <path d="M 58 49.90625 
L 67.5 49.90625 
Q 66.703125 55.59375 64.09375 59.9375 
Q 61.5 64.296875 57.59375 67.1875 
Q 53.703125 70.09375 48.703125 71.59375 
Q 43.703125 73.09375 38.09375 73.09375 
Q 29.90625 73.09375 23.546875 70.140625 
Q 17.203125 67.203125 12.953125 62.09375 
Q 8.703125 57 6.5 50.140625 
Q 4.296875 43.296875 4.296875 35.5 
Q 4.296875 27.703125 6.34375 20.890625 
Q 8.40625 14.09375 12.5 9.09375 
Q 16.59375 4.09375 22.796875 1.25 
Q 29 -1.59375 37.296875 -1.59375 
Q 51 -1.59375 58.890625 5.90625 
Q 66.796875 13.40625 68.203125 26.90625 
L 58.703125 26.90625 
Q 58.40625 22.5 56.90625 18.703125 
Q 55.40625 14.90625 52.75 12.15625 
Q 50.09375 9.40625 46.4375 7.84375 
Q 42.796875 6.296875 38.09375 6.296875 
Q 31.703125 6.296875 27.09375 8.6875 
Q 22.5 11.09375 19.546875 15.140625 
Q 16.59375 19.203125 15.1875 24.640625 
Q 13.796875 30.09375 13.796875 36.203125 
Q 13.796875 41.796875 15.1875 47 
Q 16.59375 52.203125 19.546875 56.25 
Q 22.5 60.296875 27.046875 62.6875 
Q 31.59375 65.09375 38 65.09375 
Q 45.5 65.09375 50.953125 61.296875 
Q 56.40625 57.5 58 49.90625 
z
" id="HelveticaNeue-67"/>
      <path d="M 7.703125 78.59375 
L 7.703125 -21.296875 
L 14.5 -21.296875 
L 14.5 78.59375 
z
" id="HelveticaNeue-124"/>
      <path d="M 11.59375 16.296875 
L 3.09375 16.296875 
Q 3.296875 11.5 5.09375 8.140625 
Q 6.90625 4.796875 9.90625 2.75 
Q 12.90625 0.703125 16.796875 -0.1875 
Q 20.703125 -1.09375 25 -1.09375 
Q 28.90625 -1.09375 32.84375 -0.34375 
Q 36.796875 0.40625 39.9375 2.296875 
Q 43.09375 4.203125 45.046875 7.296875 
Q 47 10.40625 47 15.09375 
Q 47 18.796875 45.546875 21.296875 
Q 44.09375 23.796875 41.75 25.4375 
Q 39.40625 27.09375 36.34375 28.09375 
Q 33.296875 29.09375 30.09375 29.796875 
Q 27.09375 30.5 24.09375 31.140625 
Q 21.09375 31.796875 18.6875 32.75 
Q 16.296875 33.703125 14.75 35.140625 
Q 13.203125 36.59375 13.203125 38.796875 
Q 13.203125 40.796875 14.203125 42.046875 
Q 15.203125 43.296875 16.796875 44.046875 
Q 18.40625 44.796875 20.34375 45.09375 
Q 22.296875 45.40625 24.203125 45.40625 
Q 26.296875 45.40625 28.34375 44.953125 
Q 30.40625 44.5 32.09375 43.5 
Q 33.796875 42.5 34.890625 40.84375 
Q 36 39.203125 36.203125 36.703125 
L 44.703125 36.703125 
Q 44.40625 41.40625 42.703125 44.546875 
Q 41 47.703125 38.140625 49.546875 
Q 35.296875 51.40625 31.59375 52.15625 
Q 27.90625 52.90625 23.5 52.90625 
Q 20.09375 52.90625 16.640625 52.046875 
Q 13.203125 51.203125 10.453125 49.453125 
Q 7.703125 47.703125 5.953125 44.890625 
Q 4.203125 42.09375 4.203125 38.203125 
Q 4.203125 33.203125 6.703125 30.390625 
Q 9.203125 27.59375 12.953125 26.046875 
Q 16.703125 24.5 21.09375 23.640625 
Q 25.5 22.796875 29.25 21.75 
Q 33 20.703125 35.5 19 
Q 38 17.296875 38 14 
Q 38 11.59375 36.796875 10.046875 
Q 35.59375 8.5 33.75 7.703125 
Q 31.90625 6.90625 29.703125 6.59375 
Q 27.5 6.296875 25.5 6.296875 
Q 22.90625 6.296875 20.453125 6.796875 
Q 18 7.296875 16.046875 8.4375 
Q 14.09375 9.59375 12.890625 11.546875 
Q 11.703125 13.5 11.59375 16.296875 
z
" id="HelveticaNeue-115"/>
      <path d="M 29.703125 0 
L 48.59375 51.703125 
L 39.703125 51.703125 
L 25.59375 8.59375 
L 25.40625 8.59375 
L 10.90625 51.703125 
L 1.40625 51.703125 
L 20.59375 0 
z
" id="HelveticaNeue-118"/>
      <path d="M 5 31.796875 
L 5 23.796875 
L 33.90625 23.796875 
L 33.90625 31.796875 
z
" id="HelveticaNeue-45"/>
      <path d="M 50.90625 62.40625 
L 50.90625 69.703125 
L 5 69.703125 
L 5 61.703125 
L 42.203125 61.703125 
Q 36.59375 55.796875 31.75 48.796875 
Q 26.90625 41.796875 23.203125 33.9375 
Q 19.5 26.09375 17.140625 17.546875 
Q 14.796875 9 14.203125 0 
L 23.703125 0 
Q 24.203125 8.296875 26.5 17.09375 
Q 28.796875 25.90625 32.4375 34.203125 
Q 36.09375 42.5 40.796875 49.796875 
Q 45.5 57.09375 50.90625 62.40625 
z
" id="HelveticaNeue-55"/>
      <path d="M 13.40625 17.09375 
L 4.90625 17.09375 
Q 5.703125 7.90625 11.59375 3.40625 
Q 17.5 -1.09375 26.40625 -1.09375 
Q 39.296875 -1.09375 45.140625 8.75 
Q 51 18.59375 51 37 
Q 51 47.09375 49.046875 53.640625 
Q 47.09375 60.203125 43.796875 64 
Q 40.5 67.796875 36.09375 69.34375 
Q 31.703125 70.90625 26.703125 70.90625 
Q 21.59375 70.90625 17.296875 69.203125 
Q 13 67.5 9.890625 64.453125 
Q 6.796875 61.40625 5.09375 57.15625 
Q 3.40625 52.90625 3.40625 47.796875 
Q 3.40625 42.59375 4.84375 38.1875 
Q 6.296875 33.796875 9.140625 30.6875 
Q 12 27.59375 16.203125 25.84375 
Q 20.40625 24.09375 25.796875 24.09375 
Q 31 24.09375 35.390625 26.75 
Q 39.796875 29.40625 42.203125 33.90625 
L 42.40625 33.703125 
Q 42 19.796875 38.09375 13.046875 
Q 34.203125 6.296875 26.40625 6.296875 
Q 21.296875 6.296875 17.59375 9.09375 
Q 13.90625 11.90625 13.40625 17.09375 
z
M 40.90625 47.203125 
Q 40.90625 44.09375 39.90625 41.25 
Q 38.90625 38.40625 37 36.25 
Q 35.09375 34.09375 32.390625 32.84375 
Q 29.703125 31.59375 26.40625 31.59375 
Q 23.296875 31.59375 20.75 32.84375 
Q 18.203125 34.09375 16.34375 36.1875 
Q 14.5 38.296875 13.453125 41 
Q 12.40625 43.703125 12.40625 46.59375 
Q 12.40625 49.90625 13.15625 52.90625 
Q 13.90625 55.90625 15.546875 58.25 
Q 17.203125 60.59375 19.84375 62 
Q 22.5 63.40625 26.296875 63.40625 
Q 29.90625 63.40625 32.59375 62.09375 
Q 35.296875 60.796875 37.140625 58.546875 
Q 39 56.296875 39.953125 53.390625 
Q 40.90625 50.5 40.90625 47.203125 
z
" id="HelveticaNeue-57"/>
     </defs>
     <use xlink:href="#HelveticaNeue-66"/>
     <use x="68.499985" xlink:href="#HelveticaNeue-111"/>
     <use x="125.899979" xlink:href="#HelveticaNeue-103"/>
     <use x="183.299973" xlink:href="#HelveticaNeue-111"/>
     <use x="240.699966" xlink:href="#HelveticaNeue-116"/>
     <use x="272.199951" xlink:href="#HelveticaNeue-225"/>
     <use x="325.899948" xlink:href="#HelveticaNeue-32"/>
     <use x="353.699936" xlink:href="#HelveticaNeue-68"/>
     <use x="424.09993" xlink:href="#HelveticaNeue-46"/>
     <use x="451.899918" xlink:href="#HelveticaNeue-67"/>
     <use x="524.099899" xlink:href="#HelveticaNeue-46"/>
     <use x="551.899887" xlink:href="#HelveticaNeue-32"/>
     <use x="579.699875" xlink:href="#HelveticaNeue-124"/>
     <use x="601.899872" xlink:href="#HelveticaNeue-32"/>
     <use x="629.69986" xlink:href="#HelveticaNeue-67"/>
     <use x="701.899841" xlink:href="#HelveticaNeue-97"/>
     <use x="755.599838" xlink:href="#HelveticaNeue-115"/>
     <use x="805.599823" xlink:href="#HelveticaNeue-111"/>
     <use x="862.999817" xlink:href="#HelveticaNeue-115"/>
     <use x="912.999802" xlink:href="#HelveticaNeue-32"/>
     <use x="940.799789" xlink:href="#HelveticaNeue-110"/>
     <use x="996.39978" xlink:href="#HelveticaNeue-117"/>
     <use x="1051.999771" xlink:href="#HelveticaNeue-101"/>
     <use x="1105.699768" xlink:href="#HelveticaNeue-118"/>
     <use x="1155.699753" xlink:href="#HelveticaNeue-111"/>
     <use x="1213.099747" xlink:href="#HelveticaNeue-115"/>
     <use x="1263.099731" xlink:href="#HelveticaNeue-32"/>
     <use x="1290.899719" xlink:href="#HelveticaNeue-50"/>
     <use x="1346.49971" xlink:href="#HelveticaNeue-48"/>
     <use x="1402.099701" xlink:href="#HelveticaNeue-50"/>
     <use x="1457.699692" xlink:href="#HelveticaNeue-49"/>
     <use x="1513.299683" xlink:href="#HelveticaNeue-45"/>
     <use x="1552.199677" xlink:href="#HelveticaNeue-48"/>
     <use x="1607.799667" xlink:href="#HelveticaNeue-55"/>
     <use x="1663.399658" xlink:href="#HelveticaNeue-45"/>
     <use x="1702.299652" xlink:href="#HelveticaNeue-48"/>
     <use x="1757.899643" xlink:href="#HelveticaNeue-57"/>
    </g>
   </g>
   <g id="legend_1">
    <g id="line2d_30">
     <path d="M 71.5 39.640625 
L 91.5 39.640625 
" style="fill:none;stroke:#000000;stroke-dasharray:1.5,2.475;stroke-dashoffset:0;stroke-opacity:0.5;stroke-width:1.5;"/>
    </g>
    <g id="line2d_31"/>
    <g id="text_18">
     <!-- Actual -->
     <g style="fill:#555555;" transform="translate(99.5 43.140625)scale(0.1 -0.1)">
      <use xlink:href="#HelveticaNeue-65"/>
      <use x="64.799988" xlink:href="#HelveticaNeue-99"/>
      <use x="118.499985" xlink:href="#HelveticaNeue-116"/>
      <use x="149.999969" xlink:href="#HelveticaNeue-117"/>
      <use x="205.59996" xlink:href="#HelveticaNeue-97"/>
      <use x="259.299957" xlink:href="#HelveticaNeue-108"/>
     </g>
    </g>
    <g id="line2d_32">
     <path d="M 71.5 54.310937 
L 91.5 54.310937 
" style="fill:none;stroke:#b3220f;stroke-linecap:square;stroke-width:1.5;"/>
    </g>
    <g id="line2d_33"/>
    <g id="text_19">
     <!-- Promedio semanal (7 das)  -->
     <g style="fill:#555555;" transform="translate(99.5 57.810937)scale(0.1 -0.1)">
      <defs>
       <path d="M 17.296875 37.203125 
L 17.296875 63.40625 
L 35.90625 63.40625 
Q 44 63.40625 47.75 60.046875 
Q 51.5 56.703125 51.5 50.296875 
Q 51.5 43.90625 47.75 40.5 
Q 44 37.09375 35.90625 37.203125 
z
M 7.796875 71.40625 
L 7.796875 0 
L 17.296875 0 
L 17.296875 29.203125 
L 39.09375 29.203125 
Q 49.90625 29.09375 55.453125 34.6875 
Q 61 40.296875 61 50.296875 
Q 61 60.296875 55.453125 65.84375 
Q 49.90625 71.40625 39.09375 71.40625 
z
" id="HelveticaNeue-80"/>
       <path d="M 6.40625 51.703125 
L 6.40625 0 
L 14.90625 0 
L 14.90625 32.203125 
Q 14.90625 33.703125 15.65625 35.953125 
Q 16.40625 38.203125 18.046875 40.296875 
Q 19.703125 42.40625 22.34375 43.90625 
Q 25 45.40625 28.703125 45.40625 
Q 31.59375 45.40625 33.4375 44.546875 
Q 35.296875 43.703125 36.390625 42.140625 
Q 37.5 40.59375 37.953125 38.5 
Q 38.40625 36.40625 38.40625 33.90625 
L 38.40625 0 
L 46.90625 0 
L 46.90625 32.203125 
Q 46.90625 38.203125 50.5 41.796875 
Q 54.09375 45.40625 60.40625 45.40625 
Q 63.5 45.40625 65.453125 44.5 
Q 67.40625 43.59375 68.5 42.046875 
Q 69.59375 40.5 70 38.390625 
Q 70.40625 36.296875 70.40625 33.90625 
L 70.40625 0 
L 78.90625 0 
L 78.90625 37.90625 
Q 78.90625 41.90625 77.65625 44.75 
Q 76.40625 47.59375 74.15625 49.390625 
Q 71.90625 51.203125 68.75 52.046875 
Q 65.59375 52.90625 61.703125 52.90625 
Q 56.59375 52.90625 52.34375 50.59375 
Q 48.09375 48.296875 45.5 44.09375 
Q 43.90625 48.90625 40 50.90625 
Q 36.09375 52.90625 31.296875 52.90625 
Q 20.40625 52.90625 14.59375 44.09375 
L 14.40625 44.09375 
L 14.40625 51.703125 
z
" id="HelveticaNeue-109"/>
       <path d="M 12.59375 25.40625 
Q 12.59375 29.203125 13.390625 32.796875 
Q 14.203125 36.40625 16 39.203125 
Q 17.796875 42 20.796875 43.703125 
Q 23.796875 45.40625 28.09375 45.40625 
Q 32.5 45.40625 35.59375 43.75 
Q 38.703125 42.09375 40.640625 39.390625 
Q 42.59375 36.703125 43.5 33.140625 
Q 44.40625 29.59375 44.40625 25.796875 
Q 44.40625 22.203125 43.546875 18.703125 
Q 42.703125 15.203125 40.796875 12.453125 
Q 38.90625 9.703125 35.90625 8 
Q 32.90625 6.296875 28.59375 6.296875 
Q 24.5 6.296875 21.453125 7.890625 
Q 18.40625 9.5 16.453125 12.203125 
Q 14.5 14.90625 13.546875 18.34375 
Q 12.59375 21.796875 12.59375 25.40625 
z
M 52.59375 0 
L 52.59375 71.40625 
L 44.09375 71.40625 
L 44.09375 44.796875 
L 43.90625 44.796875 
Q 42.5 47.09375 40.453125 48.640625 
Q 38.40625 50.203125 36.09375 51.140625 
Q 33.796875 52.09375 31.5 52.5 
Q 29.203125 52.90625 27.203125 52.90625 
Q 21.296875 52.90625 16.84375 50.75 
Q 12.40625 48.59375 9.453125 44.9375 
Q 6.5 41.296875 5.046875 36.390625 
Q 3.59375 31.5 3.59375 26 
Q 3.59375 20.5 5.09375 15.59375 
Q 6.59375 10.703125 9.546875 7 
Q 12.5 3.296875 16.953125 1.09375 
Q 21.40625 -1.09375 27.40625 -1.09375 
Q 32.796875 -1.09375 37.296875 0.796875 
Q 41.796875 2.703125 43.90625 7 
L 44.09375 7 
L 44.09375 0 
z
" id="HelveticaNeue-100"/>
       <path d="M 15.40625 61 
L 15.40625 71.40625 
L 6.90625 71.40625 
L 6.90625 61 
z
M 6.90625 51.703125 
L 6.90625 0 
L 15.40625 0 
L 15.40625 51.703125 
z
" id="HelveticaNeue-105"/>
       <path d="M 20.40625 -19.703125 
L 26.90625 -19.703125 
Q 19.796875 -8.203125 16.75 3.09375 
Q 13.703125 14.40625 13.703125 27 
Q 13.703125 39.296875 16.703125 50.5 
Q 19.703125 61.703125 26.90625 73.09375 
L 20.40625 73.09375 
Q 12.59375 62.796875 8.640625 50.796875 
Q 4.703125 38.796875 4.703125 27 
Q 4.703125 20.40625 5.796875 14.40625 
Q 6.90625 8.40625 8.953125 2.703125 
Q 11 -3 13.890625 -8.546875 
Q 16.796875 -14.09375 20.40625 -19.703125 
z
" id="HelveticaNeue-40"/>
       <path d="M 6.90625 0 
L 15.40625 0 
L 15.40625 51.703125 
L 6.90625 51.703125 
z
M 25.5 77 
L 11.40625 60.796875 
L 5 60.796875 
L 14.59375 77 
z
" id="HelveticaNeue-237"/>
       <path d="M -0.90625 -19.703125 
L 5.5 -19.703125 
Q 13.296875 -9.40625 17.25 2.546875 
Q 21.203125 14.5 21.203125 26.296875 
Q 21.203125 32.90625 20.09375 38.90625 
Q 19 44.90625 16.953125 50.65625 
Q 14.90625 56.40625 12 61.953125 
Q 9.09375 67.5 5.5 73.09375 
L -0.90625 73.09375 
Q 6.09375 61.59375 9.140625 50.25 
Q 12.203125 38.90625 12.203125 26.296875 
Q 12.203125 14.09375 9.203125 2.84375 
Q 6.203125 -8.40625 -0.90625 -19.703125 
z
" id="HelveticaNeue-41"/>
      </defs>
      <use xlink:href="#HelveticaNeue-80"/>
      <use x="64.799988" xlink:href="#HelveticaNeue-114"/>
      <use x="96.349976" xlink:href="#HelveticaNeue-111"/>
      <use x="153.749969" xlink:href="#HelveticaNeue-109"/>
      <use x="239.049957" xlink:href="#HelveticaNeue-101"/>
      <use x="292.749954" xlink:href="#HelveticaNeue-100"/>
      <use x="352.049942" xlink:href="#HelveticaNeue-105"/>
      <use x="374.249939" xlink:href="#HelveticaNeue-111"/>
      <use x="431.649933" xlink:href="#HelveticaNeue-32"/>
      <use x="459.449921" xlink:href="#HelveticaNeue-115"/>
      <use x="509.449905" xlink:href="#HelveticaNeue-101"/>
      <use x="563.149902" xlink:href="#HelveticaNeue-109"/>
      <use x="648.44989" xlink:href="#HelveticaNeue-97"/>
      <use x="702.149887" xlink:href="#HelveticaNeue-110"/>
      <use x="757.749878" xlink:href="#HelveticaNeue-97"/>
      <use x="811.449875" xlink:href="#HelveticaNeue-108"/>
      <use x="833.649872" xlink:href="#HelveticaNeue-32"/>
      <use x="861.44986" xlink:href="#HelveticaNeue-40"/>
      <use x="887.349854" xlink:href="#HelveticaNeue-55"/>
      <use x="942.949844" xlink:href="#HelveticaNeue-32"/>
      <use x="970.749832" xlink:href="#HelveticaNeue-100"/>
      <use x="1030.04982" xlink:href="#HelveticaNeue-237"/>
      <use x="1052.249817" xlink:href="#HelveticaNeue-97"/>
      <use x="1105.949814" xlink:href="#HelveticaNeue-115"/>
      <use x="1155.949799" xlink:href="#HelveticaNeue-41"/>
      <use x="1181.849792" xlink:href="#HelveticaNeue-32"/>
     </g>
    </g>
   </g>
  </g>
 </g>
 <defs>
  <clipPath id="pd56a13c41d">
   <rect height="235.5" width="387.5" x="62.5" y="27"/>
  </clipPath>
 </defs>
</svg>
