<?xml version="1.0" encoding="utf-8" standalone="no"?>
<!DOCTYPE svg PUBLIC "-//W3C//DTD SVG 1.1//EN"
  "http://www.w3.org/Graphics/SVG/1.1/DTD/svg11.dtd">
<svg height="299.828571pt" version="1.1" viewBox="0 0 499.885714 299.828571" width="499.885714pt" xmlns="http://www.w3.org/2000/svg" xmlns:xlink="http://www.w3.org/1999/xlink">
 <metadata>
  <rdf:RDF xmlns:cc="http://creativecommons.org/ns#" xmlns:dc="http://purl.org/dc/elements/1.1/" xmlns:rdf="http://www.w3.org/1999/02/22-rdf-syntax-ns#">
   <cc:Work>
    <dc:type rdf:resource="http://purl.org/dc/dcmitype/StillImage"/>
    <dc:date>2021-11-16T23:06:02.821788</dc:date>
    <dc:format>image/svg+xml</dc:format>
    <dc:creator>
     <cc:Agent>
      <dc:title>Matplotlib v3.4.3, https://matplotlib.org/</dc:title>
     </cc:Agent>
    </dc:creator>
   </cc:Work>
  </rdf:RDF>
 </metadata>
 <defs>
  <style type="text/css">*{stroke-linecap:butt;stroke-linejoin:round;}</style>
 </defs>
 <g id="figure_1">
  <g id="patch_1">
   <path d="M 0 299.828571 
L 499.885714 299.828571 
L 499.885714 0 
L 0 0 
z
" style="fill:#ffffff;"/>
  </g>
  <g id="axes_1">
   <g id="patch_2">
    <path d="M 62.485714 266.847429 
L 449.897143 266.847429 
L 449.897143 35.979429 
L 62.485714 35.979429 
z
" style="fill:#ffffff;"/>
   </g>
   <g id="matplotlib.axis_1">
    <g id="xtick_1">
     <g id="line2d_1">
      <defs>
       <path d="M 0 0 
L 0 3.5 
" id="m6d7dc44af4" style="stroke:#000000;stroke-width:0.8;"/>
      </defs>
      <g>
       <use style="stroke:#000000;stroke-width:0.8;" x="62.485714" xlink:href="#m6d7dc44af4" y="266.847429"/>
      </g>
     </g>
    </g>
    <g id="xtick_2">
     <g id="line2d_2">
      <g>
       <use style="stroke:#000000;stroke-width:0.8;" x="73.880168" xlink:href="#m6d7dc44af4" y="266.847429"/>
      </g>
     </g>
     <g id="text_1">
      <!-- Apr -->
      <g transform="translate(65.230168 281.445866)scale(0.1 -0.1)">
       <defs>
        <path d="M 2188 4044 
L 1331 1722 
L 3047 1722 
L 2188 4044 
z
M 1831 4666 
L 2547 4666 
L 4325 0 
L 3669 0 
L 3244 1197 
L 1141 1197 
L 716 0 
L 50 0 
L 1831 4666 
z
" id="DejaVuSans-41" transform="scale(0.015625)"/>
        <path d="M 1159 525 
L 1159 -1331 
L 581 -1331 
L 581 3500 
L 1159 3500 
L 1159 2969 
Q 1341 3281 1617 3432 
Q 1894 3584 2278 3584 
Q 2916 3584 3314 3078 
Q 3713 2572 3713 1747 
Q 3713 922 3314 415 
Q 2916 -91 2278 -91 
Q 1894 -91 1617 61 
Q 1341 213 1159 525 
z
M 3116 1747 
Q 3116 2381 2855 2742 
Q 2594 3103 2138 3103 
Q 1681 3103 1420 2742 
Q 1159 2381 1159 1747 
Q 1159 1113 1420 752 
Q 1681 391 2138 391 
Q 2594 391 2855 752 
Q 3116 1113 3116 1747 
z
" id="DejaVuSans-70" transform="scale(0.015625)"/>
        <path d="M 2631 2963 
Q 2534 3019 2420 3045 
Q 2306 3072 2169 3072 
Q 1681 3072 1420 2755 
Q 1159 2438 1159 1844 
L 1159 0 
L 581 0 
L 581 3500 
L 1159 3500 
L 1159 2956 
Q 1341 3275 1631 3429 
Q 1922 3584 2338 3584 
Q 2397 3584 2469 3576 
Q 2541 3569 2628 3553 
L 2631 2963 
z
" id="DejaVuSans-72" transform="scale(0.015625)"/>
       </defs>
       <use xlink:href="#DejaVuSans-41"/>
       <use x="68.408203" xlink:href="#DejaVuSans-70"/>
       <use x="131.884766" xlink:href="#DejaVuSans-72"/>
      </g>
     </g>
    </g>
    <g id="xtick_3">
     <g id="line2d_3">
      <g>
       <use style="stroke:#000000;stroke-width:0.8;" x="131.485462" xlink:href="#m6d7dc44af4" y="266.847429"/>
      </g>
     </g>
     <g id="text_2">
      <!-- Jul -->
      <g transform="translate(125.45265 281.445866)scale(0.1 -0.1)">
       <defs>
        <path d="M 628 4666 
L 1259 4666 
L 1259 325 
Q 1259 -519 939 -900 
Q 619 -1281 -91 -1281 
L -331 -1281 
L -331 -750 
L -134 -750 
Q 284 -750 456 -515 
Q 628 -281 628 325 
L 628 4666 
z
" id="DejaVuSans-4a" transform="scale(0.015625)"/>
        <path d="M 544 1381 
L 544 3500 
L 1119 3500 
L 1119 1403 
Q 1119 906 1312 657 
Q 1506 409 1894 409 
Q 2359 409 2629 706 
Q 2900 1003 2900 1516 
L 2900 3500 
L 3475 3500 
L 3475 0 
L 2900 0 
L 2900 538 
Q 2691 219 2414 64 
Q 2138 -91 1772 -91 
Q 1169 -91 856 284 
Q 544 659 544 1381 
z
M 1991 3584 
L 1991 3584 
z
" id="DejaVuSans-75" transform="scale(0.015625)"/>
        <path d="M 603 4863 
L 1178 4863 
L 1178 0 
L 603 0 
L 603 4863 
z
" id="DejaVuSans-6c" transform="scale(0.015625)"/>
       </defs>
       <use xlink:href="#DejaVuSans-4a"/>
       <use x="29.492188" xlink:href="#DejaVuSans-75"/>
       <use x="92.871094" xlink:href="#DejaVuSans-6c"/>
      </g>
     </g>
    </g>
    <g id="xtick_4">
     <g id="line2d_4">
      <g>
       <use style="stroke:#000000;stroke-width:0.8;" x="189.723782" xlink:href="#m6d7dc44af4" y="266.847429"/>
      </g>
     </g>
     <g id="text_3">
      <!-- Oct -->
      <g transform="translate(181.078469 281.445866)scale(0.1 -0.1)">
       <defs>
        <path d="M 2522 4238 
Q 1834 4238 1429 3725 
Q 1025 3213 1025 2328 
Q 1025 1447 1429 934 
Q 1834 422 2522 422 
Q 3209 422 3611 934 
Q 4013 1447 4013 2328 
Q 4013 3213 3611 3725 
Q 3209 4238 2522 4238 
z
M 2522 4750 
Q 3503 4750 4090 4092 
Q 4678 3434 4678 2328 
Q 4678 1225 4090 567 
Q 3503 -91 2522 -91 
Q 1538 -91 948 565 
Q 359 1222 359 2328 
Q 359 3434 948 4092 
Q 1538 4750 2522 4750 
z
" id="DejaVuSans-4f" transform="scale(0.015625)"/>
        <path d="M 3122 3366 
L 3122 2828 
Q 2878 2963 2633 3030 
Q 2388 3097 2138 3097 
Q 1578 3097 1268 2742 
Q 959 2388 959 1747 
Q 959 1106 1268 751 
Q 1578 397 2138 397 
Q 2388 397 2633 464 
Q 2878 531 3122 666 
L 3122 134 
Q 2881 22 2623 -34 
Q 2366 -91 2075 -91 
Q 1284 -91 818 406 
Q 353 903 353 1747 
Q 353 2603 823 3093 
Q 1294 3584 2113 3584 
Q 2378 3584 2631 3529 
Q 2884 3475 3122 3366 
z
" id="DejaVuSans-63" transform="scale(0.015625)"/>
        <path d="M 1172 4494 
L 1172 3500 
L 2356 3500 
L 2356 3053 
L 1172 3053 
L 1172 1153 
Q 1172 725 1289 603 
Q 1406 481 1766 481 
L 2356 481 
L 2356 0 
L 1766 0 
Q 1100 0 847 248 
Q 594 497 594 1153 
L 594 3053 
L 172 3053 
L 172 3500 
L 594 3500 
L 594 4494 
L 1172 4494 
z
" id="DejaVuSans-74" transform="scale(0.015625)"/>
       </defs>
       <use xlink:href="#DejaVuSans-4f"/>
       <use x="78.710938" xlink:href="#DejaVuSans-63"/>
       <use x="133.691406" xlink:href="#DejaVuSans-74"/>
      </g>
     </g>
    </g>
    <g id="xtick_5">
     <g id="line2d_5">
      <g>
       <use style="stroke:#000000;stroke-width:0.8;" x="247.962101" xlink:href="#m6d7dc44af4" y="266.847429"/>
      </g>
     </g>
     <g id="text_4">
      <!-- Jan -->
      <g transform="translate(240.254288 281.445866)scale(0.1 -0.1)">
       <defs>
        <path d="M 2194 1759 
Q 1497 1759 1228 1600 
Q 959 1441 959 1056 
Q 959 750 1161 570 
Q 1363 391 1709 391 
Q 2188 391 2477 730 
Q 2766 1069 2766 1631 
L 2766 1759 
L 2194 1759 
z
M 3341 1997 
L 3341 0 
L 2766 0 
L 2766 531 
Q 2569 213 2275 61 
Q 1981 -91 1556 -91 
Q 1019 -91 701 211 
Q 384 513 384 1019 
Q 384 1609 779 1909 
Q 1175 2209 1959 2209 
L 2766 2209 
L 2766 2266 
Q 2766 2663 2505 2880 
Q 2244 3097 1772 3097 
Q 1472 3097 1187 3025 
Q 903 2953 641 2809 
L 641 3341 
Q 956 3463 1253 3523 
Q 1550 3584 1831 3584 
Q 2591 3584 2966 3190 
Q 3341 2797 3341 1997 
z
" id="DejaVuSans-61" transform="scale(0.015625)"/>
        <path d="M 3513 2113 
L 3513 0 
L 2938 0 
L 2938 2094 
Q 2938 2591 2744 2837 
Q 2550 3084 2163 3084 
Q 1697 3084 1428 2787 
Q 1159 2491 1159 1978 
L 1159 0 
L 581 0 
L 581 3500 
L 1159 3500 
L 1159 2956 
Q 1366 3272 1645 3428 
Q 1925 3584 2291 3584 
Q 2894 3584 3203 3211 
Q 3513 2838 3513 2113 
z
" id="DejaVuSans-6e" transform="scale(0.015625)"/>
       </defs>
       <use xlink:href="#DejaVuSans-4a"/>
       <use x="29.492188" xlink:href="#DejaVuSans-61"/>
       <use x="90.771484" xlink:href="#DejaVuSans-6e"/>
      </g>
      <!-- 2021 -->
      <g transform="translate(235.237101 292.643679)scale(0.1 -0.1)">
       <defs>
        <path d="M 1228 531 
L 3431 531 
L 3431 0 
L 469 0 
L 469 531 
Q 828 903 1448 1529 
Q 2069 2156 2228 2338 
Q 2531 2678 2651 2914 
Q 2772 3150 2772 3378 
Q 2772 3750 2511 3984 
Q 2250 4219 1831 4219 
Q 1534 4219 1204 4116 
Q 875 4013 500 3803 
L 500 4441 
Q 881 4594 1212 4672 
Q 1544 4750 1819 4750 
Q 2544 4750 2975 4387 
Q 3406 4025 3406 3419 
Q 3406 3131 3298 2873 
Q 3191 2616 2906 2266 
Q 2828 2175 2409 1742 
Q 1991 1309 1228 531 
z
" id="DejaVuSans-32" transform="scale(0.015625)"/>
        <path d="M 2034 4250 
Q 1547 4250 1301 3770 
Q 1056 3291 1056 2328 
Q 1056 1369 1301 889 
Q 1547 409 2034 409 
Q 2525 409 2770 889 
Q 3016 1369 3016 2328 
Q 3016 3291 2770 3770 
Q 2525 4250 2034 4250 
z
M 2034 4750 
Q 2819 4750 3233 4129 
Q 3647 3509 3647 2328 
Q 3647 1150 3233 529 
Q 2819 -91 2034 -91 
Q 1250 -91 836 529 
Q 422 1150 422 2328 
Q 422 3509 836 4129 
Q 1250 4750 2034 4750 
z
" id="DejaVuSans-30" transform="scale(0.015625)"/>
        <path d="M 794 531 
L 1825 531 
L 1825 4091 
L 703 3866 
L 703 4441 
L 1819 4666 
L 2450 4666 
L 2450 531 
L 3481 531 
L 3481 0 
L 794 0 
L 794 531 
z
" id="DejaVuSans-31" transform="scale(0.015625)"/>
       </defs>
       <use xlink:href="#DejaVuSans-32"/>
       <use x="63.623047" xlink:href="#DejaVuSans-30"/>
       <use x="127.246094" xlink:href="#DejaVuSans-32"/>
       <use x="190.869141" xlink:href="#DejaVuSans-31"/>
      </g>
     </g>
    </g>
    <g id="xtick_6">
     <g id="line2d_6">
      <g>
       <use style="stroke:#000000;stroke-width:0.8;" x="304.93437" xlink:href="#m6d7dc44af4" y="266.847429"/>
      </g>
     </g>
     <g id="text_5">
      <!-- Apr -->
      <g transform="translate(296.28437 281.445866)scale(0.1 -0.1)">
       <use xlink:href="#DejaVuSans-41"/>
       <use x="68.408203" xlink:href="#DejaVuSans-70"/>
       <use x="131.884766" xlink:href="#DejaVuSans-72"/>
      </g>
     </g>
    </g>
    <g id="xtick_7">
     <g id="line2d_7">
      <g>
       <use style="stroke:#000000;stroke-width:0.8;" x="362.539664" xlink:href="#m6d7dc44af4" y="266.847429"/>
      </g>
     </g>
     <g id="text_6">
      <!-- Jul -->
      <g transform="translate(356.506851 281.445866)scale(0.1 -0.1)">
       <use xlink:href="#DejaVuSans-4a"/>
       <use x="29.492188" xlink:href="#DejaVuSans-75"/>
       <use x="92.871094" xlink:href="#DejaVuSans-6c"/>
      </g>
     </g>
    </g>
    <g id="xtick_8">
     <g id="line2d_8">
      <g>
       <use style="stroke:#000000;stroke-width:0.8;" x="420.777983" xlink:href="#m6d7dc44af4" y="266.847429"/>
      </g>
     </g>
     <g id="text_7">
      <!-- Oct -->
      <g transform="translate(412.132671 281.445866)scale(0.1 -0.1)">
       <use xlink:href="#DejaVuSans-4f"/>
       <use x="78.710938" xlink:href="#DejaVuSans-63"/>
       <use x="133.691406" xlink:href="#DejaVuSans-74"/>
      </g>
     </g>
    </g>
    <g id="xtick_9">
     <g id="line2d_9">
      <g>
       <use style="stroke:#000000;stroke-width:0.8;" x="449.897143" xlink:href="#m6d7dc44af4" y="266.847429"/>
      </g>
     </g>
    </g>
    <g id="xtick_10">
     <g id="line2d_10">
      <defs>
       <path d="M 0 0 
L 0 2 
" id="m7327e6a4e2" style="stroke:#000000;stroke-width:0.6;"/>
      </defs>
      <g>
       <use style="stroke:#000000;stroke-width:0.6;" x="92.870924" xlink:href="#m7327e6a4e2" y="266.847429"/>
      </g>
     </g>
    </g>
    <g id="xtick_11">
     <g id="line2d_11">
      <g>
       <use style="stroke:#000000;stroke-width:0.6;" x="112.494706" xlink:href="#m7327e6a4e2" y="266.847429"/>
      </g>
     </g>
    </g>
    <g id="xtick_12">
     <g id="line2d_12">
      <g>
       <use style="stroke:#000000;stroke-width:0.6;" x="151.109244" xlink:href="#m7327e6a4e2" y="266.847429"/>
      </g>
     </g>
    </g>
    <g id="xtick_13">
     <g id="line2d_13">
      <g>
       <use style="stroke:#000000;stroke-width:0.6;" x="170.733025" xlink:href="#m7327e6a4e2" y="266.847429"/>
      </g>
     </g>
    </g>
    <g id="xtick_14">
     <g id="line2d_14">
      <g>
       <use style="stroke:#000000;stroke-width:0.6;" x="209.347563" xlink:href="#m7327e6a4e2" y="266.847429"/>
      </g>
     </g>
    </g>
    <g id="xtick_15">
     <g id="line2d_15">
      <g>
       <use style="stroke:#000000;stroke-width:0.6;" x="228.338319" xlink:href="#m7327e6a4e2" y="266.847429"/>
      </g>
     </g>
    </g>
    <g id="xtick_16">
     <g id="line2d_16">
      <g>
       <use style="stroke:#000000;stroke-width:0.6;" x="267.585882" xlink:href="#m7327e6a4e2" y="266.847429"/>
      </g>
     </g>
    </g>
    <g id="xtick_17">
     <g id="line2d_17">
      <g>
       <use style="stroke:#000000;stroke-width:0.6;" x="285.310588" xlink:href="#m7327e6a4e2" y="266.847429"/>
      </g>
     </g>
    </g>
    <g id="xtick_18">
     <g id="line2d_18">
      <g>
       <use style="stroke:#000000;stroke-width:0.6;" x="323.925126" xlink:href="#m7327e6a4e2" y="266.847429"/>
      </g>
     </g>
    </g>
    <g id="xtick_19">
     <g id="line2d_19">
      <g>
       <use style="stroke:#000000;stroke-width:0.6;" x="343.548908" xlink:href="#m7327e6a4e2" y="266.847429"/>
      </g>
     </g>
    </g>
    <g id="xtick_20">
     <g id="line2d_20">
      <g>
       <use style="stroke:#000000;stroke-width:0.6;" x="382.163445" xlink:href="#m7327e6a4e2" y="266.847429"/>
      </g>
     </g>
    </g>
    <g id="xtick_21">
     <g id="line2d_21">
      <g>
       <use style="stroke:#000000;stroke-width:0.6;" x="401.787227" xlink:href="#m7327e6a4e2" y="266.847429"/>
      </g>
     </g>
    </g>
    <g id="xtick_22">
     <g id="line2d_22">
      <g>
       <use style="stroke:#000000;stroke-width:0.6;" x="440.401765" xlink:href="#m7327e6a4e2" y="266.847429"/>
      </g>
     </g>
    </g>
    <g id="text_8">
     <!-- fecha -->
     <g transform="translate(242.372679 306.321804)scale(0.1 -0.1)">
      <defs>
       <path d="M 2375 4863 
L 2375 4384 
L 1825 4384 
Q 1516 4384 1395 4259 
Q 1275 4134 1275 3809 
L 1275 3500 
L 2222 3500 
L 2222 3053 
L 1275 3053 
L 1275 0 
L 697 0 
L 697 3053 
L 147 3053 
L 147 3500 
L 697 3500 
L 697 3744 
Q 697 4328 969 4595 
Q 1241 4863 1831 4863 
L 2375 4863 
z
" id="DejaVuSans-66" transform="scale(0.015625)"/>
       <path d="M 3597 1894 
L 3597 1613 
L 953 1613 
Q 991 1019 1311 708 
Q 1631 397 2203 397 
Q 2534 397 2845 478 
Q 3156 559 3463 722 
L 3463 178 
Q 3153 47 2828 -22 
Q 2503 -91 2169 -91 
Q 1331 -91 842 396 
Q 353 884 353 1716 
Q 353 2575 817 3079 
Q 1281 3584 2069 3584 
Q 2775 3584 3186 3129 
Q 3597 2675 3597 1894 
z
M 3022 2063 
Q 3016 2534 2758 2815 
Q 2500 3097 2075 3097 
Q 1594 3097 1305 2825 
Q 1016 2553 972 2059 
L 3022 2063 
z
" id="DejaVuSans-65" transform="scale(0.015625)"/>
       <path d="M 3513 2113 
L 3513 0 
L 2938 0 
L 2938 2094 
Q 2938 2591 2744 2837 
Q 2550 3084 2163 3084 
Q 1697 3084 1428 2787 
Q 1159 2491 1159 1978 
L 1159 0 
L 581 0 
L 581 4863 
L 1159 4863 
L 1159 2956 
Q 1366 3272 1645 3428 
Q 1925 3584 2291 3584 
Q 2894 3584 3203 3211 
Q 3513 2838 3513 2113 
z
" id="DejaVuSans-68" transform="scale(0.015625)"/>
      </defs>
      <use xlink:href="#DejaVuSans-66"/>
      <use x="35.205078" xlink:href="#DejaVuSans-65"/>
      <use x="96.728516" xlink:href="#DejaVuSans-63"/>
      <use x="151.708984" xlink:href="#DejaVuSans-68"/>
      <use x="215.087891" xlink:href="#DejaVuSans-61"/>
     </g>
    </g>
   </g>
   <g id="matplotlib.axis_2">
    <g id="ytick_1">
     <g id="line2d_23">
      <defs>
       <path d="M 0 0 
L -3.5 0 
" id="m517df76297" style="stroke:#000000;stroke-width:0.8;"/>
      </defs>
      <g>
       <use style="stroke:#000000;stroke-width:0.8;" x="62.485714" xlink:href="#m517df76297" y="256.407365"/>
      </g>
     </g>
     <g id="text_9">
      <!-- 0 -->
      <g transform="translate(49.123214 260.206584)scale(0.1 -0.1)">
       <use xlink:href="#DejaVuSans-30"/>
      </g>
     </g>
    </g>
    <g id="ytick_2">
     <g id="line2d_24">
      <g>
       <use style="stroke:#000000;stroke-width:0.8;" x="62.485714" xlink:href="#m517df76297" y="229.439167"/>
      </g>
     </g>
     <g id="text_10">
      <!-- 2000 -->
      <g transform="translate(30.035714 233.238386)scale(0.1 -0.1)">
       <use xlink:href="#DejaVuSans-32"/>
       <use x="63.623047" xlink:href="#DejaVuSans-30"/>
       <use x="127.246094" xlink:href="#DejaVuSans-30"/>
       <use x="190.869141" xlink:href="#DejaVuSans-30"/>
      </g>
     </g>
    </g>
    <g id="ytick_3">
     <g id="line2d_25">
      <g>
       <use style="stroke:#000000;stroke-width:0.8;" x="62.485714" xlink:href="#m517df76297" y="202.470969"/>
      </g>
     </g>
     <g id="text_11">
      <!-- 4000 -->
      <g transform="translate(30.035714 206.270188)scale(0.1 -0.1)">
       <defs>
        <path d="M 2419 4116 
L 825 1625 
L 2419 1625 
L 2419 4116 
z
M 2253 4666 
L 3047 4666 
L 3047 1625 
L 3713 1625 
L 3713 1100 
L 3047 1100 
L 3047 0 
L 2419 0 
L 2419 1100 
L 313 1100 
L 313 1709 
L 2253 4666 
z
" id="DejaVuSans-34" transform="scale(0.015625)"/>
       </defs>
       <use xlink:href="#DejaVuSans-34"/>
       <use x="63.623047" xlink:href="#DejaVuSans-30"/>
       <use x="127.246094" xlink:href="#DejaVuSans-30"/>
       <use x="190.869141" xlink:href="#DejaVuSans-30"/>
      </g>
     </g>
    </g>
    <g id="ytick_4">
     <g id="line2d_26">
      <g>
       <use style="stroke:#000000;stroke-width:0.8;" x="62.485714" xlink:href="#m517df76297" y="175.502771"/>
      </g>
     </g>
     <g id="text_12">
      <!-- 6000 -->
      <g transform="translate(30.035714 179.30199)scale(0.1 -0.1)">
       <defs>
        <path d="M 2113 2584 
Q 1688 2584 1439 2293 
Q 1191 2003 1191 1497 
Q 1191 994 1439 701 
Q 1688 409 2113 409 
Q 2538 409 2786 701 
Q 3034 994 3034 1497 
Q 3034 2003 2786 2293 
Q 2538 2584 2113 2584 
z
M 3366 4563 
L 3366 3988 
Q 3128 4100 2886 4159 
Q 2644 4219 2406 4219 
Q 1781 4219 1451 3797 
Q 1122 3375 1075 2522 
Q 1259 2794 1537 2939 
Q 1816 3084 2150 3084 
Q 2853 3084 3261 2657 
Q 3669 2231 3669 1497 
Q 3669 778 3244 343 
Q 2819 -91 2113 -91 
Q 1303 -91 875 529 
Q 447 1150 447 2328 
Q 447 3434 972 4092 
Q 1497 4750 2381 4750 
Q 2619 4750 2861 4703 
Q 3103 4656 3366 4563 
z
" id="DejaVuSans-36" transform="scale(0.015625)"/>
       </defs>
       <use xlink:href="#DejaVuSans-36"/>
       <use x="63.623047" xlink:href="#DejaVuSans-30"/>
       <use x="127.246094" xlink:href="#DejaVuSans-30"/>
       <use x="190.869141" xlink:href="#DejaVuSans-30"/>
      </g>
     </g>
    </g>
    <g id="ytick_5">
     <g id="line2d_27">
      <g>
       <use style="stroke:#000000;stroke-width:0.8;" x="62.485714" xlink:href="#m517df76297" y="148.534573"/>
      </g>
     </g>
     <g id="text_13">
      <!-- 8000 -->
      <g transform="translate(30.035714 152.333792)scale(0.1 -0.1)">
       <defs>
        <path d="M 2034 2216 
Q 1584 2216 1326 1975 
Q 1069 1734 1069 1313 
Q 1069 891 1326 650 
Q 1584 409 2034 409 
Q 2484 409 2743 651 
Q 3003 894 3003 1313 
Q 3003 1734 2745 1975 
Q 2488 2216 2034 2216 
z
M 1403 2484 
Q 997 2584 770 2862 
Q 544 3141 544 3541 
Q 544 4100 942 4425 
Q 1341 4750 2034 4750 
Q 2731 4750 3128 4425 
Q 3525 4100 3525 3541 
Q 3525 3141 3298 2862 
Q 3072 2584 2669 2484 
Q 3125 2378 3379 2068 
Q 3634 1759 3634 1313 
Q 3634 634 3220 271 
Q 2806 -91 2034 -91 
Q 1263 -91 848 271 
Q 434 634 434 1313 
Q 434 1759 690 2068 
Q 947 2378 1403 2484 
z
M 1172 3481 
Q 1172 3119 1398 2916 
Q 1625 2713 2034 2713 
Q 2441 2713 2670 2916 
Q 2900 3119 2900 3481 
Q 2900 3844 2670 4047 
Q 2441 4250 2034 4250 
Q 1625 4250 1398 4047 
Q 1172 3844 1172 3481 
z
" id="DejaVuSans-38" transform="scale(0.015625)"/>
       </defs>
       <use xlink:href="#DejaVuSans-38"/>
       <use x="63.623047" xlink:href="#DejaVuSans-30"/>
       <use x="127.246094" xlink:href="#DejaVuSans-30"/>
       <use x="190.869141" xlink:href="#DejaVuSans-30"/>
      </g>
     </g>
    </g>
    <g id="ytick_6">
     <g id="line2d_28">
      <g>
       <use style="stroke:#000000;stroke-width:0.8;" x="62.485714" xlink:href="#m517df76297" y="121.566376"/>
      </g>
     </g>
     <g id="text_14">
      <!-- 10000 -->
      <g transform="translate(23.673214 125.365594)scale(0.1 -0.1)">
       <use xlink:href="#DejaVuSans-31"/>
       <use x="63.623047" xlink:href="#DejaVuSans-30"/>
       <use x="127.246094" xlink:href="#DejaVuSans-30"/>
       <use x="190.869141" xlink:href="#DejaVuSans-30"/>
       <use x="254.492188" xlink:href="#DejaVuSans-30"/>
      </g>
     </g>
    </g>
    <g id="ytick_7">
     <g id="line2d_29">
      <g>
       <use style="stroke:#000000;stroke-width:0.8;" x="62.485714" xlink:href="#m517df76297" y="94.598178"/>
      </g>
     </g>
     <g id="text_15">
      <!-- 12000 -->
      <g transform="translate(23.673214 98.397396)scale(0.1 -0.1)">
       <use xlink:href="#DejaVuSans-31"/>
       <use x="63.623047" xlink:href="#DejaVuSans-32"/>
       <use x="127.246094" xlink:href="#DejaVuSans-30"/>
       <use x="190.869141" xlink:href="#DejaVuSans-30"/>
       <use x="254.492188" xlink:href="#DejaVuSans-30"/>
      </g>
     </g>
    </g>
    <g id="ytick_8">
     <g id="line2d_30">
      <g>
       <use style="stroke:#000000;stroke-width:0.8;" x="62.485714" xlink:href="#m517df76297" y="67.62998"/>
      </g>
     </g>
     <g id="text_16">
      <!-- 14000 -->
      <g transform="translate(23.673214 71.429199)scale(0.1 -0.1)">
       <use xlink:href="#DejaVuSans-31"/>
       <use x="63.623047" xlink:href="#DejaVuSans-34"/>
       <use x="127.246094" xlink:href="#DejaVuSans-30"/>
       <use x="190.869141" xlink:href="#DejaVuSans-30"/>
       <use x="254.492188" xlink:href="#DejaVuSans-30"/>
      </g>
     </g>
    </g>
    <g id="ytick_9">
     <g id="line2d_31">
      <g>
       <use style="stroke:#000000;stroke-width:0.8;" x="62.485714" xlink:href="#m517df76297" y="40.661782"/>
      </g>
     </g>
     <g id="text_17">
      <!-- 16000 -->
      <g transform="translate(23.673214 44.461001)scale(0.1 -0.1)">
       <use xlink:href="#DejaVuSans-31"/>
       <use x="63.623047" xlink:href="#DejaVuSans-36"/>
       <use x="127.246094" xlink:href="#DejaVuSans-30"/>
       <use x="190.869141" xlink:href="#DejaVuSans-30"/>
       <use x="254.492188" xlink:href="#DejaVuSans-30"/>
      </g>
     </g>
    </g>
   </g>
   <g id="line2d_32">
    <path clip-path="url(#p1bfe71398d)" d="M 63.118739 256.272524 
L 65.017815 256.339944 
L 65.65084 256.299492 
L 66.283866 256.043294 
L 66.916891 256.339944 
L 67.549916 256.353429 
L 68.182941 256.016326 
L 68.815966 255.854517 
L 69.448992 256.218588 
L 70.082017 256.312976 
L 70.715042 255.894969 
L 71.981092 255.96239 
L 72.614118 255.66574 
L 73.247143 255.868001 
L 73.880168 255.315153 
L 74.513193 255.490446 
L 75.146218 255.814065 
L 75.779244 255.005019 
L 76.412269 256.002842 
L 77.045294 255.719676 
L 77.678319 255.274701 
L 78.311345 254.654432 
L 78.94437 255.921937 
L 79.577395 255.220764 
L 80.21042 255.814065 
L 80.843445 256.151167 
L 82.109496 255.921937 
L 82.742521 255.760128 
L 83.375546 255.827549 
L 84.008571 255.611803 
L 85.274622 254.802757 
L 85.907647 255.342121 
L 86.540672 255.409542 
L 87.173697 255.274701 
L 87.806723 255.773612 
L 88.439748 253.993711 
L 89.072773 255.20728 
L 89.705798 255.166828 
L 90.338824 254.991535 
L 90.971849 255.544383 
L 91.604874 254.61398 
L 92.237899 255.20728 
L 92.870924 254.425202 
L 93.50395 255.449994 
L 94.136975 254.897146 
L 94.77 254.694884 
L 95.403025 253.804934 
L 96.03605 253.710545 
L 96.669076 254.654432 
L 97.302101 253.373443 
L 97.935126 253.575704 
L 98.568151 254.694884 
L 99.201176 254.38475 
L 99.834202 252.928467 
L 100.467227 254.762305 
L 101.100252 253.589188 
L 101.733277 254.856694 
L 102.366303 252.658785 
L 103.632353 253.750997 
L 104.265378 253.4948 
L 104.898403 252.995888 
L 105.531429 254.762305 
L 106.164454 252.631817 
L 106.797479 251.256439 
L 107.430504 253.211634 
L 108.063529 254.034164 
L 108.696555 251.62051 
L 109.32958 252.294715 
L 109.962605 249.800156 
L 110.59563 247.939351 
L 111.861681 251.68793 
L 112.494706 251.242955 
L 113.127731 251.404764 
L 113.760756 249.584411 
L 114.393782 249.193372 
L 115.026807 250.986757 
L 115.659832 251.337344 
L 116.292857 252.14639 
L 116.925882 250.474361 
L 117.558908 251.283407 
L 118.191933 250.744043 
L 118.824958 250.919337 
L 119.457983 250.959789 
L 120.091008 249.422602 
L 120.724034 248.600072 
L 121.357059 251.445217 
L 121.990084 250.541782 
L 122.623109 248.964142 
L 123.88916 242.383902 
L 124.522185 249.301245 
L 125.15521 243.718828 
L 125.788235 245.188595 
L 126.421261 244.716651 
L 127.054286 243.46263 
L 127.687311 239.282559 
L 128.320336 244.271676 
L 128.953361 235.210361 
L 129.586387 245.458277 
L 130.219412 237.624015 
L 130.852437 246.766234 
L 131.485462 237.556595 
L 132.118487 238.810616 
L 132.751513 237.516142 
L 133.384538 241.129881 
L 134.017563 239.066814 
L 134.650588 241.844538 
L 135.283613 234.805838 
L 135.916639 236.42393 
L 136.549664 234.77887 
L 137.182689 219.946361 
L 137.815714 222.953315 
L 138.448739 227.888496 
L 139.081765 234.4148 
L 139.71479 231.48875 
L 140.347815 230.504411 
L 140.98084 232.527026 
L 141.613866 227.942432 
L 142.246891 236.343026 
L 142.879916 217.721485 
L 143.512941 224.989414 
L 144.145966 225.933301 
L 145.412017 205.82851 
L 146.045042 212.058164 
L 146.678067 212.004227 
L 147.311092 215.496609 
L 147.944118 220.809344 
L 148.577143 195.014262 
L 149.843193 215.739323 
L 150.476218 206.273485 
L 151.109244 219.986814 
L 151.742269 194.555803 
L 152.375294 225.340001 
L 153.008319 225.879365 
L 154.27437 174.626305 
L 154.907395 220.984637 
L 155.54042 209.401796 
L 156.173445 210.69627 
L 156.806471 210.817626 
L 157.439496 189.526234 
L 158.072521 200.812425 
L 158.705546 204.641909 
L 159.338571 195.634531 
L 159.971597 199.504467 
L 160.604622 194.097344 
L 161.237647 210.925499 
L 161.870672 193.652369 
L 162.503697 188.784609 
L 163.136723 213.055987 
L 163.769748 226.270404 
L 164.402773 198.884199 
L 165.035798 227.106418 
L 165.668824 196.699775 
L 166.301849 222.885895 
L 166.934874 200.151704 
L 167.567899 222.521824 
L 168.200924 226.917641 
L 168.83395 211.397443 
L 169.466975 231.48875 
L 170.1 228.764962 
L 170.733025 224.948962 
L 171.36605 215.658418 
L 171.999076 216.898955 
L 172.632101 227.268227 
L 173.265126 232.338248 
L 173.898151 223.762361 
L 174.531176 229.115549 
L 175.164202 227.807591 
L 175.797227 225.704072 
L 176.430252 228.050305 
L 177.063277 232.216891 
L 177.696303 229.115549 
L 178.329328 230.07292 
L 179.595378 236.976778 
L 180.228403 236.369994 
L 180.861429 225.474842 
L 181.494454 236.680128 
L 182.127479 232.203407 
L 182.760504 231.771916 
L 183.393529 230.045952 
L 184.026555 231.556171 
L 185.292605 238.513966 
L 185.92563 235.520496 
L 186.558655 224.072496 
L 187.191681 238.648807 
L 187.824706 238.972425 
L 188.457731 235.803662 
L 189.090756 229.007676 
L 189.723782 238.59487 
L 190.356807 236.734065 
L 190.989832 235.53398 
L 191.622857 238.271252 
L 192.255882 229.304326 
L 192.888908 223.937655 
L 193.521933 225.609683 
L 194.154958 239.457853 
L 194.787983 229.034644 
L 195.421008 236.329542 
L 196.054034 235.722757 
L 196.687059 242.626616 
L 197.320084 236.720581 
L 197.953109 240.078121 
L 198.586134 237.354333 
L 199.21916 241.979379 
L 199.852185 235.345202 
L 200.48521 235.142941 
L 201.118235 242.909782 
L 201.751261 235.6014 
L 202.384286 221.928524 
L 203.017311 225.380453 
L 203.650336 235.6014 
L 204.283361 222.265626 
L 204.916387 239.4174 
L 205.549412 240.253414 
L 206.182437 231.596623 
L 206.815462 232.918065 
L 207.448487 216.588821 
L 208.081513 232.54051 
L 208.714538 226.7828 
L 209.347563 237.691436 
L 209.980588 237.435238 
L 210.613613 236.774517 
L 211.879664 226.55357 
L 212.512689 226.337824 
L 213.145714 234.18557 
L 213.778739 239.619662 
L 214.411765 235.129457 
L 215.04479 234.644029 
L 215.677815 227.659266 
L 216.31084 226.715379 
L 216.943866 236.895874 
L 217.576891 232.580962 
L 218.209916 243.651407 
L 218.842941 240.428708 
L 219.475966 235.183393 
L 220.108992 223.937655 
L 220.742017 230.571831 
L 221.375042 230.504411 
L 222.008067 244.244708 
L 222.641092 221.510517 
L 223.274118 246.874107 
L 223.907143 225.313033 
L 224.540168 227.416552 
L 225.173193 219.042927 
L 225.806218 221.780199 
L 226.439244 223.600552 
L 227.072269 230.787577 
L 227.705294 239.741019 
L 228.971345 220.216043 
L 229.60437 218.544015 
L 230.237395 235.399139 
L 230.87042 213.797612 
L 231.503445 233.376524 
L 232.136471 232.594446 
L 232.769496 220.283464 
L 233.402521 237.677952 
L 234.668571 214.310008 
L 235.301597 219.474418 
L 235.934622 222.670149 
L 236.567647 229.735817 
L 237.200672 201.78328 
L 237.833697 217.411351 
L 238.466723 201.675407 
L 239.099748 214.188651 
L 239.732773 200.380934 
L 240.365798 215.132538 
L 240.998824 240.024185 
L 241.631849 210.049033 
L 242.264874 186.141725 
L 243.530924 199.558404 
L 244.16395 229.789754 
L 244.796975 214.134715 
L 245.43 225.393937 
L 246.063025 192.910743 
L 246.69605 189.620623 
L 247.329076 172.239619 
L 248.595126 229.344778 
L 249.228151 216.467464 
L 249.861176 188.865513 
L 250.494202 184.995577 
L 251.127227 178.320948 
L 251.760252 183.997754 
L 252.393277 174.059973 
L 253.026303 172.873372 
L 253.659328 198.533612 
L 254.292353 197.630178 
L 254.925378 215.901132 
L 255.558403 192.897259 
L 256.191429 152.431478 
L 256.824454 142.561118 
L 257.457479 193.32875 
L 258.090504 185.872043 
L 258.723529 203.778927 
L 259.356555 175.651096 
L 259.98958 179.925556 
L 260.622605 201.581019 
L 261.25563 174.504948 
L 261.888655 180.977315 
L 262.521681 202.052962 
L 263.154706 202.60581 
L 263.787731 212.354814 
L 264.420756 208.012934 
L 265.686807 219.622743 
L 266.319832 223.978107 
L 266.952857 207.621895 
L 267.585882 224.517471 
L 268.218908 215.3348 
L 268.851933 215.40222 
L 269.484958 212.422234 
L 270.117983 231.340425 
L 270.751008 229.708849 
L 271.384034 235.399139 
L 272.017059 243.53005 
L 272.650084 238.783648 
L 273.916134 232.810192 
L 274.54916 234.023761 
L 275.182185 238.689259 
L 275.81521 240.806262 
L 276.448235 242.370418 
L 277.081261 238.00157 
L 277.714286 219.676679 
L 278.347311 239.592694 
L 278.980336 241.278206 
L 279.613361 241.777118 
L 280.246387 241.048976 
L 280.879412 241.453499 
L 281.512437 243.772764 
L 282.145462 240.051153 
L 282.778487 242.302997 
L 283.411513 244.05593 
L 284.044538 242.559195 
L 284.677563 245.768411 
L 285.310588 246.860623 
L 285.943613 243.975026 
L 286.576639 244.784072 
L 287.209664 246.712298 
L 287.842689 246.887591 
L 288.475714 245.269499 
L 289.108739 244.635747 
L 289.741765 249.503506 
L 290.37479 248.721429 
L 291.007815 247.184241 
L 291.64084 242.127704 
L 292.273866 244.932397 
L 292.906891 246.199902 
L 293.539916 246.334743 
L 294.172941 250.2721 
L 294.805966 245.781895 
L 295.438992 246.631393 
L 296.072017 245.660538 
L 296.705042 244.21774 
L 297.338067 221.402644 
L 297.971092 243.300821 
L 298.604118 247.791026 
L 299.237143 244.945881 
L 299.870168 244.136835 
L 300.503193 241.790602 
L 301.136218 237.637499 
L 301.769244 242.828877 
L 302.402269 242.302997 
L 303.668319 235.102489 
L 304.301345 235.358687 
L 304.93437 234.050729 
L 305.567395 232.068566 
L 306.20042 237.47569 
L 306.833445 238.486997 
L 307.466471 241.089429 
L 308.099496 226.229952 
L 308.732521 227.834559 
L 309.365546 221.456581 
L 309.998571 218.800213 
L 310.631597 233.416976 
L 311.264622 201.2574 
L 311.897647 211.936807 
L 312.530672 209.954644 
L 313.163697 206.691492 
L 313.796723 198.317867 
L 315.062773 205.181273 
L 315.695798 197.347012 
L 316.328824 227.227775 
L 316.961849 198.830262 
L 317.594874 197.171718 
L 318.227899 170.554107 
L 318.860924 193.193909 
L 319.49395 197.751535 
L 320.126975 208.956821 
L 320.76 204.844171 
L 321.393025 201.513598 
L 322.02605 191.939888 
L 322.659076 202.929429 
L 323.925126 183.148255 
L 324.558151 197.063846 
L 325.191176 213.98639 
L 325.824202 192.047761 
L 326.457227 201.823732 
L 327.090252 192.73545 
L 327.723277 179.574969 
L 328.356303 185.615846 
L 328.989328 179.291803 
L 329.622353 209.765867 
L 330.255378 182.433598 
L 330.888403 188.852029 
L 331.521429 152.10786 
L 332.154454 196.632354 
L 332.787479 194.407478 
L 333.420504 181.341386 
L 334.053529 216.116877 
L 334.686555 202.592326 
L 335.31958 193.504043 
L 335.952605 190.200439 
L 336.58563 179.912072 
L 337.218655 183.296581 
L 337.851681 149.303167 
L 338.484706 187.584524 
L 339.117731 150.139181 
L 339.750756 146.377118 
L 340.383782 125.69251 
L 341.016807 143.033061 
L 341.649832 138.85299 
L 342.282857 159.335337 
L 342.915882 153.739436 
L 343.548908 175.52974 
L 344.181933 114.500708 
L 344.814958 114.77039 
L 345.447983 102.729089 
L 346.081008 114.797358 
L 346.714034 142.466729 
L 347.347059 143.019577 
L 347.980084 162.247902 
L 348.613109 132.960439 
L 349.246134 112.087054 
L 349.87916 115.107492 
L 350.512185 119.975252 
L 351.14521 134.726856 
L 351.778235 143.100482 
L 352.411261 154.292284 
L 353.044286 142.709443 
L 353.677311 87.950517 
L 354.310336 106.234955 
L 354.943361 98.252369 
L 356.209412 154.103506 
L 356.842437 150.772934 
L 357.475462 130.317556 
L 358.108487 46.473429 
L 358.741513 125.557669 
L 359.374538 107.542913 
L 360.007563 160.832072 
L 360.640588 129.130955 
L 361.273613 130.546785 
L 361.906639 101.434616 
L 362.539664 100.733443 
L 363.172689 137.046121 
L 363.805714 146.215308 
L 364.438739 163.528891 
L 365.071765 166.09087 
L 365.70479 141.819492 
L 366.337815 164.607619 
L 366.97084 181.907718 
L 368.236891 155.10133 
L 368.869916 185.804623 
L 369.502941 205.423987 
L 370.135966 190.052114 
L 370.768992 198.223478 
L 371.402017 161.344467 
L 372.035042 206.286969 
L 372.668067 128.955662 
L 373.301092 199.666277 
L 373.934118 207.433118 
L 374.567143 213.258248 
L 375.200168 205.761089 
L 375.833193 209.752383 
L 376.466218 204.830687 
L 377.099244 220.26998 
L 377.732269 217.708001 
L 378.365294 232.594446 
L 378.998319 219.433966 
L 379.631345 229.830206 
L 380.26437 217.667549 
L 380.897395 217.896778 
L 381.53042 221.510517 
L 382.796471 234.751902 
L 383.429496 235.358687 
L 384.062521 235.021584 
L 384.695546 233.322588 
L 385.328571 236.693612 
L 385.961597 235.803662 
L 387.227647 243.894121 
L 387.860672 249.301245 
L 388.493697 245.067238 
L 389.126723 242.653584 
L 389.759748 245.053754 
L 390.392773 243.058107 
L 391.025798 244.258192 
L 391.658824 246.145966 
L 392.291849 247.184241 
L 392.924874 251.741867 
L 393.557899 245.242531 
L 394.190924 250.487846 
L 394.82395 248.209033 
L 395.456975 249.530475 
L 396.09 248.964142 
L 396.723025 250.285584 
L 397.35605 249.490022 
L 397.989076 250.663139 
L 398.622101 249.436086 
L 399.255126 250.420425 
L 399.888151 250.33952 
L 400.521176 250.609202 
L 401.154202 251.283407 
L 401.787227 252.456524 
L 402.420252 250.905853 
L 403.053277 251.310376 
L 403.686303 248.303422 
L 404.319328 252.227294 
L 404.952353 253.292538 
L 405.585378 247.008948 
L 406.218403 252.699238 
L 406.851429 251.067662 
L 407.484454 252.267747 
L 408.117479 248.006771 
L 408.750504 251.539605 
L 409.383529 253.252086 
L 410.016555 253.049824 
L 410.64958 251.39128 
L 411.282605 254.142036 
L 411.91563 253.373443 
L 412.548655 254.007195 
L 413.181681 253.33299 
L 413.814706 253.4948 
L 414.447731 252.888015 
L 415.080756 254.15552 
L 415.713782 253.683577 
L 416.979832 253.386927 
L 418.245882 254.829725 
L 418.878908 254.371266 
L 419.511933 254.802757 
L 420.144958 254.344298 
L 420.777983 254.0881 
L 421.411008 253.413895 
L 422.044034 254.654432 
L 422.677059 254.034164 
L 423.310084 254.654432 
L 423.943109 254.546559 
L 424.576134 254.115068 
L 425.20916 253.117245 
L 425.842185 254.061132 
L 426.47521 254.115068 
L 427.108235 254.465655 
L 427.741261 254.479139 
L 428.374286 254.883662 
L 429.640336 253.670093 
L 430.273361 254.452171 
L 430.906387 254.290361 
L 432.172437 254.816241 
L 432.805462 254.020679 
L 433.438487 254.276877 
L 434.071513 251.809287 
L 434.704538 253.993711 
L 435.337563 254.101584 
L 435.970588 254.506107 
L 436.603613 253.85887 
L 437.236639 254.263393 
L 437.869664 253.535252 
L 438.502689 253.953259 
L 439.135714 253.85887 
L 439.768739 252.955436 
L 440.401765 254.573528 
L 441.03479 254.762305 
L 441.667815 253.899323 
L 442.933866 253.966743 
L 444.199916 253.009372 
L 444.832941 253.467831 
L 445.465966 253.427379 
L 447.365042 251.431732 
L 447.998067 252.631817 
L 448.631092 252.389103 
L 449.264118 252.726206 
L 449.897143 253.912807 
L 449.897143 253.912807 
" style="fill:none;stroke:#000000;stroke-dasharray:1.5,2.475;stroke-dashoffset:0;stroke-opacity:0.5;stroke-width:1.5;"/>
   </g>
   <g id="line2d_33">
    <path clip-path="url(#p1bfe71398d)" d="M 62.485714 256.299492 
L 65.65084 256.286008 
L 73.247143 255.706192 
L 74.513193 255.571351 
L 75.779244 255.530899 
L 77.678319 255.409542 
L 80.21042 255.706192 
L 80.843445 255.854517 
L 82.742521 255.814065 
L 84.008571 255.50393 
L 85.274622 255.328637 
L 85.907647 255.315153 
L 87.173697 255.153344 
L 89.072773 255.085923 
L 90.338824 255.005019 
L 91.604874 255.045471 
L 92.870924 254.964566 
L 96.669076 254.020679 
L 99.201176 253.939775 
L 99.834202 254.0881 
L 102.366303 253.697061 
L 102.999328 253.481315 
L 103.632353 253.575704 
L 104.898403 253.252086 
L 106.797479 252.914983 
L 107.430504 252.780142 
L 109.962605 250.838432 
L 110.59563 250.460877 
L 111.228655 250.474361 
L 111.861681 250.33952 
L 112.494706 250.366489 
L 113.127731 250.609202 
L 116.292857 250.986757 
L 116.925882 251.148566 
L 117.558908 251.09463 
L 118.191933 250.8654 
L 118.824958 250.447393 
L 120.091008 250.299068 
L 120.724034 250.096807 
L 121.357059 249.543959 
L 121.990084 248.505683 
L 122.623109 248.128128 
L 124.522185 245.63357 
L 125.15521 245.04027 
L 125.788235 244.271676 
L 126.421261 244.123351 
L 127.054286 242.478291 
L 127.687311 242.276029 
L 128.320336 241.332142 
L 128.953361 241.426531 
L 129.586387 240.981556 
L 130.219412 240.927619 
L 130.852437 240.212962 
L 131.485462 240.509612 
L 132.118487 239.727535 
L 132.751513 239.997217 
L 133.384538 238.905005 
L 134.017563 238.743195 
L 134.650588 238.149895 
L 135.283613 235.925019 
L 135.916639 233.174262 
L 136.549664 230.949386 
L 137.182689 229.452651 
L 137.815714 228.886319 
L 138.448739 228.549217 
L 139.081765 228.95374 
L 140.347815 231.529202 
L 140.98084 230.450475 
L 141.613866 229.088581 
L 142.246891 228.009853 
L 142.879916 226.014206 
L 143.512941 222.575761 
L 144.145966 219.81152 
L 144.778992 216.45398 
L 145.412017 215.321315 
L 146.045042 214.485301 
L 146.678067 211.599704 
L 147.311092 210.345683 
L 147.944118 210.790658 
L 148.577143 209.792835 
L 149.210168 210.305231 
L 149.843193 208.430941 
L 150.476218 209.172566 
L 151.109244 212.732369 
L 151.742269 212.651464 
L 152.375294 208.471393 
L 153.008319 208.619718 
L 153.641345 206.853301 
L 154.27437 207.662347 
L 154.907395 206.300453 
L 155.54042 203.644086 
L 156.173445 204.089061 
L 156.806471 206.084708 
L 157.439496 202.781103 
L 158.072521 201.163012 
L 158.705546 199.207817 
L 159.338571 199.261754 
L 159.971597 199.801118 
L 160.604622 198.49316 
L 161.237647 199.167365 
L 161.870672 202.578842 
L 162.503697 203.617118 
L 163.136723 207.783704 
L 163.769748 207.783704 
L 164.402773 211.262602 
L 165.035798 212.314361 
L 166.301849 213.190828 
L 166.934874 214.957245 
L 167.567899 216.238234 
L 168.200924 220.26998 
L 168.83395 221.537485 
L 169.466975 223.506164 
L 170.1 222.845443 
L 170.733025 222.629697 
L 171.36605 224.328694 
L 171.999076 223.694941 
L 172.632101 224.220821 
L 173.265126 225.20516 
L 173.898151 226.607506 
L 174.531176 227.67275 
L 175.164202 228.090757 
L 175.797227 227.996369 
L 177.063277 229.439167 
L 178.329328 232.162955 
L 178.962353 232.257344 
L 179.595378 232.810192 
L 180.228403 233.160778 
L 180.861429 233.187747 
L 181.494454 232.675351 
L 182.127479 232.001146 
L 182.760504 231.920241 
L 183.393529 233.228199 
L 184.026555 233.43046 
L 184.65958 232.945033 
L 185.292605 233.605754 
L 185.92563 234.468736 
L 186.558655 234.940679 
L 187.191681 234.4148 
L 187.824706 234.495704 
L 188.457731 234.846291 
L 189.090756 235.925019 
L 189.723782 235.884566 
L 190.356807 235.089005 
L 191.622857 232.796708 
L 192.255882 232.122503 
L 192.888908 231.070743 
L 193.521933 231.111195 
L 194.154958 231.340425 
L 196.054034 237.030715 
L 196.687059 237.259944 
L 197.320084 238.716227 
L 197.953109 238.729711 
L 199.21916 238.433061 
L 199.852185 238.284736 
L 201.118235 234.441768 
L 201.751261 233.025937 
L 202.384286 231.070743 
L 203.017311 230.854997 
L 203.650336 230.801061 
L 204.283361 231.232552 
L 204.916387 232.891096 
L 206.182437 231.353909 
L 206.815462 231.003323 
L 207.448487 230.234729 
L 208.081513 230.14034 
L 208.714538 231.326941 
L 209.347563 232.122503 
L 209.980588 233.416976 
L 210.613613 232.594446 
L 211.246639 232.675351 
L 211.879664 232.446121 
L 212.512689 232.351732 
L 213.145714 232.648383 
L 214.411765 232.783224 
L 215.04479 233.349556 
L 215.677815 232.796708 
L 216.31084 233.187747 
L 217.576891 235.156425 
L 218.842941 235.250814 
L 219.475966 233.95634 
L 220.108992 234.387831 
L 220.742017 232.109019 
L 221.375042 232.850644 
L 222.008067 232.473089 
L 222.641092 232.864128 
L 223.907143 229.452651 
L 224.540168 226.580538 
L 225.173193 226.607506 
L 225.806218 225.973754 
L 226.439244 227.268227 
L 227.705294 227.578361 
L 228.338319 228.49528 
L 228.971345 226.971577 
L 229.60437 226.472665 
L 230.237395 225.79846 
L 230.87042 225.299549 
L 231.503445 227.322164 
L 232.136471 228.279535 
L 232.769496 226.418729 
L 233.402521 226.364793 
L 234.035546 224.503987 
L 234.668571 223.708425 
L 235.934622 218.92157 
L 236.567647 216.143846 
L 237.200672 215.119054 
L 237.833697 212.233457 
L 238.466723 210.601881 
L 239.099748 211.842418 
L 239.732773 213.703224 
L 240.365798 211.451379 
L 240.998824 210.008581 
L 241.631849 207.163436 
L 242.264874 208.323068 
L 242.897899 207.662347 
L 243.530924 207.419634 
L 244.16395 207.77022 
L 244.796975 208.660171 
L 245.43 205.343082 
L 246.063025 202.619294 
L 246.69605 200.745005 
L 247.329076 201.176496 
L 247.962101 199.383111 
L 248.595126 199.90899 
L 249.228151 198.708906 
L 249.861176 197.791987 
L 250.494202 192.357895 
L 251.127227 184.725895 
L 251.760252 182.056043 
L 252.393277 183.215676 
L 253.026303 187.517103 
L 253.659328 190.982517 
L 254.292353 189.364425 
L 254.925378 185.346164 
L 255.558403 184.253952 
L 256.191429 180.505372 
L 256.824454 180.060397 
L 257.457479 177.484934 
L 258.090504 178.374884 
L 258.723529 184.591054 
L 259.356555 187.854206 
L 259.98958 186.141725 
L 260.622605 187.260906 
L 261.25563 187.80027 
L 262.521681 196.807648 
L 263.154706 200.084284 
L 264.420756 211.667125 
L 265.053782 213.217796 
L 265.686807 215.847195 
L 266.952857 217.411351 
L 267.585882 217.033796 
L 268.851933 219.110347 
L 271.384034 233.336072 
L 272.017059 235.965471 
L 272.650084 236.329542 
L 273.283109 236.936326 
L 273.916134 237.192524 
L 274.54916 237.219492 
L 275.182185 237.597047 
L 275.81521 236.275605 
L 277.081261 236.720581 
L 277.714286 236.828453 
L 278.347311 237.098135 
L 278.980336 237.691436 
L 279.613361 239.080298 
L 280.246387 241.386079 
L 281.512437 242.006347 
L 282.145462 242.168156 
L 282.778487 242.734489 
L 283.411513 243.46263 
L 284.044538 243.786248 
L 285.310588 244.986333 
L 286.576639 245.714475 
L 287.209664 245.63357 
L 287.842689 245.943704 
L 288.475714 246.550489 
L 289.108739 246.928043 
L 290.37479 246.334743 
L 292.273866 246.15945 
L 292.906891 246.078545 
L 293.539916 246.280807 
L 294.172941 246.739266 
L 294.805966 246.604425 
L 295.438992 243.786248 
L 296.072017 242.437838 
L 296.705042 241.426531 
L 297.338067 241.102913 
L 297.971092 241.116397 
L 298.604118 241.345626 
L 299.237143 241.332142 
L 299.870168 243.260369 
L 300.503193 242.774941 
L 304.301345 236.05986 
L 304.93437 235.520496 
L 305.567395 235.938503 
L 306.20042 235.358687 
L 306.833445 234.522672 
L 307.466471 232.783224 
L 308.099496 230.410022 
L 308.732521 228.832383 
L 309.998571 220.526178 
L 311.264622 214.768467 
L 313.163697 205.113853 
L 313.796723 204.18345 
L 314.429748 205.37005 
L 315.695798 204.4801 
L 316.328824 201.500114 
L 317.594874 196.767195 
L 318.227899 196.605386 
L 318.860924 194.798517 
L 319.49395 196.376156 
L 320.126975 197.266107 
L 320.76 200.73152 
L 321.393025 200.43487 
L 322.659076 196.079506 
L 323.292101 196.591902 
L 323.925126 196.09299 
L 324.558151 197.427916 
L 325.191176 197.036877 
L 325.824202 195.836793 
L 326.457227 195.054715 
L 327.090252 191.791563 
L 327.723277 190.375732 
L 328.989328 188.312665 
L 329.622353 184.523634 
L 330.255378 185.184354 
L 330.888403 185.292227 
L 331.521429 185.009061 
L 332.154454 186.209146 
L 332.787479 189.998178 
L 333.420504 192.587125 
L 334.053529 197.063846 
L 335.31958 193.355718 
L 336.58563 183.013414 
L 337.851681 169.731577 
L 338.484706 161.250079 
L 339.750756 148.399732 
L 340.383782 147.428877 
L 341.016807 144.111789 
L 341.649832 147.887337 
L 342.915882 145.406262 
L 344.814958 128.348877 
L 345.447983 125.975676 
L 346.081008 126.353231 
L 346.714034 131.22099 
L 347.347059 133.176185 
L 347.980084 134.335817 
L 348.613109 132.893019 
L 349.246134 129.886065 
L 349.87916 128.659012 
L 350.512185 128.780369 
L 351.14521 132.097457 
L 351.778235 131.436736 
L 352.411261 129.710771 
L 353.677311 120.555068 
L 354.310336 119.746022 
L 354.943361 120.609005 
L 355.576387 122.901301 
L 356.209412 120.932623 
L 356.842437 121.337146 
L 357.475462 119.435888 
L 358.108487 120.285386 
L 358.741513 118.141414 
L 359.374538 118.694262 
L 360.007563 119.071817 
L 360.640588 124.303648 
L 361.273613 123.804736 
L 361.906639 126.097033 
L 362.539664 127.121824 
L 363.172689 133.661612 
L 363.805714 138.745118 
L 365.071765 157.245301 
L 365.70479 161.68157 
L 366.337815 163.447987 
L 366.97084 166.306616 
L 367.603866 171.619351 
L 368.236891 178.105202 
L 368.869916 183.16174 
L 369.502941 183.026899 
L 370.135966 187.34181 
L 370.768992 184.213499 
L 371.402017 183.148255 
L 372.035042 182.352694 
L 373.301092 188.636284 
L 373.934118 195.985118 
L 374.567143 198.78981 
L 375.200168 208.660171 
L 375.833193 210.844595 
L 376.466218 213.98639 
L 377.099244 215.914616 
L 377.732269 219.474418 
L 378.998319 222.778022 
L 379.631345 222.629697 
L 380.26437 223.155577 
L 380.897395 223.452227 
L 381.53042 225.609683 
L 382.163445 227.241259 
L 383.429496 232.500058 
L 384.062521 234.293443 
L 385.328571 236.841937 
L 386.594622 240.630969 
L 387.227647 242.289513 
L 387.860672 243.583987 
L 388.493697 244.460453 
L 389.126723 244.743619 
L 389.759748 244.784072 
L 390.392773 244.622262 
L 391.025798 245.525697 
L 391.658824 246.145966 
L 392.924874 247.777542 
L 393.557899 248.424778 
L 394.82395 249.085499 
L 395.456975 248.991111 
L 396.09 249.584411 
L 396.723025 249.570927 
L 397.35605 249.840609 
L 399.255126 250.299068 
L 399.888151 250.663139 
L 400.521176 250.811464 
L 401.154202 251.09463 
L 401.787227 250.919337 
L 403.053277 251.242955 
L 403.686303 250.824948 
L 404.952353 250.838432 
L 405.585378 250.986757 
L 407.484454 250.8654 
L 408.117479 251.499153 
L 408.750504 251.485669 
L 411.282605 253.211634 
L 413.814706 253.535252 
L 415.713782 253.616156 
L 418.878908 254.344298 
L 423.943109 254.182489 
L 424.576134 254.074616 
L 426.47521 254.15552 
L 428.374286 254.371266 
L 431.539412 254.344298 
L 432.805462 253.980227 
L 434.704538 253.750997 
L 437.236639 254.007195 
L 437.869664 253.85887 
L 439.135714 253.912807 
L 442.30084 253.953259 
L 444.832941 253.225118 
L 445.465966 252.901499 
L 447.365042 252.429556 
L 449.264118 252.712722 
L 449.897143 252.982404 
L 449.897143 252.982404 
" style="fill:none;stroke:#b3220f;stroke-linecap:square;stroke-width:1.5;"/>
   </g>
   <g id="patch_3">
    <path d="M 62.485714 266.847429 
L 62.485714 35.979429 
" style="fill:none;stroke:#000000;stroke-linecap:square;stroke-linejoin:miter;stroke-width:0.8;"/>
   </g>
   <g id="patch_4">
    <path d="M 449.897143 266.847429 
L 449.897143 35.979429 
" style="fill:none;stroke:#000000;stroke-linecap:square;stroke-linejoin:miter;stroke-width:0.8;"/>
   </g>
   <g id="patch_5">
    <path d="M 62.485714 266.847429 
L 449.897143 266.847429 
" style="fill:none;stroke:#000000;stroke-linecap:square;stroke-linejoin:miter;stroke-width:0.8;"/>
   </g>
   <g id="patch_6">
    <path d="M 62.485714 35.979429 
L 449.897143 35.979429 
" style="fill:none;stroke:#000000;stroke-linecap:square;stroke-linejoin:miter;stroke-width:0.8;"/>
   </g>
   <g id="text_18">
    <!-- Bogotá D.C. | Casos nuevos 2021-11-16 -->
    <g transform="translate(136.411741 29.979429)scale(0.12 -0.12)">
     <defs>
      <path d="M 1259 2228 
L 1259 519 
L 2272 519 
Q 2781 519 3026 730 
Q 3272 941 3272 1375 
Q 3272 1813 3026 2020 
Q 2781 2228 2272 2228 
L 1259 2228 
z
M 1259 4147 
L 1259 2741 
L 2194 2741 
Q 2656 2741 2882 2914 
Q 3109 3088 3109 3444 
Q 3109 3797 2882 3972 
Q 2656 4147 2194 4147 
L 1259 4147 
z
M 628 4666 
L 2241 4666 
Q 2963 4666 3353 4366 
Q 3744 4066 3744 3513 
Q 3744 3084 3544 2831 
Q 3344 2578 2956 2516 
Q 3422 2416 3680 2098 
Q 3938 1781 3938 1306 
Q 3938 681 3513 340 
Q 3088 0 2303 0 
L 628 0 
L 628 4666 
z
" id="DejaVuSans-42" transform="scale(0.015625)"/>
      <path d="M 1959 3097 
Q 1497 3097 1228 2736 
Q 959 2375 959 1747 
Q 959 1119 1226 758 
Q 1494 397 1959 397 
Q 2419 397 2687 759 
Q 2956 1122 2956 1747 
Q 2956 2369 2687 2733 
Q 2419 3097 1959 3097 
z
M 1959 3584 
Q 2709 3584 3137 3096 
Q 3566 2609 3566 1747 
Q 3566 888 3137 398 
Q 2709 -91 1959 -91 
Q 1206 -91 779 398 
Q 353 888 353 1747 
Q 353 2609 779 3096 
Q 1206 3584 1959 3584 
z
" id="DejaVuSans-6f" transform="scale(0.015625)"/>
      <path d="M 2906 1791 
Q 2906 2416 2648 2759 
Q 2391 3103 1925 3103 
Q 1463 3103 1205 2759 
Q 947 2416 947 1791 
Q 947 1169 1205 825 
Q 1463 481 1925 481 
Q 2391 481 2648 825 
Q 2906 1169 2906 1791 
z
M 3481 434 
Q 3481 -459 3084 -895 
Q 2688 -1331 1869 -1331 
Q 1566 -1331 1297 -1286 
Q 1028 -1241 775 -1147 
L 775 -588 
Q 1028 -725 1275 -790 
Q 1522 -856 1778 -856 
Q 2344 -856 2625 -561 
Q 2906 -266 2906 331 
L 2906 616 
Q 2728 306 2450 153 
Q 2172 0 1784 0 
Q 1141 0 747 490 
Q 353 981 353 1791 
Q 353 2603 747 3093 
Q 1141 3584 1784 3584 
Q 2172 3584 2450 3431 
Q 2728 3278 2906 2969 
L 2906 3500 
L 3481 3500 
L 3481 434 
z
" id="DejaVuSans-67" transform="scale(0.015625)"/>
      <path d="M 2194 1759 
Q 1497 1759 1228 1600 
Q 959 1441 959 1056 
Q 959 750 1161 570 
Q 1363 391 1709 391 
Q 2188 391 2477 730 
Q 2766 1069 2766 1631 
L 2766 1759 
L 2194 1759 
z
M 3341 1997 
L 3341 0 
L 2766 0 
L 2766 531 
Q 2569 213 2275 61 
Q 1981 -91 1556 -91 
Q 1019 -91 701 211 
Q 384 513 384 1019 
Q 384 1609 779 1909 
Q 1175 2209 1959 2209 
L 2766 2209 
L 2766 2266 
Q 2766 2663 2505 2880 
Q 2244 3097 1772 3097 
Q 1472 3097 1187 3025 
Q 903 2953 641 2809 
L 641 3341 
Q 956 3463 1253 3523 
Q 1550 3584 1831 3584 
Q 2591 3584 2966 3190 
Q 3341 2797 3341 1997 
z
M 2290 5119 
L 2912 5119 
L 1894 3944 
L 1415 3944 
L 2290 5119 
z
" id="DejaVuSans-e1" transform="scale(0.015625)"/>
      <path id="DejaVuSans-20" transform="scale(0.015625)"/>
      <path d="M 1259 4147 
L 1259 519 
L 2022 519 
Q 2988 519 3436 956 
Q 3884 1394 3884 2338 
Q 3884 3275 3436 3711 
Q 2988 4147 2022 4147 
L 1259 4147 
z
M 628 4666 
L 1925 4666 
Q 3281 4666 3915 4102 
Q 4550 3538 4550 2338 
Q 4550 1131 3912 565 
Q 3275 0 1925 0 
L 628 0 
L 628 4666 
z
" id="DejaVuSans-44" transform="scale(0.015625)"/>
      <path d="M 684 794 
L 1344 794 
L 1344 0 
L 684 0 
L 684 794 
z
" id="DejaVuSans-2e" transform="scale(0.015625)"/>
      <path d="M 4122 4306 
L 4122 3641 
Q 3803 3938 3442 4084 
Q 3081 4231 2675 4231 
Q 1875 4231 1450 3742 
Q 1025 3253 1025 2328 
Q 1025 1406 1450 917 
Q 1875 428 2675 428 
Q 3081 428 3442 575 
Q 3803 722 4122 1019 
L 4122 359 
Q 3791 134 3420 21 
Q 3050 -91 2638 -91 
Q 1578 -91 968 557 
Q 359 1206 359 2328 
Q 359 3453 968 4101 
Q 1578 4750 2638 4750 
Q 3056 4750 3426 4639 
Q 3797 4528 4122 4306 
z
" id="DejaVuSans-43" transform="scale(0.015625)"/>
      <path d="M 1344 4891 
L 1344 -1509 
L 813 -1509 
L 813 4891 
L 1344 4891 
z
" id="DejaVuSans-7c" transform="scale(0.015625)"/>
      <path d="M 2834 3397 
L 2834 2853 
Q 2591 2978 2328 3040 
Q 2066 3103 1784 3103 
Q 1356 3103 1142 2972 
Q 928 2841 928 2578 
Q 928 2378 1081 2264 
Q 1234 2150 1697 2047 
L 1894 2003 
Q 2506 1872 2764 1633 
Q 3022 1394 3022 966 
Q 3022 478 2636 193 
Q 2250 -91 1575 -91 
Q 1294 -91 989 -36 
Q 684 19 347 128 
L 347 722 
Q 666 556 975 473 
Q 1284 391 1588 391 
Q 1994 391 2212 530 
Q 2431 669 2431 922 
Q 2431 1156 2273 1281 
Q 2116 1406 1581 1522 
L 1381 1569 
Q 847 1681 609 1914 
Q 372 2147 372 2553 
Q 372 3047 722 3315 
Q 1072 3584 1716 3584 
Q 2034 3584 2315 3537 
Q 2597 3491 2834 3397 
z
" id="DejaVuSans-73" transform="scale(0.015625)"/>
      <path d="M 191 3500 
L 800 3500 
L 1894 563 
L 2988 3500 
L 3597 3500 
L 2284 0 
L 1503 0 
L 191 3500 
z
" id="DejaVuSans-76" transform="scale(0.015625)"/>
      <path d="M 313 2009 
L 1997 2009 
L 1997 1497 
L 313 1497 
L 313 2009 
z
" id="DejaVuSans-2d" transform="scale(0.015625)"/>
     </defs>
     <use xlink:href="#DejaVuSans-42"/>
     <use x="68.603516" xlink:href="#DejaVuSans-6f"/>
     <use x="129.785156" xlink:href="#DejaVuSans-67"/>
     <use x="193.261719" xlink:href="#DejaVuSans-6f"/>
     <use x="254.443359" xlink:href="#DejaVuSans-74"/>
     <use x="293.652344" xlink:href="#DejaVuSans-e1"/>
     <use x="354.931641" xlink:href="#DejaVuSans-20"/>
     <use x="386.71875" xlink:href="#DejaVuSans-44"/>
     <use x="463.720703" xlink:href="#DejaVuSans-2e"/>
     <use x="495.507812" xlink:href="#DejaVuSans-43"/>
     <use x="565.332031" xlink:href="#DejaVuSans-2e"/>
     <use x="597.119141" xlink:href="#DejaVuSans-20"/>
     <use x="628.90625" xlink:href="#DejaVuSans-7c"/>
     <use x="662.597656" xlink:href="#DejaVuSans-20"/>
     <use x="694.384766" xlink:href="#DejaVuSans-43"/>
     <use x="764.208984" xlink:href="#DejaVuSans-61"/>
     <use x="825.488281" xlink:href="#DejaVuSans-73"/>
     <use x="877.587891" xlink:href="#DejaVuSans-6f"/>
     <use x="938.769531" xlink:href="#DejaVuSans-73"/>
     <use x="990.869141" xlink:href="#DejaVuSans-20"/>
     <use x="1022.65625" xlink:href="#DejaVuSans-6e"/>
     <use x="1086.035156" xlink:href="#DejaVuSans-75"/>
     <use x="1149.414062" xlink:href="#DejaVuSans-65"/>
     <use x="1210.9375" xlink:href="#DejaVuSans-76"/>
     <use x="1270.117188" xlink:href="#DejaVuSans-6f"/>
     <use x="1331.298828" xlink:href="#DejaVuSans-73"/>
     <use x="1383.398438" xlink:href="#DejaVuSans-20"/>
     <use x="1415.185547" xlink:href="#DejaVuSans-32"/>
     <use x="1478.808594" xlink:href="#DejaVuSans-30"/>
     <use x="1542.431641" xlink:href="#DejaVuSans-32"/>
     <use x="1606.054688" xlink:href="#DejaVuSans-31"/>
     <use x="1669.677734" xlink:href="#DejaVuSans-2d"/>
     <use x="1705.761719" xlink:href="#DejaVuSans-31"/>
     <use x="1769.384766" xlink:href="#DejaVuSans-31"/>
     <use x="1833.007812" xlink:href="#DejaVuSans-2d"/>
     <use x="1869.091797" xlink:href="#DejaVuSans-31"/>
     <use x="1932.714844" xlink:href="#DejaVuSans-36"/>
    </g>
   </g>
   <g id="legend_1">
    <g id="patch_7">
     <path d="M 69.485714 73.335679 
L 238.301339 73.335679 
Q 240.301339 73.335679 240.301339 71.335679 
L 240.301339 42.979429 
Q 240.301339 40.979429 238.301339 40.979429 
L 69.485714 40.979429 
Q 67.485714 40.979429 67.485714 42.979429 
L 67.485714 71.335679 
Q 67.485714 73.335679 69.485714 73.335679 
z
" style="fill:#ffffff;opacity:0.8;stroke:#cccccc;stroke-linejoin:miter;"/>
    </g>
    <g id="line2d_34">
     <path d="M 71.485714 49.077866 
L 91.485714 49.077866 
" style="fill:none;stroke:#000000;stroke-dasharray:1.5,2.475;stroke-dashoffset:0;stroke-opacity:0.5;stroke-width:1.5;"/>
    </g>
    <g id="line2d_35"/>
    <g id="text_19">
     <!-- Actual -->
     <g transform="translate(99.485714 52.577866)scale(0.1 -0.1)">
      <use xlink:href="#DejaVuSans-41"/>
      <use x="66.658203" xlink:href="#DejaVuSans-63"/>
      <use x="121.638672" xlink:href="#DejaVuSans-74"/>
      <use x="160.847656" xlink:href="#DejaVuSans-75"/>
      <use x="224.226562" xlink:href="#DejaVuSans-61"/>
      <use x="285.505859" xlink:href="#DejaVuSans-6c"/>
     </g>
    </g>
    <g id="line2d_36">
     <path d="M 71.485714 63.755991 
L 91.485714 63.755991 
" style="fill:none;stroke:#b3220f;stroke-linecap:square;stroke-width:1.5;"/>
    </g>
    <g id="line2d_37"/>
    <g id="text_20">
     <!-- Promedio semanal (7 días)  -->
     <g transform="translate(99.485714 67.255991)scale(0.1 -0.1)">
      <defs>
       <path d="M 1259 4147 
L 1259 2394 
L 2053 2394 
Q 2494 2394 2734 2622 
Q 2975 2850 2975 3272 
Q 2975 3691 2734 3919 
Q 2494 4147 2053 4147 
L 1259 4147 
z
M 628 4666 
L 2053 4666 
Q 2838 4666 3239 4311 
Q 3641 3956 3641 3272 
Q 3641 2581 3239 2228 
Q 2838 1875 2053 1875 
L 1259 1875 
L 1259 0 
L 628 0 
L 628 4666 
z
" id="DejaVuSans-50" transform="scale(0.015625)"/>
       <path d="M 3328 2828 
Q 3544 3216 3844 3400 
Q 4144 3584 4550 3584 
Q 5097 3584 5394 3201 
Q 5691 2819 5691 2113 
L 5691 0 
L 5113 0 
L 5113 2094 
Q 5113 2597 4934 2840 
Q 4756 3084 4391 3084 
Q 3944 3084 3684 2787 
Q 3425 2491 3425 1978 
L 3425 0 
L 2847 0 
L 2847 2094 
Q 2847 2600 2669 2842 
Q 2491 3084 2119 3084 
Q 1678 3084 1418 2786 
Q 1159 2488 1159 1978 
L 1159 0 
L 581 0 
L 581 3500 
L 1159 3500 
L 1159 2956 
Q 1356 3278 1631 3431 
Q 1906 3584 2284 3584 
Q 2666 3584 2933 3390 
Q 3200 3197 3328 2828 
z
" id="DejaVuSans-6d" transform="scale(0.015625)"/>
       <path d="M 2906 2969 
L 2906 4863 
L 3481 4863 
L 3481 0 
L 2906 0 
L 2906 525 
Q 2725 213 2448 61 
Q 2172 -91 1784 -91 
Q 1150 -91 751 415 
Q 353 922 353 1747 
Q 353 2572 751 3078 
Q 1150 3584 1784 3584 
Q 2172 3584 2448 3432 
Q 2725 3281 2906 2969 
z
M 947 1747 
Q 947 1113 1208 752 
Q 1469 391 1925 391 
Q 2381 391 2643 752 
Q 2906 1113 2906 1747 
Q 2906 2381 2643 2742 
Q 2381 3103 1925 3103 
Q 1469 3103 1208 2742 
Q 947 2381 947 1747 
z
" id="DejaVuSans-64" transform="scale(0.015625)"/>
       <path d="M 603 3500 
L 1178 3500 
L 1178 0 
L 603 0 
L 603 3500 
z
M 603 4863 
L 1178 4863 
L 1178 4134 
L 603 4134 
L 603 4863 
z
" id="DejaVuSans-69" transform="scale(0.015625)"/>
       <path d="M 1984 4856 
Q 1566 4138 1362 3434 
Q 1159 2731 1159 2009 
Q 1159 1288 1364 580 
Q 1569 -128 1984 -844 
L 1484 -844 
Q 1016 -109 783 600 
Q 550 1309 550 2009 
Q 550 2706 781 3412 
Q 1013 4119 1484 4856 
L 1984 4856 
z
" id="DejaVuSans-28" transform="scale(0.015625)"/>
       <path d="M 525 4666 
L 3525 4666 
L 3525 4397 
L 1831 0 
L 1172 0 
L 2766 4134 
L 525 4134 
L 525 4666 
z
" id="DejaVuSans-37" transform="scale(0.015625)"/>
       <path d="M 1322 5119 
L 1944 5119 
L 926 3944 
L 447 3944 
L 1322 5119 
z
M 603 3500 
L 1178 3500 
L 1178 0 
L 603 0 
L 603 3500 
z
M 891 3584 
L 891 3584 
z
" id="DejaVuSans-ed" transform="scale(0.015625)"/>
       <path d="M 513 4856 
L 1013 4856 
Q 1481 4119 1714 3412 
Q 1947 2706 1947 2009 
Q 1947 1309 1714 600 
Q 1481 -109 1013 -844 
L 513 -844 
Q 928 -128 1133 580 
Q 1338 1288 1338 2009 
Q 1338 2731 1133 3434 
Q 928 4138 513 4856 
z
" id="DejaVuSans-29" transform="scale(0.015625)"/>
      </defs>
      <use xlink:href="#DejaVuSans-50"/>
      <use x="58.552734" xlink:href="#DejaVuSans-72"/>
      <use x="97.416016" xlink:href="#DejaVuSans-6f"/>
      <use x="158.597656" xlink:href="#DejaVuSans-6d"/>
      <use x="256.009766" xlink:href="#DejaVuSans-65"/>
      <use x="317.533203" xlink:href="#DejaVuSans-64"/>
      <use x="381.009766" xlink:href="#DejaVuSans-69"/>
      <use x="408.792969" xlink:href="#DejaVuSans-6f"/>
      <use x="469.974609" xlink:href="#DejaVuSans-20"/>
      <use x="501.761719" xlink:href="#DejaVuSans-73"/>
      <use x="553.861328" xlink:href="#DejaVuSans-65"/>
      <use x="615.384766" xlink:href="#DejaVuSans-6d"/>
      <use x="712.796875" xlink:href="#DejaVuSans-61"/>
      <use x="774.076172" xlink:href="#DejaVuSans-6e"/>
      <use x="837.455078" xlink:href="#DejaVuSans-61"/>
      <use x="898.734375" xlink:href="#DejaVuSans-6c"/>
      <use x="926.517578" xlink:href="#DejaVuSans-20"/>
      <use x="958.304688" xlink:href="#DejaVuSans-28"/>
      <use x="997.318359" xlink:href="#DejaVuSans-37"/>
      <use x="1060.941406" xlink:href="#DejaVuSans-20"/>
      <use x="1092.728516" xlink:href="#DejaVuSans-64"/>
      <use x="1156.205078" xlink:href="#DejaVuSans-ed"/>
      <use x="1183.988281" xlink:href="#DejaVuSans-61"/>
      <use x="1245.267578" xlink:href="#DejaVuSans-73"/>
      <use x="1297.367188" xlink:href="#DejaVuSans-29"/>
      <use x="1336.380859" xlink:href="#DejaVuSans-20"/>
     </g>
    </g>
   </g>
  </g>
 </g>
 <defs>
  <clipPath id="p1bfe71398d">
   <rect height="230.868" width="387.411429" x="62.485714" y="35.979429"/>
  </clipPath>
 </defs>
</svg>
