<?xml version="1.0" encoding="utf-8" standalone="no"?>
<!DOCTYPE svg PUBLIC "-//W3C//DTD SVG 1.1//EN"
  "http://www.w3.org/Graphics/SVG/1.1/DTD/svg11.dtd">
<!-- Created with matplotlib (https://matplotlib.org/) -->
<svg height="350.065781pt" version="1.1" viewBox="0 0 376.046875 350.065781" width="376.046875pt" xmlns="http://www.w3.org/2000/svg" xmlns:xlink="http://www.w3.org/1999/xlink">
 <metadata>
  <rdf:RDF xmlns:cc="http://creativecommons.org/ns#" xmlns:dc="http://purl.org/dc/elements/1.1/" xmlns:rdf="http://www.w3.org/1999/02/22-rdf-syntax-ns#">
   <cc:Work>
    <dc:type rdf:resource="http://purl.org/dc/dcmitype/StillImage"/>
    <dc:date>2021-06-26T01:38:31.691832</dc:date>
    <dc:format>image/svg+xml</dc:format>
    <dc:creator>
     <cc:Agent>
      <dc:title>Matplotlib v3.3.4, https://matplotlib.org/</dc:title>
     </cc:Agent>
    </dc:creator>
   </cc:Work>
  </rdf:RDF>
 </metadata>
 <defs>
  <style type="text/css">*{stroke-linecap:butt;stroke-linejoin:round;}</style>
 </defs>
 <g id="figure_1">
  <g id="patch_1">
   <path d="M 0 350.065781 
L 376.046875 350.065781 
L 376.046875 0 
L 0 0 
z
" style="fill:#ffffff;"/>
  </g>
  <g id="axes_1">
   <g id="patch_2">
    <path d="M 34.046875 240.36 
L 368.846875 240.36 
L 368.846875 22.92 
L 34.046875 22.92 
z
" style="fill:#ffffff;"/>
   </g>
   <g id="patch_3">
    <path clip-path="url(#p54fd945890)" d="M 34.046875 240.36 
L 48.719385 240.36 
L 48.719385 134.9016 
L 34.046875 134.9016 
z
" style="fill:#b2b2b2;"/>
   </g>
   <g id="patch_4">
    <path clip-path="url(#p54fd945890)" d="M 51.831736 240.36 
L 66.504246 240.36 
L 66.504246 125.1168 
L 51.831736 125.1168 
z
" style="fill:#b2b2b2;"/>
   </g>
   <g id="patch_5">
    <path clip-path="url(#p54fd945890)" d="M 69.616596 240.36 
L 84.289106 240.36 
L 84.289106 129.4656 
L 69.616596 129.4656 
z
" style="fill:#b2b2b2;"/>
   </g>
   <g id="patch_6">
    <path clip-path="url(#p54fd945890)" d="M 87.401457 240.36 
L 102.073967 240.36 
L 102.073967 128.3784 
L 87.401457 128.3784 
z
" style="fill:#b2b2b2;"/>
   </g>
   <g id="patch_7">
    <path clip-path="url(#p54fd945890)" d="M 105.186317 240.36 
L 119.858827 240.36 
L 119.858827 125.1168 
L 105.186317 125.1168 
z
" style="fill:#b2b2b2;"/>
   </g>
   <g id="patch_8">
    <path clip-path="url(#p54fd945890)" d="M 122.971178 240.36 
L 137.643688 240.36 
L 137.643688 126.204 
L 122.971178 126.204 
z
" style="fill:#b2b2b2;"/>
   </g>
   <g id="patch_9">
    <path clip-path="url(#p54fd945890)" d="M 140.756038 240.36 
L 155.428548 240.36 
L 155.428548 122.9424 
L 140.756038 122.9424 
z
" style="fill:#b2b2b2;"/>
   </g>
   <g id="patch_10">
    <path clip-path="url(#p54fd945890)" d="M 158.540899 240.36 
L 173.213409 240.36 
L 173.213409 118.5936 
L 158.540899 118.5936 
z
" style="fill:#b2b2b2;"/>
   </g>
   <g id="patch_11">
    <path clip-path="url(#p54fd945890)" d="M 176.325759 240.36 
L 190.998269 240.36 
L 190.998269 124.0296 
L 176.325759 124.0296 
z
" style="fill:#b2b2b2;"/>
   </g>
   <g id="patch_12">
    <path clip-path="url(#p54fd945890)" d="M 194.11062 240.36 
L 208.78313 240.36 
L 208.78313 122.9424 
L 194.11062 122.9424 
z
" style="fill:#b2b2b2;"/>
   </g>
   <g id="patch_13">
    <path clip-path="url(#p54fd945890)" d="M 211.895481 240.36 
L 226.567991 240.36 
L 226.567991 103.3728 
L 211.895481 103.3728 
z
" style="fill:#b2b2b2;"/>
   </g>
   <g id="patch_14">
    <path clip-path="url(#p54fd945890)" d="M 229.680341 240.36 
L 244.352851 240.36 
L 244.352851 130.5528 
L 229.680341 130.5528 
z
" style="fill:#b2b2b2;"/>
   </g>
   <g id="patch_15">
    <path clip-path="url(#p54fd945890)" d="M 247.465202 240.36 
L 262.137712 240.36 
L 262.137712 115.332 
L 247.465202 115.332 
z
" style="fill:#b2b2b2;"/>
   </g>
   <g id="patch_16">
    <path clip-path="url(#p54fd945890)" d="M 265.250062 240.36 
L 279.922572 240.36 
L 279.922572 106.6344 
L 265.250062 106.6344 
z
" style="fill:#b2b2b2;"/>
   </g>
   <g id="patch_17">
    <path clip-path="url(#p54fd945890)" d="M 283.034923 240.36 
L 297.707433 240.36 
L 297.707433 112.0704 
L 283.034923 112.0704 
z
" style="fill:#b2b2b2;"/>
   </g>
   <g id="patch_18">
    <path clip-path="url(#p54fd945890)" d="M 300.819783 240.36 
L 315.492293 240.36 
L 315.492293 112.0704 
L 300.819783 112.0704 
z
" style="fill:#b2b2b2;"/>
   </g>
   <g id="patch_19">
    <path clip-path="url(#p54fd945890)" d="M 318.604644 240.36 
L 333.277154 240.36 
L 333.277154 120.768 
L 318.604644 120.768 
z
" style="fill:#b2b2b2;"/>
   </g>
   <g id="patch_20">
    <path clip-path="url(#p54fd945890)" d="M 336.389504 240.36 
L 351.062014 240.36 
L 351.062014 103.3728 
L 336.389504 103.3728 
z
" style="fill:#b2b2b2;"/>
   </g>
   <g id="patch_21">
    <path clip-path="url(#p54fd945890)" d="M 354.174365 240.36 
L 368.846875 240.36 
L 368.846875 96.8496 
L 354.174365 96.8496 
z
" style="fill:#b2b2b2;"/>
   </g>
   <g id="matplotlib.axis_1">
    <g id="xtick_1">
     <g id="line2d_1">
      <defs>
       <path d="M 0 0 
L 0 3.5 
" id="m4d2e965003" style="stroke:#000000;stroke-width:0.8;"/>
      </defs>
      <g>
       <use style="stroke:#000000;stroke-width:0.8;" x="41.38313" xlink:href="#m4d2e965003" y="240.36"/>
      </g>
     </g>
     <g id="text_1">
      <!-- Meta -->
      <g transform="translate(44.390942 272.501875)rotate(-90)scale(0.11 -0.11)">
       <defs>
        <path d="M 23.25 71.09375 
L 43.75 16.609375 
L 64.203125 71.09375 
L 80.171875 71.09375 
L 80.171875 0 
L 67.875 0 
L 67.875 23.4375 
L 69.09375 54.78125 
L 48.09375 0 
L 39.265625 0 
L 18.3125 54.734375 
L 19.53125 23.4375 
L 19.53125 0 
L 7.234375 0 
L 7.234375 71.09375 
z
" id="Roboto-Medium-77"/>
        <path d="M 29.34375 -0.984375 
Q 18.0625 -0.984375 11.046875 6.125 
Q 4.046875 13.234375 4.046875 25.046875 
L 4.046875 26.515625 
Q 4.046875 34.421875 7.09375 40.640625 
Q 10.15625 46.875 15.671875 50.34375 
Q 21.1875 53.8125 27.984375 53.8125 
Q 38.765625 53.8125 44.640625 46.921875 
Q 50.53125 40.046875 50.53125 27.4375 
L 50.53125 22.65625 
L 16.015625 22.65625 
Q 16.546875 16.109375 20.375 12.296875 
Q 24.21875 8.5 30.03125 8.5 
Q 38.1875 8.5 43.3125 15.09375 
L 49.703125 8.984375 
Q 46.53125 4.25 41.234375 1.625 
Q 35.9375 -0.984375 29.34375 -0.984375 
z
M 27.9375 44.28125 
Q 23.046875 44.28125 20.046875 40.859375 
Q 17.046875 37.453125 16.21875 31.34375 
L 38.8125 31.34375 
L 38.8125 32.234375 
Q 38.421875 38.1875 35.640625 41.234375 
Q 32.859375 44.28125 27.9375 44.28125 
z
" id="Roboto-Medium-101"/>
        <path d="M 20.953125 65.671875 
L 20.953125 52.828125 
L 30.28125 52.828125 
L 30.28125 44.046875 
L 20.953125 44.046875 
L 20.953125 14.546875 
Q 20.953125 11.53125 22.140625 10.1875 
Q 23.34375 8.84375 26.421875 8.84375 
Q 28.46875 8.84375 30.5625 9.328125 
L 30.5625 0.140625 
Q 26.515625 -0.984375 22.75 -0.984375 
Q 9.078125 -0.984375 9.078125 14.109375 
L 9.078125 44.046875 
L 0.390625 44.046875 
L 0.390625 52.828125 
L 9.078125 52.828125 
L 9.078125 65.671875 
z
" id="Roboto-Medium-116"/>
        <path d="M 37.640625 0 
Q 36.859375 1.515625 36.28125 4.9375 
Q 30.609375 -0.984375 22.40625 -0.984375 
Q 14.453125 -0.984375 9.421875 3.5625 
Q 4.390625 8.109375 4.390625 14.796875 
Q 4.390625 23.25 10.65625 27.765625 
Q 16.9375 32.28125 28.609375 32.28125 
L 35.890625 32.28125 
L 35.890625 35.75 
Q 35.890625 39.84375 33.59375 42.3125 
Q 31.296875 44.78125 26.609375 44.78125 
Q 22.5625 44.78125 19.96875 42.75 
Q 17.390625 40.71875 17.390625 37.59375 
L 5.515625 37.59375 
Q 5.515625 41.9375 8.390625 45.71875 
Q 11.28125 49.515625 16.234375 51.65625 
Q 21.1875 53.8125 27.296875 53.8125 
Q 36.578125 53.8125 42.09375 49.140625 
Q 47.609375 44.484375 47.75 36.03125 
L 47.75 12.203125 
Q 47.75 5.078125 49.75 0.828125 
L 49.75 0 
z
M 24.609375 8.546875 
Q 28.125 8.546875 31.21875 10.25 
Q 34.328125 11.96875 35.890625 14.84375 
L 35.890625 24.8125 
L 29.5 24.8125 
Q 22.90625 24.8125 19.578125 22.515625 
Q 16.265625 20.21875 16.265625 16.015625 
Q 16.265625 12.59375 18.53125 10.5625 
Q 20.796875 8.546875 24.609375 8.546875 
z
" id="Roboto-Medium-97"/>
       </defs>
       <use xlink:href="#Roboto-Medium-77"/>
       <use x="87.548828" xlink:href="#Roboto-Medium-101"/>
       <use x="141.210938" xlink:href="#Roboto-Medium-116"/>
       <use x="174.462891" xlink:href="#Roboto-Medium-97"/>
      </g>
     </g>
    </g>
    <g id="xtick_2">
     <g id="line2d_2">
      <g>
       <use style="stroke:#000000;stroke-width:0.8;" x="59.167991" xlink:href="#m4d2e965003" y="240.36"/>
      </g>
     </g>
     <g id="text_2">
      <!-- Antioquia -->
      <g transform="translate(62.175803 294.644531)rotate(-90)scale(0.11 -0.11)">
       <defs>
        <path d="M 47.015625 16.546875 
L 19.484375 16.546875 
L 13.71875 0 
L 0.875 0 
L 27.734375 71.09375 
L 38.8125 71.09375 
L 65.71875 0 
L 52.828125 0 
z
M 22.953125 26.515625 
L 43.5625 26.515625 
L 33.25 56 
z
" id="Roboto-Medium-65"/>
        <path d="M 17.09375 52.828125 
L 17.4375 46.734375 
Q 23.296875 53.8125 32.8125 53.8125 
Q 49.3125 53.8125 49.609375 34.90625 
L 49.609375 0 
L 37.75 0 
L 37.75 34.234375 
Q 37.75 39.265625 35.578125 41.671875 
Q 33.40625 44.09375 28.46875 44.09375 
Q 21.296875 44.09375 17.78125 37.59375 
L 17.78125 0 
L 5.90625 0 
L 5.90625 52.828125 
z
" id="Roboto-Medium-110"/>
        <path d="M 18.703125 0 
L 6.84375 0 
L 6.84375 52.828125 
L 18.703125 52.828125 
z
M 6.109375 66.546875 
Q 6.109375 69.28125 7.84375 71.09375 
Q 9.578125 72.90625 12.796875 72.90625 
Q 16.015625 72.90625 17.765625 71.09375 
Q 19.53125 69.28125 19.53125 66.546875 
Q 19.53125 63.875 17.765625 62.078125 
Q 16.015625 60.296875 12.796875 60.296875 
Q 9.578125 60.296875 7.84375 62.078125 
Q 6.109375 63.875 6.109375 66.546875 
z
" id="Roboto-Medium-105"/>
        <path d="M 3.859375 26.90625 
Q 3.859375 34.671875 6.9375 40.890625 
Q 10.015625 47.125 15.578125 50.46875 
Q 21.140625 53.8125 28.375 53.8125 
Q 39.0625 53.8125 45.71875 46.921875 
Q 52.390625 40.046875 52.9375 28.65625 
L 52.984375 25.875 
Q 52.984375 18.0625 49.96875 11.90625 
Q 46.96875 5.765625 41.375 2.390625 
Q 35.796875 -0.984375 28.46875 -0.984375 
Q 17.28125 -0.984375 10.5625 6.46875 
Q 3.859375 13.921875 3.859375 26.3125 
z
M 15.71875 25.875 
Q 15.71875 17.71875 19.09375 13.109375 
Q 22.46875 8.5 28.46875 8.5 
Q 34.46875 8.5 37.8125 13.1875 
Q 41.15625 17.875 41.15625 26.90625 
Q 41.15625 34.90625 37.71875 39.59375 
Q 34.28125 44.28125 28.375 44.28125 
Q 22.5625 44.28125 19.140625 39.671875 
Q 15.71875 35.0625 15.71875 25.875 
z
" id="Roboto-Medium-111"/>
        <path d="M 3.859375 26.859375 
Q 3.859375 39.265625 9.515625 46.53125 
Q 15.1875 53.8125 24.859375 53.8125 
Q 33.6875 53.8125 38.875 47.609375 
L 39.546875 52.828125 
L 50.09375 52.828125 
L 50.09375 -20.3125 
L 38.234375 -20.3125 
L 38.234375 4.5 
Q 33.0625 -0.984375 24.75 -0.984375 
Q 15.28125 -0.984375 9.5625 6.40625 
Q 3.859375 13.8125 3.859375 26.859375 
z
M 15.71875 25.828125 
Q 15.71875 17.71875 18.921875 13.109375 
Q 22.125 8.5 27.78125 8.5 
Q 34.8125 8.5 38.234375 14.5 
L 38.234375 38.53125 
Q 34.8125 44.28125 27.875 44.28125 
Q 22.21875 44.28125 18.96875 39.734375 
Q 15.71875 35.203125 15.71875 25.828125 
z
" id="Roboto-Medium-113"/>
        <path d="M 38.09375 5.171875 
Q 32.859375 -0.984375 23.25 -0.984375 
Q 14.65625 -0.984375 10.234375 4.046875 
Q 5.8125 9.078125 5.8125 18.609375 
L 5.8125 52.828125 
L 17.671875 52.828125 
L 17.671875 18.75 
Q 17.671875 8.6875 26.03125 8.6875 
Q 34.671875 8.6875 37.703125 14.890625 
L 37.703125 52.828125 
L 49.5625 52.828125 
L 49.5625 0 
L 38.375 0 
z
" id="Roboto-Medium-117"/>
       </defs>
       <use xlink:href="#Roboto-Medium-65"/>
       <use x="66.552734" xlink:href="#Roboto-Medium-110"/>
       <use x="122.167969" xlink:href="#Roboto-Medium-116"/>
       <use x="155.419922" xlink:href="#Roboto-Medium-105"/>
       <use x="180.957031" xlink:href="#Roboto-Medium-111"/>
       <use x="237.890625" xlink:href="#Roboto-Medium-113"/>
       <use x="294.677734" xlink:href="#Roboto-Medium-117"/>
       <use x="350.244141" xlink:href="#Roboto-Medium-105"/>
       <use x="375.78125" xlink:href="#Roboto-Medium-97"/>
      </g>
     </g>
    </g>
    <g id="xtick_3">
     <g id="line2d_3">
      <g>
       <use style="stroke:#000000;stroke-width:0.8;" x="76.952851" xlink:href="#m4d2e965003" y="240.36"/>
      </g>
     </g>
     <g id="text_3">
      <!-- Tolima -->
      <g transform="translate(79.960664 281.439375)rotate(-90)scale(0.11 -0.11)">
       <defs>
        <path d="M 58.59375 61.140625 
L 36.421875 61.140625 
L 36.421875 0 
L 24.171875 0 
L 24.171875 61.140625 
L 2.203125 61.140625 
L 2.203125 71.09375 
L 58.59375 71.09375 
z
" id="Roboto-Medium-84"/>
        <path d="M 18.703125 0 
L 6.84375 0 
L 6.84375 75 
L 18.703125 75 
z
" id="Roboto-Medium-108"/>
        <path d="M 17.234375 52.828125 
L 17.578125 47.3125 
Q 23.140625 53.8125 32.8125 53.8125 
Q 43.40625 53.8125 47.3125 45.703125 
Q 53.078125 53.8125 63.53125 53.8125 
Q 72.265625 53.8125 76.53125 48.96875 
Q 80.8125 44.140625 80.90625 34.71875 
L 80.90625 0 
L 69.046875 0 
L 69.046875 34.375 
Q 69.046875 39.40625 66.84375 41.75 
Q 64.65625 44.09375 59.578125 44.09375 
Q 55.515625 44.09375 52.953125 41.921875 
Q 50.390625 39.75 49.359375 36.234375 
L 49.421875 0 
L 37.546875 0 
L 37.546875 34.765625 
Q 37.3125 44.09375 28.03125 44.09375 
Q 20.90625 44.09375 17.921875 38.28125 
L 17.921875 0 
L 6.0625 0 
L 6.0625 52.828125 
z
" id="Roboto-Medium-109"/>
       </defs>
       <use xlink:href="#Roboto-Medium-84"/>
       <use x="60.693359" xlink:href="#Roboto-Medium-111"/>
       <use x="117.626953" xlink:href="#Roboto-Medium-108"/>
       <use x="143.164062" xlink:href="#Roboto-Medium-105"/>
       <use x="168.701172" xlink:href="#Roboto-Medium-109"/>
       <use x="255.712891" xlink:href="#Roboto-Medium-97"/>
      </g>
     </g>
    </g>
    <g id="xtick_4">
     <g id="line2d_4">
      <g>
       <use style="stroke:#000000;stroke-width:0.8;" x="94.737712" xlink:href="#m4d2e965003" y="240.36"/>
      </g>
     </g>
     <g id="text_4">
      <!-- Huila -->
      <g transform="translate(97.745524 272.855937)rotate(-90)scale(0.11 -0.11)">
       <defs>
        <path d="M 63.671875 0 
L 51.375 0 
L 51.375 31.59375 
L 19.578125 31.59375 
L 19.578125 0 
L 7.234375 0 
L 7.234375 71.09375 
L 19.578125 71.09375 
L 19.578125 41.5 
L 51.375 41.5 
L 51.375 71.09375 
L 63.671875 71.09375 
z
" id="Roboto-Medium-72"/>
       </defs>
       <use xlink:href="#Roboto-Medium-72"/>
       <use x="71.044922" xlink:href="#Roboto-Medium-117"/>
       <use x="126.611328" xlink:href="#Roboto-Medium-105"/>
       <use x="152.148438" xlink:href="#Roboto-Medium-108"/>
       <use x="177.685547" xlink:href="#Roboto-Medium-97"/>
      </g>
     </g>
    </g>
    <g id="xtick_5">
     <g id="line2d_5">
      <g>
       <use style="stroke:#000000;stroke-width:0.8;" x="112.522572" xlink:href="#m4d2e965003" y="240.36"/>
      </g>
     </g>
     <g id="text_5">
      <!-- Caldas -->
      <g transform="translate(115.530385 281.140312)rotate(-90)scale(0.11 -0.11)">
       <defs>
        <path d="M 61.46875 23.140625 
Q 60.40625 11.765625 53.078125 5.390625 
Q 45.75 -0.984375 33.59375 -0.984375 
Q 25.09375 -0.984375 18.625 3.046875 
Q 12.15625 7.078125 8.640625 14.5 
Q 5.125 21.921875 4.984375 31.734375 
L 4.984375 38.375 
Q 4.984375 48.4375 8.546875 56.09375 
Q 12.109375 63.765625 18.765625 67.921875 
Q 25.4375 72.078125 34.1875 72.078125 
Q 45.953125 72.078125 53.125 65.671875 
Q 60.296875 59.28125 61.46875 47.609375 
L 49.171875 47.609375 
Q 48.296875 55.28125 44.703125 58.671875 
Q 41.109375 62.0625 34.1875 62.0625 
Q 26.125 62.0625 21.796875 56.171875 
Q 17.484375 50.296875 17.390625 38.921875 
L 17.390625 32.625 
Q 17.390625 21.09375 21.515625 15.03125 
Q 25.640625 8.984375 33.59375 8.984375 
Q 40.875 8.984375 44.53125 12.25 
Q 48.1875 15.53125 49.171875 23.140625 
z
" id="Roboto-Medium-67"/>
        <path d="M 3.859375 26.8125 
Q 3.859375 39.015625 9.515625 46.40625 
Q 15.1875 53.8125 24.703125 53.8125 
Q 33.109375 53.8125 38.28125 47.953125 
L 38.28125 75 
L 50.140625 75 
L 50.140625 0 
L 39.40625 0 
L 38.8125 5.46875 
Q 33.5 -0.984375 24.609375 -0.984375 
Q 15.328125 -0.984375 9.59375 6.484375 
Q 3.859375 13.96875 3.859375 26.8125 
z
M 15.71875 25.78125 
Q 15.71875 17.71875 18.8125 13.203125 
Q 21.921875 8.6875 27.640625 8.6875 
Q 34.90625 8.6875 38.28125 15.1875 
L 38.28125 37.75 
Q 35.015625 44.09375 27.734375 44.09375 
Q 21.96875 44.09375 18.84375 39.53125 
Q 15.71875 34.96875 15.71875 25.78125 
z
" id="Roboto-Medium-100"/>
        <path d="M 35.6875 14.359375 
Q 35.6875 17.53125 33.078125 19.1875 
Q 30.46875 20.84375 24.40625 22.109375 
Q 18.359375 23.390625 14.3125 25.34375 
Q 5.421875 29.640625 5.421875 37.796875 
Q 5.421875 44.625 11.171875 49.21875 
Q 16.9375 53.8125 25.828125 53.8125 
Q 35.296875 53.8125 41.125 49.125 
Q 46.96875 44.4375 46.96875 36.96875 
L 35.109375 36.96875 
Q 35.109375 40.375 32.5625 42.640625 
Q 30.03125 44.921875 25.828125 44.921875 
Q 21.921875 44.921875 19.453125 43.109375 
Q 17 41.3125 17 38.28125 
Q 17 35.546875 19.28125 34.03125 
Q 21.578125 32.515625 28.5625 30.96875 
Q 35.546875 29.4375 39.515625 27.3125 
Q 43.5 25.203125 45.421875 22.21875 
Q 47.359375 19.234375 47.359375 14.984375 
Q 47.359375 7.859375 41.453125 3.4375 
Q 35.546875 -0.984375 25.984375 -0.984375 
Q 19.484375 -0.984375 14.40625 1.359375 
Q 9.328125 3.71875 6.484375 7.8125 
Q 3.65625 11.921875 3.65625 16.65625 
L 15.1875 16.65625 
Q 15.4375 12.453125 18.359375 10.171875 
Q 21.296875 7.90625 26.125 7.90625 
Q 30.8125 7.90625 33.25 9.6875 
Q 35.6875 11.46875 35.6875 14.359375 
z
" id="Roboto-Medium-115"/>
       </defs>
       <use xlink:href="#Roboto-Medium-67"/>
       <use x="65.283203" xlink:href="#Roboto-Medium-97"/>
       <use x="119.384766" xlink:href="#Roboto-Medium-108"/>
       <use x="144.921875" xlink:href="#Roboto-Medium-100"/>
       <use x="201.367188" xlink:href="#Roboto-Medium-97"/>
       <use x="255.46875" xlink:href="#Roboto-Medium-115"/>
      </g>
     </g>
    </g>
    <g id="xtick_6">
     <g id="line2d_6">
      <g>
       <use style="stroke:#000000;stroke-width:0.8;" x="130.307433" xlink:href="#m4d2e965003" y="240.36"/>
      </g>
     </g>
     <g id="text_6">
      <!-- Risaralda -->
      <g transform="translate(133.315245 293.451719)rotate(-90)scale(0.11 -0.11)">
       <defs>
        <path d="M 33.34375 27.390625 
L 19.578125 27.390625 
L 19.578125 0 
L 7.234375 0 
L 7.234375 71.09375 
L 32.234375 71.09375 
Q 44.53125 71.09375 51.21875 65.578125 
Q 57.90625 60.0625 57.90625 49.609375 
Q 57.90625 42.484375 54.46875 37.671875 
Q 51.03125 32.859375 44.875 30.28125 
L 60.84375 0.640625 
L 60.84375 0 
L 47.609375 0 
z
M 19.578125 37.3125 
L 32.28125 37.3125 
Q 38.53125 37.3125 42.046875 40.453125 
Q 45.5625 43.609375 45.5625 49.078125 
Q 45.5625 54.78125 42.3125 57.90625 
Q 39.0625 61.03125 32.625 61.140625 
L 19.578125 61.140625 
z
" id="Roboto-Medium-82"/>
        <path d="M 33.734375 42 
Q 31.390625 42.390625 28.90625 42.390625 
Q 20.75 42.390625 17.921875 36.140625 
L 17.921875 0 
L 6.0625 0 
L 6.0625 52.828125 
L 17.390625 52.828125 
L 17.671875 46.921875 
Q 21.96875 53.8125 29.59375 53.8125 
Q 32.125 53.8125 33.796875 53.125 
z
" id="Roboto-Medium-114"/>
       </defs>
       <use xlink:href="#Roboto-Medium-82"/>
       <use x="62.402344" xlink:href="#Roboto-Medium-105"/>
       <use x="87.939453" xlink:href="#Roboto-Medium-115"/>
       <use x="139.550781" xlink:href="#Roboto-Medium-97"/>
       <use x="193.652344" xlink:href="#Roboto-Medium-114"/>
       <use x="228.808594" xlink:href="#Roboto-Medium-97"/>
       <use x="282.910156" xlink:href="#Roboto-Medium-108"/>
       <use x="308.447266" xlink:href="#Roboto-Medium-100"/>
       <use x="364.892578" xlink:href="#Roboto-Medium-97"/>
      </g>
     </g>
    </g>
    <g id="xtick_7">
     <g id="line2d_7">
      <g>
       <use style="stroke:#000000;stroke-width:0.8;" x="148.092293" xlink:href="#m4d2e965003" y="240.36"/>
      </g>
     </g>
     <g id="text_7">
      <!-- Boyacá -->
      <g transform="translate(151.043387 283.580938)rotate(-90)scale(0.11 -0.11)">
       <defs>
        <path d="M 7.234375 0 
L 7.234375 71.09375 
L 31.59375 71.09375 
Q 43.65625 71.09375 49.953125 66.25 
Q 56.25 61.421875 56.25 51.859375 
Q 56.25 46.96875 53.609375 43.0625 
Q 50.984375 39.15625 45.90625 37.015625 
Q 51.65625 35.453125 54.796875 31.125 
Q 57.953125 26.8125 57.953125 20.75 
Q 57.953125 10.75 51.53125 5.375 
Q 45.125 0 33.15625 0 
z
M 19.578125 32.078125 
L 19.578125 9.859375 
L 33.296875 9.859375 
Q 39.109375 9.859375 42.375 12.734375 
Q 45.65625 15.625 45.65625 20.75 
Q 45.65625 31.84375 34.328125 32.078125 
z
M 19.578125 41.15625 
L 31.6875 41.15625 
Q 37.453125 41.15625 40.703125 43.765625 
Q 43.953125 46.390625 43.953125 51.171875 
Q 43.953125 56.453125 40.9375 58.796875 
Q 37.9375 61.140625 31.59375 61.140625 
L 19.578125 61.140625 
z
" id="Roboto-Medium-66"/>
        <path d="M 24.5625 17 
L 35.296875 52.828125 
L 47.953125 52.828125 
L 26.953125 -8.015625 
Q 22.125 -21.34375 10.546875 -21.34375 
Q 7.953125 -21.34375 4.828125 -20.453125 
L 4.828125 -11.28125 
L 7.078125 -11.421875 
Q 11.578125 -11.421875 13.84375 -9.78125 
Q 16.109375 -8.15625 17.4375 -4.296875 
L 19.140625 0.25 
L 0.59375 52.828125 
L 13.375 52.828125 
z
" id="Roboto-Medium-121"/>
        <path d="M 27.78125 8.5 
Q 32.234375 8.5 35.15625 11.078125 
Q 38.09375 13.671875 38.28125 17.484375 
L 49.46875 17.484375 
Q 49.265625 12.546875 46.375 8.265625 
Q 43.5 4 38.5625 1.5 
Q 33.640625 -0.984375 27.9375 -0.984375 
Q 16.84375 -0.984375 10.34375 6.1875 
Q 3.859375 13.375 3.859375 26.03125 
L 3.859375 27.25 
Q 3.859375 39.3125 10.296875 46.5625 
Q 16.75 53.8125 27.875 53.8125 
Q 37.3125 53.8125 43.234375 48.3125 
Q 49.171875 42.828125 49.46875 33.890625 
L 38.28125 33.890625 
Q 38.09375 38.421875 35.1875 41.34375 
Q 32.28125 44.28125 27.78125 44.28125 
Q 22.015625 44.28125 18.890625 40.109375 
Q 15.765625 35.9375 15.71875 27.4375 
L 15.71875 25.53125 
Q 15.71875 16.9375 18.8125 12.71875 
Q 21.921875 8.5 27.78125 8.5 
z
" id="Roboto-Medium-99"/>
        <path d="M 37.640625 0 
Q 36.859375 1.515625 36.28125 4.9375 
Q 30.609375 -0.984375 22.40625 -0.984375 
Q 14.453125 -0.984375 9.421875 3.5625 
Q 4.390625 8.109375 4.390625 14.796875 
Q 4.390625 23.25 10.65625 27.765625 
Q 16.9375 32.28125 28.609375 32.28125 
L 35.890625 32.28125 
L 35.890625 35.75 
Q 35.890625 39.84375 33.59375 42.3125 
Q 31.296875 44.78125 26.609375 44.78125 
Q 22.5625 44.78125 19.96875 42.75 
Q 17.390625 40.71875 17.390625 37.59375 
L 5.515625 37.59375 
Q 5.515625 41.9375 8.390625 45.71875 
Q 11.28125 49.515625 16.234375 51.65625 
Q 21.1875 53.8125 27.296875 53.8125 
Q 36.578125 53.8125 42.09375 49.140625 
Q 47.609375 44.484375 47.75 36.03125 
L 47.75 12.203125 
Q 47.75 5.078125 49.75 0.828125 
L 49.75 0 
z
M 24.609375 8.546875 
Q 28.125 8.546875 31.21875 10.25 
Q 34.328125 11.96875 35.890625 14.84375 
L 35.890625 24.8125 
L 29.5 24.8125 
Q 22.90625 24.8125 19.578125 22.515625 
Q 16.265625 20.21875 16.265625 16.015625 
Q 16.265625 12.59375 18.53125 10.5625 
Q 20.796875 8.546875 24.609375 8.546875 
z
M 31.203125 75 
L 44.734375 75 
L 31.203125 60.203125 
L 21.6875 60.203125 
z
" id="Roboto-Medium-225"/>
       </defs>
       <use xlink:href="#Roboto-Medium-66"/>
       <use x="63.085938" xlink:href="#Roboto-Medium-111"/>
       <use x="120.019531" xlink:href="#Roboto-Medium-121"/>
       <use x="168.701172" xlink:href="#Roboto-Medium-97"/>
       <use x="222.802734" xlink:href="#Roboto-Medium-99"/>
       <use x="275.146484" xlink:href="#Roboto-Medium-225"/>
      </g>
     </g>
    </g>
    <g id="xtick_8">
     <g id="line2d_8">
      <g>
       <use style="stroke:#000000;stroke-width:0.8;" x="165.877154" xlink:href="#m4d2e965003" y="240.36"/>
      </g>
     </g>
     <g id="text_8">
      <!-- Bolívar -->
      <g transform="translate(168.884966 281.521875)rotate(-90)scale(0.11 -0.11)">
       <defs>
        <path d="M 18.84375 0 
L 6.984375 0 
L 6.984375 52.828125 
L 18.84375 52.828125 
z
M 16.609375 74.65625 
L 30.125 74.65625 
L 16.609375 59.859375 
L 7.078125 59.859375 
z
" id="Roboto-Medium-237"/>
        <path d="M 24.703125 15.046875 
L 35.890625 52.828125 
L 48.140625 52.828125 
L 29.828125 0 
L 19.53125 0 
L 1.078125 52.828125 
L 13.375 52.828125 
z
" id="Roboto-Medium-118"/>
       </defs>
       <use xlink:href="#Roboto-Medium-66"/>
       <use x="63.085938" xlink:href="#Roboto-Medium-111"/>
       <use x="120.019531" xlink:href="#Roboto-Medium-108"/>
       <use x="145.556641" xlink:href="#Roboto-Medium-237"/>
       <use x="171.826172" xlink:href="#Roboto-Medium-118"/>
       <use x="221.289062" xlink:href="#Roboto-Medium-97"/>
       <use x="275.390625" xlink:href="#Roboto-Medium-114"/>
      </g>
     </g>
    </g>
    <g id="xtick_9">
     <g id="line2d_9">
      <g>
       <use style="stroke:#000000;stroke-width:0.8;" x="183.662014" xlink:href="#m4d2e965003" y="240.36"/>
      </g>
     </g>
     <g id="text_9">
      <!-- Magdalena -->
      <g transform="translate(186.643186 302.119375)rotate(-90)scale(0.11 -0.11)">
       <defs>
        <path d="M 4 26.8125 
Q 4 39.109375 9.78125 46.453125 
Q 15.578125 53.8125 25.140625 53.8125 
Q 34.1875 53.8125 39.359375 47.515625 
L 39.890625 52.828125 
L 50.59375 52.828125 
L 50.59375 1.609375 
Q 50.59375 -8.796875 44.109375 -14.796875 
Q 37.640625 -20.796875 26.65625 -20.796875 
Q 20.84375 -20.796875 15.296875 -18.375 
Q 9.765625 -15.96875 6.890625 -12.0625 
L 12.5 -4.9375 
Q 17.96875 -11.421875 25.984375 -11.421875 
Q 31.890625 -11.421875 35.296875 -8.21875 
Q 38.71875 -5.03125 38.71875 1.171875 
L 38.71875 4.734375 
Q 33.59375 -0.984375 25.046875 -0.984375 
Q 15.765625 -0.984375 9.875 6.390625 
Q 4 13.765625 4 26.8125 
z
M 15.828125 25.78125 
Q 15.828125 17.828125 19.0625 13.25 
Q 22.3125 8.6875 28.078125 8.6875 
Q 35.25 8.6875 38.71875 14.84375 
L 38.71875 38.09375 
Q 35.359375 44.09375 28.171875 44.09375 
Q 22.3125 44.09375 19.0625 39.453125 
Q 15.828125 34.8125 15.828125 25.78125 
z
" id="Roboto-Medium-103"/>
       </defs>
       <use xlink:href="#Roboto-Medium-77"/>
       <use x="87.548828" xlink:href="#Roboto-Medium-97"/>
       <use x="141.650391" xlink:href="#Roboto-Medium-103"/>
       <use x="198.339844" xlink:href="#Roboto-Medium-100"/>
       <use x="254.785156" xlink:href="#Roboto-Medium-97"/>
       <use x="308.886719" xlink:href="#Roboto-Medium-108"/>
       <use x="334.423828" xlink:href="#Roboto-Medium-101"/>
       <use x="388.085938" xlink:href="#Roboto-Medium-110"/>
       <use x="443.701172" xlink:href="#Roboto-Medium-97"/>
      </g>
     </g>
    </g>
    <g id="xtick_10">
     <g id="line2d_10">
      <g>
       <use style="stroke:#000000;stroke-width:0.8;" x="201.446875" xlink:href="#m4d2e965003" y="240.36"/>
      </g>
     </g>
     <g id="text_10">
      <!-- Nariño -->
      <g transform="translate(204.454688 280.177812)rotate(-90)scale(0.11 -0.11)">
       <defs>
        <path d="M 63.625 0 
L 51.265625 0 
L 19.578125 50.4375 
L 19.578125 0 
L 7.234375 0 
L 7.234375 71.09375 
L 19.578125 71.09375 
L 51.375 20.453125 
L 51.375 71.09375 
L 63.625 71.09375 
z
" id="Roboto-Medium-78"/>
        <path d="M 17.09375 52.828125 
L 17.4375 46.734375 
Q 23.296875 53.8125 32.8125 53.8125 
Q 49.3125 53.8125 49.609375 34.90625 
L 49.609375 0 
L 37.75 0 
L 37.75 34.234375 
Q 37.75 39.265625 35.578125 41.671875 
Q 33.40625 44.09375 28.46875 44.09375 
Q 21.296875 44.09375 17.78125 37.59375 
L 17.78125 0 
L 5.90625 0 
L 5.90625 52.828125 
z
M 45.90625 73.921875 
Q 45.90625 68.546875 42.796875 64.984375 
Q 39.703125 61.421875 35.015625 61.421875 
Q 33.109375 61.421875 31.71875 61.828125 
Q 30.328125 62.25 27.765625 63.71875 
Q 25.203125 65.1875 24.140625 65.46875 
Q 23.09375 65.765625 21.828125 65.765625 
Q 19.96875 65.765625 18.671875 64.375 
Q 17.390625 62.984375 17.390625 60.734375 
L 10.109375 61.125 
Q 10.109375 66.5 13.203125 70.15625 
Q 16.3125 73.828125 20.953125 73.828125 
Q 23.734375 73.828125 27.65625 71.625 
Q 31.59375 69.4375 34.125 69.4375 
Q 35.984375 69.4375 37.296875 70.828125 
Q 38.625 72.21875 38.625 74.515625 
z
" id="Roboto-Medium-241"/>
       </defs>
       <use xlink:href="#Roboto-Medium-78"/>
       <use x="70.996094" xlink:href="#Roboto-Medium-97"/>
       <use x="125.097656" xlink:href="#Roboto-Medium-114"/>
       <use x="160.253906" xlink:href="#Roboto-Medium-105"/>
       <use x="185.791016" xlink:href="#Roboto-Medium-241"/>
       <use x="241.40625" xlink:href="#Roboto-Medium-111"/>
      </g>
     </g>
    </g>
    <g id="xtick_11">
     <g id="line2d_11">
      <g>
       <use style="stroke:#000000;stroke-width:0.8;" x="219.231736" xlink:href="#m4d2e965003" y="240.36"/>
      </g>
     </g>
     <g id="text_11">
      <!-- Bogotá D.C. -->
      <g transform="translate(222.212907 305.924688)rotate(-90)scale(0.11 -0.11)">
       <defs>
        <path id="Roboto-Medium-32"/>
        <path d="M 7.234375 0 
L 7.234375 71.09375 
L 28.21875 71.09375 
Q 37.640625 71.09375 44.9375 66.890625 
Q 52.25 62.703125 56.25 54.984375 
Q 60.25 47.265625 60.25 37.3125 
L 60.25 33.734375 
Q 60.25 23.640625 56.21875 15.96875 
Q 52.203125 8.296875 44.75 4.140625 
Q 37.3125 0 27.6875 0 
z
M 19.578125 61.140625 
L 19.578125 9.859375 
L 27.640625 9.859375 
Q 37.359375 9.859375 42.546875 15.9375 
Q 47.75 22.015625 47.859375 33.40625 
L 47.859375 37.359375 
Q 47.859375 48.921875 42.828125 55.03125 
Q 37.796875 61.140625 28.21875 61.140625 
z
" id="Roboto-Medium-68"/>
        <path d="M 13.484375 12.5 
Q 16.796875 12.5 18.59375 10.609375 
Q 20.40625 8.734375 20.40625 5.90625 
Q 20.40625 3.125 18.59375 1.296875 
Q 16.796875 -0.53125 13.484375 -0.53125 
Q 10.296875 -0.53125 8.4375 1.265625 
Q 6.59375 3.078125 6.59375 5.90625 
Q 6.59375 8.734375 8.390625 10.609375 
Q 10.203125 12.5 13.484375 12.5 
z
" id="Roboto-Medium-46"/>
       </defs>
       <use xlink:href="#Roboto-Medium-66"/>
       <use x="63.085938" xlink:href="#Roboto-Medium-111"/>
       <use x="120.019531" xlink:href="#Roboto-Medium-103"/>
       <use x="176.708984" xlink:href="#Roboto-Medium-111"/>
       <use x="233.642578" xlink:href="#Roboto-Medium-116"/>
       <use x="266.894531" xlink:href="#Roboto-Medium-225"/>
       <use x="320.996094" xlink:href="#Roboto-Medium-32"/>
       <use x="345.898438" xlink:href="#Roboto-Medium-68"/>
       <use x="411.230469" xlink:href="#Roboto-Medium-46"/>
       <use x="439.160156" xlink:href="#Roboto-Medium-67"/>
       <use x="504.443359" xlink:href="#Roboto-Medium-46"/>
      </g>
     </g>
    </g>
    <g id="xtick_12">
     <g id="line2d_12">
      <g>
       <use style="stroke:#000000;stroke-width:0.8;" x="237.016596" xlink:href="#m4d2e965003" y="240.36"/>
      </g>
     </g>
     <g id="text_12">
      <!-- Chocó -->
      <g transform="translate(240.024409 278.931719)rotate(-90)scale(0.11 -0.11)">
       <defs>
        <path d="M 17.78125 47.078125 
Q 23.578125 53.8125 32.46875 53.8125 
Q 49.359375 53.8125 49.609375 34.515625 
L 49.609375 0 
L 37.75 0 
L 37.75 34.078125 
Q 37.75 39.546875 35.375 41.8125 
Q 33.015625 44.09375 28.421875 44.09375 
Q 21.296875 44.09375 17.78125 37.75 
L 17.78125 0 
L 5.90625 0 
L 5.90625 75 
L 17.78125 75 
z
" id="Roboto-Medium-104"/>
        <path d="M 3.859375 26.90625 
Q 3.859375 34.671875 6.9375 40.890625 
Q 10.015625 47.125 15.578125 50.46875 
Q 21.140625 53.8125 28.375 53.8125 
Q 39.0625 53.8125 45.71875 46.921875 
Q 52.390625 40.046875 52.9375 28.65625 
L 52.984375 25.875 
Q 52.984375 18.0625 49.96875 11.90625 
Q 46.96875 5.765625 41.375 2.390625 
Q 35.796875 -0.984375 28.46875 -0.984375 
Q 17.28125 -0.984375 10.5625 6.46875 
Q 3.859375 13.921875 3.859375 26.3125 
z
M 15.71875 25.875 
Q 15.71875 17.71875 19.09375 13.109375 
Q 22.46875 8.5 28.46875 8.5 
Q 34.46875 8.5 37.8125 13.1875 
Q 41.15625 17.875 41.15625 26.90625 
Q 41.15625 34.90625 37.71875 39.59375 
Q 34.28125 44.28125 28.375 44.28125 
Q 22.5625 44.28125 19.140625 39.671875 
Q 15.71875 35.0625 15.71875 25.875 
z
M 31.640625 75 
L 45.171875 75 
L 31.640625 60.203125 
L 22.125 60.203125 
z
" id="Roboto-Medium-243"/>
       </defs>
       <use xlink:href="#Roboto-Medium-67"/>
       <use x="65.283203" xlink:href="#Roboto-Medium-104"/>
       <use x="120.800781" xlink:href="#Roboto-Medium-111"/>
       <use x="177.734375" xlink:href="#Roboto-Medium-99"/>
       <use x="230.078125" xlink:href="#Roboto-Medium-243"/>
      </g>
     </g>
    </g>
    <g id="xtick_13">
     <g id="line2d_13">
      <g>
       <use style="stroke:#000000;stroke-width:0.8;" x="254.801457" xlink:href="#m4d2e965003" y="240.36"/>
      </g>
     </g>
     <g id="text_13">
      <!-- Norte de Santander -->
      <g transform="translate(257.809269 342.865781)rotate(-90)scale(0.11 -0.11)">
       <defs>
        <path d="M 44.390625 18.3125 
Q 44.390625 23 41.09375 25.53125 
Q 37.796875 28.078125 29.203125 30.65625 
Q 20.609375 33.25 15.53125 36.421875 
Q 5.8125 42.53125 5.8125 52.34375 
Q 5.8125 60.9375 12.8125 66.5 
Q 19.828125 72.078125 31 72.078125 
Q 38.421875 72.078125 44.234375 69.34375 
Q 50.046875 66.609375 53.359375 61.546875 
Q 56.6875 56.5 56.6875 50.34375 
L 44.390625 50.34375 
Q 44.390625 55.90625 40.890625 59.046875 
Q 37.40625 62.203125 30.90625 62.203125 
Q 24.859375 62.203125 21.515625 59.609375 
Q 18.171875 57.03125 18.171875 52.390625 
Q 18.171875 48.484375 21.78125 45.875 
Q 25.390625 43.265625 33.6875 40.796875 
Q 42 38.328125 47.015625 35.171875 
Q 52.046875 32.03125 54.390625 27.953125 
Q 56.734375 23.875 56.734375 18.40625 
Q 56.734375 9.515625 49.921875 4.265625 
Q 43.109375 -0.984375 31.453125 -0.984375 
Q 23.734375 -0.984375 17.265625 1.875 
Q 10.796875 4.734375 7.203125 9.765625 
Q 3.609375 14.796875 3.609375 21.484375 
L 15.96875 21.484375 
Q 15.96875 15.4375 19.96875 12.109375 
Q 23.96875 8.796875 31.453125 8.796875 
Q 37.890625 8.796875 41.140625 11.40625 
Q 44.390625 14.015625 44.390625 18.3125 
z
" id="Roboto-Medium-83"/>
       </defs>
       <use xlink:href="#Roboto-Medium-78"/>
       <use x="70.996094" xlink:href="#Roboto-Medium-111"/>
       <use x="127.929688" xlink:href="#Roboto-Medium-114"/>
       <use x="163.085938" xlink:href="#Roboto-Medium-116"/>
       <use x="196.337891" xlink:href="#Roboto-Medium-101"/>
       <use x="250" xlink:href="#Roboto-Medium-32"/>
       <use x="274.902344" xlink:href="#Roboto-Medium-100"/>
       <use x="331.347656" xlink:href="#Roboto-Medium-101"/>
       <use x="385.009766" xlink:href="#Roboto-Medium-32"/>
       <use x="409.912109" xlink:href="#Roboto-Medium-83"/>
       <use x="470.263672" xlink:href="#Roboto-Medium-97"/>
       <use x="524.365234" xlink:href="#Roboto-Medium-110"/>
       <use x="579.980469" xlink:href="#Roboto-Medium-116"/>
       <use x="613.232422" xlink:href="#Roboto-Medium-97"/>
       <use x="667.333984" xlink:href="#Roboto-Medium-110"/>
       <use x="722.949219" xlink:href="#Roboto-Medium-100"/>
       <use x="779.394531" xlink:href="#Roboto-Medium-101"/>
       <use x="833.056641" xlink:href="#Roboto-Medium-114"/>
      </g>
     </g>
    </g>
    <g id="xtick_14">
     <g id="line2d_14">
      <g>
       <use style="stroke:#000000;stroke-width:0.8;" x="272.586317" xlink:href="#m4d2e965003" y="240.36"/>
      </g>
     </g>
     <g id="text_14">
      <!-- Cundinamarca -->
      <g transform="translate(275.59413 318.957969)rotate(-90)scale(0.11 -0.11)">
       <use xlink:href="#Roboto-Medium-67"/>
       <use x="65.283203" xlink:href="#Roboto-Medium-117"/>
       <use x="120.849609" xlink:href="#Roboto-Medium-110"/>
       <use x="176.464844" xlink:href="#Roboto-Medium-100"/>
       <use x="232.910156" xlink:href="#Roboto-Medium-105"/>
       <use x="258.447266" xlink:href="#Roboto-Medium-110"/>
       <use x="314.0625" xlink:href="#Roboto-Medium-97"/>
       <use x="368.164062" xlink:href="#Roboto-Medium-109"/>
       <use x="455.175781" xlink:href="#Roboto-Medium-97"/>
       <use x="509.277344" xlink:href="#Roboto-Medium-114"/>
       <use x="544.433594" xlink:href="#Roboto-Medium-99"/>
       <use x="596.777344" xlink:href="#Roboto-Medium-97"/>
      </g>
     </g>
    </g>
    <g id="xtick_15">
     <g id="line2d_15">
      <g>
       <use style="stroke:#000000;stroke-width:0.8;" x="290.371178" xlink:href="#m4d2e965003" y="240.36"/>
      </g>
     </g>
     <g id="text_15">
      <!-- Sucre -->
      <g transform="translate(293.37899 275.638594)rotate(-90)scale(0.11 -0.11)">
       <use xlink:href="#Roboto-Medium-83"/>
       <use x="60.351562" xlink:href="#Roboto-Medium-117"/>
       <use x="115.917969" xlink:href="#Roboto-Medium-99"/>
       <use x="168.261719" xlink:href="#Roboto-Medium-114"/>
       <use x="203.417969" xlink:href="#Roboto-Medium-101"/>
      </g>
     </g>
    </g>
    <g id="xtick_16">
     <g id="line2d_16">
      <g>
       <use style="stroke:#000000;stroke-width:0.8;" x="308.156038" xlink:href="#m4d2e965003" y="240.36"/>
      </g>
     </g>
     <g id="text_16">
      <!-- Casanare -->
      <g transform="translate(311.163851 293.960469)rotate(-90)scale(0.11 -0.11)">
       <use xlink:href="#Roboto-Medium-67"/>
       <use x="65.283203" xlink:href="#Roboto-Medium-97"/>
       <use x="119.384766" xlink:href="#Roboto-Medium-115"/>
       <use x="170.996094" xlink:href="#Roboto-Medium-97"/>
       <use x="225.097656" xlink:href="#Roboto-Medium-110"/>
       <use x="280.712891" xlink:href="#Roboto-Medium-97"/>
       <use x="334.814453" xlink:href="#Roboto-Medium-114"/>
       <use x="369.970703" xlink:href="#Roboto-Medium-101"/>
      </g>
     </g>
    </g>
    <g id="xtick_17">
     <g id="line2d_17">
      <g>
       <use style="stroke:#000000;stroke-width:0.8;" x="325.940899" xlink:href="#m4d2e965003" y="240.36"/>
      </g>
     </g>
     <g id="text_17">
      <!-- Caquetá -->
      <g transform="translate(328.948711 288.3625)rotate(-90)scale(0.11 -0.11)">
       <use xlink:href="#Roboto-Medium-67"/>
       <use x="65.283203" xlink:href="#Roboto-Medium-97"/>
       <use x="119.384766" xlink:href="#Roboto-Medium-113"/>
       <use x="176.171875" xlink:href="#Roboto-Medium-117"/>
       <use x="231.738281" xlink:href="#Roboto-Medium-101"/>
       <use x="285.400391" xlink:href="#Roboto-Medium-116"/>
       <use x="318.652344" xlink:href="#Roboto-Medium-225"/>
      </g>
     </g>
    </g>
    <g id="xtick_18">
     <g id="line2d_18">
      <g>
       <use style="stroke:#000000;stroke-width:0.8;" x="343.725759" xlink:href="#m4d2e965003" y="240.36"/>
      </g>
     </g>
     <g id="text_18">
      <!-- Atlántico -->
      <g transform="translate(346.733572 291.702031)rotate(-90)scale(0.11 -0.11)">
       <use xlink:href="#Roboto-Medium-65"/>
       <use x="66.552734" xlink:href="#Roboto-Medium-116"/>
       <use x="99.804688" xlink:href="#Roboto-Medium-108"/>
       <use x="125.341797" xlink:href="#Roboto-Medium-225"/>
       <use x="179.443359" xlink:href="#Roboto-Medium-110"/>
       <use x="235.058594" xlink:href="#Roboto-Medium-116"/>
       <use x="268.310547" xlink:href="#Roboto-Medium-105"/>
       <use x="293.847656" xlink:href="#Roboto-Medium-99"/>
       <use x="346.191406" xlink:href="#Roboto-Medium-111"/>
      </g>
     </g>
    </g>
    <g id="xtick_19">
     <g id="line2d_19">
      <g>
       <use style="stroke:#000000;stroke-width:0.8;" x="361.51062" xlink:href="#m4d2e965003" y="240.36"/>
      </g>
     </g>
     <g id="text_19">
      <!-- Valle del Cauca -->
      <g transform="translate(364.518433 323.302969)rotate(-90)scale(0.11 -0.11)">
       <defs>
        <path d="M 32.28125 15.484375 
L 50.34375 71.09375 
L 63.921875 71.09375 
L 38.328125 0 
L 26.375 0 
L 0.875 71.09375 
L 14.40625 71.09375 
z
" id="Roboto-Medium-86"/>
       </defs>
       <use xlink:href="#Roboto-Medium-86"/>
       <use x="64.697266" xlink:href="#Roboto-Medium-97"/>
       <use x="118.798828" xlink:href="#Roboto-Medium-108"/>
       <use x="144.335938" xlink:href="#Roboto-Medium-108"/>
       <use x="169.873047" xlink:href="#Roboto-Medium-101"/>
       <use x="223.535156" xlink:href="#Roboto-Medium-32"/>
       <use x="248.4375" xlink:href="#Roboto-Medium-100"/>
       <use x="304.882812" xlink:href="#Roboto-Medium-101"/>
       <use x="358.544922" xlink:href="#Roboto-Medium-108"/>
       <use x="384.082031" xlink:href="#Roboto-Medium-32"/>
       <use x="408.984375" xlink:href="#Roboto-Medium-67"/>
       <use x="474.267578" xlink:href="#Roboto-Medium-97"/>
       <use x="528.369141" xlink:href="#Roboto-Medium-117"/>
       <use x="583.935547" xlink:href="#Roboto-Medium-99"/>
       <use x="636.279297" xlink:href="#Roboto-Medium-97"/>
      </g>
     </g>
    </g>
   </g>
   <g id="matplotlib.axis_2">
    <g id="ytick_1">
     <g id="line2d_20">
      <defs>
       <path d="M 0 0 
L -3.5 0 
" id="m663487bd37" style="stroke:#000000;stroke-width:0.8;"/>
      </defs>
      <g>
       <use style="stroke:#000000;stroke-width:0.8;" x="34.046875" xlink:href="#m663487bd37" y="240.36"/>
      </g>
     </g>
     <g id="text_20">
      <!-- 0.00 -->
      <g transform="translate(7.2 244.11)scale(0.1 -0.1)">
       <defs>
        <path d="M 51.65625 29.9375 
Q 51.65625 14.59375 45.921875 6.796875 
Q 40.1875 -0.984375 28.46875 -0.984375 
Q 16.9375 -0.984375 11.109375 6.609375 
Q 5.28125 14.203125 5.125 29.109375 
L 5.125 41.40625 
Q 5.125 56.734375 10.859375 64.40625 
Q 16.609375 72.078125 28.375 72.078125 
Q 40.046875 72.078125 45.78125 64.59375 
Q 51.515625 57.125 51.65625 42.234375 
z
M 39.796875 43.21875 
Q 39.796875 53.21875 37.0625 57.875 
Q 34.328125 62.546875 28.375 62.546875 
Q 22.5625 62.546875 19.828125 58.125 
Q 17.09375 53.71875 16.9375 44.34375 
L 16.9375 28.21875 
Q 16.9375 18.265625 19.71875 13.375 
Q 22.515625 8.5 28.46875 8.5 
Q 34.1875 8.5 36.921875 13.015625 
Q 39.65625 17.53125 39.796875 27.15625 
z
" id="Roboto-Medium-48"/>
       </defs>
       <use xlink:href="#Roboto-Medium-48"/>
       <use x="56.835938" xlink:href="#Roboto-Medium-46"/>
       <use x="84.765625" xlink:href="#Roboto-Medium-48"/>
       <use x="141.601562" xlink:href="#Roboto-Medium-48"/>
      </g>
     </g>
    </g>
    <g id="ytick_2">
     <g id="line2d_21">
      <g>
       <use style="stroke:#000000;stroke-width:0.8;" x="34.046875" xlink:href="#m663487bd37" y="213.18"/>
      </g>
     </g>
     <g id="text_21">
      <!-- 0.25 -->
      <g transform="translate(7.2 216.93)scale(0.1 -0.1)">
       <defs>
        <path d="M 53.125 0 
L 5.328125 0 
L 5.328125 8.15625 
L 29 33.984375 
Q 34.125 39.703125 36.296875 43.53125 
Q 38.484375 47.359375 38.484375 51.21875 
Q 38.484375 56.296875 35.625 59.421875 
Q 32.765625 62.546875 27.9375 62.546875 
Q 22.171875 62.546875 19 59.03125 
Q 15.828125 55.515625 15.828125 49.421875 
L 3.953125 49.421875 
Q 3.953125 55.90625 6.90625 61.109375 
Q 9.859375 66.3125 15.34375 69.1875 
Q 20.84375 72.078125 28.03125 72.078125 
Q 38.375 72.078125 44.359375 66.875 
Q 50.34375 61.671875 50.34375 52.484375 
Q 50.34375 47.171875 47.34375 41.328125 
Q 44.34375 35.5 37.5 28.078125 
L 20.125 9.46875 
L 53.125 9.46875 
z
" id="Roboto-Medium-50"/>
        <path d="M 8.5 35.25 
L 12.359375 71.09375 
L 50.53125 71.09375 
L 50.53125 60.84375 
L 22.21875 60.84375 
L 20.265625 43.84375 
Q 25.203125 46.6875 31.390625 46.6875 
Q 41.546875 46.6875 47.1875 40.1875 
Q 52.828125 33.6875 52.828125 22.703125 
Q 52.828125 11.859375 46.578125 5.4375 
Q 40.328125 -0.984375 29.4375 -0.984375 
Q 19.671875 -0.984375 13.25 4.5625 
Q 6.84375 10.109375 6.296875 19.1875 
L 17.78125 19.1875 
Q 18.453125 14.015625 21.484375 11.25 
Q 24.515625 8.5 29.390625 8.5 
Q 34.859375 8.5 37.90625 12.40625 
Q 40.96875 16.3125 40.96875 23.046875 
Q 40.96875 29.546875 37.59375 33.328125 
Q 34.234375 37.109375 28.328125 37.109375 
Q 25.09375 37.109375 22.84375 36.25 
Q 20.609375 35.40625 17.96875 32.90625 
z
" id="Roboto-Medium-53"/>
       </defs>
       <use xlink:href="#Roboto-Medium-48"/>
       <use x="56.835938" xlink:href="#Roboto-Medium-46"/>
       <use x="84.765625" xlink:href="#Roboto-Medium-50"/>
       <use x="141.601562" xlink:href="#Roboto-Medium-53"/>
      </g>
     </g>
    </g>
    <g id="ytick_3">
     <g id="line2d_22">
      <g>
       <use style="stroke:#000000;stroke-width:0.8;" x="34.046875" xlink:href="#m663487bd37" y="186"/>
      </g>
     </g>
     <g id="text_22">
      <!-- 0.50 -->
      <g transform="translate(7.2 189.75)scale(0.1 -0.1)">
       <use xlink:href="#Roboto-Medium-48"/>
       <use x="56.835938" xlink:href="#Roboto-Medium-46"/>
       <use x="84.765625" xlink:href="#Roboto-Medium-53"/>
       <use x="141.601562" xlink:href="#Roboto-Medium-48"/>
      </g>
     </g>
    </g>
    <g id="ytick_4">
     <g id="line2d_23">
      <g>
       <use style="stroke:#000000;stroke-width:0.8;" x="34.046875" xlink:href="#m663487bd37" y="158.82"/>
      </g>
     </g>
     <g id="text_23">
      <!-- 0.75 -->
      <g transform="translate(7.2 162.57)scale(0.1 -0.1)">
       <defs>
        <path d="M 52.640625 64.5 
L 24.21875 0 
L 11.765625 0 
L 40.140625 61.578125 
L 3.375 61.578125 
L 3.375 71.09375 
L 52.640625 71.09375 
z
" id="Roboto-Medium-55"/>
       </defs>
       <use xlink:href="#Roboto-Medium-48"/>
       <use x="56.835938" xlink:href="#Roboto-Medium-46"/>
       <use x="84.765625" xlink:href="#Roboto-Medium-55"/>
       <use x="141.601562" xlink:href="#Roboto-Medium-53"/>
      </g>
     </g>
    </g>
    <g id="ytick_5">
     <g id="line2d_24">
      <g>
       <use style="stroke:#000000;stroke-width:0.8;" x="34.046875" xlink:href="#m663487bd37" y="131.64"/>
      </g>
     </g>
     <g id="text_24">
      <!-- 1.00 -->
      <g transform="translate(7.2 135.39)scale(0.1 -0.1)">
       <defs>
        <path d="M 37.453125 0 
L 25.640625 0 
L 25.640625 57.078125 
L 8.203125 51.125 
L 8.203125 61.140625 
L 35.9375 71.34375 
L 37.453125 71.34375 
z
" id="Roboto-Medium-49"/>
       </defs>
       <use xlink:href="#Roboto-Medium-49"/>
       <use x="56.835938" xlink:href="#Roboto-Medium-46"/>
       <use x="84.765625" xlink:href="#Roboto-Medium-48"/>
       <use x="141.601562" xlink:href="#Roboto-Medium-48"/>
      </g>
     </g>
    </g>
    <g id="ytick_6">
     <g id="line2d_25">
      <g>
       <use style="stroke:#000000;stroke-width:0.8;" x="34.046875" xlink:href="#m663487bd37" y="104.46"/>
      </g>
     </g>
     <g id="text_25">
      <!-- 1.25 -->
      <g transform="translate(7.2 108.21)scale(0.1 -0.1)">
       <use xlink:href="#Roboto-Medium-49"/>
       <use x="56.835938" xlink:href="#Roboto-Medium-46"/>
       <use x="84.765625" xlink:href="#Roboto-Medium-50"/>
       <use x="141.601562" xlink:href="#Roboto-Medium-53"/>
      </g>
     </g>
    </g>
    <g id="ytick_7">
     <g id="line2d_26">
      <g>
       <use style="stroke:#000000;stroke-width:0.8;" x="34.046875" xlink:href="#m663487bd37" y="77.28"/>
      </g>
     </g>
     <g id="text_26">
      <!-- 1.50 -->
      <g transform="translate(7.2 81.03)scale(0.1 -0.1)">
       <use xlink:href="#Roboto-Medium-49"/>
       <use x="56.835938" xlink:href="#Roboto-Medium-46"/>
       <use x="84.765625" xlink:href="#Roboto-Medium-53"/>
       <use x="141.601562" xlink:href="#Roboto-Medium-48"/>
      </g>
     </g>
    </g>
    <g id="ytick_8">
     <g id="line2d_27">
      <g>
       <use style="stroke:#000000;stroke-width:0.8;" x="34.046875" xlink:href="#m663487bd37" y="50.1"/>
      </g>
     </g>
     <g id="text_27">
      <!-- 1.75 -->
      <g transform="translate(7.2 53.85)scale(0.1 -0.1)">
       <use xlink:href="#Roboto-Medium-49"/>
       <use x="56.835938" xlink:href="#Roboto-Medium-46"/>
       <use x="84.765625" xlink:href="#Roboto-Medium-55"/>
       <use x="141.601562" xlink:href="#Roboto-Medium-53"/>
      </g>
     </g>
    </g>
    <g id="ytick_9">
     <g id="line2d_28">
      <g>
       <use style="stroke:#000000;stroke-width:0.8;" x="34.046875" xlink:href="#m663487bd37" y="22.92"/>
      </g>
     </g>
     <g id="text_28">
      <!-- 2.00 -->
      <g transform="translate(7.2 26.67)scale(0.1 -0.1)">
       <use xlink:href="#Roboto-Medium-50"/>
       <use x="56.835938" xlink:href="#Roboto-Medium-46"/>
       <use x="84.765625" xlink:href="#Roboto-Medium-48"/>
       <use x="141.601562" xlink:href="#Roboto-Medium-48"/>
      </g>
     </g>
    </g>
   </g>
   <g id="LineCollection_1">
    <path clip-path="url(#p54fd945890)" d="M 41.38313 154.4712 
L 41.38313 113.1576 
" style="fill:none;stroke:#4c4c4c;stroke-opacity:0.5;"/>
    <path clip-path="url(#p54fd945890)" d="M 59.167991 137.076 
L 59.167991 113.1576 
" style="fill:none;stroke:#4c4c4c;stroke-opacity:0.5;"/>
    <path clip-path="url(#p54fd945890)" d="M 76.952851 150.1224 
L 76.952851 106.6344 
" style="fill:none;stroke:#4c4c4c;stroke-opacity:0.5;"/>
    <path clip-path="url(#p54fd945890)" d="M 94.737712 151.2096 
L 94.737712 105.5472 
" style="fill:none;stroke:#4c4c4c;stroke-opacity:0.5;"/>
    <path clip-path="url(#p54fd945890)" d="M 112.522572 144.6864 
L 112.522572 103.3728 
" style="fill:none;stroke:#4c4c4c;stroke-opacity:0.5;"/>
    <path clip-path="url(#p54fd945890)" d="M 130.307433 146.8608 
L 130.307433 102.2856 
" style="fill:none;stroke:#4c4c4c;stroke-opacity:0.5;"/>
    <path clip-path="url(#p54fd945890)" d="M 148.092293 141.4248 
L 148.092293 102.2856 
" style="fill:none;stroke:#4c4c4c;stroke-opacity:0.5;"/>
    <path clip-path="url(#p54fd945890)" d="M 165.877154 137.076 
L 165.877154 100.1112 
" style="fill:none;stroke:#4c4c4c;stroke-opacity:0.5;"/>
    <path clip-path="url(#p54fd945890)" d="M 183.662014 149.0352 
L 183.662014 100.1112 
" style="fill:none;stroke:#4c4c4c;stroke-opacity:0.5;"/>
    <path clip-path="url(#p54fd945890)" d="M 201.446875 143.5992 
L 201.446875 99.024 
" style="fill:none;stroke:#4c4c4c;stroke-opacity:0.5;"/>
    <path clip-path="url(#p54fd945890)" d="M 219.231736 113.1576 
L 219.231736 95.7624 
" style="fill:none;stroke:#4c4c4c;stroke-opacity:0.5;"/>
    <path clip-path="url(#p54fd945890)" d="M 237.016596 163.1688 
L 237.016596 93.588 
" style="fill:none;stroke:#4c4c4c;stroke-opacity:0.5;"/>
    <path clip-path="url(#p54fd945890)" d="M 254.801457 135.9888 
L 254.801457 91.4136 
" style="fill:none;stroke:#4c4c4c;stroke-opacity:0.5;"/>
    <path clip-path="url(#p54fd945890)" d="M 272.586317 120.768 
L 272.586317 90.3264 
" style="fill:none;stroke:#4c4c4c;stroke-opacity:0.5;"/>
    <path clip-path="url(#p54fd945890)" d="M 290.371178 132.7272 
L 290.371178 88.152 
" style="fill:none;stroke:#4c4c4c;stroke-opacity:0.5;"/>
    <path clip-path="url(#p54fd945890)" d="M 308.156038 135.9888 
L 308.156038 87.0648 
" style="fill:none;stroke:#4c4c4c;stroke-opacity:0.5;"/>
    <path clip-path="url(#p54fd945890)" d="M 325.940899 156.6456 
L 325.940899 82.716 
" style="fill:none;stroke:#4c4c4c;stroke-opacity:0.5;"/>
    <path clip-path="url(#p54fd945890)" d="M 343.725759 124.0296 
L 343.725759 82.716 
" style="fill:none;stroke:#4c4c4c;stroke-opacity:0.5;"/>
    <path clip-path="url(#p54fd945890)" d="M 361.51062 109.896 
L 361.51062 82.716 
" style="fill:none;stroke:#4c4c4c;stroke-opacity:0.5;"/>
   </g>
   <g id="line2d_29">
    <defs>
     <path d="M 2 0 
L -2 -0 
" id="m56570dbda4" style="stroke:#4c4c4c;stroke-opacity:0.5;"/>
    </defs>
    <g clip-path="url(#p54fd945890)">
     <use style="fill:#4c4c4c;fill-opacity:0.5;stroke:#4c4c4c;stroke-opacity:0.5;" x="41.38313" xlink:href="#m56570dbda4" y="154.4712"/>
     <use style="fill:#4c4c4c;fill-opacity:0.5;stroke:#4c4c4c;stroke-opacity:0.5;" x="59.167991" xlink:href="#m56570dbda4" y="137.076"/>
     <use style="fill:#4c4c4c;fill-opacity:0.5;stroke:#4c4c4c;stroke-opacity:0.5;" x="76.952851" xlink:href="#m56570dbda4" y="150.1224"/>
     <use style="fill:#4c4c4c;fill-opacity:0.5;stroke:#4c4c4c;stroke-opacity:0.5;" x="94.737712" xlink:href="#m56570dbda4" y="151.2096"/>
     <use style="fill:#4c4c4c;fill-opacity:0.5;stroke:#4c4c4c;stroke-opacity:0.5;" x="112.522572" xlink:href="#m56570dbda4" y="144.6864"/>
     <use style="fill:#4c4c4c;fill-opacity:0.5;stroke:#4c4c4c;stroke-opacity:0.5;" x="130.307433" xlink:href="#m56570dbda4" y="146.8608"/>
     <use style="fill:#4c4c4c;fill-opacity:0.5;stroke:#4c4c4c;stroke-opacity:0.5;" x="148.092293" xlink:href="#m56570dbda4" y="141.4248"/>
     <use style="fill:#4c4c4c;fill-opacity:0.5;stroke:#4c4c4c;stroke-opacity:0.5;" x="165.877154" xlink:href="#m56570dbda4" y="137.076"/>
     <use style="fill:#4c4c4c;fill-opacity:0.5;stroke:#4c4c4c;stroke-opacity:0.5;" x="183.662014" xlink:href="#m56570dbda4" y="149.0352"/>
     <use style="fill:#4c4c4c;fill-opacity:0.5;stroke:#4c4c4c;stroke-opacity:0.5;" x="201.446875" xlink:href="#m56570dbda4" y="143.5992"/>
     <use style="fill:#4c4c4c;fill-opacity:0.5;stroke:#4c4c4c;stroke-opacity:0.5;" x="219.231736" xlink:href="#m56570dbda4" y="113.1576"/>
     <use style="fill:#4c4c4c;fill-opacity:0.5;stroke:#4c4c4c;stroke-opacity:0.5;" x="237.016596" xlink:href="#m56570dbda4" y="163.1688"/>
     <use style="fill:#4c4c4c;fill-opacity:0.5;stroke:#4c4c4c;stroke-opacity:0.5;" x="254.801457" xlink:href="#m56570dbda4" y="135.9888"/>
     <use style="fill:#4c4c4c;fill-opacity:0.5;stroke:#4c4c4c;stroke-opacity:0.5;" x="272.586317" xlink:href="#m56570dbda4" y="120.768"/>
     <use style="fill:#4c4c4c;fill-opacity:0.5;stroke:#4c4c4c;stroke-opacity:0.5;" x="290.371178" xlink:href="#m56570dbda4" y="132.7272"/>
     <use style="fill:#4c4c4c;fill-opacity:0.5;stroke:#4c4c4c;stroke-opacity:0.5;" x="308.156038" xlink:href="#m56570dbda4" y="135.9888"/>
     <use style="fill:#4c4c4c;fill-opacity:0.5;stroke:#4c4c4c;stroke-opacity:0.5;" x="325.940899" xlink:href="#m56570dbda4" y="156.6456"/>
     <use style="fill:#4c4c4c;fill-opacity:0.5;stroke:#4c4c4c;stroke-opacity:0.5;" x="343.725759" xlink:href="#m56570dbda4" y="124.0296"/>
     <use style="fill:#4c4c4c;fill-opacity:0.5;stroke:#4c4c4c;stroke-opacity:0.5;" x="361.51062" xlink:href="#m56570dbda4" y="109.896"/>
    </g>
   </g>
   <g id="line2d_30">
    <g clip-path="url(#p54fd945890)">
     <use style="fill:#4c4c4c;fill-opacity:0.5;stroke:#4c4c4c;stroke-opacity:0.5;" x="41.38313" xlink:href="#m56570dbda4" y="113.1576"/>
     <use style="fill:#4c4c4c;fill-opacity:0.5;stroke:#4c4c4c;stroke-opacity:0.5;" x="59.167991" xlink:href="#m56570dbda4" y="113.1576"/>
     <use style="fill:#4c4c4c;fill-opacity:0.5;stroke:#4c4c4c;stroke-opacity:0.5;" x="76.952851" xlink:href="#m56570dbda4" y="106.6344"/>
     <use style="fill:#4c4c4c;fill-opacity:0.5;stroke:#4c4c4c;stroke-opacity:0.5;" x="94.737712" xlink:href="#m56570dbda4" y="105.5472"/>
     <use style="fill:#4c4c4c;fill-opacity:0.5;stroke:#4c4c4c;stroke-opacity:0.5;" x="112.522572" xlink:href="#m56570dbda4" y="103.3728"/>
     <use style="fill:#4c4c4c;fill-opacity:0.5;stroke:#4c4c4c;stroke-opacity:0.5;" x="130.307433" xlink:href="#m56570dbda4" y="102.2856"/>
     <use style="fill:#4c4c4c;fill-opacity:0.5;stroke:#4c4c4c;stroke-opacity:0.5;" x="148.092293" xlink:href="#m56570dbda4" y="102.2856"/>
     <use style="fill:#4c4c4c;fill-opacity:0.5;stroke:#4c4c4c;stroke-opacity:0.5;" x="165.877154" xlink:href="#m56570dbda4" y="100.1112"/>
     <use style="fill:#4c4c4c;fill-opacity:0.5;stroke:#4c4c4c;stroke-opacity:0.5;" x="183.662014" xlink:href="#m56570dbda4" y="100.1112"/>
     <use style="fill:#4c4c4c;fill-opacity:0.5;stroke:#4c4c4c;stroke-opacity:0.5;" x="201.446875" xlink:href="#m56570dbda4" y="99.024"/>
     <use style="fill:#4c4c4c;fill-opacity:0.5;stroke:#4c4c4c;stroke-opacity:0.5;" x="219.231736" xlink:href="#m56570dbda4" y="95.7624"/>
     <use style="fill:#4c4c4c;fill-opacity:0.5;stroke:#4c4c4c;stroke-opacity:0.5;" x="237.016596" xlink:href="#m56570dbda4" y="93.588"/>
     <use style="fill:#4c4c4c;fill-opacity:0.5;stroke:#4c4c4c;stroke-opacity:0.5;" x="254.801457" xlink:href="#m56570dbda4" y="91.4136"/>
     <use style="fill:#4c4c4c;fill-opacity:0.5;stroke:#4c4c4c;stroke-opacity:0.5;" x="272.586317" xlink:href="#m56570dbda4" y="90.3264"/>
     <use style="fill:#4c4c4c;fill-opacity:0.5;stroke:#4c4c4c;stroke-opacity:0.5;" x="290.371178" xlink:href="#m56570dbda4" y="88.152"/>
     <use style="fill:#4c4c4c;fill-opacity:0.5;stroke:#4c4c4c;stroke-opacity:0.5;" x="308.156038" xlink:href="#m56570dbda4" y="87.0648"/>
     <use style="fill:#4c4c4c;fill-opacity:0.5;stroke:#4c4c4c;stroke-opacity:0.5;" x="325.940899" xlink:href="#m56570dbda4" y="82.716"/>
     <use style="fill:#4c4c4c;fill-opacity:0.5;stroke:#4c4c4c;stroke-opacity:0.5;" x="343.725759" xlink:href="#m56570dbda4" y="82.716"/>
     <use style="fill:#4c4c4c;fill-opacity:0.5;stroke:#4c4c4c;stroke-opacity:0.5;" x="361.51062" xlink:href="#m56570dbda4" y="82.716"/>
    </g>
   </g>
   <g id="line2d_31">
    <path clip-path="url(#p54fd945890)" d="M 34.046875 131.64 
L 368.846875 131.64 
" style="fill:none;stroke:#000000;stroke-dasharray:1,1.65;stroke-dashoffset:0;"/>
   </g>
   <g id="patch_22">
    <path d="M 34.046875 240.36 
L 34.046875 22.92 
" style="fill:none;stroke:#000000;stroke-linecap:square;stroke-linejoin:miter;stroke-width:0.8;"/>
   </g>
   <g id="patch_23">
    <path d="M 368.846875 240.36 
L 368.846875 22.92 
" style="fill:none;stroke:#000000;stroke-linecap:square;stroke-linejoin:miter;stroke-width:0.8;"/>
   </g>
   <g id="patch_24">
    <path d="M 34.046875 240.36 
L 368.846875 240.36 
" style="fill:none;stroke:#000000;stroke-linecap:square;stroke-linejoin:miter;stroke-width:0.8;"/>
   </g>
   <g id="patch_25">
    <path d="M 34.046875 22.92 
L 368.846875 22.92 
" style="fill:none;stroke:#000000;stroke-linecap:square;stroke-linejoin:miter;stroke-width:0.8;"/>
   </g>
   <g id="text_29">
    <!-- Valores más (altos) probables de $R_t$ | 2021-06-25 -->
    <g transform="translate(70.166875 16.92)scale(0.12 -0.12)">
     <defs>
      <path d="M 31.78125 12.453125 
L 52.09375 71.09375 
L 62.359375 71.09375 
L 35.984375 0 
L 27.6875 0 
L 1.375 71.09375 
L 11.578125 71.09375 
z
" id="Roboto-Regular-86"/>
      <path d="M 39.453125 0 
Q 38.671875 1.5625 38.1875 5.5625 
Q 31.890625 -0.984375 23.140625 -0.984375 
Q 15.328125 -0.984375 10.328125 3.4375 
Q 5.328125 7.859375 5.328125 14.65625 
Q 5.328125 22.90625 11.59375 27.46875 
Q 17.875 32.03125 29.25 32.03125 
L 38.03125 32.03125 
L 38.03125 36.1875 
Q 38.03125 40.921875 35.203125 43.71875 
Q 32.375 46.53125 26.859375 46.53125 
Q 22.015625 46.53125 18.75 44.09375 
Q 15.484375 41.65625 15.484375 38.1875 
L 6.390625 38.1875 
Q 6.390625 42.140625 9.203125 45.828125 
Q 12.015625 49.515625 16.8125 51.65625 
Q 21.625 53.8125 27.390625 53.8125 
Q 36.53125 53.8125 41.703125 49.234375 
Q 46.875 44.671875 47.078125 36.671875 
L 47.078125 12.359375 
Q 47.078125 5.078125 48.921875 0.78125 
L 48.921875 0 
z
M 24.46875 6.890625 
Q 28.71875 6.890625 32.515625 9.078125 
Q 36.328125 11.28125 38.03125 14.796875 
L 38.03125 25.640625 
L 30.953125 25.640625 
Q 14.359375 25.640625 14.359375 15.921875 
Q 14.359375 11.671875 17.1875 9.28125 
Q 20.015625 6.890625 24.46875 6.890625 
z
" id="Roboto-Regular-97"/>
      <path d="M 16.65625 0 
L 7.625 0 
L 7.625 75 
L 16.65625 75 
z
" id="Roboto-Regular-108"/>
      <path d="M 4.4375 26.90625 
Q 4.4375 34.671875 7.484375 40.875 
Q 10.546875 47.078125 15.984375 50.4375 
Q 21.4375 53.8125 28.421875 53.8125 
Q 39.203125 53.8125 45.875 46.34375 
Q 52.546875 38.875 52.546875 26.46875 
L 52.546875 25.828125 
Q 52.546875 18.109375 49.578125 11.984375 
Q 46.625 5.859375 41.125 2.4375 
Q 35.640625 -0.984375 28.515625 -0.984375 
Q 17.78125 -0.984375 11.109375 6.484375 
Q 4.4375 13.96875 4.4375 26.265625 
z
M 13.53125 25.828125 
Q 13.53125 17.046875 17.609375 11.71875 
Q 21.6875 6.390625 28.515625 6.390625 
Q 35.40625 6.390625 39.453125 11.78125 
Q 43.5 17.1875 43.5 26.90625 
Q 43.5 35.59375 39.375 40.984375 
Q 35.25 46.390625 28.421875 46.390625 
Q 21.734375 46.390625 17.625 41.0625 
Q 13.53125 35.75 13.53125 25.828125 
z
" id="Roboto-Regular-111"/>
      <path d="M 32.375 44.734375 
Q 30.328125 45.0625 27.9375 45.0625 
Q 19.046875 45.0625 15.875 37.5 
L 15.875 0 
L 6.84375 0 
L 6.84375 52.828125 
L 15.625 52.828125 
L 15.765625 46.734375 
Q 20.21875 53.8125 28.375 53.8125 
Q 31 53.8125 32.375 53.125 
z
" id="Roboto-Regular-114"/>
      <path d="M 28.765625 -0.984375 
Q 18.015625 -0.984375 11.28125 6.078125 
Q 4.546875 13.140625 4.546875 24.953125 
L 4.546875 26.609375 
Q 4.546875 34.46875 7.546875 40.640625 
Q 10.546875 46.828125 15.9375 50.3125 
Q 21.34375 53.8125 27.640625 53.8125 
Q 37.9375 53.8125 43.640625 47.015625 
Q 49.359375 40.234375 49.359375 27.59375 
L 49.359375 23.828125 
L 13.578125 23.828125 
Q 13.765625 16.015625 18.140625 11.203125 
Q 22.515625 6.390625 29.25 6.390625 
Q 34.03125 6.390625 37.34375 8.34375 
Q 40.671875 10.296875 43.171875 13.53125 
L 48.6875 9.234375 
Q 42.046875 -0.984375 28.765625 -0.984375 
z
M 27.640625 46.390625 
Q 22.171875 46.390625 18.453125 42.40625 
Q 14.75 38.421875 13.875 31.25 
L 40.328125 31.25 
L 40.328125 31.9375 
Q 39.9375 38.8125 36.609375 42.59375 
Q 33.296875 46.390625 27.640625 46.390625 
z
" id="Roboto-Regular-101"/>
      <path d="M 37.59375 14.015625 
Q 37.59375 17.671875 34.828125 19.703125 
Q 32.078125 21.734375 25.21875 23.1875 
Q 18.359375 24.65625 14.328125 26.703125 
Q 10.296875 28.765625 8.375 31.59375 
Q 6.453125 34.421875 6.453125 38.328125 
Q 6.453125 44.828125 11.9375 49.3125 
Q 17.4375 53.8125 25.984375 53.8125 
Q 34.96875 53.8125 40.546875 49.171875 
Q 46.140625 44.53125 46.140625 37.3125 
L 37.0625 37.3125 
Q 37.0625 41.015625 33.90625 43.703125 
Q 30.765625 46.390625 25.984375 46.390625 
Q 21.046875 46.390625 18.265625 44.234375 
Q 15.484375 42.09375 15.484375 38.625 
Q 15.484375 35.359375 18.0625 33.6875 
Q 20.65625 32.03125 27.421875 30.515625 
Q 34.1875 29 38.375 26.90625 
Q 42.578125 24.8125 44.59375 21.84375 
Q 46.625 18.890625 46.625 14.65625 
Q 46.625 7.5625 40.953125 3.28125 
Q 35.296875 -0.984375 26.265625 -0.984375 
Q 19.921875 -0.984375 15.03125 1.265625 
Q 10.15625 3.515625 7.390625 7.546875 
Q 4.640625 11.578125 4.640625 16.265625 
L 13.671875 16.265625 
Q 13.921875 11.71875 17.3125 9.046875 
Q 20.703125 6.390625 26.265625 6.390625 
Q 31.390625 6.390625 34.484375 8.46875 
Q 37.59375 10.546875 37.59375 14.015625 
z
" id="Roboto-Regular-115"/>
      <path id="Roboto-Regular-32"/>
      <path d="M 15.328125 52.828125 
L 15.578125 46.96875 
Q 21.390625 53.8125 31.25 53.8125 
Q 42.328125 53.8125 46.34375 45.3125 
Q 48.96875 49.125 53.1875 51.46875 
Q 57.421875 53.8125 63.1875 53.8125 
Q 80.5625 53.8125 80.859375 35.40625 
L 80.859375 0 
L 71.828125 0 
L 71.828125 34.859375 
Q 71.828125 40.53125 69.234375 43.328125 
Q 66.65625 46.140625 60.546875 46.140625 
Q 55.515625 46.140625 52.1875 43.140625 
Q 48.875 40.140625 48.34375 35.0625 
L 48.34375 0 
L 39.265625 0 
L 39.265625 34.625 
Q 39.265625 46.140625 27.984375 46.140625 
Q 19.09375 46.140625 15.828125 38.578125 
L 15.828125 0 
L 6.78125 0 
L 6.78125 52.828125 
z
" id="Roboto-Regular-109"/>
      <path d="M 39.453125 0 
Q 38.671875 1.5625 38.1875 5.5625 
Q 31.890625 -0.984375 23.140625 -0.984375 
Q 15.328125 -0.984375 10.328125 3.4375 
Q 5.328125 7.859375 5.328125 14.65625 
Q 5.328125 22.90625 11.59375 27.46875 
Q 17.875 32.03125 29.25 32.03125 
L 38.03125 32.03125 
L 38.03125 36.1875 
Q 38.03125 40.921875 35.203125 43.71875 
Q 32.375 46.53125 26.859375 46.53125 
Q 22.015625 46.53125 18.75 44.09375 
Q 15.484375 41.65625 15.484375 38.1875 
L 6.390625 38.1875 
Q 6.390625 42.140625 9.203125 45.828125 
Q 12.015625 49.515625 16.8125 51.65625 
Q 21.625 53.8125 27.390625 53.8125 
Q 36.53125 53.8125 41.703125 49.234375 
Q 46.875 44.671875 47.078125 36.671875 
L 47.078125 12.359375 
Q 47.078125 5.078125 48.921875 0.78125 
L 48.921875 0 
z
M 24.46875 6.890625 
Q 28.71875 6.890625 32.515625 9.078125 
Q 36.328125 11.28125 38.03125 14.796875 
L 38.03125 25.640625 
L 30.953125 25.640625 
Q 14.359375 25.640625 14.359375 15.921875 
Q 14.359375 11.671875 17.1875 9.28125 
Q 20.015625 6.890625 24.46875 6.890625 
z
M 32.8125 75 
L 43.75 75 
L 30.671875 60.640625 
L 23.390625 60.640625 
z
" id="Roboto-Regular-225"/>
      <path d="M 6.5 28.859375 
Q 6.5 39.890625 9.453125 50.046875 
Q 12.40625 60.203125 18.265625 68.5 
Q 24.125 76.8125 30.421875 80.21875 
L 32.28125 74.265625 
Q 25.140625 68.796875 20.578125 57.5625 
Q 16.015625 46.34375 15.578125 32.421875 
L 15.53125 28.265625 
Q 15.53125 9.421875 22.40625 -4.4375 
Q 26.5625 -12.75 32.28125 -17.4375 
L 30.421875 -22.953125 
Q 23.921875 -19.34375 18.015625 -10.84375 
Q 6.5 5.765625 6.5 28.859375 
z
" id="Roboto-Regular-40"/>
      <path d="M 19.09375 65.625 
L 19.09375 52.828125 
L 28.953125 52.828125 
L 28.953125 45.84375 
L 19.09375 45.84375 
L 19.09375 13.09375 
Q 19.09375 9.90625 20.40625 8.3125 
Q 21.734375 6.734375 24.90625 6.734375 
Q 26.46875 6.734375 29.203125 7.328125 
L 29.203125 0 
Q 25.640625 -0.984375 22.265625 -0.984375 
Q 16.21875 -0.984375 13.140625 2.671875 
Q 10.0625 6.34375 10.0625 13.09375 
L 10.0625 45.84375 
L 0.4375 45.84375 
L 0.4375 52.828125 
L 10.0625 52.828125 
L 10.0625 65.625 
z
" id="Roboto-Regular-116"/>
      <path d="M 27.6875 28.375 
Q 27.6875 17.484375 24.828125 7.5 
Q 21.96875 -2.484375 16.078125 -10.9375 
Q 10.203125 -19.390625 3.765625 -22.953125 
L 1.859375 -17.4375 
Q 9.375 -11.671875 13.9375 0.453125 
Q 18.5 12.59375 18.609375 27.390625 
L 18.609375 28.953125 
Q 18.609375 39.203125 16.453125 48.015625 
Q 14.3125 56.84375 10.46875 63.8125 
Q 6.640625 70.796875 1.859375 74.703125 
L 3.765625 80.21875 
Q 10.203125 76.65625 16.03125 68.3125 
Q 21.875 59.96875 24.78125 49.90625 
Q 27.6875 39.84375 27.6875 28.375 
z
" id="Roboto-Regular-41"/>
      <path d="M 51.46875 25.828125 
Q 51.46875 13.765625 45.953125 6.390625 
Q 40.4375 -0.984375 31 -0.984375 
Q 21.390625 -0.984375 15.875 5.125 
L 15.875 -20.3125 
L 6.84375 -20.3125 
L 6.84375 52.828125 
L 15.09375 52.828125 
L 15.53125 46.96875 
Q 21.046875 53.8125 30.859375 53.8125 
Q 40.375 53.8125 45.921875 46.625 
Q 51.46875 39.453125 51.46875 26.65625 
z
M 42.4375 26.859375 
Q 42.4375 35.796875 38.625 40.96875 
Q 34.8125 46.140625 28.171875 46.140625 
Q 19.96875 46.140625 15.875 38.875 
L 15.875 13.625 
Q 19.921875 6.390625 28.265625 6.390625 
Q 34.765625 6.390625 38.59375 11.546875 
Q 42.4375 16.703125 42.4375 26.859375 
z
" id="Roboto-Regular-112"/>
      <path d="M 51.5625 25.828125 
Q 51.5625 13.71875 46 6.359375 
Q 40.4375 -0.984375 31.0625 -0.984375 
Q 21.046875 -0.984375 15.578125 6.109375 
L 15.140625 0 
L 6.84375 0 
L 6.84375 75 
L 15.875 75 
L 15.875 47.015625 
Q 21.34375 53.8125 30.953125 53.8125 
Q 40.578125 53.8125 46.0625 46.53125 
Q 51.5625 39.265625 51.5625 26.609375 
z
M 42.53125 26.859375 
Q 42.53125 36.078125 38.96875 41.109375 
Q 35.40625 46.140625 28.71875 46.140625 
Q 19.78125 46.140625 15.875 37.84375 
L 15.875 14.984375 
Q 20.015625 6.6875 28.8125 6.6875 
Q 35.296875 6.6875 38.90625 11.71875 
Q 42.53125 16.75 42.53125 26.859375 
z
" id="Roboto-Regular-98"/>
      <path d="M 4.640625 26.859375 
Q 4.640625 39.015625 10.390625 46.40625 
Q 16.15625 53.8125 25.484375 53.8125 
Q 34.765625 53.8125 40.1875 47.46875 
L 40.1875 75 
L 49.21875 75 
L 49.21875 0 
L 40.921875 0 
L 40.484375 5.671875 
Q 35.0625 -0.984375 25.390625 -0.984375 
Q 16.21875 -0.984375 10.421875 6.53125 
Q 4.640625 14.0625 4.640625 26.171875 
z
M 13.671875 25.828125 
Q 13.671875 16.84375 17.375 11.765625 
Q 21.09375 6.6875 27.640625 6.6875 
Q 36.234375 6.6875 40.1875 14.40625 
L 40.1875 38.671875 
Q 36.140625 46.140625 27.734375 46.140625 
Q 21.09375 46.140625 17.375 41.015625 
Q 13.671875 35.890625 13.671875 25.828125 
z
" id="Roboto-Regular-100"/>
      <path d="M 36.71875 40.578125 
Q 43.109375 40.578125 46.40625 43.546875 
Q 49.703125 46.53125 49.703125 52.296875 
Q 49.703125 55.90625 47.4375 57.59375 
Q 45.171875 59.28125 40.28125 59.28125 
L 32.515625 59.28125 
L 28.8125 40.578125 
z
M 26.3125 27.59375 
L 20.90625 0 
L 2.09375 0 
L 16.3125 72.90625 
L 44.09375 72.90625 
Q 56.109375 72.90625 62.296875 68.40625 
Q 68.5 63.921875 68.5 55.171875 
Q 68.5 46.34375 63.609375 40.625 
Q 58.734375 34.90625 50.390625 34.078125 
Q 54.203125 33.296875 56.734375 30.1875 
Q 59.28125 27.09375 61.1875 20.703125 
L 67.390625 0 
L 48.6875 0 
L 43.21875 18.109375 
Q 41.546875 23.53125 39.171875 25.5625 
Q 36.8125 27.59375 32.328125 27.59375 
z
" id="DejaVuSans-BoldOblique-82"/>
      <path d="M 35.984375 70.21875 
L 33.015625 54.6875 
L 50.875 54.6875 
L 48.390625 42.1875 
L 30.515625 42.1875 
L 26.03125 19.046875 
Q 25.828125 18.265625 25.75 17.71875 
Q 25.6875 17.1875 25.6875 16.703125 
Q 25.6875 14.453125 27.171875 13.46875 
Q 28.65625 12.5 32.171875 12.5 
L 41.21875 12.5 
L 38.71875 0 
L 24.03125 0 
Q 16.109375 0 11.953125 3.3125 
Q 7.8125 6.640625 7.8125 12.890625 
Q 7.8125 14.265625 7.953125 15.828125 
Q 8.109375 17.390625 8.40625 19 
L 12.890625 42.1875 
L 4.296875 42.1875 
L 6.6875 54.6875 
L 15.375 54.6875 
L 18.40625 70.21875 
z
" id="DejaVuSans-BoldOblique-116"/>
      <path d="M 15.828125 -13.1875 
L 8.546875 -13.1875 
L 8.546875 71.09375 
L 15.828125 71.09375 
z
" id="Roboto-Regular-124"/>
      <path d="M 52.484375 0 
L 5.90625 0 
L 5.90625 6.5 
L 30.515625 33.84375 
Q 35.984375 40.046875 38.0625 43.921875 
Q 40.140625 47.796875 40.140625 51.953125 
Q 40.140625 57.515625 36.765625 61.078125 
Q 33.40625 64.65625 27.78125 64.65625 
Q 21.046875 64.65625 17.3125 60.8125 
Q 13.578125 56.984375 13.578125 50.140625 
L 4.546875 50.140625 
Q 4.546875 59.96875 10.859375 66.015625 
Q 17.1875 72.078125 27.78125 72.078125 
Q 37.703125 72.078125 43.453125 66.875 
Q 49.21875 61.671875 49.21875 53.03125 
Q 49.21875 42.53125 35.84375 28.03125 
L 16.796875 7.375 
L 52.484375 7.375 
z
" id="Roboto-Regular-50"/>
      <path d="M 50.484375 30.328125 
Q 50.484375 14.453125 45.0625 6.734375 
Q 39.65625 -0.984375 28.125 -0.984375 
Q 16.75 -0.984375 11.28125 6.5625 
Q 5.8125 14.109375 5.609375 29.109375 
L 5.609375 41.15625 
Q 5.609375 56.84375 11.03125 64.453125 
Q 16.453125 72.078125 28.03125 72.078125 
Q 39.5 72.078125 44.921875 64.71875 
Q 50.34375 57.375 50.484375 42.046875 
z
M 41.453125 42.671875 
Q 41.453125 54.15625 38.234375 59.40625 
Q 35.015625 64.65625 28.03125 64.65625 
Q 21.09375 64.65625 17.921875 59.421875 
Q 14.75 54.203125 14.65625 43.359375 
L 14.65625 28.90625 
Q 14.65625 17.390625 18 11.890625 
Q 21.34375 6.390625 28.125 6.390625 
Q 34.8125 6.390625 38.0625 11.5625 
Q 41.3125 16.75 41.453125 27.875 
z
" id="Roboto-Regular-48"/>
      <path d="M 35.59375 0 
L 26.515625 0 
L 26.515625 60.203125 
L 8.296875 53.515625 
L 8.296875 61.71875 
L 34.1875 71.4375 
L 35.59375 71.4375 
z
" id="Roboto-Regular-49"/>
      <path d="M 25.640625 26.515625 
L 1.8125 26.515625 
L 1.8125 33.890625 
L 25.640625 33.890625 
z
" id="Roboto-Regular-45"/>
      <path d="M 41.359375 71.140625 
L 41.359375 63.484375 
L 39.703125 63.484375 
Q 29.15625 63.28125 22.90625 57.21875 
Q 16.65625 51.171875 15.671875 40.1875 
Q 21.296875 46.625 31 46.625 
Q 40.28125 46.625 45.828125 40.078125 
Q 51.375 33.546875 51.375 23.1875 
Q 51.375 12.203125 45.390625 5.609375 
Q 39.40625 -0.984375 29.34375 -0.984375 
Q 19.140625 -0.984375 12.796875 6.859375 
Q 6.453125 14.703125 6.453125 27.046875 
L 6.453125 30.515625 
Q 6.453125 50.140625 14.8125 60.515625 
Q 23.1875 70.90625 39.75 71.140625 
z
M 29.5 39.109375 
Q 24.859375 39.109375 20.953125 36.328125 
Q 17.046875 33.546875 15.53125 29.34375 
L 15.53125 26.03125 
Q 15.53125 17.234375 19.484375 11.859375 
Q 23.4375 6.5 29.34375 6.5 
Q 35.453125 6.5 38.9375 10.984375 
Q 42.4375 15.484375 42.4375 22.75 
Q 42.4375 30.078125 38.890625 34.59375 
Q 35.359375 39.109375 29.5 39.109375 
z
" id="Roboto-Regular-54"/>
      <path d="M 10.0625 35.640625 
L 13.671875 71.09375 
L 50.09375 71.09375 
L 50.09375 62.75 
L 21.34375 62.75 
L 19.1875 43.359375 
Q 24.421875 46.4375 31.0625 46.4375 
Q 40.765625 46.4375 46.484375 40.015625 
Q 52.203125 33.59375 52.203125 22.65625 
Q 52.203125 11.671875 46.265625 5.34375 
Q 40.328125 -0.984375 29.6875 -0.984375 
Q 20.265625 -0.984375 14.296875 4.234375 
Q 8.34375 9.46875 7.515625 18.703125 
L 16.0625 18.703125 
Q 16.890625 12.59375 20.40625 9.484375 
Q 23.921875 6.390625 29.6875 6.390625 
Q 35.984375 6.390625 39.578125 10.6875 
Q 43.171875 14.984375 43.171875 22.5625 
Q 43.171875 29.6875 39.28125 34 
Q 35.40625 38.328125 28.953125 38.328125 
Q 23.046875 38.328125 19.671875 35.75 
L 17.28125 33.796875 
z
" id="Roboto-Regular-53"/>
     </defs>
     <use transform="translate(0 0.78125)" xlink:href="#Roboto-Regular-86"/>
     <use transform="translate(63.623047 0.78125)" xlink:href="#Roboto-Regular-97"/>
     <use transform="translate(118.017578 0.78125)" xlink:href="#Roboto-Regular-108"/>
     <use transform="translate(142.285156 0.78125)" xlink:href="#Roboto-Regular-111"/>
     <use transform="translate(199.316406 0.78125)" xlink:href="#Roboto-Regular-114"/>
     <use transform="translate(233.154297 0.78125)" xlink:href="#Roboto-Regular-101"/>
     <use transform="translate(286.132812 0.78125)" xlink:href="#Roboto-Regular-115"/>
     <use transform="translate(337.695312 0.78125)" xlink:href="#Roboto-Regular-32"/>
     <use transform="translate(362.451172 0.78125)" xlink:href="#Roboto-Regular-109"/>
     <use transform="translate(450.097656 0.78125)" xlink:href="#Roboto-Regular-225"/>
     <use transform="translate(504.492188 0.78125)" xlink:href="#Roboto-Regular-115"/>
     <use transform="translate(556.054688 0.78125)" xlink:href="#Roboto-Regular-32"/>
     <use transform="translate(580.810547 0.78125)" xlink:href="#Roboto-Regular-40"/>
     <use transform="translate(614.990234 0.78125)" xlink:href="#Roboto-Regular-97"/>
     <use transform="translate(669.384766 0.78125)" xlink:href="#Roboto-Regular-108"/>
     <use transform="translate(693.652344 0.78125)" xlink:href="#Roboto-Regular-116"/>
     <use transform="translate(726.318359 0.78125)" xlink:href="#Roboto-Regular-111"/>
     <use transform="translate(783.349609 0.78125)" xlink:href="#Roboto-Regular-115"/>
     <use transform="translate(834.912109 0.78125)" xlink:href="#Roboto-Regular-41"/>
     <use transform="translate(869.677734 0.78125)" xlink:href="#Roboto-Regular-32"/>
     <use transform="translate(894.433594 0.78125)" xlink:href="#Roboto-Regular-112"/>
     <use transform="translate(950.537109 0.78125)" xlink:href="#Roboto-Regular-114"/>
     <use transform="translate(984.375 0.78125)" xlink:href="#Roboto-Regular-111"/>
     <use transform="translate(1041.40625 0.78125)" xlink:href="#Roboto-Regular-98"/>
     <use transform="translate(1097.509766 0.78125)" xlink:href="#Roboto-Regular-97"/>
     <use transform="translate(1151.904297 0.78125)" xlink:href="#Roboto-Regular-98"/>
     <use transform="translate(1208.007812 0.78125)" xlink:href="#Roboto-Regular-108"/>
     <use transform="translate(1232.275391 0.78125)" xlink:href="#Roboto-Regular-101"/>
     <use transform="translate(1285.253906 0.78125)" xlink:href="#Roboto-Regular-115"/>
     <use transform="translate(1336.816406 0.78125)" xlink:href="#Roboto-Regular-32"/>
     <use transform="translate(1361.572266 0.78125)" xlink:href="#Roboto-Regular-100"/>
     <use transform="translate(1417.96875 0.78125)" xlink:href="#Roboto-Regular-101"/>
     <use transform="translate(1470.947266 0.78125)" xlink:href="#Roboto-Regular-32"/>
     <use transform="translate(1495.703125 0.78125)" xlink:href="#DejaVuSans-BoldOblique-82"/>
     <use transform="translate(1572.705078 -15.625)scale(0.7)" xlink:href="#DejaVuSans-BoldOblique-116"/>
     <use transform="translate(1608.901367 0.78125)" xlink:href="#Roboto-Regular-32"/>
     <use transform="translate(1633.657227 0.78125)" xlink:href="#Roboto-Regular-124"/>
     <use transform="translate(1658.022461 0.78125)" xlink:href="#Roboto-Regular-32"/>
     <use transform="translate(1682.77832 0.78125)" xlink:href="#Roboto-Regular-50"/>
     <use transform="translate(1738.930664 0.78125)" xlink:href="#Roboto-Regular-48"/>
     <use transform="translate(1795.083008 0.78125)" xlink:href="#Roboto-Regular-50"/>
     <use transform="translate(1851.235352 0.78125)" xlink:href="#Roboto-Regular-49"/>
     <use transform="translate(1907.387695 0.78125)" xlink:href="#Roboto-Regular-45"/>
     <use transform="translate(1934.975586 0.78125)" xlink:href="#Roboto-Regular-48"/>
     <use transform="translate(1991.12793 0.78125)" xlink:href="#Roboto-Regular-54"/>
     <use transform="translate(2047.280273 0.78125)" xlink:href="#Roboto-Regular-45"/>
     <use transform="translate(2074.868164 0.78125)" xlink:href="#Roboto-Regular-50"/>
     <use transform="translate(2131.020508 0.78125)" xlink:href="#Roboto-Regular-53"/>
    </g>
   </g>
  </g>
 </g>
 <defs>
  <clipPath id="p54fd945890">
   <rect height="217.44" width="334.8" x="34.046875" y="22.92"/>
  </clipPath>
 </defs>
</svg>
