<?xml version="1.0" encoding="utf-8" standalone="no"?>
<!DOCTYPE svg PUBLIC "-//W3C//DTD SVG 1.1//EN"
  "http://www.w3.org/Graphics/SVG/1.1/DTD/svg11.dtd">
<!-- Created with matplotlib (https://matplotlib.org/) -->
<svg height="265.85875pt" version="1.1" viewBox="0 0 376.046875 265.85875" width="376.046875pt" xmlns="http://www.w3.org/2000/svg" xmlns:xlink="http://www.w3.org/1999/xlink">
 <metadata>
  <rdf:RDF xmlns:cc="http://creativecommons.org/ns#" xmlns:dc="http://purl.org/dc/elements/1.1/" xmlns:rdf="http://www.w3.org/1999/02/22-rdf-syntax-ns#">
   <cc:Work>
    <dc:type rdf:resource="http://purl.org/dc/dcmitype/StillImage"/>
    <dc:date>2021-06-26T01:38:31.955366</dc:date>
    <dc:format>image/svg+xml</dc:format>
    <dc:creator>
     <cc:Agent>
      <dc:title>Matplotlib v3.3.4, https://matplotlib.org/</dc:title>
     </cc:Agent>
    </dc:creator>
   </cc:Work>
  </rdf:RDF>
 </metadata>
 <defs>
  <style type="text/css">*{stroke-linecap:butt;stroke-linejoin:round;}</style>
 </defs>
 <g id="figure_1">
  <g id="patch_1">
   <path d="M 0 265.85875 
L 376.046875 265.85875 
L 376.046875 0 
L 0 0 
z
" style="fill:#ffffff;"/>
  </g>
  <g id="axes_1">
   <g id="patch_2">
    <path d="M 34.046875 252.8775 
L 368.846875 252.8775 
L 368.846875 35.4375 
L 34.046875 35.4375 
z
" style="fill:#ffffff;"/>
   </g>
   <g id="matplotlib.axis_1">
    <g id="xtick_1">
     <g id="line2d_1">
      <defs>
       <path d="M 0 0 
L 0 3.5 
" id="m9b2a05d825" style="stroke:#000000;stroke-width:0.8;"/>
      </defs>
      <g>
       <use style="stroke:#000000;stroke-width:0.8;" x="67.526875" xlink:href="#m9b2a05d825" y="252.8775"/>
      </g>
     </g>
    </g>
    <g id="xtick_2">
     <g id="line2d_2">
      <g>
       <use style="stroke:#000000;stroke-width:0.8;" x="134.486875" xlink:href="#m9b2a05d825" y="252.8775"/>
      </g>
     </g>
    </g>
    <g id="xtick_3">
     <g id="line2d_3">
      <g>
       <use style="stroke:#000000;stroke-width:0.8;" x="201.446875" xlink:href="#m9b2a05d825" y="252.8775"/>
      </g>
     </g>
    </g>
    <g id="xtick_4">
     <g id="line2d_4">
      <g>
       <use style="stroke:#000000;stroke-width:0.8;" x="268.406875" xlink:href="#m9b2a05d825" y="252.8775"/>
      </g>
     </g>
    </g>
    <g id="xtick_5">
     <g id="line2d_5">
      <g>
       <use style="stroke:#000000;stroke-width:0.8;" x="335.366875" xlink:href="#m9b2a05d825" y="252.8775"/>
      </g>
     </g>
    </g>
   </g>
   <g id="matplotlib.axis_2">
    <g id="ytick_1">
     <g id="line2d_6">
      <defs>
       <path d="M 0 0 
L -3.5 0 
" id="mbbaeb1d987" style="stroke:#000000;stroke-width:0.8;"/>
      </defs>
      <g>
       <use style="stroke:#000000;stroke-width:0.8;" x="34.046875" xlink:href="#mbbaeb1d987" y="252.8775"/>
      </g>
     </g>
     <g id="text_1">
      <!-- 0.00 -->
      <g transform="translate(7.2 256.6275)scale(0.1 -0.1)">
       <defs>
        <path d="M 51.65625 29.9375 
Q 51.65625 14.59375 45.921875 6.796875 
Q 40.1875 -0.984375 28.46875 -0.984375 
Q 16.9375 -0.984375 11.109375 6.609375 
Q 5.28125 14.203125 5.125 29.109375 
L 5.125 41.40625 
Q 5.125 56.734375 10.859375 64.40625 
Q 16.609375 72.078125 28.375 72.078125 
Q 40.046875 72.078125 45.78125 64.59375 
Q 51.515625 57.125 51.65625 42.234375 
z
M 39.796875 43.21875 
Q 39.796875 53.21875 37.0625 57.875 
Q 34.328125 62.546875 28.375 62.546875 
Q 22.5625 62.546875 19.828125 58.125 
Q 17.09375 53.71875 16.9375 44.34375 
L 16.9375 28.21875 
Q 16.9375 18.265625 19.71875 13.375 
Q 22.515625 8.5 28.46875 8.5 
Q 34.1875 8.5 36.921875 13.015625 
Q 39.65625 17.53125 39.796875 27.15625 
z
" id="Roboto-Medium-48"/>
        <path d="M 13.484375 12.5 
Q 16.796875 12.5 18.59375 10.609375 
Q 20.40625 8.734375 20.40625 5.90625 
Q 20.40625 3.125 18.59375 1.296875 
Q 16.796875 -0.53125 13.484375 -0.53125 
Q 10.296875 -0.53125 8.4375 1.265625 
Q 6.59375 3.078125 6.59375 5.90625 
Q 6.59375 8.734375 8.390625 10.609375 
Q 10.203125 12.5 13.484375 12.5 
z
" id="Roboto-Medium-46"/>
       </defs>
       <use xlink:href="#Roboto-Medium-48"/>
       <use x="56.835938" xlink:href="#Roboto-Medium-46"/>
       <use x="84.765625" xlink:href="#Roboto-Medium-48"/>
       <use x="141.601562" xlink:href="#Roboto-Medium-48"/>
      </g>
     </g>
    </g>
    <g id="ytick_2">
     <g id="line2d_7">
      <g>
       <use style="stroke:#000000;stroke-width:0.8;" x="34.046875" xlink:href="#mbbaeb1d987" y="225.6975"/>
      </g>
     </g>
     <g id="text_2">
      <!-- 0.25 -->
      <g transform="translate(7.2 229.4475)scale(0.1 -0.1)">
       <defs>
        <path d="M 53.125 0 
L 5.328125 0 
L 5.328125 8.15625 
L 29 33.984375 
Q 34.125 39.703125 36.296875 43.53125 
Q 38.484375 47.359375 38.484375 51.21875 
Q 38.484375 56.296875 35.625 59.421875 
Q 32.765625 62.546875 27.9375 62.546875 
Q 22.171875 62.546875 19 59.03125 
Q 15.828125 55.515625 15.828125 49.421875 
L 3.953125 49.421875 
Q 3.953125 55.90625 6.90625 61.109375 
Q 9.859375 66.3125 15.34375 69.1875 
Q 20.84375 72.078125 28.03125 72.078125 
Q 38.375 72.078125 44.359375 66.875 
Q 50.34375 61.671875 50.34375 52.484375 
Q 50.34375 47.171875 47.34375 41.328125 
Q 44.34375 35.5 37.5 28.078125 
L 20.125 9.46875 
L 53.125 9.46875 
z
" id="Roboto-Medium-50"/>
        <path d="M 8.5 35.25 
L 12.359375 71.09375 
L 50.53125 71.09375 
L 50.53125 60.84375 
L 22.21875 60.84375 
L 20.265625 43.84375 
Q 25.203125 46.6875 31.390625 46.6875 
Q 41.546875 46.6875 47.1875 40.1875 
Q 52.828125 33.6875 52.828125 22.703125 
Q 52.828125 11.859375 46.578125 5.4375 
Q 40.328125 -0.984375 29.4375 -0.984375 
Q 19.671875 -0.984375 13.25 4.5625 
Q 6.84375 10.109375 6.296875 19.1875 
L 17.78125 19.1875 
Q 18.453125 14.015625 21.484375 11.25 
Q 24.515625 8.5 29.390625 8.5 
Q 34.859375 8.5 37.90625 12.40625 
Q 40.96875 16.3125 40.96875 23.046875 
Q 40.96875 29.546875 37.59375 33.328125 
Q 34.234375 37.109375 28.328125 37.109375 
Q 25.09375 37.109375 22.84375 36.25 
Q 20.609375 35.40625 17.96875 32.90625 
z
" id="Roboto-Medium-53"/>
       </defs>
       <use xlink:href="#Roboto-Medium-48"/>
       <use x="56.835938" xlink:href="#Roboto-Medium-46"/>
       <use x="84.765625" xlink:href="#Roboto-Medium-50"/>
       <use x="141.601562" xlink:href="#Roboto-Medium-53"/>
      </g>
     </g>
    </g>
    <g id="ytick_3">
     <g id="line2d_8">
      <g>
       <use style="stroke:#000000;stroke-width:0.8;" x="34.046875" xlink:href="#mbbaeb1d987" y="198.5175"/>
      </g>
     </g>
     <g id="text_3">
      <!-- 0.50 -->
      <g transform="translate(7.2 202.2675)scale(0.1 -0.1)">
       <use xlink:href="#Roboto-Medium-48"/>
       <use x="56.835938" xlink:href="#Roboto-Medium-46"/>
       <use x="84.765625" xlink:href="#Roboto-Medium-53"/>
       <use x="141.601562" xlink:href="#Roboto-Medium-48"/>
      </g>
     </g>
    </g>
    <g id="ytick_4">
     <g id="line2d_9">
      <g>
       <use style="stroke:#000000;stroke-width:0.8;" x="34.046875" xlink:href="#mbbaeb1d987" y="171.3375"/>
      </g>
     </g>
     <g id="text_4">
      <!-- 0.75 -->
      <g transform="translate(7.2 175.0875)scale(0.1 -0.1)">
       <defs>
        <path d="M 52.640625 64.5 
L 24.21875 0 
L 11.765625 0 
L 40.140625 61.578125 
L 3.375 61.578125 
L 3.375 71.09375 
L 52.640625 71.09375 
z
" id="Roboto-Medium-55"/>
       </defs>
       <use xlink:href="#Roboto-Medium-48"/>
       <use x="56.835938" xlink:href="#Roboto-Medium-46"/>
       <use x="84.765625" xlink:href="#Roboto-Medium-55"/>
       <use x="141.601562" xlink:href="#Roboto-Medium-53"/>
      </g>
     </g>
    </g>
    <g id="ytick_5">
     <g id="line2d_10">
      <g>
       <use style="stroke:#000000;stroke-width:0.8;" x="34.046875" xlink:href="#mbbaeb1d987" y="144.1575"/>
      </g>
     </g>
     <g id="text_5">
      <!-- 1.00 -->
      <g transform="translate(7.2 147.9075)scale(0.1 -0.1)">
       <defs>
        <path d="M 37.453125 0 
L 25.640625 0 
L 25.640625 57.078125 
L 8.203125 51.125 
L 8.203125 61.140625 
L 35.9375 71.34375 
L 37.453125 71.34375 
z
" id="Roboto-Medium-49"/>
       </defs>
       <use xlink:href="#Roboto-Medium-49"/>
       <use x="56.835938" xlink:href="#Roboto-Medium-46"/>
       <use x="84.765625" xlink:href="#Roboto-Medium-48"/>
       <use x="141.601562" xlink:href="#Roboto-Medium-48"/>
      </g>
     </g>
    </g>
    <g id="ytick_6">
     <g id="line2d_11">
      <g>
       <use style="stroke:#000000;stroke-width:0.8;" x="34.046875" xlink:href="#mbbaeb1d987" y="116.9775"/>
      </g>
     </g>
     <g id="text_6">
      <!-- 1.25 -->
      <g transform="translate(7.2 120.7275)scale(0.1 -0.1)">
       <use xlink:href="#Roboto-Medium-49"/>
       <use x="56.835938" xlink:href="#Roboto-Medium-46"/>
       <use x="84.765625" xlink:href="#Roboto-Medium-50"/>
       <use x="141.601562" xlink:href="#Roboto-Medium-53"/>
      </g>
     </g>
    </g>
    <g id="ytick_7">
     <g id="line2d_12">
      <g>
       <use style="stroke:#000000;stroke-width:0.8;" x="34.046875" xlink:href="#mbbaeb1d987" y="89.7975"/>
      </g>
     </g>
     <g id="text_7">
      <!-- 1.50 -->
      <g transform="translate(7.2 93.5475)scale(0.1 -0.1)">
       <use xlink:href="#Roboto-Medium-49"/>
       <use x="56.835938" xlink:href="#Roboto-Medium-46"/>
       <use x="84.765625" xlink:href="#Roboto-Medium-53"/>
       <use x="141.601562" xlink:href="#Roboto-Medium-48"/>
      </g>
     </g>
    </g>
    <g id="ytick_8">
     <g id="line2d_13">
      <g>
       <use style="stroke:#000000;stroke-width:0.8;" x="34.046875" xlink:href="#mbbaeb1d987" y="62.6175"/>
      </g>
     </g>
     <g id="text_8">
      <!-- 1.75 -->
      <g transform="translate(7.2 66.3675)scale(0.1 -0.1)">
       <use xlink:href="#Roboto-Medium-49"/>
       <use x="56.835938" xlink:href="#Roboto-Medium-46"/>
       <use x="84.765625" xlink:href="#Roboto-Medium-55"/>
       <use x="141.601562" xlink:href="#Roboto-Medium-53"/>
      </g>
     </g>
    </g>
    <g id="ytick_9">
     <g id="line2d_14">
      <g>
       <use style="stroke:#000000;stroke-width:0.8;" x="34.046875" xlink:href="#mbbaeb1d987" y="35.4375"/>
      </g>
     </g>
     <g id="text_9">
      <!-- 2.00 -->
      <g transform="translate(7.2 39.1875)scale(0.1 -0.1)">
       <use xlink:href="#Roboto-Medium-50"/>
       <use x="56.835938" xlink:href="#Roboto-Medium-46"/>
       <use x="84.765625" xlink:href="#Roboto-Medium-48"/>
       <use x="141.601562" xlink:href="#Roboto-Medium-48"/>
      </g>
     </g>
    </g>
   </g>
   <g id="LineCollection_1"/>
   <g id="line2d_15">
    <path clip-path="url(#pa93a56456c)" d="M 34.046875 144.1575 
L 368.846875 144.1575 
" style="fill:none;stroke:#000000;stroke-dasharray:1,1.65;stroke-dashoffset:0;"/>
   </g>
   <g id="patch_3">
    <path d="M 34.046875 252.8775 
L 34.046875 35.4375 
" style="fill:none;stroke:#000000;stroke-linecap:square;stroke-linejoin:miter;stroke-width:0.8;"/>
   </g>
   <g id="patch_4">
    <path d="M 368.846875 252.8775 
L 368.846875 35.4375 
" style="fill:none;stroke:#000000;stroke-linecap:square;stroke-linejoin:miter;stroke-width:0.8;"/>
   </g>
   <g id="patch_5">
    <path d="M 34.046875 252.8775 
L 368.846875 252.8775 
" style="fill:none;stroke:#000000;stroke-linecap:square;stroke-linejoin:miter;stroke-width:0.8;"/>
   </g>
   <g id="patch_6">
    <path d="M 34.046875 35.4375 
L 368.846875 35.4375 
" style="fill:none;stroke:#000000;stroke-linecap:square;stroke-linejoin:miter;stroke-width:0.8;"/>
   </g>
   <g id="text_10">
    <!-- Departamentos que tienen la  -->
    <g transform="translate(123.273438 16.2)scale(0.12 -0.12)">
     <defs>
      <path d="M 8.25 0 
L 8.25 71.09375 
L 28.328125 71.09375 
Q 37.59375 71.09375 44.71875 66.984375 
Q 51.859375 62.890625 55.734375 55.3125 
Q 59.625 47.75 59.671875 37.9375 
L 59.671875 33.40625 
Q 59.671875 23.34375 55.78125 15.765625 
Q 51.90625 8.203125 44.703125 4.140625 
Q 37.5 0.09375 27.9375 0 
z
M 17.625 63.375 
L 17.625 7.671875 
L 27.484375 7.671875 
Q 38.328125 7.671875 44.359375 14.40625 
Q 50.390625 21.140625 50.390625 33.59375 
L 50.390625 37.75 
Q 50.390625 49.859375 44.703125 56.5625 
Q 39.015625 63.28125 28.5625 63.375 
z
" id="Roboto-Regular-68"/>
      <path d="M 28.765625 -0.984375 
Q 18.015625 -0.984375 11.28125 6.078125 
Q 4.546875 13.140625 4.546875 24.953125 
L 4.546875 26.609375 
Q 4.546875 34.46875 7.546875 40.640625 
Q 10.546875 46.828125 15.9375 50.3125 
Q 21.34375 53.8125 27.640625 53.8125 
Q 37.9375 53.8125 43.640625 47.015625 
Q 49.359375 40.234375 49.359375 27.59375 
L 49.359375 23.828125 
L 13.578125 23.828125 
Q 13.765625 16.015625 18.140625 11.203125 
Q 22.515625 6.390625 29.25 6.390625 
Q 34.03125 6.390625 37.34375 8.34375 
Q 40.671875 10.296875 43.171875 13.53125 
L 48.6875 9.234375 
Q 42.046875 -0.984375 28.765625 -0.984375 
z
M 27.640625 46.390625 
Q 22.171875 46.390625 18.453125 42.40625 
Q 14.75 38.421875 13.875 31.25 
L 40.328125 31.25 
L 40.328125 31.9375 
Q 39.9375 38.8125 36.609375 42.59375 
Q 33.296875 46.390625 27.640625 46.390625 
z
" id="Roboto-Regular-101"/>
      <path d="M 51.46875 25.828125 
Q 51.46875 13.765625 45.953125 6.390625 
Q 40.4375 -0.984375 31 -0.984375 
Q 21.390625 -0.984375 15.875 5.125 
L 15.875 -20.3125 
L 6.84375 -20.3125 
L 6.84375 52.828125 
L 15.09375 52.828125 
L 15.53125 46.96875 
Q 21.046875 53.8125 30.859375 53.8125 
Q 40.375 53.8125 45.921875 46.625 
Q 51.46875 39.453125 51.46875 26.65625 
z
M 42.4375 26.859375 
Q 42.4375 35.796875 38.625 40.96875 
Q 34.8125 46.140625 28.171875 46.140625 
Q 19.96875 46.140625 15.875 38.875 
L 15.875 13.625 
Q 19.921875 6.390625 28.265625 6.390625 
Q 34.765625 6.390625 38.59375 11.546875 
Q 42.4375 16.703125 42.4375 26.859375 
z
" id="Roboto-Regular-112"/>
      <path d="M 39.453125 0 
Q 38.671875 1.5625 38.1875 5.5625 
Q 31.890625 -0.984375 23.140625 -0.984375 
Q 15.328125 -0.984375 10.328125 3.4375 
Q 5.328125 7.859375 5.328125 14.65625 
Q 5.328125 22.90625 11.59375 27.46875 
Q 17.875 32.03125 29.25 32.03125 
L 38.03125 32.03125 
L 38.03125 36.1875 
Q 38.03125 40.921875 35.203125 43.71875 
Q 32.375 46.53125 26.859375 46.53125 
Q 22.015625 46.53125 18.75 44.09375 
Q 15.484375 41.65625 15.484375 38.1875 
L 6.390625 38.1875 
Q 6.390625 42.140625 9.203125 45.828125 
Q 12.015625 49.515625 16.8125 51.65625 
Q 21.625 53.8125 27.390625 53.8125 
Q 36.53125 53.8125 41.703125 49.234375 
Q 46.875 44.671875 47.078125 36.671875 
L 47.078125 12.359375 
Q 47.078125 5.078125 48.921875 0.78125 
L 48.921875 0 
z
M 24.46875 6.890625 
Q 28.71875 6.890625 32.515625 9.078125 
Q 36.328125 11.28125 38.03125 14.796875 
L 38.03125 25.640625 
L 30.953125 25.640625 
Q 14.359375 25.640625 14.359375 15.921875 
Q 14.359375 11.671875 17.1875 9.28125 
Q 20.015625 6.890625 24.46875 6.890625 
z
" id="Roboto-Regular-97"/>
      <path d="M 32.375 44.734375 
Q 30.328125 45.0625 27.9375 45.0625 
Q 19.046875 45.0625 15.875 37.5 
L 15.875 0 
L 6.84375 0 
L 6.84375 52.828125 
L 15.625 52.828125 
L 15.765625 46.734375 
Q 20.21875 53.8125 28.375 53.8125 
Q 31 53.8125 32.375 53.125 
z
" id="Roboto-Regular-114"/>
      <path d="M 19.09375 65.625 
L 19.09375 52.828125 
L 28.953125 52.828125 
L 28.953125 45.84375 
L 19.09375 45.84375 
L 19.09375 13.09375 
Q 19.09375 9.90625 20.40625 8.3125 
Q 21.734375 6.734375 24.90625 6.734375 
Q 26.46875 6.734375 29.203125 7.328125 
L 29.203125 0 
Q 25.640625 -0.984375 22.265625 -0.984375 
Q 16.21875 -0.984375 13.140625 2.671875 
Q 10.0625 6.34375 10.0625 13.09375 
L 10.0625 45.84375 
L 0.4375 45.84375 
L 0.4375 52.828125 
L 10.0625 52.828125 
L 10.0625 65.625 
z
" id="Roboto-Regular-116"/>
      <path d="M 15.328125 52.828125 
L 15.578125 46.96875 
Q 21.390625 53.8125 31.25 53.8125 
Q 42.328125 53.8125 46.34375 45.3125 
Q 48.96875 49.125 53.1875 51.46875 
Q 57.421875 53.8125 63.1875 53.8125 
Q 80.5625 53.8125 80.859375 35.40625 
L 80.859375 0 
L 71.828125 0 
L 71.828125 34.859375 
Q 71.828125 40.53125 69.234375 43.328125 
Q 66.65625 46.140625 60.546875 46.140625 
Q 55.515625 46.140625 52.1875 43.140625 
Q 48.875 40.140625 48.34375 35.0625 
L 48.34375 0 
L 39.265625 0 
L 39.265625 34.625 
Q 39.265625 46.140625 27.984375 46.140625 
Q 19.09375 46.140625 15.828125 38.578125 
L 15.828125 0 
L 6.78125 0 
L 6.78125 52.828125 
z
" id="Roboto-Regular-109"/>
      <path d="M 15.375 52.828125 
L 15.671875 46.1875 
Q 21.734375 53.8125 31.5 53.8125 
Q 48.25 53.8125 48.390625 34.90625 
L 48.390625 0 
L 39.359375 0 
L 39.359375 34.96875 
Q 39.3125 40.671875 36.75 43.40625 
Q 34.1875 46.140625 28.765625 46.140625 
Q 24.359375 46.140625 21.03125 43.796875 
Q 17.71875 41.453125 15.875 37.640625 
L 15.875 0 
L 6.84375 0 
L 6.84375 52.828125 
z
" id="Roboto-Regular-110"/>
      <path d="M 4.4375 26.90625 
Q 4.4375 34.671875 7.484375 40.875 
Q 10.546875 47.078125 15.984375 50.4375 
Q 21.4375 53.8125 28.421875 53.8125 
Q 39.203125 53.8125 45.875 46.34375 
Q 52.546875 38.875 52.546875 26.46875 
L 52.546875 25.828125 
Q 52.546875 18.109375 49.578125 11.984375 
Q 46.625 5.859375 41.125 2.4375 
Q 35.640625 -0.984375 28.515625 -0.984375 
Q 17.78125 -0.984375 11.109375 6.484375 
Q 4.4375 13.96875 4.4375 26.265625 
z
M 13.53125 25.828125 
Q 13.53125 17.046875 17.609375 11.71875 
Q 21.6875 6.390625 28.515625 6.390625 
Q 35.40625 6.390625 39.453125 11.78125 
Q 43.5 17.1875 43.5 26.90625 
Q 43.5 35.59375 39.375 40.984375 
Q 35.25 46.390625 28.421875 46.390625 
Q 21.734375 46.390625 17.625 41.0625 
Q 13.53125 35.75 13.53125 25.828125 
z
" id="Roboto-Regular-111"/>
      <path d="M 37.59375 14.015625 
Q 37.59375 17.671875 34.828125 19.703125 
Q 32.078125 21.734375 25.21875 23.1875 
Q 18.359375 24.65625 14.328125 26.703125 
Q 10.296875 28.765625 8.375 31.59375 
Q 6.453125 34.421875 6.453125 38.328125 
Q 6.453125 44.828125 11.9375 49.3125 
Q 17.4375 53.8125 25.984375 53.8125 
Q 34.96875 53.8125 40.546875 49.171875 
Q 46.140625 44.53125 46.140625 37.3125 
L 37.0625 37.3125 
Q 37.0625 41.015625 33.90625 43.703125 
Q 30.765625 46.390625 25.984375 46.390625 
Q 21.046875 46.390625 18.265625 44.234375 
Q 15.484375 42.09375 15.484375 38.625 
Q 15.484375 35.359375 18.0625 33.6875 
Q 20.65625 32.03125 27.421875 30.515625 
Q 34.1875 29 38.375 26.90625 
Q 42.578125 24.8125 44.59375 21.84375 
Q 46.625 18.890625 46.625 14.65625 
Q 46.625 7.5625 40.953125 3.28125 
Q 35.296875 -0.984375 26.265625 -0.984375 
Q 19.921875 -0.984375 15.03125 1.265625 
Q 10.15625 3.515625 7.390625 7.546875 
Q 4.640625 11.578125 4.640625 16.265625 
L 13.671875 16.265625 
Q 13.921875 11.71875 17.3125 9.046875 
Q 20.703125 6.390625 26.265625 6.390625 
Q 31.390625 6.390625 34.484375 8.46875 
Q 37.59375 10.546875 37.59375 14.015625 
z
" id="Roboto-Regular-115"/>
      <path id="Roboto-Regular-32"/>
      <path d="M 4.640625 26.859375 
Q 4.640625 39.3125 10.34375 46.5625 
Q 16.0625 53.8125 25.6875 53.8125 
Q 35.0625 53.8125 40.484375 47.515625 
L 40.875 52.828125 
L 49.171875 52.828125 
L 49.171875 -20.3125 
L 40.140625 -20.3125 
L 40.140625 4.890625 
Q 34.671875 -0.984375 25.59375 -0.984375 
Q 16.015625 -0.984375 10.328125 6.46875 
Q 4.640625 13.921875 4.640625 26.21875 
z
M 13.671875 25.828125 
Q 13.671875 16.75 17.5 11.5625 
Q 21.34375 6.390625 27.828125 6.390625 
Q 35.890625 6.390625 40.140625 13.53125 
L 40.140625 39.40625 
Q 35.84375 46.390625 27.9375 46.390625 
Q 21.390625 46.390625 17.53125 41.1875 
Q 13.671875 35.984375 13.671875 25.828125 
z
" id="Roboto-Regular-113"/>
      <path d="M 39.453125 5.21875 
Q 34.1875 -0.984375 23.96875 -0.984375 
Q 15.53125 -0.984375 11.109375 3.921875 
Q 6.6875 8.84375 6.640625 18.453125 
L 6.640625 52.828125 
L 15.671875 52.828125 
L 15.671875 18.703125 
Q 15.671875 6.6875 25.4375 6.6875 
Q 35.796875 6.6875 39.203125 14.40625 
L 39.203125 52.828125 
L 48.25 52.828125 
L 48.25 0 
L 39.65625 0 
z
" id="Roboto-Regular-117"/>
      <path d="M 16.65625 0 
L 7.625 0 
L 7.625 52.828125 
L 16.65625 52.828125 
z
M 6.890625 66.84375 
Q 6.890625 69.046875 8.234375 70.5625 
Q 9.578125 72.078125 12.203125 72.078125 
Q 14.84375 72.078125 16.203125 70.5625 
Q 17.578125 69.046875 17.578125 66.84375 
Q 17.578125 64.65625 16.203125 63.1875 
Q 14.84375 61.71875 12.203125 61.71875 
Q 9.578125 61.71875 8.234375 63.1875 
Q 6.890625 64.65625 6.890625 66.84375 
z
" id="Roboto-Regular-105"/>
      <path d="M 16.65625 0 
L 7.625 0 
L 7.625 75 
L 16.65625 75 
z
" id="Roboto-Regular-108"/>
     </defs>
     <use xlink:href="#Roboto-Regular-68"/>
     <use x="65.576172" xlink:href="#Roboto-Regular-101"/>
     <use x="118.554688" xlink:href="#Roboto-Regular-112"/>
     <use x="174.658203" xlink:href="#Roboto-Regular-97"/>
     <use x="229.052734" xlink:href="#Roboto-Regular-114"/>
     <use x="262.890625" xlink:href="#Roboto-Regular-116"/>
     <use x="295.556641" xlink:href="#Roboto-Regular-97"/>
     <use x="349.951172" xlink:href="#Roboto-Regular-109"/>
     <use x="437.597656" xlink:href="#Roboto-Regular-101"/>
     <use x="490.576172" xlink:href="#Roboto-Regular-110"/>
     <use x="545.751953" xlink:href="#Roboto-Regular-116"/>
     <use x="578.417969" xlink:href="#Roboto-Regular-111"/>
     <use x="635.449219" xlink:href="#Roboto-Regular-115"/>
     <use x="687.011719" xlink:href="#Roboto-Regular-32"/>
     <use x="711.767578" xlink:href="#Roboto-Regular-113"/>
     <use x="768.603516" xlink:href="#Roboto-Regular-117"/>
     <use x="823.730469" xlink:href="#Roboto-Regular-101"/>
     <use x="876.708984" xlink:href="#Roboto-Regular-32"/>
     <use x="901.464844" xlink:href="#Roboto-Regular-116"/>
     <use x="934.130859" xlink:href="#Roboto-Regular-105"/>
     <use x="958.398438" xlink:href="#Roboto-Regular-101"/>
     <use x="1011.376953" xlink:href="#Roboto-Regular-110"/>
     <use x="1066.552734" xlink:href="#Roboto-Regular-101"/>
     <use x="1119.53125" xlink:href="#Roboto-Regular-110"/>
     <use x="1174.707031" xlink:href="#Roboto-Regular-32"/>
     <use x="1199.462891" xlink:href="#Roboto-Regular-108"/>
     <use x="1223.730469" xlink:href="#Roboto-Regular-97"/>
     <use x="1278.125" xlink:href="#Roboto-Regular-32"/>
    </g>
    <!--  pandemia bajo control | 2021-06-25 -->
    <g transform="translate(105.5875 29.4375)scale(0.12 -0.12)">
     <defs>
      <path d="M 4.640625 26.859375 
Q 4.640625 39.015625 10.390625 46.40625 
Q 16.15625 53.8125 25.484375 53.8125 
Q 34.765625 53.8125 40.1875 47.46875 
L 40.1875 75 
L 49.21875 75 
L 49.21875 0 
L 40.921875 0 
L 40.484375 5.671875 
Q 35.0625 -0.984375 25.390625 -0.984375 
Q 16.21875 -0.984375 10.421875 6.53125 
Q 4.640625 14.0625 4.640625 26.171875 
z
M 13.671875 25.828125 
Q 13.671875 16.84375 17.375 11.765625 
Q 21.09375 6.6875 27.640625 6.6875 
Q 36.234375 6.6875 40.1875 14.40625 
L 40.1875 38.671875 
Q 36.140625 46.140625 27.734375 46.140625 
Q 21.09375 46.140625 17.375 41.015625 
Q 13.671875 35.890625 13.671875 25.828125 
z
" id="Roboto-Regular-100"/>
      <path d="M 51.5625 25.828125 
Q 51.5625 13.71875 46 6.359375 
Q 40.4375 -0.984375 31.0625 -0.984375 
Q 21.046875 -0.984375 15.578125 6.109375 
L 15.140625 0 
L 6.84375 0 
L 6.84375 75 
L 15.875 75 
L 15.875 47.015625 
Q 21.34375 53.8125 30.953125 53.8125 
Q 40.578125 53.8125 46.0625 46.53125 
Q 51.5625 39.265625 51.5625 26.609375 
z
M 42.53125 26.859375 
Q 42.53125 36.078125 38.96875 41.109375 
Q 35.40625 46.140625 28.71875 46.140625 
Q 19.78125 46.140625 15.875 37.84375 
L 15.875 14.984375 
Q 20.015625 6.6875 28.8125 6.6875 
Q 35.296875 6.6875 38.90625 11.71875 
Q 42.53125 16.75 42.53125 26.859375 
z
" id="Roboto-Regular-98"/>
      <path d="M 16.15625 52.828125 
L 16.15625 -6.109375 
Q 16.15625 -21.34375 2.34375 -21.34375 
Q -0.640625 -21.34375 -3.171875 -20.453125 
L -3.171875 -13.234375 
Q -1.609375 -13.625 0.921875 -13.625 
Q 3.953125 -13.625 5.53125 -11.984375 
Q 7.125 -10.359375 7.125 -6.296875 
L 7.125 52.828125 
z
M 6.203125 66.84375 
Q 6.203125 69 7.546875 70.53125 
Q 8.890625 72.078125 11.46875 72.078125 
Q 14.109375 72.078125 15.46875 70.5625 
Q 16.84375 69.046875 16.84375 66.84375 
Q 16.84375 64.65625 15.46875 63.1875 
Q 14.109375 61.71875 11.46875 61.71875 
Q 8.84375 61.71875 7.515625 63.1875 
Q 6.203125 64.65625 6.203125 66.84375 
z
" id="Roboto-Regular-106"/>
      <path d="M 28.03125 6.390625 
Q 32.859375 6.390625 36.46875 9.3125 
Q 40.09375 12.25 40.484375 16.65625 
L 49.03125 16.65625 
Q 48.78125 12.109375 45.890625 8 
Q 43.015625 3.90625 38.203125 1.453125 
Q 33.40625 -0.984375 28.03125 -0.984375 
Q 17.234375 -0.984375 10.859375 6.21875 
Q 4.5 13.421875 4.5 25.921875 
L 4.5 27.4375 
Q 4.5 35.15625 7.328125 41.15625 
Q 10.15625 47.171875 15.453125 50.484375 
Q 20.75 53.8125 27.984375 53.8125 
Q 36.859375 53.8125 42.75 48.484375 
Q 48.640625 43.171875 49.03125 34.671875 
L 40.484375 34.671875 
Q 40.09375 39.796875 36.59375 43.09375 
Q 33.109375 46.390625 27.984375 46.390625 
Q 21.09375 46.390625 17.3125 41.421875 
Q 13.53125 36.46875 13.53125 27.09375 
L 13.53125 25.390625 
Q 13.53125 16.265625 17.28125 11.328125 
Q 21.046875 6.390625 28.03125 6.390625 
z
" id="Roboto-Regular-99"/>
      <path d="M 15.828125 -13.1875 
L 8.546875 -13.1875 
L 8.546875 71.09375 
L 15.828125 71.09375 
z
" id="Roboto-Regular-124"/>
      <path d="M 52.484375 0 
L 5.90625 0 
L 5.90625 6.5 
L 30.515625 33.84375 
Q 35.984375 40.046875 38.0625 43.921875 
Q 40.140625 47.796875 40.140625 51.953125 
Q 40.140625 57.515625 36.765625 61.078125 
Q 33.40625 64.65625 27.78125 64.65625 
Q 21.046875 64.65625 17.3125 60.8125 
Q 13.578125 56.984375 13.578125 50.140625 
L 4.546875 50.140625 
Q 4.546875 59.96875 10.859375 66.015625 
Q 17.1875 72.078125 27.78125 72.078125 
Q 37.703125 72.078125 43.453125 66.875 
Q 49.21875 61.671875 49.21875 53.03125 
Q 49.21875 42.53125 35.84375 28.03125 
L 16.796875 7.375 
L 52.484375 7.375 
z
" id="Roboto-Regular-50"/>
      <path d="M 50.484375 30.328125 
Q 50.484375 14.453125 45.0625 6.734375 
Q 39.65625 -0.984375 28.125 -0.984375 
Q 16.75 -0.984375 11.28125 6.5625 
Q 5.8125 14.109375 5.609375 29.109375 
L 5.609375 41.15625 
Q 5.609375 56.84375 11.03125 64.453125 
Q 16.453125 72.078125 28.03125 72.078125 
Q 39.5 72.078125 44.921875 64.71875 
Q 50.34375 57.375 50.484375 42.046875 
z
M 41.453125 42.671875 
Q 41.453125 54.15625 38.234375 59.40625 
Q 35.015625 64.65625 28.03125 64.65625 
Q 21.09375 64.65625 17.921875 59.421875 
Q 14.75 54.203125 14.65625 43.359375 
L 14.65625 28.90625 
Q 14.65625 17.390625 18 11.890625 
Q 21.34375 6.390625 28.125 6.390625 
Q 34.8125 6.390625 38.0625 11.5625 
Q 41.3125 16.75 41.453125 27.875 
z
" id="Roboto-Regular-48"/>
      <path d="M 35.59375 0 
L 26.515625 0 
L 26.515625 60.203125 
L 8.296875 53.515625 
L 8.296875 61.71875 
L 34.1875 71.4375 
L 35.59375 71.4375 
z
" id="Roboto-Regular-49"/>
      <path d="M 25.640625 26.515625 
L 1.8125 26.515625 
L 1.8125 33.890625 
L 25.640625 33.890625 
z
" id="Roboto-Regular-45"/>
      <path d="M 41.359375 71.140625 
L 41.359375 63.484375 
L 39.703125 63.484375 
Q 29.15625 63.28125 22.90625 57.21875 
Q 16.65625 51.171875 15.671875 40.1875 
Q 21.296875 46.625 31 46.625 
Q 40.28125 46.625 45.828125 40.078125 
Q 51.375 33.546875 51.375 23.1875 
Q 51.375 12.203125 45.390625 5.609375 
Q 39.40625 -0.984375 29.34375 -0.984375 
Q 19.140625 -0.984375 12.796875 6.859375 
Q 6.453125 14.703125 6.453125 27.046875 
L 6.453125 30.515625 
Q 6.453125 50.140625 14.8125 60.515625 
Q 23.1875 70.90625 39.75 71.140625 
z
M 29.5 39.109375 
Q 24.859375 39.109375 20.953125 36.328125 
Q 17.046875 33.546875 15.53125 29.34375 
L 15.53125 26.03125 
Q 15.53125 17.234375 19.484375 11.859375 
Q 23.4375 6.5 29.34375 6.5 
Q 35.453125 6.5 38.9375 10.984375 
Q 42.4375 15.484375 42.4375 22.75 
Q 42.4375 30.078125 38.890625 34.59375 
Q 35.359375 39.109375 29.5 39.109375 
z
" id="Roboto-Regular-54"/>
      <path d="M 10.0625 35.640625 
L 13.671875 71.09375 
L 50.09375 71.09375 
L 50.09375 62.75 
L 21.34375 62.75 
L 19.1875 43.359375 
Q 24.421875 46.4375 31.0625 46.4375 
Q 40.765625 46.4375 46.484375 40.015625 
Q 52.203125 33.59375 52.203125 22.65625 
Q 52.203125 11.671875 46.265625 5.34375 
Q 40.328125 -0.984375 29.6875 -0.984375 
Q 20.265625 -0.984375 14.296875 4.234375 
Q 8.34375 9.46875 7.515625 18.703125 
L 16.0625 18.703125 
Q 16.890625 12.59375 20.40625 9.484375 
Q 23.921875 6.390625 29.6875 6.390625 
Q 35.984375 6.390625 39.578125 10.6875 
Q 43.171875 14.984375 43.171875 22.5625 
Q 43.171875 29.6875 39.28125 34 
Q 35.40625 38.328125 28.953125 38.328125 
Q 23.046875 38.328125 19.671875 35.75 
L 17.28125 33.796875 
z
" id="Roboto-Regular-53"/>
     </defs>
     <use xlink:href="#Roboto-Regular-32"/>
     <use x="24.755859" xlink:href="#Roboto-Regular-112"/>
     <use x="80.859375" xlink:href="#Roboto-Regular-97"/>
     <use x="135.253906" xlink:href="#Roboto-Regular-110"/>
     <use x="190.429688" xlink:href="#Roboto-Regular-100"/>
     <use x="246.826172" xlink:href="#Roboto-Regular-101"/>
     <use x="299.804688" xlink:href="#Roboto-Regular-109"/>
     <use x="387.451172" xlink:href="#Roboto-Regular-105"/>
     <use x="411.71875" xlink:href="#Roboto-Regular-97"/>
     <use x="466.113281" xlink:href="#Roboto-Regular-32"/>
     <use x="490.869141" xlink:href="#Roboto-Regular-98"/>
     <use x="546.972656" xlink:href="#Roboto-Regular-97"/>
     <use x="601.367188" xlink:href="#Roboto-Regular-106"/>
     <use x="625.244141" xlink:href="#Roboto-Regular-111"/>
     <use x="682.275391" xlink:href="#Roboto-Regular-32"/>
     <use x="707.03125" xlink:href="#Roboto-Regular-99"/>
     <use x="759.375" xlink:href="#Roboto-Regular-111"/>
     <use x="816.40625" xlink:href="#Roboto-Regular-110"/>
     <use x="871.582031" xlink:href="#Roboto-Regular-116"/>
     <use x="904.248047" xlink:href="#Roboto-Regular-114"/>
     <use x="938.085938" xlink:href="#Roboto-Regular-111"/>
     <use x="995.117188" xlink:href="#Roboto-Regular-108"/>
     <use x="1019.384766" xlink:href="#Roboto-Regular-32"/>
     <use x="1044.140625" xlink:href="#Roboto-Regular-124"/>
     <use x="1068.505859" xlink:href="#Roboto-Regular-32"/>
     <use x="1093.261719" xlink:href="#Roboto-Regular-50"/>
     <use x="1149.414062" xlink:href="#Roboto-Regular-48"/>
     <use x="1205.566406" xlink:href="#Roboto-Regular-50"/>
     <use x="1261.71875" xlink:href="#Roboto-Regular-49"/>
     <use x="1317.871094" xlink:href="#Roboto-Regular-45"/>
     <use x="1345.458984" xlink:href="#Roboto-Regular-48"/>
     <use x="1401.611328" xlink:href="#Roboto-Regular-54"/>
     <use x="1457.763672" xlink:href="#Roboto-Regular-45"/>
     <use x="1485.351562" xlink:href="#Roboto-Regular-50"/>
     <use x="1541.503906" xlink:href="#Roboto-Regular-53"/>
    </g>
   </g>
  </g>
 </g>
 <defs>
  <clipPath id="pa93a56456c">
   <rect height="217.44" width="334.8" x="34.046875" y="35.4375"/>
  </clipPath>
 </defs>
</svg>
